<svg width="71" height="92" viewBox="0 0 71 92" fill="none" xmlns="http://www.w3.org/2000/svg">
<path d="M14 0.5L0 10.5H12H14V0.5Z" fill="#8D9716"/>
<path fill-rule="evenodd" clip-rule="evenodd" d="M16 0C13.7909 0 12 1.79086 12 4V90.2474C12 91.0152 12.8295 91.4966 13.4961 91.1157L42.3676 74.6177L69.4817 91.0504C70.1481 91.4543 71 90.9745 71 90.1952V4C71 1.79086 69.2091 0 67 0H16ZM60.2571 38.5403L54.0448 46.6268L54.3224 56.8304C54.3315 57.1129 54.2715 57.3934 54.1475 57.6474C54.0235 57.9015 53.8393 58.1214 53.611 58.288C53.3132 58.5036 52.9547 58.619 52.5871 58.6177C52.3859 58.6175 52.1863 58.5822 51.9971 58.5136L42.3836 55.043L32.7701 58.5136C32.5032 58.611 32.2164 58.6413 31.935 58.602C31.6537 58.5627 31.3862 58.4548 31.1563 58.288C30.9279 58.1214 30.7437 57.9015 30.6197 57.6474C30.4957 57.3934 30.4357 57.1129 30.4448 56.8304L30.7224 46.6268L24.5101 38.5403C24.3374 38.3169 24.2218 38.0547 24.1735 37.7765C24.1251 37.4983 24.1453 37.2125 24.2324 36.9439C24.3199 36.6755 24.4715 36.4325 24.6741 36.2359C24.8767 36.0394 25.1242 35.8952 25.3951 35.8159L35.1821 32.9701L40.9433 24.5539C41.102 24.3177 41.3164 24.1241 41.5676 23.9903C41.8188 23.8565 42.099 23.7865 42.3836 23.7865C42.6682 23.7865 42.9484 23.8565 43.1996 23.9903C43.4508 24.1241 43.6652 24.3177 43.8239 24.5539L49.5851 32.9701L59.3721 35.8506C59.6431 35.9299 59.8905 36.0741 60.0931 36.2706C60.2957 36.4672 60.4473 36.7102 60.5348 36.9786C60.616 37.2422 60.6331 37.5214 60.5848 37.7931C60.5366 38.0647 60.4242 38.3208 60.2571 38.5403Z" fill="#E8F550"/>
<path d="M46.5584 36.9284L42.3697 30.5L38.1811 36.9284C37.9818 37.2411 37.6858 37.4716 37.3433 37.581L30.2227 39.7836L34.7526 45.9673C34.9638 46.263 35.0732 46.6255 35.0629 46.9952L34.8612 54.7941L41.8578 52.1836C42.1878 52.0534 42.5516 52.0534 42.8817 52.1836L49.8782 54.7941L49.6766 46.9952C49.6662 46.6255 49.7756 46.263 49.9868 45.9673L54.5168 39.7836L47.3961 37.581C47.0536 37.4716 46.7577 37.2411 46.5584 36.9284Z" fill="#E8F550"/>
</svg>
