<svg width="33" height="33" viewBox="0 0 33 33" fill="none" xmlns="http://www.w3.org/2000/svg">
<path d="M11.3438 21.6562H3.09375C2.52397 21.6562 2.0625 21.1948 2.0625 20.625V12.375C2.0625 11.8052 2.52397 11.3438 3.09375 11.3438H11.3438C11.9135 11.3438 12.375 11.8052 12.375 12.375V20.625C12.375 21.1948 11.9135 21.6562 11.3438 21.6562ZM4.125 19.5938H10.3125V13.4062H4.125V19.5938Z" fill="black"/>
<path d="M29.9062 28.875H21.6562C21.0865 28.875 20.625 28.4135 20.625 27.8438V19.5938C20.625 19.024 21.0865 18.5625 21.6562 18.5625H29.9062C30.476 18.5625 30.9375 19.024 30.9375 19.5938V27.8438C30.9375 28.4135 30.476 28.875 29.9062 28.875ZM22.6875 26.8125H28.875V20.625H22.6875V26.8125Z" fill="black"/>
<path d="M29.9062 12.375H21.6562C21.0865 12.375 20.625 11.9135 20.625 11.3438V3.09375C20.625 2.52397 21.0865 2.0625 21.6562 2.0625H29.9062C30.476 2.0625 30.9375 2.52397 30.9375 3.09375V11.3438C30.9375 11.9135 30.476 12.375 29.9062 12.375ZM22.6875 10.3125H28.875V4.125H22.6875V10.3125Z" fill="black"/>
<path d="M16.5 33C15.9302 33 15.4688 32.5385 15.4688 31.9688V1.03125C15.4688 0.461472 15.9302 0 16.5 0C17.0698 0 17.5312 0.461472 17.5312 1.03125V31.9688C17.5312 32.5385 17.0698 33 16.5 33Z" fill="black"/>
<path d="M16.5 17.5312H11.3438C10.774 17.5312 10.3125 17.0698 10.3125 16.5C10.3125 15.9302 10.774 15.4688 11.3438 15.4688H16.5C17.0698 15.4688 17.5313 15.9302 17.5313 16.5C17.5313 17.0698 17.0698 17.5312 16.5 17.5312Z" fill="black"/>
<path d="M21.6563 8.25H16.5C15.9302 8.25 15.4688 7.78853 15.4688 7.21875C15.4688 6.64897 15.9302 6.1875 16.5 6.1875H21.6563C22.226 6.1875 22.6875 6.64897 22.6875 7.21875C22.6875 7.78853 22.226 8.25 21.6563 8.25Z" fill="black"/>
<path d="M21.6563 24.75H16.5C15.9302 24.75 15.4688 24.2885 15.4688 23.7188C15.4688 23.149 15.9302 22.6875 16.5 22.6875H21.6563C22.226 22.6875 22.6875 23.149 22.6875 23.7188C22.6875 24.2885 22.226 24.75 21.6563 24.75Z" fill="black"/>
</svg>
