<svg width="19" height="19" viewBox="0 0 19 19" fill="none" xmlns="http://www.w3.org/2000/svg">
<g clip-path="url(#clip0_238_2431)">
<path d="M6.68753 12.3124H2.1875C1.87671 12.3124 1.625 12.0608 1.625 11.75V7.24997C1.625 6.93917 1.87671 6.6875 2.1875 6.6875H6.68753C6.99827 6.6875 7.25 6.93917 7.25 7.24997V11.75C7.25 12.0608 6.99827 12.3124 6.68753 12.3124ZM2.75 11.1875H6.125V7.81245H2.75V11.1875Z" fill="white"/>
<path d="M16.8125 16.25H12.3125C12.0017 16.25 11.75 15.9983 11.75 15.6875V11.1875C11.75 10.8767 12.0017 10.625 12.3125 10.625H16.8125C17.1233 10.625 17.375 10.8767 17.375 11.1875V15.6875C17.375 15.9983 17.1233 16.25 16.8125 16.25ZM12.875 15.125H16.25V11.75H12.875V15.125Z" fill="white"/>
<path d="M16.8125 7.25H12.3125C12.0017 7.25 11.75 6.99827 11.75 6.68753V2.1875C11.75 1.87671 12.0017 1.625 12.3125 1.625H16.8125C17.1233 1.625 17.375 1.87671 17.375 2.1875V6.68753C17.375 6.99827 17.1233 7.25 16.8125 7.25ZM12.875 6.125H16.25V2.75H12.875V6.125Z" fill="white"/>
<path d="M9.49997 18.5C9.18917 18.5 8.9375 18.2483 8.9375 17.9375V1.0625C8.9375 0.751712 9.18917 0.5 9.49997 0.5C9.81077 0.5 10.0624 0.751712 10.0624 1.0625V17.9375C10.0624 18.2483 9.81077 18.5 9.49997 18.5Z" fill="white"/>
<path d="M9.5 10.0624H6.68753C6.37673 10.0624 6.125 9.81077 6.125 9.49997C6.125 9.18917 6.37673 8.9375 6.68753 8.9375H9.5C9.8108 8.9375 10.0625 9.18917 10.0625 9.49997C10.0625 9.81077 9.8108 10.0624 9.5 10.0624Z" fill="white"/>
<path d="M12.3125 5H9.49997C9.18917 5 8.9375 4.74829 8.9375 4.4375C8.9375 4.12671 9.18917 3.875 9.49997 3.875H12.3125C12.6232 3.875 12.875 4.12671 12.875 4.4375C12.875 4.74829 12.6232 5 12.3125 5Z" fill="white"/>
<path d="M12.3125 14H9.49997C9.18917 14 8.9375 13.7483 8.9375 13.4375C8.9375 13.1267 9.18917 12.875 9.49997 12.875H12.3125C12.6232 12.875 12.875 13.1267 12.875 13.4375C12.875 13.7483 12.6232 14 12.3125 14Z" fill="white"/>
</g>
<defs>
<clipPath id="clip0_238_2431">
<rect width="18" height="18" fill="white" transform="translate(0.5 0.5)"/>
</clipPath>
</defs>
</svg>