<svg width="10" height="8" viewBox="0 0 10 8" fill="none" xmlns="http://www.w3.org/2000/svg">
<path d="M7.25 4C7.94 4 8.495 3.44 8.495 2.75C8.495 2.06 7.94 1.5 7.25 1.5C6.56 1.5 6 2.06 6 2.75C6 3.44 6.56 4 7.25 4ZM3.5 3.5C4.33 3.5 4.995 2.83 4.995 2C4.995 1.17 4.33 0.5 3.5 0.5C2.67 0.5 2 1.17 2 2C2 2.83 2.67 3.5 3.5 3.5ZM7.25 5C6.335 5 4.5 5.46 4.5 6.375V7.5H10V6.375C10 5.46 8.165 5 7.25 5ZM3.5 4.5C2.335 4.5 0 5.085 0 6.25V7.5H3.5V6.375C3.5 5.95 3.665 5.205 4.685 4.64C4.25 4.55 3.83 4.5 3.5 4.5Z" fill="#545454"/>
</svg>
