<svg width="28" height="28" viewBox="0 0 28 28" fill="none" xmlns="http://www.w3.org/2000/svg">
<g clip-path="url(#clip0)">
<path d="M27.2782 8.81129C26.319 7.85207 24.7571 7.85207 23.7978 8.81129C23.5025 9.10661 21.618 10.9933 21.3303 11.281L21.3292 4.78078C21.3292 4.12342 21.0733 3.50546 20.6084 3.04063L18.2886 0.720776C17.8237 0.25592 17.2058 0 16.5484 0H2.46192C1.10457 0 0.000976562 1.10359 0.000976562 2.46095V25.5391C0.000976562 26.8965 1.10457 28.0001 2.46192 28.0001H18.8682C20.2256 28.0001 21.3292 26.8965 21.3292 25.5391V18.246L27.2781 12.2915C28.2395 11.3301 28.2395 9.77365 27.2781 8.81107L27.2782 8.81129ZM16.4075 1.64077C16.5628 1.64077 16.8614 1.61343 17.1283 1.8814L19.4481 4.20125C19.7084 4.46157 19.6887 4.74703 19.6887 4.92203H16.4074L16.4075 1.64077ZM19.6888 25.5393C19.6888 25.9922 19.3213 26.3597 18.8685 26.3597H2.46218C2.00936 26.3597 1.64186 25.9922 1.64186 25.5393V2.46117C1.64186 2.00836 2.00936 1.64086 2.46218 1.64086H14.7668V5.7423C14.7668 6.19511 15.1343 6.56261 15.5871 6.56261H19.6885V12.9239L17.2681 15.3466L16.1087 16.5059C16.019 16.5956 15.9512 16.7061 15.9107 16.8264L14.7503 20.3068C14.6518 20.6021 14.7284 20.927 14.9482 21.1468C15.1681 21.3667 15.4929 21.4432 15.7882 21.3448L19.2686 20.1843C19.389 20.1438 19.4994 20.076 19.5891 19.9863L19.6886 19.8868L19.6888 25.5393ZM17.8491 17.0859L19.0096 18.2463L18.5666 18.6893L16.8265 19.269L17.4062 17.5288L17.8491 17.0859ZM20.169 17.0859L19.0085 15.9254C19.6265 15.3074 22.3696 12.5609 22.9515 11.9791L24.1119 13.1395L20.169 17.0859ZM26.1179 11.1325L25.2724 11.979L24.1119 10.8186L24.9574 9.97203C25.2779 9.65267 25.7974 9.65267 26.1179 9.97203C26.4372 10.2925 26.4394 10.8109 26.1179 11.1325Z" fill="#333333"/>
<path d="M15.587 8.20312H4.10254C3.64973 8.20312 3.28223 8.57062 3.28223 9.02344C3.28223 9.47626 3.64973 9.84376 4.10254 9.84376H15.587C16.0398 9.84376 16.4073 9.47626 16.4073 9.02344C16.4073 8.57062 16.0398 8.20312 15.587 8.20312Z" fill="#333333"/>
<path d="M12.3057 11.4844H4.10254C3.64973 11.4844 3.28223 11.8519 3.28223 12.3047C3.28223 12.7575 3.64973 13.125 4.10254 13.125H12.3057C12.7585 13.125 13.126 12.7575 13.126 12.3047C13.126 11.8519 12.7585 11.4844 12.3057 11.4844Z" fill="#333333"/>
<path d="M12.3057 14.7656H4.10254C3.64973 14.7656 3.28223 15.1331 3.28223 15.5859C3.28223 16.0388 3.64973 16.4063 4.10254 16.4063H12.3057C12.7585 16.4063 13.126 16.0388 13.126 15.5859C13.126 15.1331 12.7585 14.7656 12.3057 14.7656Z" fill="#333333"/>
<path d="M12.3057 18.0469H4.10254C3.64973 18.0469 3.28223 18.4144 3.28223 18.8672C3.28223 19.32 3.64973 19.6875 4.10254 19.6875H12.3057C12.7585 19.6875 13.126 19.32 13.126 18.8672C13.126 18.4144 12.7585 18.0469 12.3057 18.0469Z" fill="#333333"/>
<path d="M15.5874 23.0781H10.6655C10.2127 23.0781 9.84521 23.4456 9.84521 23.8984C9.84521 24.3513 10.2127 24.7188 10.6655 24.7188H15.5874C16.0402 24.7188 16.4077 24.3513 16.4077 23.8984C16.4077 23.4456 16.0402 23.0781 15.5874 23.0781Z" fill="#333333"/>
</g>
<defs>
<clipPath id="clip0">
<rect width="28" height="28" fill="white"/>
</clipPath>
</defs>
</svg>
