<svg width="25" height="22" viewBox="0 0 25 22" fill="none" xmlns="http://www.w3.org/2000/svg">
<path d="M12.0733 0.329102C9.96419 0.329102 8.29728 1.67729 7.17476 3.54498C7.06129 3.73527 6.85118 3.84698 6.63021 3.8309C6.6061 3.82914 6.582 3.82746 6.55791 3.82584C5.89572 3.7802 5.25277 3.77405 4.64385 3.8118C2.81711 3.92502 1.29894 4.43673 0.50734 5.49703C-0.547195 6.91106 0.13996 8.69808 1.66847 10.3842C1.66961 10.3855 1.67075 10.3867 1.67189 10.388C1.81477 10.5442 1.80995 10.7814 1.66847 10.9389C0.13996 12.6251 -0.547195 14.4191 0.50734 15.8331C1.56187 17.2471 3.90799 17.686 6.55797 17.5043C6.58593 17.5024 6.61389 17.5007 6.64187 17.4991C6.85547 17.487 7.06538 17.5943 7.17482 17.7781C8.29739 19.6459 9.96425 21.0012 12.0733 21.0012C14.1824 21.0012 15.8493 19.646 16.9718 17.7781C17.0813 17.5943 17.2912 17.487 17.5048 17.4991C17.5327 17.5007 17.5607 17.5024 17.5887 17.5043C20.2386 17.686 22.5847 17.2471 23.6393 15.8331C24.6939 14.4191 24.0067 12.6251 22.4782 10.9389C22.3367 10.7814 22.3319 10.5442 22.4747 10.388C22.4759 10.3867 22.477 10.3855 22.4782 10.3842C24.0067 8.6981 24.6938 6.91106 23.6393 5.49703C22.8478 4.43673 21.3295 3.92502 19.5028 3.8118C18.8939 3.77405 18.2509 3.7802 17.5887 3.82584C17.5646 3.82746 17.5405 3.82914 17.5164 3.8309C17.2955 3.84698 17.0853 3.73527 16.9719 3.54498C15.8493 1.67718 14.1824 0.329102 12.0734 0.329102H12.0733ZM-nan -nanL12.0733 1.67729C12.5975 1.67729 13.1542 1.86186 13.6995 2.23235C14.7119 2.92018 14.0889 4.34373 12.9101 4.6732C12.8242 4.69722 12.7381 4.72172 12.6519 4.74671C12.274 4.85628 11.8725 4.85629 11.4946 4.74672C11.4084 4.72173 11.3223 4.69722 11.2364 4.67321C10.0576 4.34375 9.43459 2.92018 10.447 2.23235C10.9923 1.86185 11.549 1.67729 12.0733 1.67729L-nan -nanZM5.18807 5.13904C5.18807 5.13901 5.1881 5.13899 5.18813 5.13899C5.34841 5.1348 5.51467 5.13408 5.68635 5.13697C6.03258 5.14279 6.25573 5.4961 6.14534 5.82432C6.00463 6.24269 5.88108 6.67746 5.77771 7.12716C5.6809 7.54836 5.42796 7.91912 5.06457 8.15309C4.97305 8.21201 4.88255 8.2712 4.7931 8.33063C3.8022 8.98892 2.3411 8.94127 1.92052 7.82846C1.66428 7.15045 1.70631 6.58275 2.01312 6.17129C2.42474 5.61921 3.39422 5.24003 4.82522 5.15314C4.94426 5.14612 5.0633 5.14261 5.18801 5.1391C5.18805 5.1391 5.18807 5.13907 5.18807 5.13904ZM18.5683 5.13893C18.5683 5.13896 18.5683 5.13899 18.5684 5.13899C18.8314 5.13635 19.0831 5.13811 19.3212 5.15303C20.7522 5.23993 21.7217 5.6191 22.1333 6.17118C22.4401 6.5826 22.4822 7.15029 22.2259 7.8283C21.8054 8.94114 20.3442 8.98878 19.3533 8.33049C19.264 8.27112 19.1735 8.21198 19.0821 8.15311C18.7186 7.91906 18.4655 7.54816 18.3687 7.1268C18.2469 6.59727 18.0972 6.0884 17.9244 5.60259C17.8473 5.38561 17.9955 5.15136 18.2257 5.14475C18.3421 5.1414 18.4561 5.13964 18.5683 5.13887C18.5683 5.13887 18.5683 5.1389 18.5683 5.13893ZM8.00134 5.69825C8.07335 5.50465 8.27143 5.40115 8.47459 5.43848C8.53967 5.45044 8.60504 5.46277 8.67069 5.47546C9.03321 5.54557 9.072 6.03441 8.73496 6.18523C8.69094 6.2049 8.64706 6.2247 8.60331 6.24461C8.24549 6.40751 7.86429 6.06674 8.00134 5.69825ZM15.6719 5.43847C15.8751 5.40114 16.0732 5.50464 16.1452 5.69823C16.2822 6.06673 15.901 6.40751 15.5432 6.24461C15.4994 6.2247 15.4556 6.2049 15.4116 6.18523C15.0745 6.03441 15.1133 5.54556 15.4758 5.47546C15.5415 5.46276 15.6069 5.45043 15.6719 5.43847ZM-nan -nanL12.0733 6.38887C12.8885 6.66624 13.7174 6.98308 14.5407 7.35085C14.6772 7.41189 14.8122 7.47368 14.9458 7.53615C16.1735 8.11027 17.0081 9.30983 17.0081 10.6651C17.0081 12.016 16.1759 13.2121 14.9523 13.7843C14.8166 13.8477 14.6794 13.9104 14.5407 13.9724C12.9722 14.6731 11.1743 14.6731 9.60586 13.9724C9.46707 13.9104 9.32988 13.8477 9.19426 13.7843C7.97059 13.2122 7.13846 12.016 7.13846 10.6651C7.13846 9.30984 7.97303 8.11029 9.20072 7.53616C9.33431 7.47369 9.46935 7.41189 9.60586 7.35085C10.4291 6.98308 11.258 6.66621 12.0733 6.38887L-nan -nanZM4.65594 10.2783C4.96 10.0413 5.39686 10.2796 5.39686 10.6651C5.39686 11.0486 4.9631 11.2862 4.65938 11.0521C4.64585 11.0416 4.63238 11.0312 4.61894 11.0208C4.3848 10.839 4.38464 10.491 4.61785 10.3081C4.63051 10.2981 4.64321 10.2882 4.65594 10.2783ZM18.7497 10.6651C18.7497 10.2796 19.1865 10.0412 19.4906 10.2783C19.5032 10.2881 19.5158 10.2979 19.5283 10.3078C19.7616 10.4908 19.7612 10.839 19.527 11.0208C19.5137 11.0312 19.5004 11.0415 19.487 11.0518C19.1833 11.286 18.7497 11.0486 18.7497 10.6651ZM3.08358 11.7255C3.08357 11.7255 3.08361 11.7255 3.08364 11.7255C3.74991 12.2806 4.50952 12.8273 5.35263 13.3527C5.53549 13.4667 5.66227 13.6519 5.70487 13.8631C5.72739 13.9748 5.75109 14.0856 5.77596 14.1957C5.99971 15.1857 5.33471 16.2433 4.32642 16.1267C3.16558 15.9925 2.37558 15.6451 2.01318 15.1592C1.46664 14.4254 1.76031 13.1913 3.08357 11.7256C3.08358 11.7256 3.08359 11.7256 3.08358 11.7255ZM21.063 11.7254C21.063 11.7254 21.063 11.7254 21.063 11.7254C22.3863 13.1912 22.6799 14.4254 22.1334 15.159C21.771 15.6449 20.981 15.9923 19.8202 16.1265C18.8119 16.2431 18.1469 15.1855 18.3706 14.1955C18.3954 14.0857 18.4191 13.9751 18.4416 13.8637C18.4843 13.652 18.6113 13.4664 18.7946 13.3521C19.6375 12.8268 20.3969 12.2803 21.0629 11.7253C21.063 11.7253 21.063 11.7253 21.063 11.7254ZM7.68277 14.6465C7.68277 14.6465 7.68277 14.6465 7.68277 14.6465C8.02521 14.815 8.37557 14.9774 8.73502 15.138C9.0704 15.2882 9.02808 15.7844 8.66738 15.8547C8.6024 15.8673 8.5377 15.8796 8.4733 15.8916C8.27104 15.929 8.07066 15.8182 7.9991 15.6254C7.88287 15.3122 7.77819 14.9834 7.68278 14.6465C7.68278 14.6465 7.68278 14.6465 7.68277 14.6465ZM16.4638 14.6465C16.4638 14.6465 16.4638 14.6465 16.4638 14.6465C16.3683 14.9834 16.2637 15.3121 16.1474 15.6254C16.0759 15.8182 15.8755 15.929 15.6732 15.8916C15.6088 15.8796 15.5441 15.8673 15.4792 15.8547C15.1185 15.7844 15.0761 15.2882 15.4115 15.138C15.771 14.9774 16.1213 14.815 16.4638 14.6465C16.4638 14.6465 16.4638 14.6465 16.4638 14.6465ZM11.4723 16.5902C11.8512 16.4807 12.2954 16.4807 12.6742 16.5902C13.9739 16.966 14.6415 18.5578 13.473 19.2397C13.0007 19.5152 12.5246 19.6529 12.0733 19.6529C11.6219 19.6529 11.1458 19.5152 10.6736 19.2396C9.50507 18.5578 10.1726 16.966 11.4723 16.5902Z" fill="#333333"/>
</svg>
