<svg width="42" height="30" viewBox="0 0 42 30" fill="none" xmlns="http://www.w3.org/2000/svg">
<path d="M41.117 4.69355C40.6398 2.85484 39.208 1.40323 37.3943 0.895161C34.125 0 21 0 21 0C21 0 7.875 0 4.58182 0.895161C2.76818 1.37903 1.36023 2.83065 0.859091 4.69355C0 8.03226 0 15 0 15C0 15 0 21.9677 0.882955 25.3064C1.36023 27.1452 2.79205 28.5968 4.60568 29.1048C7.875 30 21 30 21 30C21 30 34.125 30 37.4182 29.1048C39.2318 28.621 40.6398 27.1694 41.1409 25.3064C42 21.9677 42 15 42 15C42 15 42 8.03226 41.117 4.69355ZM16.7045 21.3387V8.66129L27.6818 15L16.7045 21.3387Z" fill="white"/>
</svg>
