<svg width="34" height="26" viewBox="0 0 34 26" fill="none" xmlns="http://www.w3.org/2000/svg">
<path d="M2.95994 0.400391C1.58323 0.400391 0.439941 1.54368 0.439941 2.92039V23.0804C0.439941 24.4571 1.58323 25.6004 2.95994 25.6004H31.0399C32.4167 25.6004 33.5599 24.4571 33.5599 23.0804V2.92039C33.5599 1.54368 32.4167 0.400391 31.0399 0.400391H2.95994ZM2.95994 2.56039H31.0399C31.2579 2.56039 31.3999 2.70242 31.3999 2.92039V17.2304L25.9549 12.8766C25.5992 12.5883 25.0521 12.5644 24.6724 12.8203L19.5648 16.3303L12.6348 10.7165C12.414 10.5365 12.1201 10.4493 11.836 10.4802C11.6588 10.5013 11.4872 10.5674 11.341 10.6715L2.59983 16.7015V2.9203C2.59983 2.70233 2.74186 2.5603 2.95983 2.5603L2.95994 2.56039ZM19.5199 5.44039C17.7438 5.44039 16.2799 6.90429 16.2799 8.68039C16.2799 10.4565 17.7438 11.9204 19.5199 11.9204C21.296 11.9204 22.7599 10.4565 22.7599 8.68039C22.7599 6.90429 21.296 5.44039 19.5199 5.44039ZM19.5199 7.60039C20.1288 7.60039 20.5999 8.07149 20.5999 8.68039C20.5999 9.2893 20.1288 9.76039 19.5199 9.76039C18.911 9.76039 18.4399 9.2893 18.4399 8.68039C18.4399 8.07149 18.911 7.60039 19.5199 7.60039ZM11.9149 12.9104L18.8449 18.5127C19.2007 18.801 19.7477 18.8249 20.1274 18.569L25.2236 15.059L31.3998 19.9978V23.0803C31.3998 23.2983 31.2577 23.4403 31.0398 23.4403H2.95976C2.74179 23.4403 2.59976 23.2983 2.59976 23.0803V19.3341L11.9149 12.9104Z" fill="#333333"/>
</svg>
