<svg width="107" height="143" viewBox="0 0 107 143" fill="none" xmlns="http://www.w3.org/2000/svg">
<path d="M18 17H0L18 0V17Z" fill="#A03952"/>
<path d="M63.3685 116.35L15.582 142.32V3C15.582 1.34315 16.9252 0 18.582 0H104C105.656 0 107 1.34314 107 3V142.32L63.3685 116.35Z" fill="#EC4A70"/>
<path d="M54.7213 81V70.504H56.0493V75.768H56.0973L60.4653 70.504H61.9693L58.6893 74.504L62.4813 81H60.9933L57.8573 75.544L56.0493 77.672V81H54.7213ZM63.9869 81V70.504H65.3149V81H63.9869ZM67.406 77.496V76.488H71.086V77.496H67.406ZM36.0141 104.584C35.0648 104.584 34.2915 104.403 33.6941 104.04C33.0968 103.677 32.7981 103.16 32.7981 102.488C32.7981 102.157 32.8995 101.837 33.1021 101.528C33.3048 101.229 33.5821 100.963 33.9341 100.728V100.664C33.7421 100.547 33.5768 100.381 33.4381 100.168C33.3101 99.9547 33.2461 99.6987 33.2461 99.4C33.2461 99.0693 33.3368 98.7813 33.5181 98.536C33.6995 98.2907 33.8915 98.0987 34.0941 97.96V97.896C33.8381 97.6827 33.6035 97.3947 33.3901 97.032C33.1875 96.6693 33.0861 96.2587 33.0861 95.8C33.0861 95.2347 33.2195 94.744 33.4861 94.328C33.7528 93.912 34.1101 93.592 34.5581 93.368C35.0061 93.144 35.4915 93.032 36.0141 93.032C36.2275 93.032 36.4301 93.0533 36.6221 93.096C36.8141 93.128 36.9795 93.1707 37.1181 93.224H39.8221V94.232H38.2221C38.4035 94.4027 38.5528 94.632 38.6701 94.92C38.7981 95.1973 38.8621 95.5013 38.8621 95.832C38.8621 96.3867 38.7341 96.8667 38.4781 97.272C38.2221 97.6773 37.8808 97.992 37.4541 98.216C37.0275 98.4293 36.5475 98.536 36.0141 98.536C35.5981 98.536 35.2088 98.4453 34.8461 98.264C34.7075 98.3813 34.5901 98.5147 34.4941 98.664C34.3981 98.8027 34.3501 98.9787 34.3501 99.192C34.3501 99.4373 34.4461 99.64 34.6381 99.8C34.8408 99.96 35.2035 100.04 35.7261 100.04H37.2301C38.1368 100.04 38.8141 100.189 39.2621 100.488C39.7208 100.776 39.9501 101.245 39.9501 101.896C39.9501 102.376 39.7901 102.819 39.4701 103.224C39.1501 103.629 38.6968 103.955 38.1101 104.2C37.5235 104.456 36.8248 104.584 36.0141 104.584ZM36.0141 97.656C36.4621 97.656 36.8461 97.4907 37.1661 97.16C37.4968 96.8187 37.6621 96.3653 37.6621 95.8C37.6621 95.2347 37.5021 94.792 37.1821 94.472C36.8621 94.152 36.4728 93.992 36.0141 93.992C35.5555 93.992 35.1661 94.152 34.8461 94.472C34.5261 94.792 34.3661 95.2347 34.3661 95.8C34.3661 96.3653 34.5261 96.8187 34.8461 97.16C35.1768 97.4907 35.5661 97.656 36.0141 97.656ZM36.2061 103.672C36.9528 103.672 37.5501 103.507 37.9981 103.176C38.4461 102.856 38.6701 102.493 38.6701 102.088C38.6701 101.725 38.5315 101.475 38.2541 101.336C37.9875 101.197 37.6035 101.128 37.1021 101.128H35.7581C35.6088 101.128 35.4435 101.117 35.2621 101.096C35.0915 101.075 34.9208 101.043 34.7501 101C34.4728 101.203 34.2701 101.416 34.1421 101.64C34.0141 101.864 33.9501 102.088 33.9501 102.312C33.9501 102.728 34.1475 103.059 34.5421 103.304C34.9475 103.549 35.5021 103.672 36.2061 103.672ZM44.3859 101.192C43.6925 101.192 43.0632 101.032 42.4979 100.712C41.9325 100.381 41.4845 99.912 41.1539 99.304C40.8232 98.696 40.6579 97.9707 40.6579 97.128C40.6579 96.2747 40.8232 95.544 41.1539 94.936C41.4952 94.328 41.9325 93.8587 42.4659 93.528C42.9992 93.1973 43.5592 93.032 44.1459 93.032C45.1379 93.032 45.9005 93.3627 46.4339 94.024C46.9779 94.6853 47.2499 95.5707 47.2499 96.68C47.2499 96.8187 47.2445 96.9573 47.2339 97.096C47.2339 97.224 47.2232 97.336 47.2019 97.432H41.9539C42.0072 98.2533 42.2632 98.9093 42.7219 99.4C43.1912 99.8907 43.7992 100.136 44.5459 100.136C44.9192 100.136 45.2605 100.083 45.5699 99.976C45.8899 99.8587 46.1939 99.7093 46.4819 99.528L46.9459 100.392C46.6152 100.605 46.2365 100.792 45.8099 100.952C45.3939 101.112 44.9192 101.192 44.3859 101.192ZM41.9379 96.488H46.0979C46.0979 95.6987 45.9272 95.1013 45.5859 94.696C45.2552 94.28 44.7859 94.072 44.1779 94.072C43.6339 94.072 43.1432 94.2853 42.7059 94.712C42.2792 95.128 42.0232 95.72 41.9379 96.488ZM49.1714 101V93.224H50.2594L50.3714 94.344H50.4194C50.7927 93.9707 51.1874 93.6613 51.6034 93.416C52.0194 93.16 52.494 93.032 53.0274 93.032C53.8487 93.032 54.446 93.2933 54.8194 93.816C55.2034 94.328 55.3954 95.08 55.3954 96.072V101H54.0834V96.248C54.0834 95.5227 53.966 94.9947 53.7314 94.664C53.4967 94.3333 53.1234 94.168 52.6114 94.168C52.2167 94.168 51.8594 94.2693 51.5394 94.472C51.23 94.6747 50.878 94.9733 50.4834 95.368V101H49.1714ZM61.0734 101.192C60.38 101.192 59.7507 101.032 59.1854 100.712C58.62 100.381 58.172 99.912 57.8414 99.304C57.5107 98.696 57.3454 97.9707 57.3454 97.128C57.3454 96.2747 57.5107 95.544 57.8414 94.936C58.1827 94.328 58.62 93.8587 59.1534 93.528C59.6867 93.1973 60.2467 93.032 60.8334 93.032C61.8254 93.032 62.588 93.3627 63.1214 94.024C63.6654 94.6853 63.9374 95.5707 63.9374 96.68C63.9374 96.8187 63.932 96.9573 63.9214 97.096C63.9214 97.224 63.9107 97.336 63.8894 97.432H58.6414C58.6947 98.2533 58.9507 98.9093 59.4094 99.4C59.8787 99.8907 60.4867 100.136 61.2334 100.136C61.6067 100.136 61.948 100.083 62.2574 99.976C62.5774 99.8587 62.8814 99.7093 63.1694 99.528L63.6334 100.392C63.3027 100.605 62.924 100.792 62.4974 100.952C62.0814 101.112 61.6067 101.192 61.0734 101.192ZM58.6254 96.488H62.7854C62.7854 95.6987 62.6147 95.1013 62.2734 94.696C61.9427 94.28 61.4734 94.072 60.8654 94.072C60.3214 94.072 59.8307 94.2853 59.3934 94.712C58.9667 95.128 58.7107 95.72 58.6254 96.488ZM65.8589 101V93.224H66.9469L67.0589 94.632H67.1069C67.3735 94.1413 67.6989 93.752 68.0829 93.464C68.4669 93.176 68.8775 93.032 69.3149 93.032C69.6242 93.032 69.9015 93.0853 70.1469 93.192L69.8909 94.344C69.7629 94.3013 69.6455 94.2693 69.5389 94.248C69.4322 94.2267 69.2989 94.216 69.1389 94.216C68.8082 94.216 68.4615 94.3493 68.0989 94.616C67.7469 94.8827 67.4375 95.3467 67.1709 96.008V101H65.8589ZM71.4058 101V93.224H72.7178V101H71.4058ZM72.0778 91.624C71.8218 91.624 71.6084 91.5493 71.4378 91.4C71.2778 91.24 71.1978 91.0267 71.1978 90.76C71.1978 90.504 71.2778 90.296 71.4378 90.136C71.6084 89.976 71.8218 89.896 72.0778 89.896C72.3338 89.896 72.5418 89.976 72.7018 90.136C72.8724 90.296 72.9578 90.504 72.9578 90.76C72.9578 91.0267 72.8724 91.24 72.7018 91.4C72.5418 91.5493 72.3338 91.624 72.0778 91.624ZM78.4953 101.192C77.8019 101.192 77.1726 101.032 76.6073 100.712C76.0419 100.381 75.5939 99.912 75.2633 99.304C74.9326 98.696 74.7673 97.9707 74.7673 97.128C74.7673 96.2747 74.9326 95.544 75.2633 94.936C75.6046 94.328 76.0419 93.8587 76.5753 93.528C77.1086 93.1973 77.6686 93.032 78.2552 93.032C79.2473 93.032 80.0099 93.3627 80.5433 94.024C81.0873 94.6853 81.3593 95.5707 81.3593 96.68C81.3593 96.8187 81.3539 96.9573 81.3433 97.096C81.3433 97.224 81.3326 97.336 81.3113 97.432H76.0633C76.1166 98.2533 76.3726 98.9093 76.8313 99.4C77.3006 99.8907 77.9086 100.136 78.6553 100.136C79.0286 100.136 79.3699 100.083 79.6793 99.976C79.9993 99.8587 80.3033 99.7093 80.5913 99.528L81.0553 100.392C80.7246 100.605 80.3459 100.792 79.9193 100.952C79.5033 101.112 79.0286 101.192 78.4953 101.192ZM76.0473 96.488H80.2073C80.2073 95.6987 80.0366 95.1013 79.6953 94.696C79.3646 94.28 78.8953 94.072 78.2873 94.072C77.7433 94.072 77.2526 94.2853 76.8153 94.712C76.3886 95.128 76.1326 95.72 76.0473 96.488ZM83.2808 101V93.224H84.3688L84.4808 94.632H84.5288C84.7954 94.1413 85.1208 93.752 85.5048 93.464C85.8888 93.176 86.2994 93.032 86.7368 93.032C87.0461 93.032 87.3234 93.0853 87.5688 93.192L87.3128 94.344C87.1848 94.3013 87.0674 94.2693 86.9608 94.248C86.8541 94.2267 86.7208 94.216 86.5608 94.216C86.2301 94.216 85.8834 94.3493 85.5208 94.616C85.1688 94.8827 84.8594 95.3467 84.5928 96.008V101H83.2808ZM91.2756 101.192C90.4436 101.192 89.8623 100.952 89.5316 100.472C89.2116 99.992 89.0516 99.368 89.0516 98.6V94.296H87.8996V93.304L89.1156 93.224L89.2756 91.048H90.3796V93.224H92.4756V94.296H90.3796V98.616C90.3796 99.096 90.465 99.4693 90.6356 99.736C90.817 99.992 91.1316 100.12 91.5796 100.12C91.7183 100.12 91.8676 100.099 92.0276 100.056C92.1876 100.003 92.3316 99.9547 92.4596 99.912L92.7156 100.904C92.5023 100.979 92.2676 101.043 92.0116 101.096C91.7663 101.16 91.521 101.192 91.2756 101.192Z" fill="white"/>
<g clip-path="url(#clip0_238_2518)">
<path d="M80.8737 35.9898H78.6558V34.3323C78.6558 30.3836 75.2516 27.2148 71.1253 27.2148H62.1505V22.5348C62.1505 21.7061 61.4284 20.9749 60.5 20.9749C59.6232 20.9749 58.8495 21.6573 58.8495 22.5348V27.2148H49.8747C45.6968 27.2148 42.3442 30.4323 42.3442 34.3323V35.9898H40.1263C37.8568 35.9898 36 37.7448 36 39.8898V45.3498C36 47.4948 37.8568 49.2498 40.1263 49.2498H42.3442V50.9073C42.3442 54.8561 45.7484 58.0248 49.8747 58.0248H71.1253C75.3032 58.0248 78.6558 54.8073 78.6558 50.9073V49.2498H80.8737C83.1432 49.2498 85 47.4948 85 45.3498V39.8898C85 37.7448 83.1432 35.9898 80.8737 35.9898ZM40.1263 46.1298C39.6621 46.1298 39.2495 45.7886 39.2495 45.3011V39.8898C39.2495 39.4511 39.6105 39.0611 40.1263 39.0611H42.3442V46.1298H40.1263ZM75.4063 50.8586C75.4063 53.1011 73.4979 54.9048 71.1253 54.9048H49.8747C47.5021 54.9048 45.5937 53.1011 45.5937 50.8586V34.3323C45.5937 32.0898 47.5021 30.2861 49.8747 30.2861H71.1253C73.4979 30.2861 75.4063 32.0898 75.4063 34.3323V50.8586ZM81.7505 45.3498C81.7505 45.7886 81.3895 46.1786 80.8737 46.1786H78.6558V39.0611H80.8737C81.3379 39.0611 81.7505 39.4023 81.7505 39.8898V45.3498Z" fill="white"/>
<path d="M54.0019 41.5473C55.8819 41.5473 57.4061 40.1067 57.4061 38.3298C57.4061 36.5529 55.8819 35.1123 54.0019 35.1123C52.1218 35.1123 50.5977 36.5529 50.5977 38.3298C50.5977 40.1067 52.1218 41.5473 54.0019 41.5473Z" fill="white"/>
<path d="M66.9989 41.5473C68.8791 41.5473 70.4033 40.1067 70.4033 38.3298C70.4033 36.5529 68.8791 35.1123 66.9989 35.1123C65.1189 35.1123 63.5947 36.5529 63.5947 38.3298C63.5947 40.1067 65.1189 41.5473 66.9989 41.5473Z" fill="white"/>
<path d="M67.515 44.6672C66.6897 44.326 65.7097 44.6672 65.3486 45.4472C64.6781 46.8122 62.7181 47.7872 60.5002 47.7872C58.2823 47.7872 56.3223 46.8122 55.6518 45.4472C55.2908 44.6672 54.3108 44.326 53.4855 44.6672C52.6602 45.0085 52.2992 45.9347 52.6602 46.7147C53.8465 49.201 56.9929 50.8585 60.5002 50.8585C64.0076 50.8585 67.1539 49.201 68.3402 46.7147C68.7013 45.9347 68.3402 45.0085 67.515 44.6672Z" fill="white"/>
</g>
<defs>
<clipPath id="clip0_238_2518">
<rect width="49" height="39" fill="white" transform="translate(36 20)"/>
</clipPath>
</defs>
</svg>