<svg width="107" height="143" viewBox="0 0 107 143" fill="none" xmlns="http://www.w3.org/2000/svg">
<path d="M18 17H0L18 0V17Z" fill="#A03952"/>
<path d="M63.3724 116.35L15.5859 142.32V3C15.5859 1.34315 16.9291 0 18.5859 0H104.003C105.66 0 107.003 1.34314 107.003 3V142.32L63.3724 116.35Z" fill="#EC4A70"/>
<path d="M54.2186 81V70.536H56.0746V75.288H56.1226L59.8506 70.536H61.9146L58.6986 74.616L62.4586 81H60.4106L57.5786 76.072L56.0746 77.944V81H54.2186ZM63.7655 81V70.536H65.6215V81H63.7655ZM67.6251 77.64V76.296H71.4331V77.64H67.6251ZM34.779 104.472C34.1603 104.472 33.6003 104.397 33.099 104.248C32.6083 104.099 32.219 103.869 31.931 103.56C31.6537 103.261 31.515 102.883 31.515 102.424C31.515 101.773 31.8883 101.213 32.635 100.744V100.68C32.4323 100.552 32.2617 100.381 32.123 100.168C31.995 99.9547 31.931 99.688 31.931 99.368C31.931 99.0587 32.0163 98.7813 32.187 98.536C32.3683 98.28 32.571 98.072 32.795 97.912V97.848C32.5283 97.6453 32.2883 97.3627 32.075 97C31.8723 96.6373 31.771 96.2267 31.771 95.768C31.771 95.16 31.915 94.648 32.203 94.232C32.491 93.816 32.8697 93.5013 33.339 93.288C33.819 93.064 34.331 92.952 34.875 92.952C35.0883 92.952 35.291 92.9733 35.483 93.016C35.6857 93.048 35.867 93.0907 36.027 93.144H38.843V94.504H37.403C37.531 94.6533 37.6377 94.8453 37.723 95.08C37.8083 95.304 37.851 95.5547 37.851 95.832C37.851 96.408 37.7177 96.8987 37.451 97.304C37.1843 97.6987 36.827 97.9973 36.379 98.2C35.931 98.4027 35.4297 98.504 34.875 98.504C34.7043 98.504 34.5283 98.488 34.347 98.456C34.1657 98.424 33.9843 98.3707 33.803 98.296C33.6857 98.4027 33.5897 98.5093 33.515 98.616C33.451 98.7227 33.419 98.8667 33.419 99.048C33.419 99.272 33.5097 99.448 33.691 99.576C33.883 99.704 34.219 99.768 34.699 99.768H36.091C37.0403 99.768 37.755 99.9227 38.235 100.232C38.7257 100.531 38.971 101.021 38.971 101.704C38.971 102.216 38.8003 102.68 38.459 103.096C38.1177 103.523 37.6323 103.859 37.003 104.104C36.3737 104.349 35.6323 104.472 34.779 104.472ZM34.875 97.352C35.2483 97.352 35.5683 97.2133 35.835 96.936C36.1017 96.6587 36.235 96.2693 36.235 95.768C36.235 95.2773 36.1017 94.8987 35.835 94.632C35.579 94.3547 35.259 94.216 34.875 94.216C34.491 94.216 34.1657 94.3493 33.899 94.616C33.6323 94.8827 33.499 95.2667 33.499 95.768C33.499 96.2693 33.6323 96.6587 33.899 96.936C34.1657 97.2133 34.491 97.352 34.875 97.352ZM35.067 103.272C35.6963 103.272 36.2083 103.144 36.603 102.888C36.9977 102.632 37.195 102.339 37.195 102.008C37.195 101.699 37.0723 101.491 36.827 101.384C36.5923 101.277 36.251 101.224 35.803 101.224H34.731C34.3043 101.224 33.947 101.187 33.659 101.112C33.2537 101.421 33.051 101.768 33.051 102.152C33.051 102.504 33.2323 102.776 33.595 102.968C33.9577 103.171 34.4483 103.272 35.067 103.272ZM43.4655 101.192C42.7402 101.192 42.0842 101.032 41.4975 100.712C40.9108 100.381 40.4468 99.912 40.1055 99.304C39.7642 98.6853 39.5935 97.944 39.5935 97.08C39.5935 96.2267 39.7642 95.4907 40.1055 94.872C40.4575 94.2533 40.9108 93.7787 41.4655 93.448C42.0202 93.1173 42.6015 92.952 43.2095 92.952C43.9242 92.952 44.5215 93.112 45.0015 93.432C45.4815 93.7413 45.8442 94.1787 46.0895 94.744C46.3348 95.2987 46.4575 95.944 46.4575 96.68C46.4575 97.064 46.4308 97.3627 46.3775 97.576H41.3855C41.4708 98.2693 41.7215 98.808 42.1375 99.192C42.5535 99.576 43.0762 99.768 43.7055 99.768C44.0468 99.768 44.3615 99.72 44.6495 99.624C44.9482 99.5173 45.2415 99.3733 45.5295 99.192L46.1535 100.344C45.7802 100.589 45.3642 100.792 44.9055 100.952C44.4468 101.112 43.9668 101.192 43.4655 101.192ZM41.3695 96.328H44.8575C44.8575 95.72 44.7242 95.2453 44.4575 94.904C44.1908 94.552 43.7908 94.376 43.2575 94.376C42.7988 94.376 42.3882 94.5467 42.0255 94.888C41.6735 95.2187 41.4548 95.6987 41.3695 96.328ZM48.2149 101V93.144H49.7349L49.8629 94.2H49.9269C50.2789 93.8587 50.6629 93.5653 51.0789 93.32C51.4949 93.0747 51.9695 92.952 52.5029 92.952C53.3455 92.952 53.9589 93.224 54.3429 93.768C54.7269 94.312 54.9189 95.08 54.9189 96.072V101H53.0789V96.312C53.0789 95.6613 52.9829 95.2027 52.7909 94.936C52.5989 94.6693 52.2842 94.536 51.8469 94.536C51.5055 94.536 51.2015 94.6213 50.9349 94.792C50.6789 94.952 50.3855 95.192 50.0549 95.512V101H48.2149ZM60.528 101.192C59.8027 101.192 59.1467 101.032 58.56 100.712C57.9733 100.381 57.5093 99.912 57.168 99.304C56.8267 98.6853 56.656 97.944 56.656 97.08C56.656 96.2267 56.8267 95.4907 57.168 94.872C57.52 94.2533 57.9733 93.7787 58.528 93.448C59.0827 93.1173 59.664 92.952 60.272 92.952C60.9867 92.952 61.584 93.112 62.064 93.432C62.544 93.7413 62.9067 94.1787 63.152 94.744C63.3973 95.2987 63.52 95.944 63.52 96.68C63.52 97.064 63.4933 97.3627 63.44 97.576H58.448C58.5333 98.2693 58.784 98.808 59.2 99.192C59.616 99.576 60.1387 99.768 60.768 99.768C61.1093 99.768 61.424 99.72 61.712 99.624C62.0107 99.5173 62.304 99.3733 62.592 99.192L63.216 100.344C62.8427 100.589 62.4267 100.792 61.968 100.952C61.5093 101.112 61.0293 101.192 60.528 101.192ZM58.432 96.328H61.92C61.92 95.72 61.7867 95.2453 61.52 94.904C61.2533 94.552 60.8533 94.376 60.32 94.376C59.8613 94.376 59.4507 94.5467 59.088 94.888C58.736 95.2187 58.5173 95.6987 58.432 96.328ZM65.2774 101V93.144H66.7974L66.9254 94.536H66.9894C67.2667 94.024 67.6027 93.6347 67.9974 93.368C68.392 93.0907 68.7974 92.952 69.2134 92.952C69.5867 92.952 69.8854 93.0053 70.1094 93.112L69.7894 94.712C69.6507 94.6693 69.5227 94.6373 69.4054 94.616C69.288 94.5947 69.144 94.584 68.9734 94.584C68.664 94.584 68.3387 94.7067 67.9974 94.952C67.656 95.1867 67.3627 95.6027 67.1174 96.2V101H65.2774ZM71.2461 101V93.144H73.0861V101H71.2461ZM72.1741 91.768C71.8435 91.768 71.5768 91.672 71.3741 91.48C71.1715 91.288 71.0701 91.032 71.0701 90.712C71.0701 90.4027 71.1715 90.152 71.3741 89.96C71.5768 89.768 71.8435 89.672 72.1741 89.672C72.5048 89.672 72.7715 89.768 72.9741 89.96C73.1768 90.152 73.2781 90.4027 73.2781 90.712C73.2781 91.032 73.1768 91.288 72.9741 91.48C72.7715 91.672 72.5048 91.768 72.1741 91.768ZM78.7936 101.192C78.0683 101.192 77.4123 101.032 76.8256 100.712C76.239 100.381 75.775 99.912 75.4336 99.304C75.0923 98.6853 74.9216 97.944 74.9216 97.08C74.9216 96.2267 75.0923 95.4907 75.4336 94.872C75.7856 94.2533 76.239 93.7787 76.7936 93.448C77.3483 93.1173 77.9296 92.952 78.5376 92.952C79.2523 92.952 79.8496 93.112 80.3296 93.432C80.8096 93.7413 81.1723 94.1787 81.4176 94.744C81.663 95.2987 81.7856 95.944 81.7856 96.68C81.7856 97.064 81.759 97.3627 81.7056 97.576H76.7136C76.799 98.2693 77.0496 98.808 77.4656 99.192C77.8816 99.576 78.4043 99.768 79.0336 99.768C79.375 99.768 79.6896 99.72 79.9776 99.624C80.2763 99.5173 80.5696 99.3733 80.8576 99.192L81.4816 100.344C81.1083 100.589 80.6923 100.792 80.2336 100.952C79.775 101.112 79.295 101.192 78.7936 101.192ZM76.6976 96.328H80.1856C80.1856 95.72 80.0523 95.2453 79.7856 94.904C79.519 94.552 79.119 94.376 78.5856 94.376C78.127 94.376 77.7163 94.5467 77.3536 94.888C77.0016 95.2187 76.783 95.6987 76.6976 96.328ZM83.543 101V93.144H85.063L85.191 94.536H85.255C85.5323 94.024 85.8683 93.6347 86.263 93.368C86.6577 93.0907 87.063 92.952 87.479 92.952C87.8523 92.952 88.151 93.0053 88.375 93.112L88.055 94.712C87.9163 94.6693 87.7883 94.6373 87.671 94.616C87.5537 94.5947 87.4097 94.584 87.239 94.584C86.9297 94.584 86.6043 94.7067 86.263 94.952C85.9217 95.1867 85.6283 95.6027 85.383 96.2V101H83.543ZM92.2798 101.192C91.3731 101.192 90.7278 100.931 90.3438 100.408C89.9704 99.8747 89.7838 99.1867 89.7838 98.344V94.6H88.6638V93.224L89.8798 93.144L90.1038 91H91.6398V93.144H93.6398V94.6H91.6398V98.344C91.6398 99.2613 92.0078 99.72 92.7438 99.72C92.8824 99.72 93.0264 99.704 93.1758 99.672C93.3251 99.6293 93.4531 99.5867 93.5598 99.544L93.8798 100.904C93.6664 100.979 93.4211 101.043 93.1438 101.096C92.8771 101.16 92.5891 101.192 92.2798 101.192Z" fill="white"/>
<path d="M49 55.951V47.3543C47.1 45.6217 45.625 43.5975 44.575 41.2817C43.525 38.966 43 36.5253 43 33.9596C43 28.9616 44.75 24.7132 48.25 21.2146C51.75 17.716 56 15.9667 61 15.9667C65.1667 15.9667 68.8583 17.1912 72.075 19.6402C75.2917 22.0893 77.3833 25.2797 78.35 29.2115L81.1 40.1072C81.2333 40.5737 81.15 40.9985 80.85 41.3817C80.55 41.7649 80.15 41.9565 79.65 41.9565H75V48.9537C75 49.7784 74.7063 50.4844 74.1188 51.0716C73.5313 51.6589 72.825 51.9525 72 51.9525H67V55.951H64V48.9537H72V38.9576H77.7L75.45 29.9612C74.65 26.7291 72.9 24.0885 70.2 22.0393C67.5 19.9901 64.4333 18.9655 61 18.9655C56.8333 18.9655 53.2917 20.4066 50.375 23.2888C47.4583 26.171 46 29.687 46 33.8367C46 35.983 46.4387 38.0221 47.3162 39.9539C48.1937 41.8856 49.4383 43.6028 51.05 45.1052L52 46.0049V55.951H49ZM59.45 41.2567H62.45L62.6 39.0576C63 38.991 63.3745 38.85 63.7236 38.6347C64.0727 38.4194 64.3815 38.1772 64.65 37.9081L66.75 38.6078L68.15 36.2087L66.65 35.0092C66.8167 34.5427 66.9 34.0596 66.9 33.5598C66.9 33.06 66.8167 32.5768 66.65 32.1103L68.15 30.9108L66.75 28.5117L64.65 29.2115C64.3722 28.9552 64.0528 28.7245 63.6917 28.5194C63.3306 28.3144 62.9667 28.1619 62.6 28.0619L62.45 25.8628H59.45L59.3 28.0619C58.9333 28.1619 58.5695 28.3144 58.2084 28.5194C57.8472 28.7245 57.5278 28.9552 57.25 29.2115L55.15 28.5117L53.75 30.9108L55.25 32.1103C55.0833 32.5768 55 33.06 55 33.5598C55 34.0596 55.0833 34.5427 55.25 35.0092L53.75 36.2087L55.15 38.6078L57.25 37.9081C57.5185 38.1772 57.8273 38.4194 58.1764 38.6347C58.5255 38.85 58.9 38.991 59.3 39.0576L59.45 41.2567ZM60.9559 37.0584C59.9853 37.0584 59.1583 36.7188 58.475 36.0397C57.7917 35.3605 57.45 34.5358 57.45 33.5657C57.45 32.5954 57.7897 31.7688 58.4691 31.0857C59.1485 30.4027 59.9735 30.0611 60.9441 30.0611C61.9147 30.0611 62.7417 30.4007 63.425 31.0798C64.1083 31.759 64.45 32.5837 64.45 33.5539C64.45 34.5241 64.1103 35.3507 63.4309 36.0338C62.7515 36.7169 61.9265 37.0584 60.9559 37.0584Z" fill="white"/>
</svg>
