<svg width="27" height="20" viewBox="0 0 27 20" fill="none" xmlns="http://www.w3.org/2000/svg">
<path d="M13.4915 0.9936C13.4917 0.993762 13.4915 0.994036 13.4913 0.994036C12.0218 0.994198 10.708 1.57327 9.81324 2.42958C8.91837 3.28601 8.39969 4.42852 8.39969 5.67746C8.39969 6.99558 7.61066 8.62958 6.55179 9.4146C6.3582 9.55812 6.19142 9.71387 6.05046 9.88034C5.47169 10.5645 5.31569 11.3068 5.21921 11.9867C5.17014 12.3326 4.93446 12.6186 4.61211 12.7533C3.98395 13.0157 3.42596 13.3307 2.96254 13.6861C2.9624 13.6862 2.96219 13.6861 2.96219 13.6859C2.96219 13.6857 2.96199 13.6856 2.96185 13.6857C2.88822 13.7424 2.82744 13.8085 2.78418 13.8808L0.0885133 18.3412C0.0883827 18.3414 0.0885385 18.3417 0.088791 18.3417C0.089048 18.3417 0.089199 18.342 0.0890596 18.3422C-0.116562 18.6605 0.0451025 19.0421 0.458305 19.2156C0.870546 19.3892 1.39405 19.2932 1.6517 18.9967C2.44105 18.1525 5.22006 17.2751 7.50163 17.2751C9.80058 17.2751 11.8795 18.0443 12.7519 18.9897C12.9206 19.1711 13.197 19.2784 13.4921 19.2784C13.7872 19.2784 14.0636 19.1711 14.2311 18.9897C15.1036 18.0443 17.1824 17.2751 19.4814 17.2751C21.7628 17.2751 24.5419 18.1525 25.3313 18.9967C25.5889 19.2932 26.1125 19.3892 26.5259 19.2156C26.9393 19.042 27.0997 18.66 26.8936 18.3417L24.1979 13.8813C24.1978 13.8811 24.198 13.8808 24.1982 13.8808C24.1985 13.8808 24.1986 13.8805 24.1985 13.8803C24.1552 13.8081 24.0944 13.742 24.0208 13.6855C22.8166 12.762 22.0013 11.4674 21.1702 10.1977C21.1 10.0905 21.0212 9.98432 20.9325 9.87947C20.7916 9.71301 20.6248 9.55722 20.4312 9.41364C19.3732 8.62891 18.5833 6.99387 18.5833 5.67658C18.5833 4.42767 18.0645 3.28516 17.1698 2.42871C16.2751 1.5724 14.9625 0.993326 13.4917 0.993164C13.4915 0.993164 13.4913 0.993439 13.4915 0.9936ZM13.4919 2.3319C14.3375 2.3319 15.1245 2.65546 15.7475 3.25201C16.3706 3.84856 16.7863 4.70934 16.7863 5.67737C16.7863 6.95506 16.2218 7.95447 15.3166 8.50751C15.0238 8.68804 14.9149 8.98631 15.0448 9.25231C15.1748 9.51831 15.5168 9.69449 15.8963 9.69188C18.1999 9.67269 18.9774 10.0739 19.4154 10.591C19.9195 11.1881 19.143 11.9505 18.3619 11.9275C18.2369 11.9238 18.111 11.9219 17.9843 11.9219C15.0425 11.9219 11.9414 11.9219 8.99954 11.9219C8.87295 11.9219 8.74717 11.9238 8.62226 11.9275C7.84039 11.9505 7.06198 11.1872 7.56839 10.591C8.00522 10.0739 8.78287 9.67268 11.0876 9.69188H11.0864C11.467 9.69449 11.8078 9.51832 11.9378 9.25231C12.0678 8.98631 11.9601 8.68804 11.6661 8.50751C10.7608 7.95543 10.1963 6.95598 10.1963 5.67737C10.1963 4.7093 10.6121 3.84849 11.2351 3.25201C11.8582 2.65553 12.6452 2.3319 13.4907 2.3319H13.4919ZM9.00028 13.2602C9.00008 13.2603 9.00016 13.2606 9.00039 13.2606C10.1201 13.2608 11.1969 13.5017 12.0977 13.851C12.4044 13.9699 12.5937 14.2724 12.5937 14.6013V14.9009C12.5937 15.8925 11.5154 16.5594 10.5553 16.3115C9.61375 16.0685 8.58019 15.9364 7.5029 15.9364C6.76472 15.9364 6.00899 15.9934 5.26874 16.1036C4.51056 16.2164 3.8659 15.3622 4.26242 14.7062C4.31965 14.6115 4.39439 14.5286 4.48617 14.4669C5.49784 13.7863 7.12813 13.26 9.00016 13.2598C9.00039 13.2598 9.00047 13.2601 9.00028 13.2602ZM17.9853 13.261C17.9851 13.2609 17.9852 13.2606 17.9854 13.2606C19.8561 13.2608 21.4874 13.7878 22.4992 14.4677C22.5911 14.5294 22.666 14.6124 22.7233 14.7072C23.1198 15.3632 22.4752 16.2173 21.7171 16.1045C20.9767 15.9942 20.2209 15.9372 19.4827 15.9372C18.405 15.9372 17.3718 16.0689 16.4308 16.3118C15.4706 16.5595 14.3919 15.8927 14.3919 14.901V14.6019C14.3919 14.2731 14.5811 13.9707 14.8876 13.8518C15.7878 13.5025 16.8646 13.2616 17.9852 13.2615C17.9854 13.2615 17.9855 13.2612 17.9853 13.261Z" fill="#333333"/>
</svg>
