<?xml version="1.0" encoding="utf-8"?>
<!-- Generator: Adobe Illustrator 24.2.1, SVG Export Plug-In . SVG Version: 6.00 Build 0)  -->
<svg version="1.1" id="Ebene_1" xmlns="http://www.w3.org/2000/svg" xmlns:xlink="http://www.w3.org/1999/xlink" x="0px" y="0px"
	 viewBox="0 0 787.29 217.3" style="enable-background:new 0 0 787.29 217.3;" xml:space="preserve">
<style type="text/css">
	.st0{fill:#686867;}
	.st1{fill:#ECCF08;}
	.st2{fill:#136C43;}
	.st3{fill:#7AB829;}
	.st4{fill:#D6D018;}
</style>
<g>
	<g>
		<path class="st0" d="M293.66,56.87h29.33v11.1h-43.14V0.92h13.81V56.87z"/>
		<path class="st0" d="M380.67,38.91h-26.52v17.96h31.13v11.1h-44.94V0.92h44.85v11.19h-31.03v15.98h26.52V38.91z"/>
		<path class="st0" d="M440.66,54.15h-24.22l-4.61,13.81h-14.69L422.1,0.92h12.8L460,67.96h-14.69L440.66,54.15z M420.17,42.96
			h16.76l-8.43-25.09L420.17,42.96z"/>
		<path class="st0" d="M500.51,43.42h-11v24.54h-13.81V0.92h24.91c7.92,0,14.03,1.77,18.33,5.3c4.3,3.53,6.45,8.52,6.45,14.97
			c0,4.57-0.99,8.39-2.97,11.44c-1.98,3.05-4.98,5.49-9,7.3l14.5,27.4v0.64h-14.83L500.51,43.42z M489.51,32.23h11.14
			c3.47,0,6.15-0.88,8.06-2.65c1.9-1.77,2.86-4.2,2.86-7.3c0-3.16-0.9-5.65-2.69-7.46c-1.8-1.81-4.55-2.71-8.26-2.71h-11.1V32.23z"
			/>
		<path class="st0" d="M599.82,67.96h-13.81l-26.89-44.11v44.11H545.3V0.92h13.81l26.94,44.2V0.92h13.77V67.96z"/>
		<path class="st0" d="M636,67.96h-13.81V0.92H636V67.96z"/>
		<path class="st0" d="M712.75,67.96h-13.81l-26.89-44.11v44.11h-13.81V0.92h13.81l26.94,44.2V0.92h13.77V67.96z"/>
		<path class="st0" d="M787.29,59.49c-2.49,2.98-6,5.29-10.54,6.93c-4.54,1.64-9.58,2.47-15.1,2.47c-5.8,0-10.89-1.27-15.26-3.8
			c-4.38-2.53-7.75-6.21-10.13-11.03s-3.6-10.48-3.66-16.99v-4.56c0-6.69,1.13-12.48,3.38-17.38c2.26-4.9,5.51-8.64,9.76-11.24
			C749.98,1.3,754.96,0,760.67,0c7.95,0,14.17,1.9,18.65,5.69c4.48,3.79,7.14,9.31,7.97,16.55h-13.44
			c-0.61-3.84-1.97-6.65-4.08-8.42c-2.1-1.78-5-2.67-8.68-2.67c-4.7,0-8.27,1.77-10.73,5.3c-2.46,3.53-3.7,8.78-3.73,15.75v4.28
			c0,7.03,1.34,12.34,4.01,15.93c2.67,3.59,6.58,5.39,11.74,5.39c5.19,0,8.89-1.11,11.1-3.32V42.92H760.9V32.74h26.38V59.49z"/>
		<path class="st0" d="M334.41,151.37h-13.81v-28.73h-26.94v28.73h-13.81V84.32h13.81v27.17h26.94V84.32h13.81V151.37z"/>
		<path class="st0" d="M406.64,84.32v44.16c0,7.34-2.3,13.14-6.88,17.41c-4.59,4.27-10.86,6.4-18.81,6.4
			c-7.83,0-14.04-2.07-18.65-6.22c-4.6-4.14-6.95-9.84-7.04-17.08V84.32h13.81v44.25c0,4.39,1.05,7.59,3.15,9.6
			c2.1,2.01,5.01,3.02,8.73,3.02c7.77,0,11.71-4.08,11.83-12.25V84.32H406.64z"/>
		<path class="st0" d="M427.4,151.37V84.32h23.48c8.13,0,14.3,1.56,18.51,4.67c4.2,3.12,6.31,7.68,6.31,13.7
			c0,3.28-0.85,6.18-2.53,8.68c-1.69,2.5-4.04,4.34-7.05,5.5c3.44,0.86,6.15,2.59,8.13,5.2c1.98,2.61,2.97,5.8,2.97,9.58
			c0,6.45-2.06,11.33-6.17,14.64c-4.11,3.31-9.98,5-17.59,5.06H427.4z M441.21,112.41h10.22c6.97-0.12,10.45-2.9,10.45-8.33
			c0-3.04-0.88-5.22-2.65-6.56c-1.77-1.34-4.55-2-8.36-2h-9.67V112.41z M441.21,122.18v18.09h11.83c3.25,0,5.79-0.78,7.62-2.33
			c1.83-1.55,2.74-3.69,2.74-6.42c0-6.14-3.18-9.26-9.53-9.35H441.21z"/>
	</g>
</g>
<g>
	<rect y="160.83" class="st1" width="232.4" height="56.46"/>
	<rect class="st2" width="232.4" height="56.46"/>
	<rect y="80.42" class="st3" width="107.06" height="56.46"/>
	<rect x="125.34" y="80.42" class="st4" width="107.06" height="56.46"/>
</g>
</svg>
