<svg width="32" height="21" viewBox="0 0 32 21" fill="none" xmlns="http://www.w3.org/2000/svg">
<g clip-path="url(#clip0)">
<path d="M13.4623 13.6222C13.6515 13.6848 13.8715 13.7473 14.0594 13.7888C14.1221 13.8099 14.154 13.8302 14.1847 13.8928L14.374 15.0997C14.4059 15.2866 14.6565 15.4329 14.9404 15.4329H16.513C16.7956 15.4329 17.0475 15.2874 17.0794 15.0997L17.2686 13.8928C17.2686 13.8514 17.3313 13.8099 17.3939 13.7888C17.6139 13.7473 17.8031 13.6848 17.991 13.6222C18.0537 13.601 18.1164 13.601 18.1803 13.6433L19.6276 14.4129C19.8475 14.5381 20.194 14.517 20.4139 14.3918L21.5467 13.6425C21.7667 13.497 21.7667 13.289 21.5787 13.1223L20.4152 12.165C20.3832 12.1235 20.3525 12.0821 20.3832 12.0398C20.4778 11.9147 20.5724 11.7692 20.6351 11.6448C20.667 11.6034 20.6977 11.5823 20.7924 11.5619L22.6169 11.4368C22.8995 11.4157 23.1206 11.2499 23.1206 11.0621V10.0219C23.1206 9.83493 22.9007 9.66833 22.6169 9.64719L20.7592 9.54479C20.6965 9.54479 20.6339 9.50334 20.6019 9.46189C20.5393 9.31642 20.4447 9.19126 20.3501 9.06692C20.3181 9.02547 20.3181 8.98403 20.382 8.94177L21.5455 7.98439C21.7347 7.83891 21.7028 7.60972 21.5136 7.46425L20.3808 6.71492C20.1608 6.56945 19.8463 6.56945 19.5944 6.6938L18.1471 7.46343C18.0844 7.48456 18.0218 7.50488 17.9579 7.48456C17.7687 7.42198 17.5488 7.3594 17.3608 7.31795C17.2981 7.29682 17.2662 7.2765 17.2355 7.21393L17.0463 6.00705C17.0143 5.82012 16.7637 5.67383 16.4799 5.67383H14.9072C14.6246 5.67383 14.3728 5.8193 14.3408 6.00705L14.186 7.23504C14.186 7.27649 14.1233 7.31794 14.0607 7.33907C13.8407 7.38052 13.6515 7.4431 13.4636 7.50567C13.4009 7.5268 13.3382 7.52681 13.2744 7.48455L11.827 6.71491C11.6071 6.58976 11.2606 6.61089 11.0407 6.73604L9.90788 7.48537C9.68796 7.63084 9.68796 7.83889 9.87594 8.0055L11.0394 8.96288C11.0714 9.00433 11.1021 9.04578 11.0714 9.08804C10.9768 9.2132 10.8822 9.35868 10.8195 9.48301C10.7876 9.52446 10.7569 9.54559 10.6623 9.56591L8.83774 9.69106C8.55515 9.71219 8.33398 9.87799 8.33398 10.0657V11.106C8.33398 11.2929 8.55391 11.4595 8.83774 11.4807L10.6623 11.6058C10.7249 11.6058 10.7876 11.6473 10.8195 11.6887C10.8822 11.8342 10.9768 11.9593 11.0714 12.0837C11.1033 12.1251 11.1033 12.1666 11.0394 12.2088L9.87594 13.1662C9.68673 13.3117 9.71868 13.5409 9.90788 13.6864L11.0407 14.4357C11.2606 14.5812 11.5751 14.5812 11.827 14.4568L13.2744 13.6872C13.3358 13.6222 13.3997 13.6018 13.4623 13.6222L13.4623 13.6222ZM15.7267 8.56626C17.3939 8.56626 18.7467 9.46106 18.7467 10.5639C18.7467 11.6668 17.3939 12.5616 15.7267 12.5616C14.0594 12.5616 12.7067 11.6668 12.7067 10.5639C12.7067 9.46106 14.0594 8.56626 15.7267 8.56626Z" fill="#333333"/>
<path d="M14.9724 11.4585C15.067 11.5414 15.2242 11.5837 15.3815 11.5837C15.5388 11.5837 15.696 11.5422 15.7906 11.4585L17.3006 10.2517C17.4898 10.1062 17.4579 9.877 17.238 9.73153C17.018 9.60637 16.6716 9.6275 16.4836 9.77298L15.3828 10.6466L14.9736 10.3134C14.7844 10.1679 14.4392 10.1468 14.1873 10.272C13.9674 10.3971 13.9354 10.6255 14.1246 10.7921L14.9724 11.4585Z" fill="#333333"/>
<path d="M4.5606 10.5639C4.5606 6.4856 9.56099 3.17797 15.7264 3.17797H15.9463L15.0347 3.78099C14.7202 3.98904 14.7202 4.30112 15.0347 4.50918C15.192 4.6132 15.3812 4.65465 15.5691 4.65465C15.7584 4.65465 15.9783 4.6132 16.1036 4.50918L18.3373 3.03166C18.6518 2.82361 18.6518 2.51153 18.3373 2.30348L16.1036 0.825962C15.7891 0.617908 15.3173 0.617908 15.0027 0.825962C14.6882 1.03402 14.6882 1.3461 15.0027 1.55415L15.9144 2.15717L15.7264 2.1588C8.71207 2.1588 3.02002 5.92415 3.02002 10.5638C3.02002 13.2472 4.96985 15.7863 8.24184 17.3467C8.36716 17.4093 8.52443 17.4507 8.68168 17.4507C8.93355 17.4507 9.15348 17.3882 9.31074 17.2427C9.56261 17.0135 9.49995 16.7014 9.15348 16.5356C6.29075 15.141 4.56071 12.9151 4.56071 10.5639L4.5606 10.5639Z" fill="#333333"/>
<path d="M28.4324 10.5641C28.4324 7.88058 26.4825 5.3415 23.2106 3.78109C22.8641 3.61449 22.3923 3.65594 22.1417 3.88512C21.8898 4.11431 21.9524 4.42639 22.2989 4.59217C25.1616 5.98677 26.8917 8.21272 26.8917 10.5639C26.8917 14.6422 21.8913 17.9498 15.7259 17.9498H15.506L16.4176 17.3468C16.7321 17.1388 16.7321 16.8267 16.4176 16.6186C16.1031 16.4106 15.6313 16.4106 15.3167 16.6186L13.0831 18.0961C12.7685 18.3042 12.7685 18.6163 13.0831 18.8243L15.3167 20.3018C15.474 20.4059 15.6632 20.4473 15.8512 20.4473C16.0404 20.4473 16.2603 20.4059 16.3856 20.3018C16.7002 20.0938 16.7002 19.7817 16.3856 19.5737L15.474 18.9706L15.7259 18.969C22.7402 18.969 28.4322 15.2037 28.4322 10.5641L28.4324 10.5641Z" fill="#333333"/>
</g>
<defs>
<clipPath id="clip0">
<rect y="0.161133" width="31.453" height="20.8054" rx="10.4027" fill="white"/>
</clipPath>
</defs>
</svg>
