<svg width="16" height="15" viewBox="0 0 16 15" fill="none" xmlns="http://www.w3.org/2000/svg">
<path d="M8.20728 0C7.66721 0 7.22901 0.438196 7.22901 0.978261V6.52174H1.68554C1.14547 6.52174 0.707275 6.95994 0.707275 7.5C0.707275 8.04007 1.14547 8.47826 1.68554 8.47826H7.22901V14.0217C7.22901 14.5618 7.66721 15 8.20728 15C8.74734 15 9.18554 14.5618 9.18554 14.0217V8.47826H14.729C15.2691 8.47826 15.7073 8.04007 15.7073 7.5C15.7073 6.95994 15.2691 6.52174 14.729 6.52174H9.18554V0.978261C9.18554 0.438196 8.74734 0 8.20728 0Z" fill="#FFFFFF"/>
</svg>
