<svg width="107" height="143" viewBox="0 0 107 143" fill="none" xmlns="http://www.w3.org/2000/svg">
<path d="M20.7767 16.6214H0L20.7767 0V16.6214Z" fill="#828B25"/>
<path d="M63.3685 116.35L15.582 142.32V3C15.582 1.34315 16.9252 0 18.582 0H104C105.656 0 107 1.34314 107 3V142.32L63.3685 116.35Z" fill="#E4F700"/>
<path d="M26.7122 92.303V85.499H27.6642L27.7622 86.731H27.8042C28.0376 86.3016 28.3222 85.961 28.6582 85.709C28.9942 85.457 29.3536 85.331 29.7362 85.331C30.0069 85.331 30.2496 85.3776 30.4642 85.471L30.2402 86.479C30.1282 86.4416 30.0256 86.4136 29.9322 86.395C29.8389 86.3763 29.7222 86.367 29.5822 86.367C29.2929 86.367 28.9896 86.4836 28.6722 86.717C28.3642 86.9503 28.0936 87.3563 27.8602 87.935V92.303H26.7122ZM34.187 92.471C33.5804 92.471 33.0297 92.331 32.535 92.051C32.0404 91.7616 31.6484 91.351 31.359 90.819C31.0697 90.287 30.925 89.6523 30.925 88.915C30.925 88.1683 31.0697 87.529 31.359 86.997C31.6577 86.465 32.0404 86.0543 32.507 85.765C32.9737 85.4756 33.4637 85.331 33.977 85.331C34.845 85.331 35.5124 85.6203 35.979 86.199C36.455 86.7776 36.693 87.5523 36.693 88.523C36.693 88.6443 36.6884 88.7656 36.679 88.887C36.679 88.999 36.6697 89.097 36.651 89.181H32.059C32.1057 89.8996 32.3297 90.4736 32.731 90.903C33.1417 91.3323 33.6737 91.547 34.327 91.547C34.6537 91.547 34.9524 91.5003 35.223 91.407C35.503 91.3043 35.769 91.1736 36.021 91.015L36.427 91.771C36.1377 91.9576 35.8064 92.121 35.433 92.261C35.069 92.401 34.6537 92.471 34.187 92.471ZM32.045 88.355H35.685C35.685 87.6643 35.5357 87.1416 35.237 86.787C34.9477 86.423 34.537 86.241 34.005 86.241C33.529 86.241 33.0997 86.4276 32.717 86.801C32.3437 87.165 32.1197 87.683 32.045 88.355ZM40.6984 92.471C39.849 92.471 39.1677 92.163 38.6544 91.547C38.141 90.9216 37.8844 90.0443 37.8844 88.915C37.8844 88.1776 38.0197 87.543 38.2904 87.011C38.5704 86.4696 38.9344 86.0543 39.3824 85.765C39.8397 85.4756 40.325 85.331 40.8384 85.331C41.2304 85.331 41.571 85.401 41.8604 85.541C42.1497 85.681 42.4437 85.8723 42.7424 86.115L42.6864 84.953V82.335H43.8484V92.303H42.8964L42.7984 91.505H42.7564C42.495 91.7663 42.187 91.995 41.8324 92.191C41.4777 92.3776 41.0997 92.471 40.6984 92.471ZM40.9504 91.505C41.5477 91.505 42.1264 91.1923 42.6864 90.567V87.011C42.397 86.7496 42.117 86.5676 41.8464 86.465C41.585 86.353 41.3144 86.297 41.0344 86.297C40.6704 86.297 40.339 86.409 40.0404 86.633C39.751 86.8476 39.5177 87.151 39.3404 87.543C39.163 87.9256 39.0744 88.3783 39.0744 88.901C39.0744 89.713 39.2377 90.3523 39.5644 90.819C39.891 91.2763 40.353 91.505 40.9504 91.505ZM47.708 92.471C47.1386 92.471 46.6626 92.303 46.28 91.967C45.9066 91.6216 45.72 91.1456 45.72 90.539C45.72 89.7923 46.0513 89.223 46.714 88.831C47.386 88.4296 48.4453 88.1496 49.892 87.991C49.892 87.7016 49.85 87.4263 49.766 87.165C49.6913 86.9036 49.5513 86.6936 49.346 86.535C49.15 86.367 48.8653 86.283 48.492 86.283C48.1 86.283 47.7313 86.3576 47.386 86.507C47.0406 86.6563 46.7326 86.8243 46.462 87.011L46.014 86.213C46.3313 86.0076 46.7186 85.8116 47.176 85.625C47.6426 85.429 48.1466 85.331 48.688 85.331C49.5186 85.331 50.1206 85.5876 50.494 86.101C50.8673 86.605 51.054 87.2816 51.054 88.131V92.303H50.102L50.004 91.491H49.962C49.6446 91.7523 49.2946 91.981 48.912 92.177C48.5386 92.373 48.1373 92.471 47.708 92.471ZM48.044 91.547C48.3706 91.547 48.6786 91.4676 48.968 91.309C49.2573 91.1503 49.5653 90.9263 49.892 90.637V88.747C48.7626 88.887 47.9693 89.097 47.512 89.377C47.064 89.657 46.84 90.0163 46.84 90.455C46.84 90.8376 46.9566 91.1176 47.19 91.295C47.4233 91.463 47.708 91.547 48.044 91.547ZM53.1947 92.303V82.335H54.3287V89.083H54.3707L57.2687 85.499H58.5427L56.2607 88.229L58.8507 92.303H57.5907L55.6027 89.027L54.3287 90.511V92.303H53.1947ZM61.9675 92.471C61.2395 92.471 60.7309 92.261 60.4415 91.841C60.1615 91.421 60.0215 90.875 60.0215 90.203V86.437H59.0135V85.569L60.0775 85.499L60.2175 83.595H61.1835V85.499H63.0175V86.437H61.1835V90.217C61.1835 90.637 61.2582 90.9636 61.4075 91.197C61.5662 91.421 61.8415 91.533 62.2335 91.533C62.3549 91.533 62.4855 91.5143 62.6255 91.477C62.7655 91.4303 62.8915 91.3883 63.0035 91.351L63.2275 92.219C63.0409 92.2843 62.8355 92.3403 62.6115 92.387C62.3969 92.443 62.1822 92.471 61.9675 92.471ZM64.556 92.303V85.499H65.704V92.303H64.556ZM65.144 84.099C64.92 84.099 64.7333 84.0336 64.584 83.903C64.444 83.763 64.374 83.5763 64.374 83.343C64.374 83.119 64.444 82.937 64.584 82.797C64.7333 82.657 64.92 82.587 65.144 82.587C65.368 82.587 65.55 82.657 65.69 82.797C65.8393 82.937 65.914 83.119 65.914 83.343C65.914 83.5763 65.8393 83.763 65.69 83.903C65.55 84.0336 65.368 84.099 65.144 84.099ZM70.6473 92.471C70.0966 92.471 69.5786 92.331 69.0933 92.051C68.6173 91.771 68.23 91.365 67.9313 90.833C67.642 90.301 67.4973 89.6616 67.4973 88.915C67.4973 88.1496 67.642 87.501 67.9313 86.969C68.23 86.437 68.6173 86.031 69.0933 85.751C69.5786 85.471 70.0966 85.331 70.6473 85.331C71.2073 85.331 71.7253 85.471 72.2013 85.751C72.6773 86.031 73.06 86.437 73.3493 86.969C73.648 87.501 73.7973 88.1496 73.7973 88.915C73.7973 89.6616 73.648 90.301 73.3493 90.833C73.06 91.365 72.6773 91.771 72.2013 92.051C71.7253 92.331 71.2073 92.471 70.6473 92.471ZM70.6473 91.519C71.2353 91.519 71.7066 91.281 72.0613 90.805C72.4253 90.3196 72.6073 89.6896 72.6073 88.915C72.6073 88.131 72.4253 87.4963 72.0613 87.011C71.7066 86.5256 71.2353 86.283 70.6473 86.283C70.0686 86.283 69.5973 86.5256 69.2333 87.011C68.8693 87.4963 68.6873 88.131 68.6873 88.915C68.6873 89.6896 68.8693 90.3196 69.2333 90.805C69.5973 91.281 70.0686 91.519 70.6473 91.519ZM75.5892 92.303V85.499H76.5412L76.6392 86.479H76.6812C77.0079 86.1523 77.3532 85.8816 77.7172 85.667C78.0812 85.443 78.4965 85.331 78.9632 85.331C79.6819 85.331 80.2045 85.5596 80.5312 86.017C80.8672 86.465 81.0352 87.123 81.0352 87.991V92.303H79.8872V88.145C79.8872 87.5103 79.7845 87.0483 79.5792 86.759C79.3739 86.4696 79.0472 86.325 78.5992 86.325C78.2539 86.325 77.9412 86.4136 77.6612 86.591C77.3905 86.7683 77.0825 87.0296 76.7372 87.375V92.303H75.5892ZM86.0034 92.471C85.3968 92.471 84.8461 92.331 84.3514 92.051C83.8568 91.7616 83.4648 91.351 83.1754 90.819C82.8861 90.287 82.7414 89.6523 82.7414 88.915C82.7414 88.1683 82.8861 87.529 83.1754 86.997C83.4741 86.465 83.8568 86.0543 84.3234 85.765C84.7901 85.4756 85.2801 85.331 85.7934 85.331C86.6614 85.331 87.3288 85.6203 87.7954 86.199C88.2714 86.7776 88.5094 87.5523 88.5094 88.523C88.5094 88.6443 88.5048 88.7656 88.4954 88.887C88.4954 88.999 88.4861 89.097 88.4674 89.181H83.8754C83.9221 89.8996 84.1461 90.4736 84.5474 90.903C84.9581 91.3323 85.4901 91.547 86.1434 91.547C86.4701 91.547 86.7688 91.5003 87.0394 91.407C87.3194 91.3043 87.5854 91.1736 87.8374 91.015L88.2434 91.771C87.9541 91.9576 87.6228 92.121 87.2494 92.261C86.8854 92.401 86.4701 92.471 86.0034 92.471ZM83.8614 88.355H87.5014C87.5014 87.6643 87.3521 87.1416 87.0534 86.787C86.7641 86.423 86.3534 86.241 85.8214 86.241C85.3454 86.241 84.9161 86.4276 84.5334 86.801C84.1601 87.165 83.9361 87.683 83.8614 88.355ZM91.4088 92.471C90.9794 92.471 90.6668 92.3403 90.4708 92.079C90.2841 91.8083 90.1908 91.4256 90.1908 90.931V82.335H91.3388V91.015C91.3388 91.1923 91.3714 91.323 91.4368 91.407C91.5021 91.4816 91.5768 91.519 91.6608 91.519C91.6981 91.519 91.7308 91.519 91.7588 91.519C91.7961 91.5096 91.8474 91.5003 91.9128 91.491L92.0668 92.359C91.9921 92.3963 91.9034 92.4243 91.8008 92.443C91.6981 92.4616 91.5674 92.471 91.4088 92.471ZM94.9771 92.471C94.5478 92.471 94.2351 92.3403 94.0391 92.079C93.8524 91.8083 93.7591 91.4256 93.7591 90.931V82.335H94.9071V91.015C94.9071 91.1923 94.9398 91.323 95.0051 91.407C95.0704 91.4816 95.1451 91.519 95.2291 91.519C95.2664 91.519 95.2991 91.519 95.3271 91.519C95.3644 91.5096 95.4158 91.5003 95.4811 91.491L95.6351 92.359C95.5604 92.3963 95.4718 92.4243 95.3691 92.443C95.2664 92.4616 95.1358 92.471 94.9771 92.471ZM43.1381 113.439C42.3075 113.439 41.6308 113.28 41.1081 112.963C40.5855 112.646 40.3241 112.193 40.3241 111.605C40.3241 111.316 40.4128 111.036 40.5901 110.765C40.7675 110.504 41.0101 110.27 41.3181 110.065V110.009C41.1501 109.906 41.0055 109.762 40.8841 109.575C40.7721 109.388 40.7161 109.164 40.7161 108.903C40.7161 108.614 40.7955 108.362 40.9541 108.147C41.1128 107.932 41.2808 107.764 41.4581 107.643V107.587C41.2341 107.4 41.0288 107.148 40.8421 106.831C40.6648 106.514 40.5761 106.154 40.5761 105.753C40.5761 105.258 40.6928 104.829 40.9261 104.465C41.1595 104.101 41.4721 103.821 41.8641 103.625C42.2561 103.429 42.6808 103.331 43.1381 103.331C43.3248 103.331 43.5021 103.35 43.6701 103.387C43.8381 103.415 43.9828 103.452 44.1041 103.499H46.4701V104.381H45.0701C45.2288 104.53 45.3595 104.731 45.4621 104.983C45.5741 105.226 45.6301 105.492 45.6301 105.781C45.6301 106.266 45.5181 106.686 45.2941 107.041C45.0701 107.396 44.7715 107.671 44.3981 107.867C44.0248 108.054 43.6048 108.147 43.1381 108.147C42.7741 108.147 42.4335 108.068 42.1161 107.909C41.9948 108.012 41.8921 108.128 41.8081 108.259C41.7241 108.38 41.6821 108.534 41.6821 108.721C41.6821 108.936 41.7661 109.113 41.9341 109.253C42.1115 109.393 42.4288 109.463 42.8861 109.463H44.2021C44.9955 109.463 45.5881 109.594 45.9801 109.855C46.3815 110.107 46.5821 110.518 46.5821 111.087C46.5821 111.507 46.4421 111.894 46.1621 112.249C45.8821 112.604 45.4855 112.888 44.9721 113.103C44.4588 113.327 43.8475 113.439 43.1381 113.439ZM43.1381 107.377C43.5301 107.377 43.8661 107.232 44.1461 106.943C44.4355 106.644 44.5801 106.248 44.5801 105.753C44.5801 105.258 44.4401 104.871 44.1601 104.591C43.8801 104.311 43.5395 104.171 43.1381 104.171C42.7368 104.171 42.3961 104.311 42.1161 104.591C41.8361 104.871 41.6961 105.258 41.6961 105.753C41.6961 106.248 41.8361 106.644 42.1161 106.943C42.4055 107.232 42.7461 107.377 43.1381 107.377ZM43.3061 112.641C43.9595 112.641 44.4821 112.496 44.8741 112.207C45.2661 111.927 45.4621 111.61 45.4621 111.255C45.4621 110.938 45.3408 110.718 45.0981 110.597C44.8648 110.476 44.5288 110.415 44.0901 110.415H42.9141C42.7835 110.415 42.6388 110.406 42.4801 110.387C42.3308 110.368 42.1815 110.34 42.0321 110.303C41.7895 110.48 41.6121 110.667 41.5001 110.863C41.3881 111.059 41.3321 111.255 41.3321 111.451C41.3321 111.815 41.5048 112.104 41.8501 112.319C42.2048 112.534 42.6901 112.641 43.3061 112.641ZM50.4634 110.471C49.8567 110.471 49.3061 110.331 48.8114 110.051C48.3167 109.762 47.9247 109.351 47.6354 108.819C47.3461 108.287 47.2014 107.652 47.2014 106.915C47.2014 106.168 47.3461 105.529 47.6354 104.997C47.9341 104.465 48.3167 104.054 48.7834 103.765C49.2501 103.476 49.7401 103.331 50.2534 103.331C51.1214 103.331 51.7887 103.62 52.2554 104.199C52.7314 104.778 52.9694 105.552 52.9694 106.523C52.9694 106.644 52.9647 106.766 52.9554 106.887C52.9554 106.999 52.9461 107.097 52.9274 107.181H48.3354C48.3821 107.9 48.6061 108.474 49.0074 108.903C49.4181 109.332 49.9501 109.547 50.6034 109.547C50.9301 109.547 51.2287 109.5 51.4994 109.407C51.7794 109.304 52.0454 109.174 52.2974 109.015L52.7034 109.771C52.4141 109.958 52.0827 110.121 51.7094 110.261C51.3454 110.401 50.9301 110.471 50.4634 110.471ZM48.3214 106.355H51.9614C51.9614 105.664 51.8121 105.142 51.5134 104.787C51.2241 104.423 50.8134 104.241 50.2814 104.241C49.8054 104.241 49.3761 104.428 48.9934 104.801C48.6201 105.165 48.3961 105.683 48.3214 106.355ZM54.6507 113.173V103.499H55.6027L55.7007 104.283H55.7427C56.0507 104.022 56.3867 103.798 56.7507 103.611C57.1241 103.424 57.5114 103.331 57.9127 103.331C58.7901 103.331 59.4574 103.648 59.9147 104.283C60.3721 104.908 60.6007 105.748 60.6007 106.803C60.6007 107.568 60.4607 108.226 60.1807 108.777C59.9101 109.328 59.5507 109.748 59.1027 110.037C58.6641 110.326 58.1834 110.471 57.6607 110.471C57.3434 110.471 57.0261 110.401 56.7087 110.261C56.4007 110.121 56.0881 109.93 55.7707 109.687L55.7987 110.877V113.173H54.6507ZM57.4647 109.505C58.0247 109.505 58.4867 109.267 58.8507 108.791C59.2241 108.306 59.4107 107.643 59.4107 106.803C59.4107 106.056 59.2707 105.454 58.9907 104.997C58.7201 104.53 58.2627 104.297 57.6187 104.297C57.3294 104.297 57.0354 104.376 56.7367 104.535C56.4474 104.694 56.1347 104.922 55.7987 105.221V108.791C56.1067 109.052 56.4054 109.239 56.6947 109.351C56.9841 109.454 57.2407 109.505 57.4647 109.505ZM62.4163 110.303V103.499H63.3683L63.4663 104.731H63.5083C63.7417 104.302 64.0263 103.961 64.3623 103.709C64.6983 103.457 65.0577 103.331 65.4403 103.331C65.711 103.331 65.9537 103.378 66.1683 103.471L65.9443 104.479C65.8323 104.442 65.7297 104.414 65.6363 104.395C65.543 104.376 65.4263 104.367 65.2863 104.367C64.997 104.367 64.6937 104.484 64.3763 104.717C64.0683 104.95 63.7977 105.356 63.5643 105.935V110.303H62.4163ZM69.2579 110.471C68.5392 110.471 68.0119 110.247 67.6759 109.799C67.3399 109.342 67.1719 108.679 67.1719 107.811V103.499H68.3339V107.657C68.3339 108.292 68.4319 108.754 68.6279 109.043C68.8332 109.332 69.1599 109.477 69.6079 109.477C69.9625 109.477 70.2752 109.388 70.5459 109.211C70.8259 109.024 71.1245 108.73 71.4419 108.329V103.499H72.5899V110.303H71.6379L71.5399 109.239H71.4979C71.1805 109.612 70.8445 109.911 70.4899 110.135C70.1352 110.359 69.7245 110.471 69.2579 110.471ZM68.5719 102.085C68.3665 102.085 68.1985 102.02 68.0679 101.889C67.9372 101.749 67.8719 101.581 67.8719 101.385C67.8719 101.189 67.9372 101.026 68.0679 100.895C68.1985 100.755 68.3665 100.685 68.5719 100.685C68.7679 100.685 68.9312 100.755 69.0619 100.895C69.1925 101.026 69.2579 101.189 69.2579 101.385C69.2579 101.581 69.1925 101.749 69.0619 101.889C68.9312 102.02 68.7679 102.085 68.5719 102.085ZM71.2599 102.085C71.0639 102.085 70.9005 102.02 70.7699 101.889C70.6392 101.749 70.5739 101.581 70.5739 101.385C70.5739 101.189 70.6392 101.026 70.7699 100.895C70.9005 100.755 71.0639 100.685 71.2599 100.685C71.4652 100.685 71.6332 100.755 71.7639 100.895C71.8945 101.026 71.9599 101.189 71.9599 101.385C71.9599 101.581 71.8945 101.749 71.7639 101.889C71.6332 102.02 71.4652 102.085 71.2599 102.085ZM75.0811 110.303V104.437H74.1571V103.569L75.0811 103.499V102.421C75.0811 101.73 75.2398 101.184 75.5571 100.783C75.8838 100.372 76.3878 100.167 77.0691 100.167C77.2838 100.167 77.4891 100.19 77.6851 100.237C77.8811 100.274 78.0538 100.326 78.2031 100.391L77.9511 101.273C77.6991 101.161 77.4424 101.105 77.1811 101.105C76.5464 101.105 76.2291 101.544 76.2291 102.421V103.499H78.7211L78.8611 101.595H79.8131V103.499H81.6611V104.437H79.8131V108.217C79.8131 108.637 79.8924 108.964 80.0511 109.197C80.2098 109.421 80.4851 109.533 80.8771 109.533C80.9984 109.533 81.1291 109.514 81.2691 109.477C81.4091 109.43 81.5351 109.388 81.6471 109.351L81.8711 110.219C81.6844 110.284 81.4791 110.34 81.2551 110.387C81.0404 110.443 80.8258 110.471 80.6111 110.471C79.8831 110.471 79.3744 110.261 79.0851 109.841C78.8051 109.421 78.6651 108.875 78.6651 108.203V104.437H76.2291V110.303H75.0811Z" fill="#106029"/>
<path d="M71.16 39.4757C74.505 39.4757 77.1956 36.7609 77.1956 33.4158C77.1956 30.0708 74.505 27.356 71.16 27.356C67.8149 27.356 65.1001 30.0708 65.1001 33.4158C65.1001 36.7609 67.8149 39.4757 71.16 39.4757ZM52.9803 37.0518C57.0041 37.0518 60.2279 33.8037 60.2279 29.7799C60.2279 25.7561 57.0041 22.5081 52.9803 22.5081C48.9566 22.5081 45.7085 25.7561 45.7085 29.7799C45.7085 33.8037 48.9566 37.0518 52.9803 37.0518ZM71.16 44.3236C66.7241 44.3236 57.8282 46.5536 57.8282 50.9895V56.4433H71.16H84.4917V50.9895C84.4917 46.5536 75.5958 44.3236 71.16 44.3236ZM52.9803 41.8996C47.3325 41.8996 36.0127 44.7357 36.0127 50.3835V56.4433H52.9803V50.9895C52.9803 48.9291 53.7802 45.3174 58.7251 42.5784C56.6163 42.142 54.5801 41.8996 52.9803 41.8996Z" fill="#106029"/>
</svg>
