<svg width="38" height="32" viewBox="0 0 38 32" fill="none" xmlns="http://www.w3.org/2000/svg">
<path d="M34.8 13.1198H33.08V11.7598C33.08 8.5198 30.44 5.9198 27.24 5.9198H20.28V2.0798C20.28 1.3998 19.72 0.799805 19 0.799805C18.32 0.799805 17.72 1.3598 17.72 2.0798V5.9198H10.76C7.52 5.9198 4.92 8.5598 4.92 11.7598V13.1198H3.2C1.44 13.1198 0 14.5598 0 16.3198V20.7998C0 22.5598 1.44 23.9998 3.2 23.9998H4.92V25.3598C4.92 28.5998 7.56 31.1998 10.76 31.1998H27.24C30.48 31.1998 33.08 28.5598 33.08 25.3598V23.9998H34.8C36.56 23.9998 38 22.5598 38 20.7998V16.3198C38 14.5598 36.56 13.1198 34.8 13.1198ZM3.2 21.4398C2.84 21.4398 2.52 21.1598 2.52 20.7598V16.3198C2.52 15.9598 2.8 15.6398 3.2 15.6398H4.92V21.4398H3.2ZM30.56 25.3198C30.56 27.1598 29.08 28.6398 27.24 28.6398H10.76C8.92 28.6398 7.44 27.1598 7.44 25.3198V11.7598C7.44 9.9198 8.92 8.4398 10.76 8.4398H27.24C29.08 8.4398 30.56 9.9198 30.56 11.7598V25.3198ZM35.48 20.7998C35.48 21.1598 35.2 21.4798 34.8 21.4798H33.08V15.6398H34.8C35.16 15.6398 35.48 15.9198 35.48 16.3198V20.7998Z" fill="white"/>
<path d="M13.9603 17.6799C15.4183 17.6799 16.6003 16.4979 16.6003 15.0399C16.6003 13.5819 15.4183 12.3999 13.9603 12.3999C12.5023 12.3999 11.3203 13.5819 11.3203 15.0399C11.3203 16.4979 12.5023 17.6799 13.9603 17.6799Z" fill="white"/>
<path d="M24.0401 17.6799C25.4982 17.6799 26.6802 16.4979 26.6802 15.0399C26.6802 13.5819 25.4982 12.3999 24.0401 12.3999C22.5821 12.3999 21.4001 13.5819 21.4001 15.0399C21.4001 16.4979 22.5821 17.6799 24.0401 17.6799Z" fill="white"/>
<path d="M24.4401 20.2397C23.8001 19.9597 23.0401 20.2397 22.7601 20.8797C22.2401 21.9997 20.7201 22.7997 19.0001 22.7997C17.2801 22.7997 15.7601 21.9997 15.2401 20.8797C14.9601 20.2397 14.2001 19.9597 13.5601 20.2397C12.9201 20.5197 12.6401 21.2797 12.9201 21.9197C13.8401 23.9597 16.2801 25.3197 19.0001 25.3197C21.7201 25.3197 24.1601 23.9597 25.0801 21.9197C25.3601 21.2797 25.0801 20.5197 24.4401 20.2397Z" fill="white"/>
</svg>
