<svg width="30" height="30" viewBox="0 0 30 30" fill="none" xmlns="http://www.w3.org/2000/svg">
<path d="M2.87891 -0.0273127C1.28532 -0.0273127 -0.0273438 1.28535 -0.0273438 2.87894C-0.0273438 4.12136 0.773076 5.18456 1.87987 5.59627V23.4455C0.773076 23.8584 -0.0273438 24.924 -0.0273438 26.1664C-0.0273438 27.76 1.28532 29.0727 2.87891 29.0727C4.13103 29.0727 5.19907 28.2553 5.60353 27.1352H23.374C23.7784 28.2553 24.8465 29.0727 26.0986 29.0727C27.6922 29.0727 29.0048 27.76 29.0048 26.1664C29.0048 24.9131 28.1899 23.8426 27.0673 23.4382V5.64107C28.1899 5.23782 29.0048 4.16978 29.0048 2.91645C29.0048 1.32286 27.6922 0.0101973 26.0986 0.0101973C24.8453 0.0101973 23.7784 0.826365 23.374 1.9477H5.61562C5.22207 0.80699 4.14553 -0.0273438 2.87891 -0.0273438V-0.0273127ZM2.87891 1.91019C3.42503 1.91019 3.84766 2.33281 3.84766 2.87894C3.84766 3.42506 3.42503 3.84769 2.87891 3.84769C2.33278 3.84769 1.91016 3.42506 1.91016 2.87894C1.91016 2.33281 2.33278 1.91019 2.87891 1.91019ZM26.0985 1.94773C26.6447 1.94773 27.0673 2.37035 27.0673 2.91648C27.0673 3.46381 26.6447 3.88523 26.0985 3.88523C25.5524 3.88523 25.1298 3.46381 25.1298 2.91648C25.1298 2.37035 25.5524 1.94773 26.0985 1.94773ZM5.59265 3.88523H23.3739C23.6694 4.70139 24.3136 5.34805 25.1298 5.6411V23.4382C24.3124 23.7325 23.6682 24.3815 23.3739 25.1977H5.6035C5.3056 24.3706 4.64929 23.7155 3.81737 23.4273V5.61564C4.63475 5.33107 5.28745 4.69411 5.59261 3.88523H5.59265ZM7.70331 7.77604V7.7833L7.69241 12.5557H9.62991L9.63718 9.71733H13.528L13.505 21.3119L11.5639 21.3047L11.5566 23.2422L17.3908 23.2603L17.3993 21.3228L15.4424 21.3156L15.4654 9.71724H19.3137L19.3101 12.552H21.2476L21.2585 7.77618L7.70331 7.77604ZM2.87909 25.1977C3.42522 25.1977 3.84784 25.6203 3.84784 26.1665C3.84784 26.7138 3.42522 27.1352 2.87909 27.1352C2.33297 27.1352 1.91034 26.7138 1.91034 26.1665C1.91034 25.6203 2.33297 25.1977 2.87909 25.1977ZM26.0987 25.1977C26.6448 25.1977 27.0675 25.6203 27.0675 26.1665C27.0675 26.7138 26.6448 27.1352 26.0987 27.1352C25.5526 27.1352 25.13 26.7138 25.13 26.1665C25.13 25.6203 25.5526 25.1977 26.0987 25.1977Z" fill="#333333"/>
</svg>
