<svg width="36" height="21" viewBox="0 0 36 21" fill="none" xmlns="http://www.w3.org/2000/svg">
<path d="M27.5313 7.63022C27.6019 7.60994 27.6379 7.59043 27.6379 7.59043L27.6739 7.57015C27.6739 7.57015 27.7099 7.57015 27.7099 7.54986L32.2443 5.01427C32.3855 4.93469 32.4574 4.83482 32.4574 4.73497C32.4574 4.63511 32.3869 4.53524 32.2443 4.45566L28.737 2.47864C28.5958 2.39906 28.4186 2.35849 28.2415 2.35849C28.0643 2.35849 27.8871 2.39828 27.746 2.47864L23.2087 5.01423C23.2087 5.01423 23.2087 5.03452 23.1728 5.03452L23.1368 5.0548C23.1008 5.07509 23.1008 5.09459 23.0662 5.11488L23.0302 5.13516L21.826 6.61286L18.4613 8.54931L16.0156 7.15119C16.9014 5.77336 16.2993 4.21534 14.4571 3.15656C12.5082 2.05804 9.46026 1.75844 6.90942 2.39742C6.69627 2.4575 6.55509 2.55736 6.51909 2.69702C6.4831 2.81717 6.55508 2.95683 6.69626 3.05669L10.169 5.01422L8.18555 6.15253L4.71281 4.195C4.53564 4.09514 4.32248 4.05535 4.07473 4.07485C3.86158 4.09514 3.64981 4.17472 3.54323 4.29488C2.40965 5.73279 2.97573 7.43046 4.92456 8.54936C6.7668 9.5878 9.56702 9.92719 12.0112 9.42786L13.2154 10.1066L5.42148 14.4811C3.89756 15.3402 3.89756 16.7383 5.42148 17.5974C6.16614 18.0171 7.19314 18.2363 8.18555 18.2363C9.17796 18.2363 10.1704 18.0163 10.9496 17.5974L18.7088 13.2236L26.2203 17.4376C26.7878 17.7575 27.4964 17.8971 28.2397 17.8971C28.9484 17.8971 29.693 17.7372 30.2245 17.4376C31.3235 16.8181 31.3235 15.7999 30.2245 15.1804L21.4729 10.2472L24.9096 8.3295L27.5313 7.63022ZM28.24 3.31642L30.7563 4.73484L27.249 6.71186L24.7327 5.29344L28.24 3.31642ZM8.53985 2.93647C10.0638 2.73674 11.6928 2.93647 12.9329 3.47559L11.1972 4.45395L8.53985 2.93647ZM12.6852 8.66937C12.544 8.58979 12.3668 8.54922 12.1897 8.54922C12.0831 8.54922 12.0125 8.5695 11.9059 8.58901C9.88653 9.10863 7.51293 8.84882 5.9528 7.98981C4.64206 7.25097 4.14514 6.19223 4.53547 5.21394L7.68846 7.01153C7.97221 7.17147 8.43313 7.17147 8.68088 7.01153L13.9254 4.0553C15.0949 4.91431 15.3427 6.09236 14.5274 7.11139C14.4209 7.27133 14.4568 7.45078 14.6686 7.55064L17.4327 9.1282L15.4133 10.2665L12.6852 8.66937ZM9.95711 17.0175C9.00069 17.5567 7.4062 17.5567 6.44978 17.0175C5.49337 16.4784 5.49337 15.5796 6.44978 15.0405L6.94528 14.7612L10.4526 16.7382L9.95711 17.0175ZM11.445 16.1788L7.9377 14.2018L14.209 10.6668L17.7163 12.6438L11.445 16.1788ZM29.2321 15.7396C29.7996 16.0392 29.7996 16.5588 29.2321 16.8779C28.6646 17.1978 27.7788 17.1978 27.2127 16.8779L19.2041 12.3644L18.4595 11.9446L20.4789 10.8063L29.2321 15.7396ZM17.4687 11.3659L16.4763 10.8065L22.4999 7.41102L23.4923 7.97043L17.4687 11.3659ZM23.3152 6.75166L23.9532 5.97303L26.0086 7.13163L24.6273 7.49131L23.3152 6.75166Z" fill="black"/>
</svg>
