<svg width="30" height="30" viewBox="0 0 30 30" fill="none" xmlns="http://www.w3.org/2000/svg">
<path d="M15 0C6.7125 0 0 6.7125 0 15C0 23.2875 6.7125 30 15 30C23.2875 30 30 23.2875 30 15C30 6.7125 23.2875 0 15 0ZM22.53 12.1575C22.5375 12.315 22.5375 12.465 22.5375 12.6225C22.5375 17.4 18.9 22.9125 12.2475 22.9125C10.2075 22.9125 8.3025 22.3125 6.705 21.285C6.99 21.315 7.275 21.3375 7.5675 21.3375C9.2625 21.3375 10.8225 20.76 12.06 19.7925C10.4775 19.7625 9.1425 18.72 8.685 17.28C8.9025 17.325 9.135 17.3475 9.3675 17.3475C9.6975 17.3475 10.02 17.3025 10.32 17.22C8.6625 16.89 7.4175 15.4275 7.4175 13.6725C7.4175 13.6575 7.4175 13.6425 7.4175 13.6275C7.905 13.8975 8.46 14.0625 9.0525 14.0775C8.085 13.4325 7.44 12.3225 7.44 11.07C7.44 10.41 7.62 9.7875 7.9275 9.255C9.7125 11.445 12.375 12.885 15.3825 13.035C15.3225 12.7725 15.285 12.495 15.285 12.21C15.285 10.215 16.905 8.595 18.9 8.595C19.9425 8.595 20.88 9.0375 21.54 9.735C22.365 9.57 23.1375 9.27 23.835 8.8575C23.565 9.705 22.995 10.41 22.245 10.86C22.98 10.77 23.67 10.575 24.3225 10.29C23.85 11.01 23.2425 11.6475 22.53 12.1575Z" fill="white"/>
</svg>
