<svg width="37" height="27" viewBox="0 0 37 27" fill="none" xmlns="http://www.w3.org/2000/svg">
<path d="M7.32012 0.169922C3.76926 0.169922 0.870117 3.06907 0.870117 6.61992V20.3799C0.870117 23.9308 3.76926 26.8299 7.32012 26.8299H29.6801C33.231 26.8299 36.1301 23.9308 36.1301 20.3799V6.61992C36.1301 3.06907 33.231 0.169922 29.6801 0.169922H7.32012ZM7.32012 2.74992H29.6801C31.8469 2.74992 33.5501 4.45311 33.5501 6.61992V20.3799C33.5501 22.5467 31.8469 24.2499 29.6801 24.2499H7.32012C5.1533 24.2499 3.45012 22.5467 3.45012 20.3799V6.61992C3.45012 4.45311 5.1533 2.74992 7.32012 2.74992ZM14.6705 6.61992C14.3212 6.60816 13.9835 6.73918 13.7316 6.98273C13.4813 7.22629 13.3402 7.56057 13.3402 7.9099V19.0899C13.3369 19.7517 13.8357 20.311 14.4958 20.3799C14.7562 20.4068 15.0182 20.3564 15.2483 20.2321L25.5683 14.6421C25.9866 14.417 26.2453 13.9803 26.2453 13.5066C26.2453 13.0313 25.9866 12.5962 25.5683 12.3712L15.2483 6.78117C15.0703 6.68207 14.8738 6.62664 14.6705 6.61992H14.6705ZM15.9202 10.0868L22.236 13.4999L15.9202 16.9265V10.0868Z" fill="#032850"/>
</svg>
