<svg width="305" height="100" viewBox="0 0 305 100" fill="none" xmlns="http://www.w3.org/2000/svg">
<path d="M67.975 32.225L62.25 49.725H57.9L54.05 37.875L50.075 49.725H45.75L40 32.225H44.2L48.15 44.525L52.275 32.225H56.025L60.025 44.625L64.1 32.225H67.975Z" fill="#003B7C"/>
<path d="M70.2051 36.275H74.1051V49.725H70.2051V36.275ZM72.1551 34.4C71.4384 34.4 70.8551 34.1917 70.4051 33.775C69.9551 33.3583 69.7301 32.8417 69.7301 32.225C69.7301 31.6083 69.9551 31.0917 70.4051 30.675C70.8551 30.2583 71.4384 30.05 72.1551 30.05C72.8717 30.05 73.4551 30.25 73.9051 30.65C74.3551 31.05 74.5801 31.55 74.5801 32.15C74.5801 32.8 74.3551 33.3417 73.9051 33.775C73.4551 34.1917 72.8717 34.4 72.1551 34.4Z" fill="#003B7C"/>
<path d="M81.4496 38.05C81.9163 37.4 82.5413 36.9083 83.3246 36.575C84.1246 36.2417 85.0413 36.075 86.0746 36.075V39.675C85.6413 39.6417 85.3496 39.625 85.1996 39.625C84.0829 39.625 83.2079 39.9417 82.5746 40.575C81.9413 41.1917 81.6246 42.125 81.6246 43.375V49.725H77.7246V36.275H81.4496V38.05Z" fill="#003B7C"/>
<path d="M88.5953 32.225H92.6453V46.425H101.42V49.725H88.5953V32.225Z" fill="#003B7C"/>
<path d="M116.486 43.05C116.486 43.1 116.461 43.45 116.411 44.1H106.236C106.419 44.9333 106.852 45.5917 107.536 46.075C108.219 46.5583 109.069 46.8 110.086 46.8C110.786 46.8 111.402 46.7 111.936 46.5C112.486 46.2833 112.994 45.95 113.461 45.5L115.536 47.75C114.269 49.2 112.419 49.925 109.986 49.925C108.469 49.925 107.127 49.6333 105.961 49.05C104.794 48.45 103.894 47.625 103.261 46.575C102.627 45.525 102.311 44.3333 102.311 43C102.311 41.6833 102.619 40.5 103.236 39.45C103.869 38.3833 104.727 37.5583 105.811 36.975C106.911 36.375 108.136 36.075 109.486 36.075C110.802 36.075 111.994 36.3583 113.061 36.925C114.127 37.4917 114.961 38.3083 115.561 39.375C116.177 40.425 116.486 41.65 116.486 43.05ZM109.511 39.025C108.627 39.025 107.886 39.275 107.286 39.775C106.686 40.275 106.319 40.9583 106.186 41.825H112.811C112.677 40.975 112.311 40.3 111.711 39.8C111.111 39.2833 110.377 39.025 109.511 39.025Z" fill="#003B7C"/>
<path d="M122.807 38.05C123.274 37.4 123.899 36.9083 124.682 36.575C125.482 36.2417 126.399 36.075 127.432 36.075V39.675C126.999 39.6417 126.707 39.625 126.557 39.625C125.44 39.625 124.565 39.9417 123.932 40.575C123.299 41.1917 122.982 42.125 122.982 43.375V49.725H119.082V36.275H122.807V38.05Z" fill="#003B7C"/>
<path d="M137.926 36.075C139.593 36.075 140.934 36.575 141.951 37.575C142.984 38.575 143.501 40.0583 143.501 42.025V49.725H139.601V42.625C139.601 41.5583 139.368 40.7667 138.901 40.25C138.434 39.7167 137.759 39.45 136.876 39.45C135.893 39.45 135.109 39.7583 134.526 40.375C133.943 40.975 133.651 41.875 133.651 43.075V49.725H129.751V36.275H133.476V37.85C133.993 37.2833 134.634 36.85 135.401 36.55C136.168 36.2333 137.009 36.075 137.926 36.075Z" fill="#003B7C"/>
<path d="M160.358 43.05C160.358 43.1 160.333 43.45 160.283 44.1H150.108C150.291 44.9333 150.724 45.5917 151.408 46.075C152.091 46.5583 152.941 46.8 153.958 46.8C154.658 46.8 155.274 46.7 155.808 46.5C156.358 46.2833 156.866 45.95 157.333 45.5L159.408 47.75C158.141 49.2 156.291 49.925 153.858 49.925C152.341 49.925 150.999 49.6333 149.833 49.05C148.666 48.45 147.766 47.625 147.133 46.575C146.499 45.525 146.183 44.3333 146.183 43C146.183 41.6833 146.491 40.5 147.108 39.45C147.741 38.3833 148.599 37.5583 149.683 36.975C150.783 36.375 152.008 36.075 153.358 36.075C154.674 36.075 155.866 36.3583 156.933 36.925C157.999 37.4917 158.833 38.3083 159.433 39.375C160.049 40.425 160.358 41.65 160.358 43.05ZM153.383 39.025C152.499 39.025 151.758 39.275 151.158 39.775C150.558 40.275 150.191 40.9583 150.058 41.825H156.683C156.549 40.975 156.183 40.3 155.583 39.8C154.983 39.2833 154.249 39.025 153.383 39.025Z" fill="#003B7C"/>
<path d="M171.129 36.075C172.796 36.075 174.137 36.575 175.154 37.575C176.187 38.575 176.704 40.0583 176.704 42.025V49.725H172.804V42.625C172.804 41.5583 172.571 40.7667 172.104 40.25C171.637 39.7167 170.962 39.45 170.079 39.45C169.096 39.45 168.312 39.7583 167.729 40.375C167.146 40.975 166.854 41.875 166.854 43.075V49.725H162.954V36.275H166.679V37.85C167.196 37.2833 167.837 36.85 168.604 36.55C169.371 36.2333 170.212 36.075 171.129 36.075Z" fill="#003B7C"/>
<path d="M189.279 49.975C187.462 49.975 185.821 49.5833 184.354 48.8C182.904 48.0167 181.762 46.9417 180.929 45.575C180.112 44.1917 179.704 42.6417 179.704 40.925C179.704 39.2083 180.112 37.6667 180.929 36.3C181.762 34.9167 182.904 33.8333 184.354 33.05C185.821 32.2667 187.462 31.875 189.279 31.875C191.096 31.875 192.729 32.2667 194.179 33.05C195.629 33.8333 196.771 34.9167 197.604 36.3C198.437 37.6667 198.854 39.2083 198.854 40.925C198.854 42.6417 198.437 44.1917 197.604 45.575C196.771 46.9417 195.629 48.0167 194.179 48.8C192.729 49.5833 191.096 49.975 189.279 49.975ZM189.279 46.525C190.312 46.525 191.246 46.2917 192.079 45.825C192.912 45.3417 193.562 44.675 194.029 43.825C194.512 42.975 194.754 42.0083 194.754 40.925C194.754 39.8417 194.512 38.875 194.029 38.025C193.562 37.175 192.912 36.5167 192.079 36.05C191.246 35.5667 190.312 35.325 189.279 35.325C188.246 35.325 187.312 35.5667 186.479 36.05C185.646 36.5167 184.987 37.175 184.504 38.025C184.037 38.875 183.804 39.8417 183.804 40.925C183.804 42.0083 184.037 42.975 184.504 43.825C184.987 44.675 185.646 45.3417 186.479 45.825C187.312 46.2917 188.246 46.525 189.279 46.525Z" fill="#EC4A70"/>
<path d="M209.798 36.025C211.465 36.025 212.806 36.525 213.823 37.525C214.856 38.525 215.373 40.0083 215.373 41.975V49.675H211.473V42.575C211.473 41.5083 211.24 40.7167 210.773 40.2C210.306 39.6667 209.631 39.4 208.748 39.4C207.765 39.4 206.981 39.7083 206.398 40.325C205.815 40.925 205.523 41.825 205.523 43.025V49.675H201.623V36.225H205.348V37.8C205.865 37.2333 206.506 36.8 207.273 36.5C208.04 36.1833 208.881 36.025 209.798 36.025Z" fill="#EC4A70"/>
<path d="M218.908 31.125H222.808V49.675H218.908V31.125Z" fill="#EC4A70"/>
<path d="M226.428 36.225H230.328V49.675H226.428V36.225ZM228.378 34.35C227.661 34.35 227.078 34.1417 226.628 33.725C226.178 33.3083 225.953 32.7917 225.953 32.175C225.953 31.5583 226.178 31.0417 226.628 30.625C227.078 30.2083 227.661 30 228.378 30C229.094 30 229.678 30.2 230.128 30.6C230.578 31 230.803 31.5 230.803 32.1C230.803 32.75 230.578 33.2917 230.128 33.725C229.678 34.1417 229.094 34.35 228.378 34.35Z" fill="#EC4A70"/>
<path d="M242.122 36.025C243.789 36.025 245.13 36.525 246.147 37.525C247.18 38.525 247.697 40.0083 247.697 41.975V49.675H243.797V42.575C243.797 41.5083 243.564 40.7167 243.097 40.2C242.63 39.6667 241.955 39.4 241.072 39.4C240.089 39.4 239.305 39.7083 238.722 40.325C238.139 40.925 237.847 41.825 237.847 43.025V49.675H233.947V36.225H237.672V37.8C238.189 37.2333 238.83 36.8 239.597 36.5C240.364 36.1833 241.205 36.025 242.122 36.025Z" fill="#EC4A70"/>
<path d="M264.554 43C264.554 43.05 264.529 43.4 264.479 44.05H254.304C254.487 44.8833 254.92 45.5417 255.604 46.025C256.287 46.5083 257.137 46.75 258.154 46.75C258.854 46.75 259.47 46.65 260.004 46.45C260.554 46.2333 261.062 45.9 261.529 45.45L263.604 47.7C262.337 49.15 260.487 49.875 258.054 49.875C256.537 49.875 255.195 49.5833 254.029 49C252.862 48.4 251.962 47.575 251.329 46.525C250.695 45.475 250.379 44.2833 250.379 42.95C250.379 41.6333 250.687 40.45 251.304 39.4C251.937 38.3333 252.795 37.5083 253.879 36.925C254.979 36.325 256.204 36.025 257.554 36.025C258.87 36.025 260.062 36.3083 261.129 36.875C262.195 37.4417 263.029 38.2583 263.629 39.325C264.245 40.375 264.554 41.6 264.554 43ZM257.579 38.975C256.695 38.975 255.954 39.225 255.354 39.725C254.754 40.225 254.387 40.9083 254.254 41.775H260.879C260.745 40.925 260.379 40.25 259.779 39.75C259.179 39.2333 258.445 38.975 257.579 38.975Z" fill="#EC4A70"/>
<path d="M90.8057 61.4135V63.4712H94.4172V64.9171H90.8057V67.7533H89V59.9676H94.8964V61.4135H90.8057Z" fill="#4F4F5B"/>
<path d="M97.5482 62.5592C97.7563 62.27 98.035 62.0512 98.3842 61.9029C98.7409 61.7546 99.1496 61.6805 99.6103 61.6805V63.2821C99.4171 63.2673 99.2871 63.2599 99.2202 63.2599C98.7223 63.2599 98.3322 63.4007 98.0498 63.6825C97.7675 63.9569 97.6263 64.3721 97.6263 64.9282V67.7533H95.8874V61.7695H97.5482V62.5592Z" fill="#4F4F5B"/>
<path d="M106.464 64.7836C106.464 64.8059 106.453 64.9616 106.431 65.2508H101.894C101.976 65.6215 102.169 65.9144 102.474 66.1294C102.778 66.3445 103.157 66.452 103.61 66.452C103.923 66.452 104.198 66.4075 104.435 66.3185C104.681 66.2221 104.907 66.0738 105.115 65.8736L106.04 66.8746C105.476 67.5197 104.651 67.8423 103.566 67.8423C102.89 67.8423 102.292 67.7125 101.771 67.453C101.251 67.186 100.85 66.819 100.568 66.3519C100.285 65.8847 100.144 65.3546 100.144 64.7614C100.144 64.1756 100.281 63.6491 100.556 63.182C100.839 62.7074 101.221 62.3404 101.704 62.0809C102.195 61.814 102.741 61.6805 103.343 61.6805C103.93 61.6805 104.461 61.8065 104.937 62.0586C105.412 62.3108 105.784 62.6741 106.052 63.1486C106.327 63.6158 106.464 64.1608 106.464 64.7836ZM103.354 62.9929C102.96 62.9929 102.63 63.1041 102.362 63.3266C102.095 63.549 101.931 63.8531 101.872 64.2386H104.825C104.766 63.8605 104.603 63.5602 104.335 63.3377C104.067 63.1079 103.741 62.9929 103.354 62.9929Z" fill="#4F4F5B"/>
<path d="M107.622 61.7695H109.36V67.7533H107.622V61.7695ZM108.491 60.9353C108.172 60.9353 107.911 60.8426 107.711 60.6572C107.51 60.4719 107.41 60.242 107.41 59.9676C107.41 59.6933 107.51 59.4634 107.711 59.2781C107.911 59.0927 108.172 59 108.491 59C108.811 59 109.071 59.089 109.271 59.2669C109.472 59.4449 109.572 59.6673 109.572 59.9343C109.572 60.2235 109.472 60.4644 109.271 60.6572C109.071 60.8426 108.811 60.9353 108.491 60.9353Z" fill="#4F4F5B"/>
<path d="M116.848 64.7836C116.848 64.8059 116.837 64.9616 116.815 65.2508H112.278C112.36 65.6215 112.553 65.9144 112.858 66.1294C113.163 66.3445 113.542 66.452 113.995 66.452C114.307 66.452 114.582 66.4075 114.82 66.3185C115.065 66.2221 115.292 66.0738 115.5 65.8736L116.425 66.8746C115.86 67.5197 115.035 67.8423 113.95 67.8423C113.274 67.8423 112.676 67.7125 112.156 67.453C111.636 67.186 111.234 66.819 110.952 66.3519C110.67 65.8847 110.528 65.3546 110.528 64.7614C110.528 64.1756 110.666 63.6491 110.941 63.182C111.223 62.7074 111.606 62.3404 112.089 62.0809C112.579 61.814 113.126 61.6805 113.727 61.6805C114.314 61.6805 114.846 61.8065 115.321 62.0586C115.797 62.3108 116.168 62.6741 116.436 63.1486C116.711 63.6158 116.848 64.1608 116.848 64.7836ZM113.739 62.9929C113.345 62.9929 113.014 63.1041 112.747 63.3266C112.479 63.549 112.316 63.8531 112.256 64.2386H115.21C115.15 63.8605 114.987 63.5602 114.719 63.3377C114.452 63.1079 114.125 62.9929 113.739 62.9929Z" fill="#4F4F5B"/>
<path d="M127.015 63.7048C127.46 63.8456 127.81 64.0829 128.062 64.4166C128.315 64.7428 128.441 65.147 128.441 65.6289C128.441 66.3111 128.174 66.8375 127.639 67.2083C127.111 67.5716 126.338 67.7533 125.32 67.7533H121.285V59.9676H125.097C126.049 59.9676 126.777 60.1493 127.282 60.5126C127.795 60.876 128.051 61.3691 128.051 61.9919C128.051 62.3701 127.958 62.7074 127.773 63.004C127.594 63.3006 127.342 63.5342 127.015 63.7048ZM123.08 61.3246V63.1598H124.875C125.32 63.1598 125.658 63.0819 125.889 62.9262C126.119 62.7705 126.234 62.5406 126.234 62.2366C126.234 61.9326 126.119 61.7064 125.889 61.5581C125.658 61.4024 125.32 61.3246 124.875 61.3246H123.08ZM125.187 66.3964C125.662 66.3964 126.019 66.3185 126.257 66.1628C126.502 66.0071 126.625 65.7661 126.625 65.4398C126.625 64.7947 126.145 64.4722 125.187 64.4722H123.08V66.3964H125.187Z" fill="#4F4F5B"/>
<path d="M129.686 61.7695H131.425V67.7533H129.686V61.7695ZM130.555 60.9353C130.236 60.9353 129.976 60.8426 129.775 60.6572C129.574 60.4719 129.474 60.242 129.474 59.9676C129.474 59.6933 129.574 59.4634 129.775 59.2781C129.976 59.0927 130.236 59 130.555 59C130.875 59 131.135 59.089 131.336 59.2669C131.536 59.4449 131.636 59.6673 131.636 59.9343C131.636 60.2235 131.536 60.4644 131.336 60.6572C131.135 60.8426 130.875 60.9353 130.555 60.9353Z" fill="#4F4F5B"/>
<path d="M133.038 59.5005H134.777V67.7533H133.038V59.5005Z" fill="#4F4F5B"/>
<path d="M142.499 59.5005V67.7533H140.839V67.0637C140.408 67.5827 139.783 67.8423 138.966 67.8423C138.401 67.8423 137.888 67.7162 137.428 67.4641C136.974 67.212 136.618 66.8524 136.358 66.3852C136.098 65.9181 135.968 65.3768 135.968 64.7614C135.968 64.1459 136.098 63.6047 136.358 63.1375C136.618 62.6704 136.974 62.3108 137.428 62.0586C137.888 61.8065 138.401 61.6805 138.966 61.6805C139.731 61.6805 140.33 61.9215 140.76 62.4034V59.5005H142.499ZM139.267 66.4186C139.705 66.4186 140.069 66.2703 140.359 65.9737C140.649 65.6697 140.794 65.2656 140.794 64.7614C140.794 64.2572 140.649 63.8568 140.359 63.5602C140.069 63.2562 139.705 63.1041 139.267 63.1041C138.821 63.1041 138.453 63.2562 138.163 63.5602C137.874 63.8568 137.729 64.2572 137.729 64.7614C137.729 65.2656 137.874 65.6697 138.163 65.9737C138.453 66.2703 138.821 66.4186 139.267 66.4186Z" fill="#4F4F5B"/>
<path d="M150.15 61.7695V67.7533H148.5V67.0415C148.27 67.301 147.995 67.5012 147.676 67.6421C147.356 67.7755 147.01 67.8423 146.639 67.8423C145.851 67.8423 145.227 67.6161 144.766 67.1638C144.306 66.7115 144.075 66.0404 144.075 65.1507V61.7695H145.814V64.8948C145.814 65.8588 146.219 66.3407 147.029 66.3407C147.445 66.3407 147.78 66.2073 148.032 65.9403C148.285 65.666 148.411 65.2619 148.411 64.728V61.7695H150.15Z" fill="#4F4F5B"/>
<path d="M155.406 61.6805C156.149 61.6805 156.747 61.9029 157.2 62.3478C157.661 62.7927 157.891 63.4526 157.891 64.3276V67.7533H156.153V64.5945C156.153 64.12 156.049 63.7678 155.841 63.5379C155.632 63.3006 155.332 63.182 154.938 63.182C154.499 63.182 154.15 63.3192 153.89 63.5935C153.63 63.8605 153.5 64.2609 153.5 64.7947V67.7533H151.761V61.7695H153.422V62.4702C153.652 62.2181 153.938 62.0253 154.28 61.8918C154.622 61.7509 154.997 61.6805 155.406 61.6805Z" fill="#4F4F5B"/>
<path d="M165.719 61.7695V66.7523C165.719 67.8497 165.433 68.6653 164.861 69.1992C164.289 69.7331 163.453 70 162.353 70C161.773 70 161.223 69.9296 160.703 69.7887C160.183 69.6478 159.752 69.4439 159.41 69.1769L160.101 67.9312C160.354 68.1389 160.674 68.302 161.06 68.4206C161.446 68.5467 161.833 68.6097 162.219 68.6097C162.821 68.6097 163.263 68.4725 163.546 68.1982C163.835 67.9312 163.98 67.5234 163.98 66.9747V66.7189C163.527 67.2157 162.895 67.4641 162.085 67.4641C161.536 67.4641 161.03 67.3455 160.57 67.1082C160.116 66.8635 159.756 66.5224 159.488 66.0849C159.221 65.6475 159.087 65.1432 159.087 64.5723C159.087 64.0013 159.221 63.4971 159.488 63.0597C159.756 62.6222 160.116 62.2848 160.57 62.0475C161.03 61.8028 161.536 61.6805 162.085 61.6805C162.955 61.6805 163.616 61.966 164.07 62.5369V61.7695H165.719ZM162.431 66.0404C162.892 66.0404 163.267 65.907 163.557 65.64C163.854 65.3657 164.003 65.0098 164.003 64.5723C164.003 64.1348 163.854 63.7826 163.557 63.5157C163.267 63.2413 162.892 63.1041 162.431 63.1041C161.97 63.1041 161.591 63.2413 161.294 63.5157C160.997 63.7826 160.848 64.1348 160.848 64.5723C160.848 65.0098 160.997 65.3657 161.294 65.64C161.591 65.907 161.97 66.0404 162.431 66.0404Z" fill="#4F4F5B"/>
<path d="M175.432 66.4186V67.7533H170.082V66.7078L173.136 63.1041H170.16V61.7695H175.332V62.815L172.278 66.4186H175.432Z" fill="#4F4F5B"/>
<path d="M182.588 61.7695V67.7533H180.938V67.0415C180.708 67.301 180.433 67.5012 180.113 67.6421C179.794 67.7755 179.448 67.8423 179.077 67.8423C178.289 67.8423 177.665 67.6161 177.204 67.1638C176.743 66.7115 176.513 66.0404 176.513 65.1507V61.7695H178.252V64.8948C178.252 65.8588 178.657 66.3407 179.467 66.3407C179.883 66.3407 180.217 66.2073 180.47 65.9403C180.723 65.666 180.849 65.2619 180.849 64.728V61.7695H182.588Z" fill="#4F4F5B"/>
<path d="M191.879 61.6805C192.629 61.6805 193.224 61.9029 193.662 62.3478C194.108 62.7853 194.331 63.4452 194.331 64.3276V67.7533H192.592V64.5945C192.592 64.12 192.492 63.7678 192.291 63.5379C192.098 63.3006 191.819 63.182 191.455 63.182C191.046 63.182 190.723 63.3155 190.485 63.5824C190.247 63.8419 190.129 64.2312 190.129 64.7503V67.7533H188.39V64.5945C188.39 63.6528 188.011 63.182 187.253 63.182C186.852 63.182 186.532 63.3155 186.294 63.5824C186.056 63.8419 185.938 64.2312 185.938 64.7503V67.7533H184.199V61.7695H185.86V62.459C186.082 62.2069 186.354 62.0142 186.673 61.8807C187 61.7472 187.357 61.6805 187.743 61.6805C188.167 61.6805 188.55 61.7658 188.891 61.9363C189.233 62.0994 189.508 62.3404 189.716 62.6593C189.961 62.3478 190.27 62.1068 190.641 61.9363C191.02 61.7658 191.433 61.6805 191.879 61.6805Z" fill="#4F4F5B"/>
<path d="M206.269 67.7533L206.258 63.0819L203.962 66.9302H203.148L200.863 63.182V67.7533H199.169V59.9676H200.662L203.583 64.8059L206.458 59.9676H207.941L207.963 67.7533H206.269Z" fill="#4F4F5B"/>
<path d="M209.692 61.7695H211.431V67.7533H209.692V61.7695ZM210.561 60.9353C210.242 60.9353 209.982 60.8426 209.781 60.6572C209.58 60.4719 209.48 60.242 209.48 59.9676C209.48 59.6933 209.58 59.4634 209.781 59.2781C209.982 59.0927 210.242 59 210.561 59C210.881 59 211.141 59.089 211.341 59.2669C211.542 59.4449 211.642 59.6673 211.642 59.9343C211.642 60.2235 211.542 60.4644 211.341 60.6572C211.141 60.8426 210.881 60.9353 210.561 60.9353Z" fill="#4F4F5B"/>
<path d="M216.912 67.4641C216.741 67.5902 216.53 67.6866 216.277 67.7533C216.032 67.8126 215.772 67.8423 215.497 67.8423C214.783 67.8423 214.23 67.6606 213.836 67.2973C213.449 66.9339 213.256 66.4001 213.256 65.6957V63.2376H212.331V61.9029H213.256V60.4459H214.995V61.9029H216.489V63.2376H214.995V65.6734C214.995 65.9255 215.058 66.122 215.185 66.2629C215.318 66.3964 215.504 66.4631 215.742 66.4631C216.017 66.4631 216.251 66.3889 216.444 66.2406L216.912 67.4641Z" fill="#4F4F5B"/>
<path d="M225.568 61.6805C226.319 61.6805 226.913 61.9029 227.352 62.3478C227.797 62.7853 228.02 63.4452 228.02 64.3276V67.7533H226.282V64.5945C226.282 64.12 226.181 63.7678 225.981 63.5379C225.787 63.3006 225.509 63.182 225.145 63.182C224.736 63.182 224.413 63.3155 224.175 63.5824C223.937 63.8419 223.818 64.2312 223.818 64.7503V67.7533H222.079V64.5945C222.079 63.6528 221.7 63.182 220.942 63.182C220.541 63.182 220.222 63.3155 219.984 63.5824C219.746 63.8419 219.627 64.2312 219.627 64.7503V67.7533H217.888V61.7695H219.549V62.459C219.772 62.2069 220.043 62.0142 220.363 61.8807C220.69 61.7472 221.046 61.6805 221.433 61.6805C221.856 61.6805 222.239 61.7658 222.581 61.9363C222.923 62.0994 223.198 62.3404 223.406 62.6593C223.651 62.3478 223.959 62.1068 224.331 61.9363C224.71 61.7658 225.122 61.6805 225.568 61.6805Z" fill="#4F4F5B"/>
<path d="M231.998 61.6805C232.927 61.6805 233.64 61.9029 234.138 62.3478C234.636 62.7853 234.885 63.4489 234.885 64.3387V67.7533H233.257V67.0081C232.93 67.5642 232.321 67.8423 231.429 67.8423C230.969 67.8423 230.567 67.7644 230.225 67.6087C229.891 67.453 229.635 67.238 229.456 66.9636C229.278 66.6892 229.189 66.3778 229.189 66.0293C229.189 65.4732 229.397 65.0357 229.813 64.7169C230.237 64.398 230.887 64.2386 231.764 64.2386H233.146C233.146 63.8605 233.031 63.5713 232.8 63.3711C232.57 63.1635 232.224 63.0597 231.764 63.0597C231.444 63.0597 231.128 63.1116 230.816 63.2154C230.512 63.3118 230.251 63.4452 230.036 63.6158L229.412 62.4034C229.739 62.1736 230.129 61.9956 230.582 61.8696C231.043 61.7435 231.515 61.6805 231.998 61.6805ZM231.864 66.6744C232.161 66.6744 232.425 66.6077 232.655 66.4742C232.886 66.3333 233.049 66.1294 233.146 65.8625V65.2508H231.953C231.24 65.2508 230.883 65.4843 230.883 65.9515C230.883 66.1739 230.969 66.3519 231.139 66.4853C231.318 66.6114 231.559 66.6744 231.864 66.6744Z" fill="#4F4F5B"/>
<path d="M239.422 67.8423C238.783 67.8423 238.207 67.7125 237.694 67.453C237.189 67.186 236.791 66.819 236.501 66.3519C236.219 65.8847 236.078 65.3546 236.078 64.7614C236.078 64.1682 236.219 63.638 236.501 63.1709C236.791 62.7037 237.189 62.3404 237.694 62.0809C238.207 61.814 238.783 61.6805 239.422 61.6805C240.053 61.6805 240.603 61.814 241.071 62.0809C241.547 62.3404 241.893 62.7149 242.108 63.2042L240.759 63.9272C240.447 63.3785 239.998 63.1041 239.411 63.1041C238.957 63.1041 238.582 63.2524 238.285 63.549C237.988 63.8456 237.839 64.2497 237.839 64.7614C237.839 65.273 237.988 65.6771 238.285 65.9737C238.582 66.2703 238.957 66.4186 239.411 66.4186C240.005 66.4186 240.455 66.1443 240.759 65.5956L242.108 66.3296C241.893 66.8042 241.547 67.1749 241.071 67.4419C240.603 67.7088 240.053 67.8423 239.422 67.8423Z" fill="#4F4F5B"/>
<path d="M246.711 61.6805C247.454 61.6805 248.052 61.9029 248.505 62.3478C248.966 62.7927 249.196 63.4526 249.196 64.3276V67.7533H247.457V64.5945C247.457 64.12 247.353 63.7678 247.145 63.5379C246.937 63.3006 246.636 63.182 246.242 63.182C245.804 63.182 245.455 63.3192 245.195 63.5935C244.935 63.8605 244.805 64.2609 244.805 64.7947V67.7533H243.066V59.5005H244.805V62.3923C245.035 62.1625 245.314 61.9882 245.64 61.8696C245.967 61.7435 246.324 61.6805 246.711 61.6805Z" fill="#4F4F5B"/>
<path d="M256.712 64.7836C256.712 64.8059 256.701 64.9616 256.678 65.2508H252.142C252.224 65.6215 252.417 65.9144 252.721 66.1294C253.026 66.3445 253.405 66.452 253.858 66.452C254.17 66.452 254.445 66.4075 254.683 66.3185C254.928 66.2221 255.155 66.0738 255.363 65.8736L256.288 66.8746C255.724 67.5197 254.899 67.8423 253.814 67.8423C253.138 67.8423 252.539 67.7125 252.019 67.453C251.499 67.186 251.098 66.819 250.815 66.3519C250.533 65.8847 250.392 65.3546 250.392 64.7614C250.392 64.1756 250.529 63.6491 250.804 63.182C251.087 62.7074 251.469 62.3404 251.952 62.0809C252.443 61.814 252.989 61.6805 253.591 61.6805C254.178 61.6805 254.709 61.8065 255.185 62.0586C255.66 62.3108 256.032 62.6741 256.299 63.1486C256.574 63.6158 256.712 64.1608 256.712 64.7836ZM253.602 62.9929C253.208 62.9929 252.877 63.1041 252.61 63.3266C252.342 63.549 252.179 63.8531 252.12 64.2386H255.073C255.014 63.8605 254.85 63.5602 254.583 63.3377C254.315 63.1079 253.988 62.9929 253.602 62.9929Z" fill="#4F4F5B"/>
<path d="M261.514 61.6805C262.257 61.6805 262.856 61.9029 263.309 62.3478C263.77 62.7927 264 63.4526 264 64.3276V67.7533H262.261V64.5945C262.261 64.12 262.157 63.7678 261.949 63.5379C261.741 63.3006 261.44 63.182 261.046 63.182C260.608 63.182 260.259 63.3192 259.998 63.5935C259.738 63.8605 259.608 64.2609 259.608 64.7947V67.7533H257.869V61.7695H259.53V62.4702C259.761 62.2181 260.047 62.0253 260.389 61.8918C260.73 61.7509 261.106 61.6805 261.514 61.6805Z" fill="#4F4F5B"/>
</svg>
