<svg width="1923" height="182" viewBox="0 0 1923 182" fill="none" xmlns="http://www.w3.org/2000/svg">
<g clip-path="url(#clip0_502_326)">
<rect width="1923" height="182" fill="white"/>
<path d="M0 0H1923V182H0V0Z" fill="#003B7C"/>
<path d="M1768.15 148.823L1768.38 148.823L1992.11 148.823L1992.11 36.8233L1768.38 36.8233L1768.15 36.8233C1737.19 36.8233 1712.11 61.9384 1712.11 92.9364C1712.11 123.708 1737.19 148.823 1768.15 148.823Z" fill="#7F6FEE"/>
<path d="M556.116 155.574V267.974H611.202V155.574L583.714 127.588L556.116 155.574Z" fill="#EC4A70"/>
<rect x="1876.93" y="-4.02206" width="47.0734" height="203.116" fill="#EC4A70"/>
<path d="M60.6152 139.265L159.249 139.265L159.249 91.0001L60.6152 91.0001L36.0563 115.084L60.6152 139.265Z" fill="#3DA6EE"/>
<path d="M1173.83 60.7534V60.8524V158.873H1222.91V60.8524V60.7534C1222.91 47.189 1211.9 36.1989 1198.32 36.1989C1184.84 36.1989 1173.83 47.189 1173.83 60.7534Z" fill="#3DA6EE"/>
<path d="M1486.32 97.5359L1486.32 -41.2265L1395.18 -41.2265L1395.18 97.5359L1440.75 51.719L1486.32 97.5359Z" fill="#EF809A"/>
<path d="M447.19 2.68997H447.077H335.038V58.9994H447.077H447.19C462.695 58.9994 475.257 46.3724 475.257 30.7878C475.257 15.3169 462.695 2.68997 447.19 2.68997Z" fill="#B4DA1C"/>
<rect x="293.974" y="-23.4536" width="82.1281" height="102.564" fill="#E73445"/>
<rect x="159.249" y="91" width="67.1047" height="110.608" fill="#FFB930"/>
<rect x="1084.69" y="160.884" width="33.1823" height="138.216" transform="rotate(-90 1084.69 160.884)" fill="#106029"/>
<path d="M981.161 58.1649L981.161 -123.835L889.411 -123.835L889.411 58.1649L935.193 21.7649L981.161 58.1649Z" fill="#7F6FEE"/>
<path d="M1395.18 159.783L1395.18 251.381L1486.32 251.381L1486.32 159.783L1440.75 114.63L1395.18 159.783Z" fill="#FFB930"/>
<rect opacity="0.75" width="1923" height="182" fill="#003B7C"/>
</g>
<defs>
<clipPath id="clip0_502_326">
<rect width="1923" height="182" fill="white"/>
</clipPath>
</defs>
</svg>