<svg width="179" height="115" viewBox="0 0 179 115" fill="none" xmlns="http://www.w3.org/2000/svg">
<path d="M135.977 48.4932C134.363 45.85 132.096 43.7535 129.24 42.2621C126.366 40.7612 123.07 40 119.445 40C115.819 40 112.523 40.7612 109.649 42.2621C106.793 43.7535 104.526 45.85 102.912 48.4932C101.299 51.1347 100.481 54.165 100.481 57.5001C100.481 60.2084 101.02 62.7152 102.087 64.9766H113.485C112.793 64.3167 112.202 63.5309 111.721 62.6259C110.942 61.1619 110.547 59.437 110.547 57.5001C110.547 55.5633 110.942 53.8384 111.721 52.374C112.508 50.8942 113.587 49.7315 114.928 48.9194C116.271 48.1054 117.791 47.693 119.445 47.693C121.099 47.693 122.618 48.1058 123.962 48.9194C125.303 49.7315 126.382 50.8942 127.169 52.3744C127.948 53.8398 128.343 55.5643 128.343 57.5001C128.343 59.436 127.948 61.1605 127.169 62.6259C126.382 64.1061 125.303 65.2688 123.962 66.0809C122.619 66.8945 121.099 67.3069 119.445 67.3069C118.23 67.3069 117.087 67.084 116.034 66.6438V74.7616C117.135 74.9201 118.272 74.9999 119.445 74.9999C123.07 74.9999 126.366 74.2391 129.241 72.7386C132.096 71.2471 134.363 69.1506 135.977 66.5074C137.591 63.866 138.408 60.8356 138.408 57.5005C138.408 54.1654 137.591 51.1347 135.977 48.4932Z" fill="#EA4B71"/>
<path d="M113.825 67.1346H98.1219V40.8287H89.0074V74.2134H113.825V67.1346Z" fill="#003B7C"/>
<path d="M80.6926 63.4615L73.8369 40.8287H64.3126L57.0663 63.1723L50.2135 40.8287H40L50.685 74.1993H62.0343L68.7778 53.0179L75.1816 74.1993H86.52V45.2666" fill="#003B7C"/>
</svg>
