<svg width="200" height="200" viewBox="0 0 200 200" fill="none" xmlns="http://www.w3.org/2000/svg">
<path d="M100.047 182.767C145.732 182.767 182.767 145.732 182.767 100.047C182.767 54.3617 145.732 17.3267 100.047 17.3267C54.3615 17.3267 17.3265 54.3617 17.3265 100.047C17.3265 145.732 54.3615 182.767 100.047 182.767Z" fill="#1B3E76"/>
<path d="M100.047 200C93.276 200 86.5047 199.317 79.9208 197.969C73.4956 196.655 67.175 194.692 61.1351 192.137C55.2089 189.631 49.4943 186.529 44.1499 182.919C38.8607 179.346 33.8878 175.243 29.3693 170.724C24.8507 166.205 20.7478 161.233 17.1743 155.943C13.5635 150.599 10.4622 144.884 7.9558 138.958C5.40113 132.918 3.43929 126.598 2.12404 120.172C0.776391 113.589 0.0932617 106.817 0.0932617 100.047C0.0932617 93.276 0.776391 86.5047 2.12404 79.9209C3.4386 73.4956 5.40113 67.1751 7.9558 61.1352C10.4622 55.209 13.5642 49.4944 17.1743 44.15C20.7478 38.8607 24.8507 33.8879 29.3693 29.3693C33.8878 24.8507 38.8607 20.7478 44.1499 17.1743C49.4943 13.5636 55.2089 10.4623 61.1351 7.95586C67.175 5.40119 73.4956 3.43935 79.9208 2.1241C86.5047 0.776452 93.276 0.0933228 100.047 0.0933228C106.817 0.0933228 113.589 0.776452 120.172 2.1241C126.598 3.43866 132.918 5.40119 138.958 7.95586C144.884 10.4623 150.599 13.5643 155.943 17.1743C161.233 20.7478 166.205 24.8507 170.724 29.3693C175.243 33.8879 179.345 38.8607 182.919 44.15C186.53 49.4944 189.631 55.209 192.137 61.1352C194.692 67.1751 196.654 73.4956 197.969 79.9209C199.317 86.5047 200 93.276 200 100.047C200 106.817 199.317 113.589 197.969 120.172C196.655 126.598 194.692 132.918 192.137 138.958C189.631 144.884 186.529 150.599 182.919 155.943C179.345 161.233 175.243 166.205 170.724 170.724C166.205 175.243 161.233 179.346 155.943 182.919C150.599 186.53 144.884 189.631 138.958 192.137C132.918 194.692 126.598 196.654 120.172 197.969C113.589 199.317 106.817 200 100.047 200ZM100.047 34.56C63.9372 34.56 34.5599 63.9373 34.5599 100.047C34.5599 136.156 63.9372 165.533 100.047 165.533C136.156 165.533 165.533 136.156 165.533 100.047C165.533 63.9373 136.156 34.56 100.047 34.56Z" fill="#EA4B71"/>
</svg>
