<svg width="210" height="200" viewBox="0 0 210 200" fill="none" xmlns="http://www.w3.org/2000/svg">
<path d="M174.178 89.8913C157.333 71.9279 146.089 60.1752 122.458 48.8767C115.339 45.4865 99.6451 38.7322 92.0997 37.5168C56.7238 31.8125 30.8359 46.1514 28.5711 64.2746C24.6763 95.5258 29.9811 99.2836 28.2012 113.923C36.0731 108.272 39.0827 86.7578 42.3573 87.5C49.9506 89.1824 53.1276 96.9705 56.2864 104.263C61.5222 116.407 65.291 129.043 71.0844 140.995C76.8779 152.948 85.1255 164.547 96.5656 171.382L174.178 89.8913Z" fill="#ED2F2F"/>
<path d="M107.81 134.41C102.41 130.97 97.1044 127.271 92.4555 122.829C83.6984 114.509 77.407 104.002 69.5141 94.7991C61.6497 85.6258 42.2813 65.9174 39.5914 76.925C37.1576 86.8898 29.2955 111.85 28.2012 113.923C36.3901 108.425 39.0827 86.7577 42.3573 87.4999C49.9506 89.1823 52.9852 96.8217 56.1441 104.114C61.3799 116.258 65.1487 128.894 70.9421 140.846C76.7355 152.799 84.934 163.989 96.4039 170.796L123.961 142.893C118.424 140.382 113.008 137.699 107.81 134.41Z" fill="#DD281F"/>
<path d="M38.9251 100.472C35.5091 96.9013 29.6859 96.8308 25.3612 100.113C22.1682 99.6351 18.5328 100.72 15.736 103.395C11.6895 107.267 10.8324 113.102 13.5432 116.948C12.2097 120.617 12.5348 124.352 14.8406 126.762C16.7193 128.726 19.5579 129.429 22.5387 128.971C27.2871 131.552 33.3884 130.9 37.5241 126.944C38.7143 125.805 39.6456 124.515 40.2885 123.102C41.2575 122.745 42.1734 122.154 42.947 121.413C46.7554 117.77 46.1764 111.029 41.6503 106.299C41.5365 106.18 41.4226 106.061 41.3087 105.941C41.1779 103.958 40.3768 101.989 38.9251 100.472Z" fill="white"/>
<path d="M185.197 72.282C179.948 69.9525 172.483 71.6804 166.773 77.0295C165.138 78.5369 163.79 80.2254 162.761 82.0083C161.495 82.5919 160.454 83.5882 159.242 84.406C151.286 89.9092 150.021 97.0457 149.186 97.9592C145.043 98.2753 140.238 100.878 136.443 105.25C132.17 110.135 130.323 115.948 131.158 120.335C128.833 121.42 121.996 121.123 110.512 133.363C105.56 138.671 101.889 145.317 101.539 147.989C98.3744 147.54 92.6874 150.531 87.8104 155.083C86.1752 156.59 84.8273 158.278 83.7976 160.061C82.5324 160.645 81.35 161.434 80.2789 162.459C75.0151 167.381 74.4609 175.32 79.0128 180.197C79.1267 180.316 79.2406 180.435 79.3544 180.554C79.1554 182.967 79.7767 185.165 81.2556 186.77C84.7272 190.458 91.7354 189.623 97.5736 185.063C101.358 185.147 105.049 184.18 108.914 180.596C113.256 176.556 117.51 171.175 118.69 169.192C120.944 169.999 130.006 164.52 136.186 157.696C138.007 155.669 139.482 153.517 140.637 151.329C142.055 150.428 147.959 148.142 155.11 140.844C161.754 134.089 166.191 125.741 167.139 123.694C168.438 122.907 169.597 121.855 170.701 120.686C176.456 114.61 177.999 109.372 178.77 108.749C182.554 108.832 187.327 103.696 190.151 99.7972C194.656 93.6643 195.307 87.9121 193.854 85.1424C196.139 80.5622 196.411 76.1996 194.078 73.7016C192.172 71.6499 188.918 71.2867 185.197 72.282Z" fill="white"/>
</svg>
