<svg width="287" height="256" viewBox="0 0 287 256" fill="none" xmlns="http://www.w3.org/2000/svg">
<rect width="101.111" height="92.8571" transform="matrix(-1 0 0 1 287 0)" fill="#F4F4F4"/>
<circle r="97.5" transform="matrix(-1 0 0 1 189.5 97.5)" fill="#F4F4F4"/>
<path d="M277.542 10.6381L276.33 9.42578L271.524 14.232L266.717 9.42578L265.505 10.6381L270.311 15.4443L265.505 20.2505L266.717 21.4628L271.524 16.6566L276.33 21.4628L277.542 20.2505L272.736 15.4443L277.542 10.6381Z" fill="black"/>
<path d="M154.125 77.222V76.566H157.757V77.222L156.413 77.414L153.709 87.382H153.021L150.253 79.094L147.645 87.382H146.957L144.077 77.382L142.749 77.222V76.566H147.101V77.222L145.629 77.398L147.597 84.742L150.029 77.414L148.429 77.222V76.566H152.781V77.222L151.165 77.414L153.549 84.822L155.581 77.43L154.125 77.222ZM158.116 87.27V86.694L159.316 86.47C159.326 86.0647 159.332 85.6274 159.332 85.158C159.342 84.678 159.348 84.262 159.348 83.91V83.158C159.348 82.7207 159.342 82.358 159.332 82.07C159.332 81.7714 159.321 81.462 159.3 81.142L158.02 80.998V80.438L160.484 79.462L160.724 79.622L160.676 81.798V83.91C160.676 84.262 160.676 84.678 160.676 85.158C160.686 85.6274 160.697 86.0647 160.708 86.47L161.828 86.694V87.27H158.116ZM160.004 77.702C159.705 77.702 159.449 77.606 159.236 77.414C159.033 77.222 158.932 76.9767 158.932 76.678C158.932 76.3687 159.033 76.1234 159.236 75.942C159.449 75.75 159.705 75.654 160.004 75.654C160.302 75.654 160.553 75.75 160.756 75.942C160.969 76.1234 161.076 76.3687 161.076 76.678C161.076 76.9767 160.969 77.222 160.756 77.414C160.553 77.606 160.302 77.702 160.004 77.702ZM162.993 87.27V86.694L164.145 86.486C164.156 86.0807 164.161 85.6434 164.161 85.174C164.172 84.694 164.177 84.2727 164.177 83.91V83.142C164.177 82.7047 164.172 82.342 164.161 82.054C164.161 81.766 164.151 81.462 164.129 81.142L162.865 80.998V80.438L165.105 79.462L165.345 79.622L165.521 81.51C165.788 80.87 166.129 80.3687 166.545 80.006C166.972 79.6434 167.399 79.462 167.825 79.462C168.071 79.462 168.3 79.5154 168.513 79.622C168.727 79.7287 168.881 79.8727 168.977 80.054C168.977 80.8327 168.663 81.222 168.033 81.222C167.852 81.222 167.681 81.19 167.521 81.126C167.361 81.0514 167.207 80.95 167.057 80.822L166.865 80.646C166.545 80.8807 166.279 81.1687 166.065 81.51C165.852 81.8514 165.676 82.2514 165.537 82.71V83.91C165.537 84.262 165.537 84.6727 165.537 85.142C165.548 85.6114 165.559 86.0487 165.569 86.454L166.881 86.694V87.27H162.993ZM176.389 87.478C175.739 87.478 175.227 87.2647 174.853 86.838C174.48 86.4007 174.299 85.654 174.309 84.598L174.357 80.614L173.221 80.374V79.798L175.573 79.574L175.733 79.734L175.653 81.974V84.454C175.653 85.1474 175.76 85.638 175.973 85.926C176.187 86.2034 176.507 86.342 176.933 86.342C177.68 86.342 178.427 85.9954 179.173 85.302L179.221 80.598L178.085 80.374V79.798L180.405 79.574L180.565 79.734L180.517 81.974V86.47L181.605 86.694V87.27L179.381 87.398L179.221 85.974C178.795 86.4967 178.336 86.8807 177.845 87.126C177.365 87.3607 176.88 87.478 176.389 87.478ZM182.789 87.27V86.694L183.973 86.47C183.984 86.0647 183.989 85.6274 183.989 85.158C184 84.6887 184.005 84.2727 184.005 83.91V83.142C184.005 82.7047 184 82.342 183.989 82.054C183.989 81.766 183.979 81.462 183.957 81.142L182.693 80.998V80.438L184.933 79.462L185.173 79.622L185.301 80.902C185.696 80.4754 186.149 80.1287 186.661 79.862C187.173 79.5954 187.675 79.462 188.165 79.462C188.859 79.462 189.371 79.6967 189.701 80.166C190.043 80.6247 190.213 81.3767 190.213 82.422V83.91C190.213 84.2727 190.213 84.6887 190.213 85.158C190.224 85.6274 190.235 86.0647 190.245 86.47L191.365 86.694V87.27H187.653V86.694L188.837 86.47C188.848 86.0754 188.853 85.6434 188.853 85.174C188.864 84.694 188.869 84.2727 188.869 83.91V82.55C188.869 81.814 188.763 81.3074 188.549 81.03C188.347 80.7527 188.011 80.614 187.541 80.614C187.179 80.614 186.827 80.6887 186.485 80.838C186.144 80.9874 185.771 81.2327 185.365 81.574V83.91C185.365 84.262 185.365 84.678 185.365 85.158C185.376 85.6274 185.387 86.0647 185.397 86.47L186.501 86.694V87.27H182.789ZM195.054 87.478C194.5 87.478 194.057 87.3287 193.726 87.03C193.396 86.7314 193.23 86.2727 193.23 85.654C193.23 85.4514 193.23 85.254 193.23 85.062C193.241 84.8594 193.246 84.6034 193.246 84.294V80.518H191.918V79.814L193.342 79.638L193.758 77.494H194.718L194.622 79.67H196.782V80.518H194.606V85.478C194.606 85.8834 194.686 86.182 194.846 86.374C195.006 86.5554 195.22 86.646 195.486 86.646C195.668 86.646 195.838 86.6087 195.998 86.534C196.169 86.4594 196.356 86.3527 196.558 86.214L196.942 86.63C196.505 87.1954 195.876 87.478 195.054 87.478ZM201.282 80.198C200.983 80.198 200.679 80.2834 200.37 80.454C200.071 80.6247 199.81 80.8967 199.586 81.27C199.372 81.6434 199.234 82.1394 199.17 82.758H202.082C202.466 82.758 202.716 82.678 202.834 82.518C202.962 82.358 203.026 82.1607 203.026 81.926C203.026 81.6167 202.946 81.334 202.786 81.078C202.636 80.8114 202.428 80.598 202.162 80.438C201.906 80.278 201.612 80.198 201.282 80.198ZM201.266 87.478C200.188 87.478 199.324 87.1314 198.674 86.438C198.023 85.734 197.698 84.7687 197.698 83.542C197.698 82.7207 197.863 82.006 198.194 81.398C198.535 80.79 198.983 80.3154 199.538 79.974C200.103 79.6327 200.716 79.462 201.378 79.462C201.932 79.462 202.434 79.5847 202.882 79.83C203.33 80.0754 203.687 80.4274 203.954 80.886C204.22 81.334 204.354 81.8834 204.354 82.534C204.354 82.7154 204.343 82.886 204.322 83.046C204.3 83.1954 204.274 83.3234 204.242 83.43H199.138C199.159 84.4114 199.404 85.158 199.874 85.67C200.343 86.182 200.962 86.438 201.73 86.438C202.242 86.438 202.668 86.3367 203.01 86.134C203.351 85.9207 203.666 85.6487 203.954 85.318L204.338 85.622C204.039 86.1874 203.634 86.6407 203.122 86.982C202.61 87.3127 201.991 87.478 201.266 87.478ZM205.806 87.27V86.694L206.958 86.486C206.969 86.0807 206.974 85.6434 206.974 85.174C206.985 84.694 206.99 84.2727 206.99 83.91V83.142C206.99 82.7047 206.985 82.342 206.974 82.054C206.974 81.766 206.963 81.462 206.942 81.142L205.678 80.998V80.438L207.918 79.462L208.158 79.622L208.334 81.51C208.601 80.87 208.942 80.3687 209.358 80.006C209.785 79.6434 210.211 79.462 210.638 79.462C210.883 79.462 211.113 79.5154 211.326 79.622C211.539 79.7287 211.694 79.8727 211.79 80.054C211.79 80.8327 211.475 81.222 210.846 81.222C210.665 81.222 210.494 81.19 210.334 81.126C210.174 81.0514 210.019 80.95 209.87 80.822L209.678 80.646C209.358 80.8807 209.091 81.1687 208.878 81.51C208.665 81.8514 208.489 82.2514 208.35 82.71V83.91C208.35 84.262 208.35 84.6727 208.35 85.142C208.361 85.6114 208.371 86.0487 208.382 86.454L209.694 86.694V87.27H205.806ZM214.943 87.478C214.495 87.478 214.085 87.4247 213.711 87.318C213.338 87.222 212.954 87.0727 212.559 86.87L212.495 85.11H213.375L213.679 86.502C214.053 86.6727 214.485 86.758 214.975 86.758C215.583 86.758 216.031 86.646 216.319 86.422C216.618 86.198 216.767 85.9047 216.767 85.542C216.767 85.2007 216.645 84.9287 216.399 84.726C216.154 84.5127 215.781 84.3207 215.279 84.15L214.543 83.878C213.957 83.6647 213.487 83.3874 213.135 83.046C212.783 82.7047 212.607 82.262 212.607 81.718C212.607 81.3234 212.714 80.9554 212.927 80.614C213.141 80.2727 213.455 79.9954 213.871 79.782C214.287 79.5687 214.794 79.462 215.391 79.462C215.829 79.462 216.223 79.5207 216.575 79.638C216.938 79.7447 217.29 79.9047 217.631 80.118L217.567 81.75H216.735L216.479 80.47C216.117 80.2887 215.749 80.198 215.375 80.198C214.885 80.198 214.511 80.2994 214.255 80.502C214.01 80.694 213.887 80.9554 213.887 81.286C213.887 81.638 213.994 81.9047 214.207 82.086C214.431 82.2674 214.815 82.4594 215.359 82.662L215.855 82.838C216.655 83.1367 217.221 83.478 217.551 83.862C217.893 84.246 218.063 84.6887 218.063 85.19C218.063 85.5954 217.946 85.974 217.711 86.326C217.477 86.6674 217.13 86.9447 216.671 87.158C216.213 87.3714 215.637 87.478 214.943 87.478ZM221.961 87.478C221.406 87.478 220.963 87.3287 220.633 87.03C220.302 86.7314 220.137 86.2727 220.137 85.654C220.137 85.4514 220.137 85.254 220.137 85.062C220.147 84.8594 220.153 84.6034 220.153 84.294V80.518H218.825V79.814L220.249 79.638L220.665 77.494H221.625L221.529 79.67H223.689V80.518H221.513V85.478C221.513 85.8834 221.593 86.182 221.753 86.374C221.913 86.5554 222.126 86.646 222.393 86.646C222.574 86.646 222.745 86.6087 222.905 86.534C223.075 86.4594 223.262 86.3527 223.465 86.214L223.849 86.63C223.411 87.1954 222.782 87.478 221.961 87.478ZM227.452 87.478C226.801 87.478 226.289 87.2647 225.916 86.838C225.543 86.4007 225.361 85.654 225.372 84.598L225.42 80.614L224.284 80.374V79.798L226.636 79.574L226.796 79.734L226.716 81.974V84.454C226.716 85.1474 226.823 85.638 227.036 85.926C227.249 86.2034 227.569 86.342 227.996 86.342C228.743 86.342 229.489 85.9954 230.236 85.302L230.284 80.598L229.148 80.374V79.798L231.468 79.574L231.628 79.734L231.58 81.974V86.47L232.668 86.694V87.27L230.444 87.398L230.284 85.974C229.857 86.4967 229.399 86.8807 228.908 87.126C228.428 87.3607 227.943 87.478 227.452 87.478ZM226.876 77.734C226.62 77.734 226.396 77.6487 226.204 77.478C226.023 77.3074 225.932 77.0887 225.932 76.822C225.932 76.566 226.023 76.3527 226.204 76.182C226.396 76.0007 226.62 75.91 226.876 75.91C227.143 75.91 227.367 76.0007 227.548 76.182C227.74 76.3527 227.836 76.566 227.836 76.822C227.836 77.0887 227.74 77.3074 227.548 77.478C227.367 77.6487 227.143 77.734 226.876 77.734ZM230.236 77.734C229.969 77.734 229.74 77.6487 229.548 77.478C229.367 77.3074 229.276 77.0887 229.276 76.822C229.276 76.566 229.367 76.3527 229.548 76.182C229.74 76.0007 229.969 75.91 230.236 75.91C230.492 75.91 230.711 76.0007 230.892 76.182C231.084 76.3527 231.18 76.566 231.18 76.822C231.18 77.0887 231.084 77.3074 230.892 77.478C230.711 77.6487 230.492 77.734 230.236 77.734ZM236.492 87.478C235.937 87.478 235.495 87.3287 235.164 87.03C234.833 86.7314 234.668 86.2727 234.668 85.654C234.668 85.4514 234.668 85.254 234.668 85.062C234.679 84.8594 234.684 84.6034 234.684 84.294V80.518H233.356V79.814L234.78 79.638L235.196 77.494H236.156L236.06 79.67H238.22V80.518H236.044V85.478C236.044 85.8834 236.124 86.182 236.284 86.374C236.444 86.5554 236.657 86.646 236.924 86.646C237.105 86.646 237.276 86.6087 237.436 86.534C237.607 86.4594 237.793 86.3527 237.996 86.214L238.38 86.63C237.943 87.1954 237.313 87.478 236.492 87.478ZM238.879 87.27V86.71L243.471 80.358H240.239L239.807 82.134L238.975 82.07L239.103 79.67H245.071V80.246L240.495 86.598H243.999L244.479 84.662H245.311L245.151 87.27H238.879ZM250.016 80.198C249.717 80.198 249.413 80.2834 249.104 80.454C248.805 80.6247 248.544 80.8967 248.32 81.27C248.107 81.6434 247.968 82.1394 247.904 82.758H250.816C251.2 82.758 251.451 82.678 251.568 82.518C251.696 82.358 251.76 82.1607 251.76 81.926C251.76 81.6167 251.68 81.334 251.52 81.078C251.371 80.8114 251.163 80.598 250.896 80.438C250.64 80.278 250.347 80.198 250.016 80.198ZM250 87.478C248.923 87.478 248.059 87.1314 247.408 86.438C246.757 85.734 246.432 84.7687 246.432 83.542C246.432 82.7207 246.597 82.006 246.928 81.398C247.269 80.79 247.717 80.3154 248.272 79.974C248.837 79.6327 249.451 79.462 250.112 79.462C250.667 79.462 251.168 79.5847 251.616 79.83C252.064 80.0754 252.421 80.4274 252.688 80.886C252.955 81.334 253.088 81.8834 253.088 82.534C253.088 82.7154 253.077 82.886 253.056 83.046C253.035 83.1954 253.008 83.3234 252.976 83.43H247.872C247.893 84.4114 248.139 85.158 248.608 85.67C249.077 86.182 249.696 86.438 250.464 86.438C250.976 86.438 251.403 86.3367 251.744 86.134C252.085 85.9207 252.4 85.6487 252.688 85.318L253.072 85.622C252.773 86.1874 252.368 86.6407 251.856 86.982C251.344 87.3127 250.725 87.478 250 87.478ZM254.508 87.27V86.694L255.692 86.47C255.703 86.0647 255.708 85.6274 255.708 85.158C255.719 84.6887 255.724 84.2727 255.724 83.91V83.142C255.724 82.7047 255.719 82.342 255.708 82.054C255.708 81.766 255.698 81.462 255.676 81.142L254.412 80.998V80.438L256.652 79.462L256.892 79.622L257.02 80.902C257.415 80.4754 257.868 80.1287 258.38 79.862C258.892 79.5954 259.394 79.462 259.884 79.462C260.578 79.462 261.09 79.6967 261.42 80.166C261.762 80.6247 261.932 81.3767 261.932 82.422V83.91C261.932 84.2727 261.932 84.6887 261.932 85.158C261.943 85.6274 261.954 86.0647 261.964 86.47L263.084 86.694V87.27H259.372V86.694L260.556 86.47C260.567 86.0754 260.572 85.6434 260.572 85.174C260.583 84.694 260.588 84.2727 260.588 83.91V82.55C260.588 81.814 260.482 81.3074 260.268 81.03C260.066 80.7527 259.73 80.614 259.26 80.614C258.898 80.614 258.546 80.6887 258.204 80.838C257.863 80.9874 257.49 81.2327 257.084 81.574V83.91C257.084 84.262 257.084 84.678 257.084 85.158C257.095 85.6274 257.106 86.0647 257.116 86.47L258.22 86.694V87.27H254.508ZM211.716 107.51C211.716 108.555 211.924 109.329 212.34 109.83C212.766 110.321 213.3 110.566 213.94 110.566C214.292 110.566 214.601 110.497 214.868 110.358C215.145 110.209 215.433 109.969 215.732 109.638V105.206C215.369 104.886 215.044 104.667 214.756 104.55C214.468 104.433 214.19 104.374 213.924 104.374C213.529 104.374 213.161 104.486 212.82 104.71C212.489 104.923 212.222 105.265 212.02 105.734C211.817 106.193 211.716 106.785 211.716 107.51ZM215.892 111.43L215.78 110.326C215.502 110.689 215.182 110.971 214.82 111.174C214.468 111.377 214.041 111.478 213.54 111.478C212.889 111.478 212.318 111.313 211.828 110.982C211.337 110.651 210.953 110.193 210.676 109.606C210.409 109.009 210.276 108.321 210.276 107.542C210.276 106.721 210.425 106.006 210.724 105.398C211.022 104.79 211.428 104.315 211.94 103.974C212.452 103.633 213.033 103.462 213.684 103.462C214.057 103.462 214.414 103.537 214.756 103.686C215.108 103.835 215.449 104.107 215.78 104.502V100.886L214.42 100.726V100.166L216.916 99.446L217.14 99.574L217.076 101.846V110.502L218.372 110.694V111.27L215.892 111.43ZM219.194 111.27V110.694L220.394 110.47C220.405 110.065 220.41 109.627 220.41 109.158C220.421 108.678 220.426 108.262 220.426 107.91V107.158C220.426 106.721 220.421 106.358 220.41 106.07C220.41 105.771 220.399 105.462 220.378 105.142L219.098 104.998V104.438L221.562 103.462L221.802 103.622L221.754 105.798V107.91C221.754 108.262 221.754 108.678 221.754 109.158C221.765 109.627 221.775 110.065 221.786 110.47L222.906 110.694V111.27H219.194ZM221.082 101.702C220.783 101.702 220.527 101.606 220.314 101.414C220.111 101.222 220.01 100.977 220.01 100.678C220.01 100.369 220.111 100.123 220.314 99.942C220.527 99.75 220.783 99.654 221.082 99.654C221.381 99.654 221.631 99.75 221.834 99.942C222.047 100.123 222.154 100.369 222.154 100.678C222.154 100.977 222.047 101.222 221.834 101.414C221.631 101.606 221.381 101.702 221.082 101.702ZM227.671 111.478C226.573 111.478 225.698 111.121 225.047 110.406C224.397 109.691 224.071 108.721 224.071 107.494C224.071 106.651 224.242 105.931 224.583 105.334C224.935 104.726 225.394 104.262 225.959 103.942C226.525 103.622 227.127 103.462 227.767 103.462C228.247 103.462 228.69 103.553 229.095 103.734C229.501 103.915 229.837 104.166 230.103 104.486C230.37 104.795 230.535 105.147 230.599 105.542C230.525 105.947 230.279 106.15 229.863 106.15C229.597 106.15 229.394 106.081 229.255 105.942C229.127 105.793 229.037 105.606 228.983 105.382L228.695 104.326C228.546 104.273 228.397 104.241 228.247 104.23C228.109 104.209 227.97 104.198 227.831 104.198C227.149 104.198 226.583 104.465 226.135 104.998C225.698 105.531 225.479 106.31 225.479 107.334C225.479 108.337 225.719 109.105 226.199 109.638C226.679 110.171 227.293 110.438 228.039 110.438C228.498 110.438 228.919 110.337 229.303 110.134C229.687 109.921 230.002 109.617 230.247 109.222L230.647 109.43C230.423 110.091 230.061 110.598 229.559 110.95C229.058 111.302 228.429 111.478 227.671 111.478ZM231.52 111.27V110.694L232.72 110.47C232.731 110.065 232.736 109.627 232.736 109.158C232.747 108.678 232.752 108.262 232.752 107.91V100.886L231.44 100.726V100.166L233.888 99.446L234.112 99.574L234.048 101.846V104.934C234.443 104.497 234.901 104.145 235.424 103.878C235.947 103.601 236.464 103.462 236.976 103.462C237.669 103.462 238.181 103.697 238.512 104.166C238.853 104.625 239.024 105.377 239.024 106.422V107.91C239.024 108.273 239.024 108.689 239.024 109.158C239.035 109.627 239.045 110.065 239.056 110.47L240.176 110.694V111.27H236.464V110.694L237.632 110.486C237.643 110.081 237.648 109.643 237.648 109.174C237.659 108.694 237.664 108.273 237.664 107.91V106.55C237.664 105.814 237.563 105.307 237.36 105.03C237.157 104.753 236.821 104.614 236.352 104.614C235.957 104.614 235.584 104.694 235.232 104.854C234.88 105.014 234.501 105.281 234.096 105.654V107.91C234.096 108.262 234.096 108.678 234.096 109.158C234.107 109.627 234.117 110.065 234.128 110.47L235.232 110.694V111.27H231.52ZM244.944 111.27V110.694L246.144 110.47C246.155 110.065 246.16 109.627 246.16 109.158C246.171 108.678 246.176 108.262 246.176 107.91V107.158C246.176 106.721 246.171 106.358 246.16 106.07C246.16 105.771 246.149 105.462 246.128 105.142L244.848 104.998V104.438L247.312 103.462L247.552 103.622L247.504 105.798V107.91C247.504 108.262 247.504 108.678 247.504 109.158C247.515 109.627 247.525 110.065 247.536 110.47L248.656 110.694V111.27H244.944ZM246.832 101.702C246.533 101.702 246.277 101.606 246.064 101.414C245.861 101.222 245.76 100.977 245.76 100.678C245.76 100.369 245.861 100.123 246.064 99.942C246.277 99.75 246.533 99.654 246.832 99.654C247.131 99.654 247.381 99.75 247.584 99.942C247.797 100.123 247.904 100.369 247.904 100.678C247.904 100.977 247.797 101.222 247.584 101.414C247.381 101.606 247.131 101.702 246.832 101.702ZM249.789 111.27V110.694L250.973 110.47C250.984 110.065 250.989 109.627 250.989 109.158C251 108.689 251.005 108.273 251.005 107.91V107.142C251.005 106.705 251 106.342 250.989 106.054C250.989 105.766 250.979 105.462 250.957 105.142L249.693 104.998V104.438L251.933 103.462L252.173 103.622L252.301 104.918C252.675 104.491 253.112 104.145 253.613 103.878C254.115 103.601 254.611 103.462 255.101 103.462C255.603 103.462 256.008 103.579 256.317 103.814C256.637 104.049 256.867 104.433 257.005 104.966C257.411 104.465 257.864 104.091 258.365 103.846C258.867 103.59 259.379 103.462 259.901 103.462C260.552 103.462 261.053 103.681 261.405 104.118C261.768 104.555 261.949 105.27 261.949 106.262V107.91C261.949 108.273 261.949 108.689 261.949 109.158C261.96 109.627 261.971 110.065 261.981 110.47L263.101 110.694V111.27H259.389V110.694L260.573 110.47C260.584 110.075 260.589 109.643 260.589 109.174C260.6 108.694 260.605 108.273 260.605 107.91V106.518C260.605 105.771 260.499 105.27 260.285 105.014C260.072 104.747 259.731 104.614 259.261 104.614C258.931 104.614 258.589 104.689 258.237 104.838C257.896 104.987 257.523 105.249 257.117 105.622C257.128 105.739 257.133 105.867 257.133 106.006C257.144 106.134 257.149 106.273 257.149 106.422V107.91C257.149 108.273 257.149 108.689 257.149 109.158C257.16 109.627 257.171 110.065 257.181 110.47L258.301 110.694V111.27H254.589V110.694L255.773 110.47C255.784 110.075 255.789 109.643 255.789 109.174C255.8 108.694 255.805 108.273 255.805 107.91V106.55C255.805 105.825 255.704 105.323 255.501 105.046C255.299 104.758 254.963 104.614 254.493 104.614C254.131 104.614 253.784 104.689 253.453 104.838C253.123 104.987 252.76 105.233 252.365 105.574V107.91C252.365 108.262 252.365 108.678 252.365 109.158C252.376 109.627 252.387 110.065 252.397 110.47L253.501 110.694V111.27H249.789ZM185.478 125.222V124.566H190.006V125.222L188.534 125.398C188.524 126.081 188.513 126.769 188.502 127.462C188.502 128.145 188.502 128.833 188.502 129.526V130.63C188.502 131.195 188.502 131.809 188.502 132.47C188.513 133.121 188.524 133.787 188.534 134.47H192.166L192.63 132.262H193.606L193.446 135.27H185.478V134.614L186.95 134.438C186.972 133.745 186.982 133.057 186.982 132.374C186.982 131.691 186.982 131.009 186.982 130.326V129.526C186.982 128.833 186.982 128.139 186.982 127.446C186.982 126.753 186.972 126.07 186.95 125.398L185.478 125.222ZM198.69 135.478C198.071 135.478 197.479 135.334 196.914 135.046C196.359 134.747 195.906 134.305 195.554 133.718C195.202 133.121 195.026 132.385 195.026 131.51C195.026 130.625 195.202 129.883 195.554 129.286C195.906 128.678 196.359 128.225 196.914 127.926C197.479 127.617 198.071 127.462 198.69 127.462C199.308 127.462 199.895 127.617 200.45 127.926C201.015 128.225 201.474 128.678 201.826 129.286C202.188 129.883 202.37 130.625 202.37 131.51C202.37 132.385 202.188 133.121 201.826 133.718C201.474 134.305 201.015 134.747 200.45 135.046C199.895 135.334 199.308 135.478 198.69 135.478ZM198.69 134.758C199.383 134.758 199.916 134.486 200.29 133.942C200.663 133.387 200.85 132.577 200.85 131.51C200.85 130.433 200.663 129.611 200.29 129.046C199.916 128.481 199.383 128.198 198.69 128.198C197.996 128.198 197.463 128.481 197.09 129.046C196.727 129.611 196.546 130.433 196.546 131.51C196.546 132.577 196.727 133.387 197.09 133.942C197.463 134.486 197.996 134.758 198.69 134.758ZM207.359 135.478C206.26 135.478 205.386 135.121 204.735 134.406C204.084 133.691 203.759 132.721 203.759 131.494C203.759 130.651 203.93 129.931 204.271 129.334C204.623 128.726 205.082 128.262 205.647 127.942C206.212 127.622 206.815 127.462 207.455 127.462C207.935 127.462 208.378 127.553 208.783 127.734C209.188 127.915 209.524 128.166 209.791 128.486C210.058 128.795 210.223 129.147 210.287 129.542C210.212 129.947 209.967 130.15 209.551 130.15C209.284 130.15 209.082 130.081 208.943 129.942C208.815 129.793 208.724 129.606 208.671 129.382L208.383 128.326C208.234 128.273 208.084 128.241 207.935 128.23C207.796 128.209 207.658 128.198 207.519 128.198C206.836 128.198 206.271 128.465 205.823 128.998C205.386 129.531 205.167 130.31 205.167 131.334C205.167 132.337 205.407 133.105 205.887 133.638C206.367 134.171 206.98 134.438 207.727 134.438C208.186 134.438 208.607 134.337 208.991 134.134C209.375 133.921 209.69 133.617 209.935 133.222L210.335 133.43C210.111 134.091 209.748 134.598 209.247 134.95C208.746 135.302 208.116 135.478 207.359 135.478ZM211.128 135.27V134.694L212.408 134.47C212.418 134.043 212.424 133.617 212.424 133.19C212.434 132.753 212.44 132.326 212.44 131.91V124.886L211.128 124.726V124.166L213.624 123.446L213.848 123.574L213.784 125.846V131.43L216.52 128.582L215.336 128.294V127.67H219.064V128.294L217.56 128.518L215.8 130.326L218.424 134.502L219.48 134.694V135.27H217.304L214.84 131.302L213.784 132.39C213.784 132.731 213.784 133.078 213.784 133.43C213.794 133.782 213.805 134.129 213.816 134.47L215.096 134.694V135.27H211.128ZM221.325 131.51C221.325 132.555 221.533 133.329 221.949 133.83C222.376 134.321 222.909 134.566 223.549 134.566C223.901 134.566 224.21 134.497 224.477 134.358C224.754 134.209 225.042 133.969 225.341 133.638V129.206C224.978 128.886 224.653 128.667 224.365 128.55C224.077 128.433 223.8 128.374 223.533 128.374C223.138 128.374 222.77 128.486 222.429 128.71C222.098 128.923 221.832 129.265 221.629 129.734C221.426 130.193 221.325 130.785 221.325 131.51ZM225.501 135.43L225.389 134.326C225.112 134.689 224.792 134.971 224.429 135.174C224.077 135.377 223.65 135.478 223.149 135.478C222.498 135.478 221.928 135.313 221.437 134.982C220.946 134.651 220.562 134.193 220.285 133.606C220.018 133.009 219.885 132.321 219.885 131.542C219.885 130.721 220.034 130.006 220.333 129.398C220.632 128.79 221.037 128.315 221.549 127.974C222.061 127.633 222.642 127.462 223.293 127.462C223.666 127.462 224.024 127.537 224.365 127.686C224.717 127.835 225.058 128.107 225.389 128.502V124.886L224.029 124.726V124.166L226.525 123.446L226.749 123.574L226.685 125.846V134.502L227.981 134.694V135.27L225.501 135.43ZM232.627 135.478C232.009 135.478 231.417 135.334 230.851 135.046C230.297 134.747 229.843 134.305 229.491 133.718C229.139 133.121 228.963 132.385 228.963 131.51C228.963 130.625 229.139 129.883 229.491 129.286C229.843 128.678 230.297 128.225 230.851 127.926C231.417 127.617 232.009 127.462 232.627 127.462C233.246 127.462 233.833 127.617 234.387 127.926C234.953 128.225 235.411 128.678 235.763 129.286C236.126 129.883 236.307 130.625 236.307 131.51C236.307 132.385 236.126 133.121 235.763 133.718C235.411 134.305 234.953 134.747 234.387 135.046C233.833 135.334 233.246 135.478 232.627 135.478ZM232.627 134.758C233.321 134.758 233.854 134.486 234.227 133.942C234.601 133.387 234.787 132.577 234.787 131.51C234.787 130.433 234.601 129.611 234.227 129.046C233.854 128.481 233.321 128.198 232.627 128.198C231.934 128.198 231.401 128.481 231.027 129.046C230.665 129.611 230.483 130.433 230.483 131.51C230.483 132.577 230.665 133.387 231.027 133.942C231.401 134.486 231.934 134.758 232.627 134.758ZM246.16 128.294V127.67H249.088V128.294L248.224 128.502L245.888 135.366H245.296L243.216 129.686L241.104 135.366H240.512L237.936 128.454L237.024 128.294V127.67H240.672V128.294L239.424 128.486L241.072 133.398L242.864 128.486L241.68 128.294V127.67H245.216V128.294L244.032 128.502L245.856 133.382L247.344 128.518L246.16 128.294ZM249.883 135.27V134.694L251.067 134.47C251.078 134.065 251.083 133.627 251.083 133.158C251.094 132.689 251.099 132.273 251.099 131.91V131.142C251.099 130.705 251.094 130.342 251.083 130.054C251.083 129.766 251.073 129.462 251.051 129.142L249.787 128.998V128.438L252.027 127.462L252.267 127.622L252.395 128.902C252.79 128.475 253.243 128.129 253.755 127.862C254.267 127.595 254.769 127.462 255.259 127.462C255.953 127.462 256.465 127.697 256.795 128.166C257.137 128.625 257.307 129.377 257.307 130.422V131.91C257.307 132.273 257.307 132.689 257.307 133.158C257.318 133.627 257.329 134.065 257.339 134.47L258.459 134.694V135.27H254.747V134.694L255.931 134.47C255.942 134.075 255.947 133.643 255.947 133.174C255.958 132.694 255.963 132.273 255.963 131.91V130.55C255.963 129.814 255.857 129.307 255.643 129.03C255.441 128.753 255.105 128.614 254.635 128.614C254.273 128.614 253.921 128.689 253.579 128.838C253.238 128.987 252.865 129.233 252.459 129.574V131.91C252.459 132.262 252.459 132.678 252.459 133.158C252.47 133.627 252.481 134.065 252.491 134.47L253.595 134.694V135.27H249.883ZM261.266 135.478C260.978 135.478 260.733 135.377 260.53 135.174C260.328 134.961 260.226 134.715 260.226 134.438C260.226 134.161 260.328 133.921 260.53 133.718C260.733 133.505 260.978 133.398 261.266 133.398C261.554 133.398 261.794 133.505 261.986 133.718C262.189 133.921 262.29 134.161 262.29 134.438C262.29 134.715 262.189 134.961 261.986 135.174C261.794 135.377 261.554 135.478 261.266 135.478ZM261.266 124.326C261.544 124.326 261.762 124.406 261.922 124.566C262.093 124.726 262.178 124.982 262.178 125.334C262.178 125.633 262.141 126.15 262.066 126.886C261.992 127.611 261.896 128.529 261.778 129.638L261.554 131.83H260.962L260.754 129.638C260.637 128.529 260.536 127.611 260.45 126.886C260.376 126.15 260.338 125.633 260.338 125.334C260.338 124.982 260.418 124.726 260.578 124.566C260.749 124.406 260.978 124.326 261.266 124.326Z" fill="black"/>
<path d="M150.388 40.6L146.45 52.37L142.556 40.6H139.916L135.934 52.304L132.106 40.6H129.136L134.24 56H137.298L141.17 44.604L144.976 56H148.012L153.116 40.6H150.388ZM163.419 44.252V50.192C163.419 52.546 162.121 53.734 160.207 53.734C158.469 53.734 157.457 52.722 157.457 50.588V44.252H154.707V50.962C154.707 54.504 156.753 56.154 159.767 56.154C161.285 56.154 162.671 55.582 163.551 54.504V56H166.169V44.252H163.419ZM176.436 44.12C174.72 44.12 173.29 44.692 172.388 45.77V44.252H169.77V56H172.52V50.06C172.52 47.706 173.84 46.518 175.798 46.518C177.558 46.518 178.592 47.53 178.592 49.62V56H181.342V49.268C181.342 45.726 179.252 44.12 176.436 44.12ZM188.461 56.154C191.761 56.154 193.785 54.724 193.785 52.524C193.785 47.926 186.525 50.038 186.525 47.662C186.525 46.892 187.317 46.342 188.989 46.342C190.111 46.342 191.233 46.562 192.355 47.222L193.411 45.132C192.355 44.494 190.573 44.12 189.011 44.12C185.843 44.12 183.841 45.572 183.841 47.794C183.841 52.48 191.101 50.368 191.101 52.612C191.101 53.426 190.375 53.91 188.637 53.91C187.163 53.91 185.579 53.426 184.545 52.744L183.489 54.834C184.545 55.582 186.503 56.154 188.461 56.154ZM201.543 56.154C203.831 56.154 205.657 55.164 206.559 53.404L204.447 52.172C203.743 53.294 202.687 53.8 201.521 53.8C199.497 53.8 197.957 52.414 197.957 50.126C197.957 47.86 199.497 46.452 201.521 46.452C202.687 46.452 203.743 46.958 204.447 48.08L206.559 46.848C205.657 45.066 203.831 44.12 201.543 44.12C197.825 44.12 195.185 46.606 195.185 50.126C195.185 53.646 197.825 56.154 201.543 56.154ZM215.495 44.12C213.867 44.12 212.481 44.648 211.579 45.616V39.676H208.829V56H211.579V50.06C211.579 47.706 212.899 46.518 214.857 46.518C216.617 46.518 217.651 47.53 217.651 49.62V56H220.401V49.268C220.401 45.726 218.311 44.12 215.495 44.12ZM230.401 44.12C228.905 44.12 227.585 44.626 226.639 45.682V39.676H223.889V56H226.507V54.482C227.431 55.604 228.795 56.154 230.401 56.154C233.833 56.154 236.363 53.778 236.363 50.126C236.363 46.474 233.833 44.12 230.401 44.12ZM230.093 53.8C228.113 53.8 226.595 52.37 226.595 50.126C226.595 47.882 228.113 46.452 230.093 46.452C232.073 46.452 233.569 47.882 233.569 50.126C233.569 52.37 232.073 53.8 230.093 53.8ZM244.251 56.154C247.903 56.154 250.521 53.646 250.521 50.126C250.521 46.606 247.903 44.12 244.251 44.12C240.643 44.12 238.003 46.606 238.003 50.126C238.003 53.646 240.643 56.154 244.251 56.154ZM244.251 53.8C242.271 53.8 240.775 52.37 240.775 50.126C240.775 47.882 242.271 46.452 244.251 46.452C246.253 46.452 247.749 47.882 247.749 50.126C247.749 52.37 246.253 53.8 244.251 53.8ZM263.346 56L258.748 49.994L263.148 44.252H260.178L257.296 48.102L254.414 44.252H251.356L255.734 50.038L251.158 56H254.194L257.23 51.93L260.244 56H263.346Z" fill="black"/>
<g filter="url(#filter0_d)">
<path d="M113.758 205.481L28.9954 156.545V98.9438L113.758 147.835V205.481Z" fill="#FF6600"/>
<path d="M173.56 170.912L113.714 205.482V147.836L173.56 113.311V170.912Z" fill="#FF8100"/>
<path d="M113.714 166.602L25 115.376V98.0913L113.714 149.317V166.602Z" fill="#FF4E01"/>
<path d="M175.715 130.821L113.714 166.602V149.318L175.715 113.536V130.821Z" fill="#FF6600"/>
<rect x="69.1704" y="86.6792" width="50.2627" height="35.0316" fill="black"/>
<path d="M87.001 62.3091L25 98.091L113.714 149.317L175.715 113.535L87.001 62.3091ZM109.673 116.049L78.6055 98.091L83.14 95.487L114.208 113.445L109.673 116.049Z" fill="#FF8100"/>
<path opacity="0.3" d="M113.758 168.679L28.9954 119.788V117.666L113.758 166.602V168.679Z" fill="black"/>
<path opacity="0.3" d="M173.56 132.032L113.759 166.647V168.679L173.56 134.065V132.032Z" fill="black"/>
<path d="M109.763 203.147L100.784 197.984L101.009 141.999L109.943 147.117L109.763 203.147Z" fill="#003B7C"/>
<path d="M163.459 106.442L171.585 110.976L109.943 147.117L101.009 141.999L163.459 106.442Z" fill="#003B7C"/>
<path d="M108.865 137.286L97.1923 139.8L97.0127 173.382L106.261 188.287L106.396 145.187L116.812 142.853L108.865 137.286Z" fill="#032850"/>
<path d="M111.963 134.008L107.922 141.281L117.036 147.432V177.197L125.028 169.071V142.807L111.963 134.008Z" fill="#003B7C"/>
<path opacity="0.3" d="M111.11 142.224C115.151 144.828 117.625 149.749 124.36 152.084C128.58 153.565 132.486 152.577 135 151.5C138.232 150.108 138.681 145.035 136.661 136.056C136.661 136.056 134.82 135.697 133.159 135.742C122.743 136.101 120.224 138.319 113.04 139.396C113.04 139.396 115.016 138.139 117.306 136.792C119.595 135.445 119.685 124.872 113.04 123.615C106.396 122.358 98.0004 125.972 98.4044 130.866C98.8534 135.759 111.11 142.224 111.11 142.224Z" fill="black"/>
<path d="M108.82 141.73C108.82 141.73 109 142.089 109.538 142.448L111.11 142.987L117.53 135.938C116.228 134.636 116.363 131.044 116.273 126.824C116.228 127.004 116.183 127.183 116.183 127.363C116.228 134.905 107.653 137.958 107.653 137.958C107.653 137.958 107.832 140.742 108.82 141.73Z" fill="#003B7C"/>
<path d="M100.694 137.158C113.989 144.671 109.6 141.688 109.6 141.688C108.309 140.62 108.482 137.563 108.396 134.027C108.223 133.917 108.051 133.843 107.879 133.733C102.329 130.602 99.7046 126.33 99.2743 122.758C99.1452 121.653 99.1883 120.622 99.4464 119.738C96.2196 118.854 93.8962 119.922 92.7776 121.984C90.7124 125.667 92.6915 132.628 100.694 137.158Z" fill="#003B7C"/>
<path d="M99.4555 123.233C99.3228 121.971 99.367 120.792 99.6323 119.782C96.3159 118.772 93.928 119.993 92.7783 122.349C94.9451 122.602 97.3771 122.938 99.4555 123.233Z" fill="#032850"/>
<path d="M95.8247 119.749C97.3169 119.34 99.1929 119.526 101.41 120.565C108.658 124.016 108.36 131.734 108.487 136.966C108.53 139.304 108.701 141.159 109.639 141.939C109.639 141.939 109.894 142.087 110.065 142.272L117.91 137.152C116.673 136.076 116.801 133.107 116.716 129.619C116.546 124.647 115.863 118.673 109.724 115.741C106.228 114.071 104.053 115.073 101.964 116.224C100.557 117.003 97.1038 118.969 95.8247 119.749Z" fill="#3DA6EE"/>
<path d="M108.416 141.55C112.322 141.506 115.061 124.759 125.881 125.074C121.616 129.967 119.551 137.285 116.991 137.33C116.991 137.33 113.849 136.971 129.203 142.852C131.672 143.795 133.872 144.199 135.848 144.244C133.289 148.015 128.215 149.991 120.673 147.118C105.274 141.191 108.416 141.55 108.416 141.55Z" fill="#003B7C"/>
<path d="M121.795 125.837C123.86 124.939 126.33 124.714 129.338 125.657C132.346 126.6 134.546 128.53 135.937 130.865C138.99 135.938 138.227 143.032 133.782 146.444C135.937 145.232 139.798 143.032 140.472 142.403C144.243 138.991 144.872 132.706 142.357 127.947C140.966 125.343 138.676 123.143 135.399 122.11C132.884 121.347 130.729 121.347 128.889 121.931C127.677 122.29 123.815 124.58 121.795 125.837Z" fill="#3DA6EE"/>
<path d="M108.416 141.55C112.322 141.506 115.061 124.759 125.881 125.074C121.616 129.967 119.55 137.285 116.991 137.33C116.991 137.33 114.926 137.106 122.379 140.159L108.955 142.224C107.563 141.461 108.416 141.55 108.416 141.55Z" fill="#032850"/>
</g>
<defs>
<filter id="filter0_d" x="0" y="62.3091" width="200.715" height="193.173" filterUnits="userSpaceOnUse" color-interpolation-filters="sRGB">
<feFlood flood-opacity="0" result="BackgroundImageFix"/>
<feColorMatrix in="SourceAlpha" type="matrix" values="0 0 0 0 0 0 0 0 0 0 0 0 0 0 0 0 0 0 127 0"/>
<feOffset dy="25"/>
<feGaussianBlur stdDeviation="12.5"/>
<feColorMatrix type="matrix" values="0 0 0 0 0 0 0 0 0 0 0 0 0 0 0 0 0 0 0.25 0"/>
<feBlend mode="normal" in2="BackgroundImageFix" result="effect1_dropShadow"/>
<feBlend mode="normal" in="SourceGraphic" in2="effect1_dropShadow" result="shape"/>
</filter>
</defs>
</svg>
