<svg width="124" height="120" viewBox="0 0 124 120" fill="none" xmlns="http://www.w3.org/2000/svg">
<g filter="url(#filter0_d)">
<path d="M69.4035 89.6905L22.2239 62.4522V30.3911L69.4035 57.6043V89.6905Z" fill="#FF6600"/>
<path d="M102.689 70.4493L69.3787 89.691V57.6049L102.689 38.3882V70.4493Z" fill="#FF8100"/>
<path d="M69.3787 68.05L20 39.5373V29.9165L69.3787 58.4292V68.05Z" fill="#FF4E01"/>
<path d="M103.889 48.1335L69.3787 68.0499V58.4291L103.889 38.5127V48.1335Z" fill="#FF6600"/>
<rect x="44.5854" y="23.5645" width="27.9765" height="19.4988" fill="black"/>
<path d="M54.5101 10L20 29.9164L69.3786 58.4291L103.889 38.5127L54.5101 10ZM67.1296 39.9121L49.8371 29.9164L52.361 28.467L69.6535 38.4627L67.1296 39.9121Z" fill="#FF8100"/>
<path opacity="0.3" d="M69.4035 69.2066L22.2239 41.9933V40.812L69.4035 68.0502V69.2066Z" fill="black"/>
<path opacity="0.3" d="M102.689 48.8081L69.4038 68.0748V69.2061L102.689 49.9395V48.8081Z" fill="black"/>
<path d="M67.1797 88.3903L62.1819 85.5165L62.3068 54.355L67.2797 57.2037L67.1797 88.3903Z" fill="#003B7C"/>
<path d="M97.0669 34.564L101.59 37.0879L67.2797 57.2042L62.3069 54.3554L97.0669 34.564Z" fill="#003B7C"/>
<path d="M66.6797 51.7314L60.1825 53.1308L60.0825 71.8228L65.2303 80.1192L65.3053 56.1295L71.1028 54.8301L66.6797 51.7314Z" fill="#032850"/>
<path d="M68.4043 49.9072L66.1553 53.9555L71.2281 57.379V73.9468L75.6762 69.4238V54.8051L68.4043 49.9072Z" fill="#003B7C"/>
<path opacity="0.3" d="M67.9294 54.4804C70.1784 55.9298 71.5559 58.6686 75.3043 59.9681C77.6533 60.7927 79.8273 60.2429 81.2267 59.6432C83.0259 58.8685 83.2758 56.0447 82.1513 51.0469C82.1513 51.0469 81.1268 50.847 80.2022 50.872C74.4047 51.0719 73.0022 52.3063 69.0039 52.9061C69.0039 52.9061 70.1034 52.2064 71.3779 51.4567C72.6523 50.707 72.7023 44.8222 69.0039 44.1225C65.3055 43.4228 60.6325 45.4343 60.8574 48.1581C61.1073 50.8819 67.9294 54.4804 67.9294 54.4804Z" fill="black"/>
<path d="M66.6551 54.2051C66.6551 54.2051 66.755 54.405 67.0549 54.6049L67.9295 54.9048L71.503 50.9815C70.7783 50.2568 70.8533 48.2577 70.8033 45.9087C70.7783 46.0086 70.7533 46.1086 70.7533 46.2086C70.7783 50.4067 66.0054 52.106 66.0054 52.106C66.0054 52.106 66.1053 53.6553 66.6551 54.2051Z" fill="#003B7C"/>
<path d="M62.1318 51.6599C69.5317 55.8418 67.089 54.1813 67.089 54.1813C66.3706 53.5869 66.4664 51.8854 66.4185 49.9175C66.3227 49.856 66.2269 49.815 66.1311 49.7535C63.0418 48.0111 61.581 45.6332 61.3415 43.6448C61.2697 43.0298 61.2936 42.4559 61.4373 41.9639C59.6413 41.4719 58.3481 42.0664 57.7254 43.2143C56.5759 45.2642 57.6775 49.1386 62.1318 51.6599Z" fill="#003B7C"/>
<path d="M61.4426 43.9095C61.3688 43.2067 61.3934 42.5509 61.5411 41.9887C59.6951 41.4265 58.366 42.1058 57.7261 43.4176C58.9321 43.5581 60.2858 43.7455 61.4426 43.9095Z" fill="#032850"/>
<path d="M59.4216 41.9701C60.2522 41.7429 61.2964 41.8462 62.5304 42.4245C66.5647 44.3453 66.3986 48.6413 66.4698 51.5535C66.4935 52.8547 66.5884 53.8874 67.1105 54.3211C67.1105 54.3211 67.2529 54.4037 67.3478 54.507L71.7143 51.6567C71.0261 51.0578 71.0973 49.4055 71.0499 47.464C70.9549 44.6964 70.5752 41.3711 67.158 39.7395C65.212 38.8101 64.0017 39.3677 62.8389 40.008C62.0558 40.4417 60.1336 41.5364 59.4216 41.9701Z" fill="#3DA6EE"/>
<path d="M66.4299 54.1051C68.604 54.0801 70.1283 44.7591 76.1507 44.9341C73.7767 47.6579 72.6272 51.7311 71.2029 51.7561C71.2029 51.7561 69.4536 51.5562 77.9999 54.8298C79.3743 55.3546 80.5988 55.5795 81.6983 55.6045C80.2739 57.7036 77.4502 58.8031 73.252 57.2038C64.6807 53.9052 66.4299 54.1051 66.4299 54.1051Z" fill="#003B7C"/>
<path d="M73.8767 45.3591C75.0262 44.8593 76.4006 44.7344 78.0749 45.2591C79.7492 45.7839 80.9736 46.8585 81.7483 48.1579C83.4476 50.9817 83.0228 54.93 80.5488 56.8291C81.7483 56.1544 83.8974 54.93 84.2722 54.5801C86.3713 52.6809 86.7212 49.1824 85.3218 46.5336C84.5471 45.0842 83.2726 43.8597 81.4484 43.285C80.049 42.8602 78.8496 42.8602 77.825 43.185C77.1503 43.385 75.0012 44.6594 73.8767 45.3591Z" fill="#3DA6EE"/>
<path d="M66.4299 54.1051C68.604 54.0801 70.1283 44.7591 76.1507 44.9341C73.7767 47.6579 72.6272 51.7311 71.2028 51.7561C71.2028 51.7561 70.0533 51.6312 74.2015 53.3304L66.7298 54.4799C65.9551 54.0551 66.4299 54.1051 66.4299 54.1051Z" fill="#032850"/>
</g>
<defs>
<filter id="filter0_d" x="0" y="0" width="123.889" height="119.691" filterUnits="userSpaceOnUse" color-interpolation-filters="sRGB">
<feFlood flood-opacity="0" result="BackgroundImageFix"/>
<feColorMatrix in="SourceAlpha" type="matrix" values="0 0 0 0 0 0 0 0 0 0 0 0 0 0 0 0 0 0 127 0"/>
<feOffset dy="10"/>
<feGaussianBlur stdDeviation="10"/>
<feColorMatrix type="matrix" values="0 0 0 0 0 0 0 0 0 0 0 0 0 0 0 0 0 0 0.25 0"/>
<feBlend mode="normal" in2="BackgroundImageFix" result="effect1_dropShadow"/>
<feBlend mode="normal" in="SourceGraphic" in2="effect1_dropShadow" result="shape"/>
</filter>
</defs>
</svg>
