<svg width="123" height="116" viewBox="0 0 123 116" fill="none" xmlns="http://www.w3.org/2000/svg">
<g filter="url(#filter0_d)">
<path d="M89.3729 65.2238C87.7291 54.4323 86.572 47.3157 80.7752 37.255C79.0257 34.2292 74.988 27.8214 72.5365 25.4831C61.0448 14.5175 47.9871 13.2565 42.6097 19.3089C33.3408 29.7481 34.3353 32.4528 30.0097 37.354C34.3043 37.266 40.8052 30.1617 41.8152 31.255C44.1668 33.7761 43.3722 37.4189 42.6953 40.8762C41.5592 46.6273 39.7637 52.1897 38.8794 58.0108C37.9951 63.832 38.0962 70.1401 40.5596 75.5094L89.3729 65.2238Z" fill="#ED2F2F"/>
<path d="M53.9498 64.8255C52.8408 62.2134 51.8312 59.5297 51.2481 56.7396C50.1375 51.5017 50.477 46.0836 49.904 40.7398C49.334 35.4141 47.2061 23.3513 43.4599 26.6974C40.0689 29.7268 30.9301 36.8716 30.0099 37.3541C34.382 37.4014 40.8054 30.1618 41.8154 31.2552C44.167 33.7762 43.3577 37.3289 42.6809 40.7862C41.5448 46.5373 39.7493 52.0998 38.865 57.9209C37.9807 63.742 38.1664 69.8884 40.6478 75.2547L57.7205 71.9794C56.3283 69.6723 55.0232 67.3325 53.9498 64.8255Z" fill="#DD281F"/>
<path d="M37.3046 35.1331C36.9531 32.9711 34.8434 31.4833 32.4393 31.5968C31.3928 30.6204 29.7924 30.1039 28.0989 30.3793C25.6486 30.7777 23.8705 32.6942 23.8953 34.7799C22.4869 35.7856 21.668 37.2317 21.9053 38.6911C22.0986 39.8802 22.959 40.8499 24.163 41.4308C25.2499 43.5657 27.6424 44.8595 30.1467 44.4523C30.8674 44.3351 31.5315 44.0977 32.1211 43.7429C32.5648 43.8557 33.0478 43.8696 33.5163 43.7935C35.8224 43.4185 37.3031 40.8106 36.8373 37.946C36.8256 37.8739 36.8139 37.8019 36.8022 37.7298C37.2523 36.9724 37.454 36.0519 37.3046 35.1331Z" fill="#F0F0F0"/>
<path d="M97.8198 61.5575C96.487 59.3886 93.3261 58.1458 89.8971 58.6663C88.9212 58.8065 88.0049 59.085 87.1811 59.4778C86.5723 59.3734 85.9418 59.4759 85.2936 59.4703C81.0054 59.4834 78.7517 61.7731 78.217 61.897C76.6242 60.9724 74.2156 60.7168 71.7313 61.3612C68.9438 62.0733 66.8096 63.7333 66.0132 65.5457C64.8916 65.3582 62.4682 63.5331 55.1999 65.1217C52.0582 65.8175 49.0485 67.324 48.2497 68.2121C47.2062 67.2537 44.3778 66.9184 41.4532 67.3569C40.4774 67.4971 39.561 67.7756 38.7373 68.1684C38.1285 68.064 37.4984 68.0555 36.8498 68.1609C33.691 68.6376 31.4955 71.3986 31.934 74.3232C31.9457 74.3952 31.9574 74.4673 31.9691 74.5394C31.2907 75.3709 30.9658 76.3299 31.103 77.2877C31.4453 79.5067 34.2153 80.9611 37.493 80.761C38.8545 81.7416 40.4457 82.3151 42.7577 81.9762C45.3579 81.5903 48.2633 80.6926 49.1923 80.2642C49.813 81.1249 54.4992 81.3985 58.4701 80.457C59.6445 80.1735 60.7235 79.7577 61.6947 79.2484C62.4388 79.2753 65.17 79.9223 69.6147 79.0517C73.738 78.2518 77.4547 76.316 78.315 75.8062C78.987 75.8449 79.6746 75.7516 80.3714 75.6013C83.9994 74.8265 85.878 73.3005 86.3163 73.2662C87.6778 74.2469 90.7113 73.5687 92.7217 72.8535C95.9069 71.7438 97.5891 69.8059 97.7536 68.4292C99.7385 67.3297 100.933 65.804 100.708 64.3057C100.527 63.0777 99.429 62.128 97.8198 61.5575Z" fill="#F0F0F0"/>
</g>
<defs>
<filter id="filter0_d" x="0.748047" y="0.814453" width="121.497" height="114.306" filterUnits="userSpaceOnUse" color-interpolation-filters="sRGB">
<feFlood flood-opacity="0" result="BackgroundImageFix"/>
<feColorMatrix in="SourceAlpha" type="matrix" values="0 0 0 0 0 0 0 0 0 0 0 0 0 0 0 0 0 0 127 0"/>
<feOffset dy="10"/>
<feGaussianBlur stdDeviation="10"/>
<feColorMatrix type="matrix" values="0 0 0 0 0 0 0 0 0 0 0 0 0 0 0 0 0 0 0.5 0"/>
<feBlend mode="normal" in2="BackgroundImageFix" result="effect1_dropShadow"/>
<feBlend mode="normal" in="SourceGraphic" in2="effect1_dropShadow" result="shape"/>
</filter>
</defs>
</svg>
