<svg width="282" height="236" viewBox="0 0 282 236" fill="none" xmlns="http://www.w3.org/2000/svg">
<rect width="101.111" height="92.8571" transform="matrix(-1 0 0 1 282 0)" fill="#F4F4F4"/>
<circle r="97.5" transform="matrix(-1 0 0 1 184.5 97.5)" fill="#F4F4F4"/>
<path d="M149.125 77.222V76.566H152.757V77.222L151.413 77.414L148.709 87.382H148.021L145.253 79.094L142.645 87.382H141.957L139.077 77.382L137.749 77.222V76.566H142.101V77.222L140.629 77.398L142.597 84.742L145.029 77.414L143.429 77.222V76.566H147.781V77.222L146.165 77.414L148.549 84.822L150.581 77.43L149.125 77.222ZM153.116 87.27V86.694L154.316 86.47C154.326 86.0647 154.332 85.6274 154.332 85.158C154.342 84.678 154.348 84.262 154.348 83.91V83.158C154.348 82.7207 154.342 82.358 154.332 82.07C154.332 81.7714 154.321 81.462 154.3 81.142L153.02 80.998V80.438L155.484 79.462L155.724 79.622L155.676 81.798V83.91C155.676 84.262 155.676 84.678 155.676 85.158C155.686 85.6274 155.697 86.0647 155.708 86.47L156.828 86.694V87.27H153.116ZM155.004 77.702C154.705 77.702 154.449 77.606 154.236 77.414C154.033 77.222 153.932 76.9767 153.932 76.678C153.932 76.3687 154.033 76.1234 154.236 75.942C154.449 75.75 154.705 75.654 155.004 75.654C155.302 75.654 155.553 75.75 155.756 75.942C155.969 76.1234 156.076 76.3687 156.076 76.678C156.076 76.9767 155.969 77.222 155.756 77.414C155.553 77.606 155.302 77.702 155.004 77.702ZM157.993 87.27V86.694L159.145 86.486C159.156 86.0807 159.161 85.6434 159.161 85.174C159.172 84.694 159.177 84.2727 159.177 83.91V83.142C159.177 82.7047 159.172 82.342 159.161 82.054C159.161 81.766 159.151 81.462 159.129 81.142L157.865 80.998V80.438L160.105 79.462L160.345 79.622L160.521 81.51C160.788 80.87 161.129 80.3687 161.545 80.006C161.972 79.6434 162.399 79.462 162.825 79.462C163.071 79.462 163.3 79.5154 163.513 79.622C163.727 79.7287 163.881 79.8727 163.977 80.054C163.977 80.8327 163.663 81.222 163.033 81.222C162.852 81.222 162.681 81.19 162.521 81.126C162.361 81.0514 162.207 80.95 162.057 80.822L161.865 80.646C161.545 80.8807 161.279 81.1687 161.065 81.51C160.852 81.8514 160.676 82.2514 160.537 82.71V83.91C160.537 84.262 160.537 84.6727 160.537 85.142C160.548 85.6114 160.559 86.0487 160.569 86.454L161.881 86.694V87.27H157.993ZM171.389 87.478C170.739 87.478 170.227 87.2647 169.853 86.838C169.48 86.4007 169.299 85.654 169.309 84.598L169.357 80.614L168.221 80.374V79.798L170.573 79.574L170.733 79.734L170.653 81.974V84.454C170.653 85.1474 170.76 85.638 170.973 85.926C171.187 86.2034 171.507 86.342 171.933 86.342C172.68 86.342 173.427 85.9954 174.173 85.302L174.221 80.598L173.085 80.374V79.798L175.405 79.574L175.565 79.734L175.517 81.974V86.47L176.605 86.694V87.27L174.381 87.398L174.221 85.974C173.795 86.4967 173.336 86.8807 172.845 87.126C172.365 87.3607 171.88 87.478 171.389 87.478ZM177.789 87.27V86.694L178.973 86.47C178.984 86.0647 178.989 85.6274 178.989 85.158C179 84.6887 179.005 84.2727 179.005 83.91V83.142C179.005 82.7047 179 82.342 178.989 82.054C178.989 81.766 178.979 81.462 178.957 81.142L177.693 80.998V80.438L179.933 79.462L180.173 79.622L180.301 80.902C180.696 80.4754 181.149 80.1287 181.661 79.862C182.173 79.5954 182.675 79.462 183.165 79.462C183.859 79.462 184.371 79.6967 184.701 80.166C185.043 80.6247 185.213 81.3767 185.213 82.422V83.91C185.213 84.2727 185.213 84.6887 185.213 85.158C185.224 85.6274 185.235 86.0647 185.245 86.47L186.365 86.694V87.27H182.653V86.694L183.837 86.47C183.848 86.0754 183.853 85.6434 183.853 85.174C183.864 84.694 183.869 84.2727 183.869 83.91V82.55C183.869 81.814 183.763 81.3074 183.549 81.03C183.347 80.7527 183.011 80.614 182.541 80.614C182.179 80.614 181.827 80.6887 181.485 80.838C181.144 80.9874 180.771 81.2327 180.365 81.574V83.91C180.365 84.262 180.365 84.678 180.365 85.158C180.376 85.6274 180.387 86.0647 180.397 86.47L181.501 86.694V87.27H177.789ZM190.054 87.478C189.5 87.478 189.057 87.3287 188.726 87.03C188.396 86.7314 188.23 86.2727 188.23 85.654C188.23 85.4514 188.23 85.254 188.23 85.062C188.241 84.8594 188.246 84.6034 188.246 84.294V80.518H186.918V79.814L188.342 79.638L188.758 77.494H189.718L189.622 79.67H191.782V80.518H189.606V85.478C189.606 85.8834 189.686 86.182 189.846 86.374C190.006 86.5554 190.22 86.646 190.486 86.646C190.668 86.646 190.838 86.6087 190.998 86.534C191.169 86.4594 191.356 86.3527 191.558 86.214L191.942 86.63C191.505 87.1954 190.876 87.478 190.054 87.478ZM196.282 80.198C195.983 80.198 195.679 80.2834 195.37 80.454C195.071 80.6247 194.81 80.8967 194.586 81.27C194.372 81.6434 194.234 82.1394 194.17 82.758H197.082C197.466 82.758 197.716 82.678 197.834 82.518C197.962 82.358 198.026 82.1607 198.026 81.926C198.026 81.6167 197.946 81.334 197.786 81.078C197.636 80.8114 197.428 80.598 197.162 80.438C196.906 80.278 196.612 80.198 196.282 80.198ZM196.266 87.478C195.188 87.478 194.324 87.1314 193.674 86.438C193.023 85.734 192.698 84.7687 192.698 83.542C192.698 82.7207 192.863 82.006 193.194 81.398C193.535 80.79 193.983 80.3154 194.538 79.974C195.103 79.6327 195.716 79.462 196.378 79.462C196.932 79.462 197.434 79.5847 197.882 79.83C198.33 80.0754 198.687 80.4274 198.954 80.886C199.22 81.334 199.354 81.8834 199.354 82.534C199.354 82.7154 199.343 82.886 199.322 83.046C199.3 83.1954 199.274 83.3234 199.242 83.43H194.138C194.159 84.4114 194.404 85.158 194.874 85.67C195.343 86.182 195.962 86.438 196.73 86.438C197.242 86.438 197.668 86.3367 198.01 86.134C198.351 85.9207 198.666 85.6487 198.954 85.318L199.338 85.622C199.039 86.1874 198.634 86.6407 198.122 86.982C197.61 87.3127 196.991 87.478 196.266 87.478ZM200.806 87.27V86.694L201.958 86.486C201.969 86.0807 201.974 85.6434 201.974 85.174C201.985 84.694 201.99 84.2727 201.99 83.91V83.142C201.99 82.7047 201.985 82.342 201.974 82.054C201.974 81.766 201.963 81.462 201.942 81.142L200.678 80.998V80.438L202.918 79.462L203.158 79.622L203.334 81.51C203.601 80.87 203.942 80.3687 204.358 80.006C204.785 79.6434 205.211 79.462 205.638 79.462C205.883 79.462 206.113 79.5154 206.326 79.622C206.539 79.7287 206.694 79.8727 206.79 80.054C206.79 80.8327 206.475 81.222 205.846 81.222C205.665 81.222 205.494 81.19 205.334 81.126C205.174 81.0514 205.019 80.95 204.87 80.822L204.678 80.646C204.358 80.8807 204.091 81.1687 203.878 81.51C203.665 81.8514 203.489 82.2514 203.35 82.71V83.91C203.35 84.262 203.35 84.6727 203.35 85.142C203.361 85.6114 203.371 86.0487 203.382 86.454L204.694 86.694V87.27H200.806ZM209.943 87.478C209.495 87.478 209.085 87.4247 208.711 87.318C208.338 87.222 207.954 87.0727 207.559 86.87L207.495 85.11H208.375L208.679 86.502C209.053 86.6727 209.485 86.758 209.975 86.758C210.583 86.758 211.031 86.646 211.319 86.422C211.618 86.198 211.767 85.9047 211.767 85.542C211.767 85.2007 211.645 84.9287 211.399 84.726C211.154 84.5127 210.781 84.3207 210.279 84.15L209.543 83.878C208.957 83.6647 208.487 83.3874 208.135 83.046C207.783 82.7047 207.607 82.262 207.607 81.718C207.607 81.3234 207.714 80.9554 207.927 80.614C208.141 80.2727 208.455 79.9954 208.871 79.782C209.287 79.5687 209.794 79.462 210.391 79.462C210.829 79.462 211.223 79.5207 211.575 79.638C211.938 79.7447 212.29 79.9047 212.631 80.118L212.567 81.75H211.735L211.479 80.47C211.117 80.2887 210.749 80.198 210.375 80.198C209.885 80.198 209.511 80.2994 209.255 80.502C209.01 80.694 208.887 80.9554 208.887 81.286C208.887 81.638 208.994 81.9047 209.207 82.086C209.431 82.2674 209.815 82.4594 210.359 82.662L210.855 82.838C211.655 83.1367 212.221 83.478 212.551 83.862C212.893 84.246 213.063 84.6887 213.063 85.19C213.063 85.5954 212.946 85.974 212.711 86.326C212.477 86.6674 212.13 86.9447 211.671 87.158C211.213 87.3714 210.637 87.478 209.943 87.478ZM216.961 87.478C216.406 87.478 215.963 87.3287 215.633 87.03C215.302 86.7314 215.137 86.2727 215.137 85.654C215.137 85.4514 215.137 85.254 215.137 85.062C215.147 84.8594 215.153 84.6034 215.153 84.294V80.518H213.825V79.814L215.249 79.638L215.665 77.494H216.625L216.529 79.67H218.689V80.518H216.513V85.478C216.513 85.8834 216.593 86.182 216.753 86.374C216.913 86.5554 217.126 86.646 217.393 86.646C217.574 86.646 217.745 86.6087 217.905 86.534C218.075 86.4594 218.262 86.3527 218.465 86.214L218.849 86.63C218.411 87.1954 217.782 87.478 216.961 87.478ZM222.452 87.478C221.801 87.478 221.289 87.2647 220.916 86.838C220.543 86.4007 220.361 85.654 220.372 84.598L220.42 80.614L219.284 80.374V79.798L221.636 79.574L221.796 79.734L221.716 81.974V84.454C221.716 85.1474 221.823 85.638 222.036 85.926C222.249 86.2034 222.569 86.342 222.996 86.342C223.743 86.342 224.489 85.9954 225.236 85.302L225.284 80.598L224.148 80.374V79.798L226.468 79.574L226.628 79.734L226.58 81.974V86.47L227.668 86.694V87.27L225.444 87.398L225.284 85.974C224.857 86.4967 224.399 86.8807 223.908 87.126C223.428 87.3607 222.943 87.478 222.452 87.478ZM221.876 77.734C221.62 77.734 221.396 77.6487 221.204 77.478C221.023 77.3074 220.932 77.0887 220.932 76.822C220.932 76.566 221.023 76.3527 221.204 76.182C221.396 76.0007 221.62 75.91 221.876 75.91C222.143 75.91 222.367 76.0007 222.548 76.182C222.74 76.3527 222.836 76.566 222.836 76.822C222.836 77.0887 222.74 77.3074 222.548 77.478C222.367 77.6487 222.143 77.734 221.876 77.734ZM225.236 77.734C224.969 77.734 224.74 77.6487 224.548 77.478C224.367 77.3074 224.276 77.0887 224.276 76.822C224.276 76.566 224.367 76.3527 224.548 76.182C224.74 76.0007 224.969 75.91 225.236 75.91C225.492 75.91 225.711 76.0007 225.892 76.182C226.084 76.3527 226.18 76.566 226.18 76.822C226.18 77.0887 226.084 77.3074 225.892 77.478C225.711 77.6487 225.492 77.734 225.236 77.734ZM231.492 87.478C230.937 87.478 230.495 87.3287 230.164 87.03C229.833 86.7314 229.668 86.2727 229.668 85.654C229.668 85.4514 229.668 85.254 229.668 85.062C229.679 84.8594 229.684 84.6034 229.684 84.294V80.518H228.356V79.814L229.78 79.638L230.196 77.494H231.156L231.06 79.67H233.22V80.518H231.044V85.478C231.044 85.8834 231.124 86.182 231.284 86.374C231.444 86.5554 231.657 86.646 231.924 86.646C232.105 86.646 232.276 86.6087 232.436 86.534C232.607 86.4594 232.793 86.3527 232.996 86.214L233.38 86.63C232.943 87.1954 232.313 87.478 231.492 87.478ZM233.879 87.27V86.71L238.471 80.358H235.239L234.807 82.134L233.975 82.07L234.103 79.67H240.071V80.246L235.495 86.598H238.999L239.479 84.662H240.311L240.151 87.27H233.879ZM245.016 80.198C244.717 80.198 244.413 80.2834 244.104 80.454C243.805 80.6247 243.544 80.8967 243.32 81.27C243.107 81.6434 242.968 82.1394 242.904 82.758H245.816C246.2 82.758 246.451 82.678 246.568 82.518C246.696 82.358 246.76 82.1607 246.76 81.926C246.76 81.6167 246.68 81.334 246.52 81.078C246.371 80.8114 246.163 80.598 245.896 80.438C245.64 80.278 245.347 80.198 245.016 80.198ZM245 87.478C243.923 87.478 243.059 87.1314 242.408 86.438C241.757 85.734 241.432 84.7687 241.432 83.542C241.432 82.7207 241.597 82.006 241.928 81.398C242.269 80.79 242.717 80.3154 243.272 79.974C243.837 79.6327 244.451 79.462 245.112 79.462C245.667 79.462 246.168 79.5847 246.616 79.83C247.064 80.0754 247.421 80.4274 247.688 80.886C247.955 81.334 248.088 81.8834 248.088 82.534C248.088 82.7154 248.077 82.886 248.056 83.046C248.035 83.1954 248.008 83.3234 247.976 83.43H242.872C242.893 84.4114 243.139 85.158 243.608 85.67C244.077 86.182 244.696 86.438 245.464 86.438C245.976 86.438 246.403 86.3367 246.744 86.134C247.085 85.9207 247.4 85.6487 247.688 85.318L248.072 85.622C247.773 86.1874 247.368 86.6407 246.856 86.982C246.344 87.3127 245.725 87.478 245 87.478ZM249.508 87.27V86.694L250.692 86.47C250.703 86.0647 250.708 85.6274 250.708 85.158C250.719 84.6887 250.724 84.2727 250.724 83.91V83.142C250.724 82.7047 250.719 82.342 250.708 82.054C250.708 81.766 250.698 81.462 250.676 81.142L249.412 80.998V80.438L251.652 79.462L251.892 79.622L252.02 80.902C252.415 80.4754 252.868 80.1287 253.38 79.862C253.892 79.5954 254.394 79.462 254.884 79.462C255.578 79.462 256.09 79.6967 256.42 80.166C256.762 80.6247 256.932 81.3767 256.932 82.422V83.91C256.932 84.2727 256.932 84.6887 256.932 85.158C256.943 85.6274 256.954 86.0647 256.964 86.47L258.084 86.694V87.27H254.372V86.694L255.556 86.47C255.567 86.0754 255.572 85.6434 255.572 85.174C255.583 84.694 255.588 84.2727 255.588 83.91V82.55C255.588 81.814 255.482 81.3074 255.268 81.03C255.066 80.7527 254.73 80.614 254.26 80.614C253.898 80.614 253.546 80.6887 253.204 80.838C252.863 80.9874 252.49 81.2327 252.084 81.574V83.91C252.084 84.262 252.084 84.678 252.084 85.158C252.095 85.6274 252.106 86.0647 252.116 86.47L253.22 86.694V87.27H249.508ZM206.716 107.51C206.716 108.555 206.924 109.329 207.34 109.83C207.766 110.321 208.3 110.566 208.94 110.566C209.292 110.566 209.601 110.497 209.868 110.358C210.145 110.209 210.433 109.969 210.732 109.638V105.206C210.369 104.886 210.044 104.667 209.756 104.55C209.468 104.433 209.19 104.374 208.924 104.374C208.529 104.374 208.161 104.486 207.82 104.71C207.489 104.923 207.222 105.265 207.02 105.734C206.817 106.193 206.716 106.785 206.716 107.51ZM210.892 111.43L210.78 110.326C210.502 110.689 210.182 110.971 209.82 111.174C209.468 111.377 209.041 111.478 208.54 111.478C207.889 111.478 207.318 111.313 206.828 110.982C206.337 110.651 205.953 110.193 205.676 109.606C205.409 109.009 205.276 108.321 205.276 107.542C205.276 106.721 205.425 106.006 205.724 105.398C206.022 104.79 206.428 104.315 206.94 103.974C207.452 103.633 208.033 103.462 208.684 103.462C209.057 103.462 209.414 103.537 209.756 103.686C210.108 103.835 210.449 104.107 210.78 104.502V100.886L209.42 100.726V100.166L211.916 99.446L212.14 99.574L212.076 101.846V110.502L213.372 110.694V111.27L210.892 111.43ZM214.194 111.27V110.694L215.394 110.47C215.405 110.065 215.41 109.627 215.41 109.158C215.421 108.678 215.426 108.262 215.426 107.91V107.158C215.426 106.721 215.421 106.358 215.41 106.07C215.41 105.771 215.399 105.462 215.378 105.142L214.098 104.998V104.438L216.562 103.462L216.802 103.622L216.754 105.798V107.91C216.754 108.262 216.754 108.678 216.754 109.158C216.765 109.627 216.775 110.065 216.786 110.47L217.906 110.694V111.27H214.194ZM216.082 101.702C215.783 101.702 215.527 101.606 215.314 101.414C215.111 101.222 215.01 100.977 215.01 100.678C215.01 100.369 215.111 100.123 215.314 99.942C215.527 99.75 215.783 99.654 216.082 99.654C216.381 99.654 216.631 99.75 216.834 99.942C217.047 100.123 217.154 100.369 217.154 100.678C217.154 100.977 217.047 101.222 216.834 101.414C216.631 101.606 216.381 101.702 216.082 101.702ZM222.671 111.478C221.573 111.478 220.698 111.121 220.047 110.406C219.397 109.691 219.071 108.721 219.071 107.494C219.071 106.651 219.242 105.931 219.583 105.334C219.935 104.726 220.394 104.262 220.959 103.942C221.525 103.622 222.127 103.462 222.767 103.462C223.247 103.462 223.69 103.553 224.095 103.734C224.501 103.915 224.837 104.166 225.103 104.486C225.37 104.795 225.535 105.147 225.599 105.542C225.525 105.947 225.279 106.15 224.863 106.15C224.597 106.15 224.394 106.081 224.255 105.942C224.127 105.793 224.037 105.606 223.983 105.382L223.695 104.326C223.546 104.273 223.397 104.241 223.247 104.23C223.109 104.209 222.97 104.198 222.831 104.198C222.149 104.198 221.583 104.465 221.135 104.998C220.698 105.531 220.479 106.31 220.479 107.334C220.479 108.337 220.719 109.105 221.199 109.638C221.679 110.171 222.293 110.438 223.039 110.438C223.498 110.438 223.919 110.337 224.303 110.134C224.687 109.921 225.002 109.617 225.247 109.222L225.647 109.43C225.423 110.091 225.061 110.598 224.559 110.95C224.058 111.302 223.429 111.478 222.671 111.478ZM226.52 111.27V110.694L227.72 110.47C227.731 110.065 227.736 109.627 227.736 109.158C227.747 108.678 227.752 108.262 227.752 107.91V100.886L226.44 100.726V100.166L228.888 99.446L229.112 99.574L229.048 101.846V104.934C229.443 104.497 229.901 104.145 230.424 103.878C230.947 103.601 231.464 103.462 231.976 103.462C232.669 103.462 233.181 103.697 233.512 104.166C233.853 104.625 234.024 105.377 234.024 106.422V107.91C234.024 108.273 234.024 108.689 234.024 109.158C234.035 109.627 234.045 110.065 234.056 110.47L235.176 110.694V111.27H231.464V110.694L232.632 110.486C232.643 110.081 232.648 109.643 232.648 109.174C232.659 108.694 232.664 108.273 232.664 107.91V106.55C232.664 105.814 232.563 105.307 232.36 105.03C232.157 104.753 231.821 104.614 231.352 104.614C230.957 104.614 230.584 104.694 230.232 104.854C229.88 105.014 229.501 105.281 229.096 105.654V107.91C229.096 108.262 229.096 108.678 229.096 109.158C229.107 109.627 229.117 110.065 229.128 110.47L230.232 110.694V111.27H226.52ZM239.944 111.27V110.694L241.144 110.47C241.155 110.065 241.16 109.627 241.16 109.158C241.171 108.678 241.176 108.262 241.176 107.91V107.158C241.176 106.721 241.171 106.358 241.16 106.07C241.16 105.771 241.149 105.462 241.128 105.142L239.848 104.998V104.438L242.312 103.462L242.552 103.622L242.504 105.798V107.91C242.504 108.262 242.504 108.678 242.504 109.158C242.515 109.627 242.525 110.065 242.536 110.47L243.656 110.694V111.27H239.944ZM241.832 101.702C241.533 101.702 241.277 101.606 241.064 101.414C240.861 101.222 240.76 100.977 240.76 100.678C240.76 100.369 240.861 100.123 241.064 99.942C241.277 99.75 241.533 99.654 241.832 99.654C242.131 99.654 242.381 99.75 242.584 99.942C242.797 100.123 242.904 100.369 242.904 100.678C242.904 100.977 242.797 101.222 242.584 101.414C242.381 101.606 242.131 101.702 241.832 101.702ZM244.789 111.27V110.694L245.973 110.47C245.984 110.065 245.989 109.627 245.989 109.158C246 108.689 246.005 108.273 246.005 107.91V107.142C246.005 106.705 246 106.342 245.989 106.054C245.989 105.766 245.979 105.462 245.957 105.142L244.693 104.998V104.438L246.933 103.462L247.173 103.622L247.301 104.918C247.675 104.491 248.112 104.145 248.613 103.878C249.115 103.601 249.611 103.462 250.101 103.462C250.603 103.462 251.008 103.579 251.317 103.814C251.637 104.049 251.867 104.433 252.005 104.966C252.411 104.465 252.864 104.091 253.365 103.846C253.867 103.59 254.379 103.462 254.901 103.462C255.552 103.462 256.053 103.681 256.405 104.118C256.768 104.555 256.949 105.27 256.949 106.262V107.91C256.949 108.273 256.949 108.689 256.949 109.158C256.96 109.627 256.971 110.065 256.981 110.47L258.101 110.694V111.27H254.389V110.694L255.573 110.47C255.584 110.075 255.589 109.643 255.589 109.174C255.6 108.694 255.605 108.273 255.605 107.91V106.518C255.605 105.771 255.499 105.27 255.285 105.014C255.072 104.747 254.731 104.614 254.261 104.614C253.931 104.614 253.589 104.689 253.237 104.838C252.896 104.987 252.523 105.249 252.117 105.622C252.128 105.739 252.133 105.867 252.133 106.006C252.144 106.134 252.149 106.273 252.149 106.422V107.91C252.149 108.273 252.149 108.689 252.149 109.158C252.16 109.627 252.171 110.065 252.181 110.47L253.301 110.694V111.27H249.589V110.694L250.773 110.47C250.784 110.075 250.789 109.643 250.789 109.174C250.8 108.694 250.805 108.273 250.805 107.91V106.55C250.805 105.825 250.704 105.323 250.501 105.046C250.299 104.758 249.963 104.614 249.493 104.614C249.131 104.614 248.784 104.689 248.453 104.838C248.123 104.987 247.76 105.233 247.365 105.574V107.91C247.365 108.262 247.365 108.678 247.365 109.158C247.376 109.627 247.387 110.065 247.397 110.47L248.501 110.694V111.27H244.789ZM180.478 125.222V124.566H185.006V125.222L183.534 125.398C183.524 126.081 183.513 126.769 183.502 127.462C183.502 128.145 183.502 128.833 183.502 129.526V130.63C183.502 131.195 183.502 131.809 183.502 132.47C183.513 133.121 183.524 133.787 183.534 134.47H187.166L187.63 132.262H188.606L188.446 135.27H180.478V134.614L181.95 134.438C181.972 133.745 181.982 133.057 181.982 132.374C181.982 131.691 181.982 131.009 181.982 130.326V129.526C181.982 128.833 181.982 128.139 181.982 127.446C181.982 126.753 181.972 126.07 181.95 125.398L180.478 125.222ZM193.69 135.478C193.071 135.478 192.479 135.334 191.914 135.046C191.359 134.747 190.906 134.305 190.554 133.718C190.202 133.121 190.026 132.385 190.026 131.51C190.026 130.625 190.202 129.883 190.554 129.286C190.906 128.678 191.359 128.225 191.914 127.926C192.479 127.617 193.071 127.462 193.69 127.462C194.308 127.462 194.895 127.617 195.45 127.926C196.015 128.225 196.474 128.678 196.826 129.286C197.188 129.883 197.37 130.625 197.37 131.51C197.37 132.385 197.188 133.121 196.826 133.718C196.474 134.305 196.015 134.747 195.45 135.046C194.895 135.334 194.308 135.478 193.69 135.478ZM193.69 134.758C194.383 134.758 194.916 134.486 195.29 133.942C195.663 133.387 195.85 132.577 195.85 131.51C195.85 130.433 195.663 129.611 195.29 129.046C194.916 128.481 194.383 128.198 193.69 128.198C192.996 128.198 192.463 128.481 192.09 129.046C191.727 129.611 191.546 130.433 191.546 131.51C191.546 132.577 191.727 133.387 192.09 133.942C192.463 134.486 192.996 134.758 193.69 134.758ZM202.359 135.478C201.26 135.478 200.386 135.121 199.735 134.406C199.084 133.691 198.759 132.721 198.759 131.494C198.759 130.651 198.93 129.931 199.271 129.334C199.623 128.726 200.082 128.262 200.647 127.942C201.212 127.622 201.815 127.462 202.455 127.462C202.935 127.462 203.378 127.553 203.783 127.734C204.188 127.915 204.524 128.166 204.791 128.486C205.058 128.795 205.223 129.147 205.287 129.542C205.212 129.947 204.967 130.15 204.551 130.15C204.284 130.15 204.082 130.081 203.943 129.942C203.815 129.793 203.724 129.606 203.671 129.382L203.383 128.326C203.234 128.273 203.084 128.241 202.935 128.23C202.796 128.209 202.658 128.198 202.519 128.198C201.836 128.198 201.271 128.465 200.823 128.998C200.386 129.531 200.167 130.31 200.167 131.334C200.167 132.337 200.407 133.105 200.887 133.638C201.367 134.171 201.98 134.438 202.727 134.438C203.186 134.438 203.607 134.337 203.991 134.134C204.375 133.921 204.69 133.617 204.935 133.222L205.335 133.43C205.111 134.091 204.748 134.598 204.247 134.95C203.746 135.302 203.116 135.478 202.359 135.478ZM206.128 135.27V134.694L207.408 134.47C207.418 134.043 207.424 133.617 207.424 133.19C207.434 132.753 207.44 132.326 207.44 131.91V124.886L206.128 124.726V124.166L208.624 123.446L208.848 123.574L208.784 125.846V131.43L211.52 128.582L210.336 128.294V127.67H214.064V128.294L212.56 128.518L210.8 130.326L213.424 134.502L214.48 134.694V135.27H212.304L209.84 131.302L208.784 132.39C208.784 132.731 208.784 133.078 208.784 133.43C208.794 133.782 208.805 134.129 208.816 134.47L210.096 134.694V135.27H206.128ZM216.325 131.51C216.325 132.555 216.533 133.329 216.949 133.83C217.376 134.321 217.909 134.566 218.549 134.566C218.901 134.566 219.21 134.497 219.477 134.358C219.754 134.209 220.042 133.969 220.341 133.638V129.206C219.978 128.886 219.653 128.667 219.365 128.55C219.077 128.433 218.8 128.374 218.533 128.374C218.138 128.374 217.77 128.486 217.429 128.71C217.098 128.923 216.832 129.265 216.629 129.734C216.426 130.193 216.325 130.785 216.325 131.51ZM220.501 135.43L220.389 134.326C220.112 134.689 219.792 134.971 219.429 135.174C219.077 135.377 218.65 135.478 218.149 135.478C217.498 135.478 216.928 135.313 216.437 134.982C215.946 134.651 215.562 134.193 215.285 133.606C215.018 133.009 214.885 132.321 214.885 131.542C214.885 130.721 215.034 130.006 215.333 129.398C215.632 128.79 216.037 128.315 216.549 127.974C217.061 127.633 217.642 127.462 218.293 127.462C218.666 127.462 219.024 127.537 219.365 127.686C219.717 127.835 220.058 128.107 220.389 128.502V124.886L219.029 124.726V124.166L221.525 123.446L221.749 123.574L221.685 125.846V134.502L222.981 134.694V135.27L220.501 135.43ZM227.627 135.478C227.009 135.478 226.417 135.334 225.851 135.046C225.297 134.747 224.843 134.305 224.491 133.718C224.139 133.121 223.963 132.385 223.963 131.51C223.963 130.625 224.139 129.883 224.491 129.286C224.843 128.678 225.297 128.225 225.851 127.926C226.417 127.617 227.009 127.462 227.627 127.462C228.246 127.462 228.833 127.617 229.387 127.926C229.953 128.225 230.411 128.678 230.763 129.286C231.126 129.883 231.307 130.625 231.307 131.51C231.307 132.385 231.126 133.121 230.763 133.718C230.411 134.305 229.953 134.747 229.387 135.046C228.833 135.334 228.246 135.478 227.627 135.478ZM227.627 134.758C228.321 134.758 228.854 134.486 229.227 133.942C229.601 133.387 229.787 132.577 229.787 131.51C229.787 130.433 229.601 129.611 229.227 129.046C228.854 128.481 228.321 128.198 227.627 128.198C226.934 128.198 226.401 128.481 226.027 129.046C225.665 129.611 225.483 130.433 225.483 131.51C225.483 132.577 225.665 133.387 226.027 133.942C226.401 134.486 226.934 134.758 227.627 134.758ZM241.16 128.294V127.67H244.088V128.294L243.224 128.502L240.888 135.366H240.296L238.216 129.686L236.104 135.366H235.512L232.936 128.454L232.024 128.294V127.67H235.672V128.294L234.424 128.486L236.072 133.398L237.864 128.486L236.68 128.294V127.67H240.216V128.294L239.032 128.502L240.856 133.382L242.344 128.518L241.16 128.294ZM244.883 135.27V134.694L246.067 134.47C246.078 134.065 246.083 133.627 246.083 133.158C246.094 132.689 246.099 132.273 246.099 131.91V131.142C246.099 130.705 246.094 130.342 246.083 130.054C246.083 129.766 246.073 129.462 246.051 129.142L244.787 128.998V128.438L247.027 127.462L247.267 127.622L247.395 128.902C247.79 128.475 248.243 128.129 248.755 127.862C249.267 127.595 249.769 127.462 250.259 127.462C250.953 127.462 251.465 127.697 251.795 128.166C252.137 128.625 252.307 129.377 252.307 130.422V131.91C252.307 132.273 252.307 132.689 252.307 133.158C252.318 133.627 252.329 134.065 252.339 134.47L253.459 134.694V135.27H249.747V134.694L250.931 134.47C250.942 134.075 250.947 133.643 250.947 133.174C250.958 132.694 250.963 132.273 250.963 131.91V130.55C250.963 129.814 250.857 129.307 250.643 129.03C250.441 128.753 250.105 128.614 249.635 128.614C249.273 128.614 248.921 128.689 248.579 128.838C248.238 128.987 247.865 129.233 247.459 129.574V131.91C247.459 132.262 247.459 132.678 247.459 133.158C247.47 133.627 247.481 134.065 247.491 134.47L248.595 134.694V135.27H244.883ZM256.266 135.478C255.978 135.478 255.733 135.377 255.53 135.174C255.328 134.961 255.226 134.715 255.226 134.438C255.226 134.161 255.328 133.921 255.53 133.718C255.733 133.505 255.978 133.398 256.266 133.398C256.554 133.398 256.794 133.505 256.986 133.718C257.189 133.921 257.29 134.161 257.29 134.438C257.29 134.715 257.189 134.961 256.986 135.174C256.794 135.377 256.554 135.478 256.266 135.478ZM256.266 124.326C256.544 124.326 256.762 124.406 256.922 124.566C257.093 124.726 257.178 124.982 257.178 125.334C257.178 125.633 257.141 126.15 257.066 126.886C256.992 127.611 256.896 128.529 256.778 129.638L256.554 131.83H255.962L255.754 129.638C255.637 128.529 255.536 127.611 255.45 126.886C255.376 126.15 255.338 125.633 255.338 125.334C255.338 124.982 255.418 124.726 255.578 124.566C255.749 124.406 255.978 124.326 256.266 124.326Z" fill="black"/>
<path d="M145.388 40.6L141.45 52.37L137.556 40.6H134.916L130.934 52.304L127.106 40.6H124.136L129.24 56H132.298L136.17 44.604L139.976 56H143.012L148.116 40.6H145.388ZM158.419 44.252V50.192C158.419 52.546 157.121 53.734 155.207 53.734C153.469 53.734 152.457 52.722 152.457 50.588V44.252H149.707V50.962C149.707 54.504 151.753 56.154 154.767 56.154C156.285 56.154 157.671 55.582 158.551 54.504V56H161.169V44.252H158.419ZM171.436 44.12C169.72 44.12 168.29 44.692 167.388 45.77V44.252H164.77V56H167.52V50.06C167.52 47.706 168.84 46.518 170.798 46.518C172.558 46.518 173.592 47.53 173.592 49.62V56H176.342V49.268C176.342 45.726 174.252 44.12 171.436 44.12ZM183.461 56.154C186.761 56.154 188.785 54.724 188.785 52.524C188.785 47.926 181.525 50.038 181.525 47.662C181.525 46.892 182.317 46.342 183.989 46.342C185.111 46.342 186.233 46.562 187.355 47.222L188.411 45.132C187.355 44.494 185.573 44.12 184.011 44.12C180.843 44.12 178.841 45.572 178.841 47.794C178.841 52.48 186.101 50.368 186.101 52.612C186.101 53.426 185.375 53.91 183.637 53.91C182.163 53.91 180.579 53.426 179.545 52.744L178.489 54.834C179.545 55.582 181.503 56.154 183.461 56.154ZM196.543 56.154C198.831 56.154 200.657 55.164 201.559 53.404L199.447 52.172C198.743 53.294 197.687 53.8 196.521 53.8C194.497 53.8 192.957 52.414 192.957 50.126C192.957 47.86 194.497 46.452 196.521 46.452C197.687 46.452 198.743 46.958 199.447 48.08L201.559 46.848C200.657 45.066 198.831 44.12 196.543 44.12C192.825 44.12 190.185 46.606 190.185 50.126C190.185 53.646 192.825 56.154 196.543 56.154ZM210.495 44.12C208.867 44.12 207.481 44.648 206.579 45.616V39.676H203.829V56H206.579V50.06C206.579 47.706 207.899 46.518 209.857 46.518C211.617 46.518 212.651 47.53 212.651 49.62V56H215.401V49.268C215.401 45.726 213.311 44.12 210.495 44.12ZM225.401 44.12C223.905 44.12 222.585 44.626 221.639 45.682V39.676H218.889V56H221.507V54.482C222.431 55.604 223.795 56.154 225.401 56.154C228.833 56.154 231.363 53.778 231.363 50.126C231.363 46.474 228.833 44.12 225.401 44.12ZM225.093 53.8C223.113 53.8 221.595 52.37 221.595 50.126C221.595 47.882 223.113 46.452 225.093 46.452C227.073 46.452 228.569 47.882 228.569 50.126C228.569 52.37 227.073 53.8 225.093 53.8ZM239.251 56.154C242.903 56.154 245.521 53.646 245.521 50.126C245.521 46.606 242.903 44.12 239.251 44.12C235.643 44.12 233.003 46.606 233.003 50.126C233.003 53.646 235.643 56.154 239.251 56.154ZM239.251 53.8C237.271 53.8 235.775 52.37 235.775 50.126C235.775 47.882 237.271 46.452 239.251 46.452C241.253 46.452 242.749 47.882 242.749 50.126C242.749 52.37 241.253 53.8 239.251 53.8ZM258.346 56L253.748 49.994L258.148 44.252H255.178L252.296 48.102L249.414 44.252H246.356L250.734 50.038L246.158 56H249.194L252.23 51.93L255.244 56H258.346Z" fill="black"/>
<g filter="url(#filter0_d)">
<path d="M108.758 205.481L23.9954 156.545V98.9438L108.758 147.835V205.481Z" fill="#FF6600"/>
<path d="M168.56 170.912L108.714 205.482V147.836L168.56 113.311V170.912Z" fill="#FF8100"/>
<path d="M108.714 166.602L20 115.376V98.0913L108.714 149.317V166.602Z" fill="#FF4E01"/>
<path d="M170.715 130.821L108.714 166.602V149.318L170.715 113.536V130.821Z" fill="#FF6600"/>
<rect x="64.1704" y="86.6792" width="50.2627" height="35.0316" fill="black"/>
<path d="M82.001 62.3091L20 98.091L108.714 149.317L170.715 113.535L82.001 62.3091ZM104.673 116.049L73.6055 98.091L78.14 95.487L109.208 113.445L104.673 116.049Z" fill="#FF8100"/>
<path opacity="0.3" d="M108.758 168.679L23.9954 119.788V117.666L108.758 166.602V168.679Z" fill="black"/>
<path opacity="0.3" d="M168.56 132.032L108.759 166.647V168.679L168.56 134.065V132.032Z" fill="black"/>
<path d="M104.763 203.147L95.7842 197.984L96.0087 141.999L104.943 147.117L104.763 203.147Z" fill="#003B7C"/>
<path d="M158.459 106.442L166.585 110.976L104.943 147.117L96.0085 141.999L158.459 106.442Z" fill="#003B7C"/>
<path d="M103.865 137.286L92.1923 139.8L92.0127 173.382L101.261 188.287L101.396 145.187L111.812 142.853L103.865 137.286Z" fill="#032850"/>
<path d="M106.963 134.008L102.922 141.281L112.036 147.432V177.197L120.028 169.071V142.807L106.963 134.008Z" fill="#003B7C"/>
<path opacity="0.3" d="M106.11 142.224C110.151 144.828 112.625 149.749 119.36 152.084C123.58 153.565 127.486 152.577 130 151.5C133.232 150.108 133.681 145.035 131.661 136.056C131.661 136.056 129.82 135.697 128.159 135.742C117.743 136.101 115.224 138.319 108.04 139.396C108.04 139.396 110.016 138.139 112.306 136.792C114.595 135.445 114.685 124.872 108.04 123.615C101.396 122.358 93.0004 125.972 93.4044 130.866C93.8534 135.759 106.11 142.224 106.11 142.224Z" fill="black"/>
<path d="M103.82 141.73C103.82 141.73 104 142.089 104.538 142.448L106.11 142.987L112.53 135.938C111.228 134.636 111.363 131.044 111.273 126.824C111.228 127.004 111.183 127.183 111.183 127.363C111.228 134.905 102.653 137.958 102.653 137.958C102.653 137.958 102.832 140.742 103.82 141.73Z" fill="#003B7C"/>
<path d="M95.6941 137.158C108.989 144.671 104.6 141.688 104.6 141.688C103.309 140.62 103.482 137.563 103.396 134.027C103.223 133.917 103.051 133.843 102.879 133.733C97.3291 130.602 94.7046 126.33 94.2743 122.758C94.1452 121.653 94.1883 120.622 94.4464 119.738C91.2196 118.854 88.8962 119.922 87.7776 121.984C85.7124 125.667 87.6915 132.628 95.6941 137.158Z" fill="#003B7C"/>
<path d="M94.4555 123.233C94.3228 121.971 94.367 120.792 94.6323 119.782C91.3159 118.772 88.928 119.993 87.7783 122.349C89.9451 122.602 92.3771 122.938 94.4555 123.233Z" fill="#032850"/>
<path d="M90.8247 119.749C92.3169 119.34 94.1929 119.526 96.4099 120.565C103.658 124.016 103.36 131.734 103.487 136.966C103.53 139.304 103.701 141.159 104.639 141.939C104.639 141.939 104.894 142.087 105.065 142.272L112.91 137.152C111.673 136.076 111.801 133.107 111.716 129.619C111.546 124.647 110.863 118.673 104.724 115.741C101.228 114.071 99.0533 115.073 96.9642 116.224C95.5572 117.003 92.1038 118.969 90.8247 119.749Z" fill="#3DA6EE"/>
<path d="M103.416 141.55C107.322 141.506 110.061 124.759 120.881 125.074C116.616 129.967 114.551 137.285 111.991 137.33C111.991 137.33 108.849 136.971 124.203 142.852C126.672 143.795 128.872 144.199 130.848 144.244C128.289 148.015 123.215 149.991 115.673 147.118C100.274 141.191 103.416 141.55 103.416 141.55Z" fill="#003B7C"/>
<path d="M116.795 125.837C118.86 124.939 121.33 124.714 124.338 125.657C127.346 126.6 129.546 128.53 130.937 130.865C133.99 135.938 133.227 143.032 128.782 146.444C130.937 145.232 134.798 143.032 135.472 142.403C139.243 138.991 139.872 132.706 137.357 127.947C135.966 125.343 133.676 123.143 130.399 122.11C127.884 121.347 125.729 121.347 123.889 121.931C122.677 122.29 118.815 124.58 116.795 125.837Z" fill="#3DA6EE"/>
<path d="M103.416 141.55C107.322 141.506 110.061 124.759 120.881 125.074C116.616 129.967 114.55 137.285 111.991 137.33C111.991 137.33 109.926 137.106 117.379 140.159L103.955 142.224C102.563 141.461 103.416 141.55 103.416 141.55Z" fill="#032850"/>
<path d="M100.215 71.2932C98.4816 59.9126 97.2613 52.4075 91.1481 41.7976C89.3031 38.6066 85.0449 31.849 82.4596 29.383C70.3405 17.8188 56.57 16.4889 50.899 22.8717C41.1241 33.8808 42.1729 36.7332 37.6112 41.902C42.1402 41.8092 48.996 34.3171 50.0611 35.4701C52.5412 38.1287 51.7031 41.9705 50.9893 45.6165C49.7912 51.6815 47.8976 57.5476 46.9651 63.6865C46.0325 69.8254 46.1391 76.478 48.737 82.1403L100.215 71.2932Z" fill="#ED2F2F"/>
<path d="M62.8582 70.8731C61.6887 68.1184 60.6239 65.2881 60.009 62.3457C58.8378 56.8219 59.1958 51.108 58.5916 45.4725C57.9904 39.856 55.7464 27.1347 51.7956 30.6635C48.2195 33.8583 38.5818 41.3931 37.6114 41.902C42.2221 41.9519 48.9962 34.3171 50.0613 35.4701C52.5413 38.1287 51.6879 41.8754 50.974 45.5215C49.7759 51.5865 47.8824 57.4526 46.9498 63.5915C46.0173 69.7304 46.2131 76.2124 48.83 81.8717L66.8348 78.4176C65.3665 75.9845 63.9902 73.5169 62.8582 70.8731Z" fill="#DD281F"/>
<path d="M45.304 39.5598C44.9333 37.2797 42.7084 35.7107 40.173 35.8305C39.0695 34.8007 37.3817 34.2561 35.5957 34.5465C33.0117 34.9666 31.1365 36.9877 31.1626 39.1873C29.6774 40.2479 28.8137 41.773 29.0639 43.312C29.2678 44.566 30.1752 45.5886 31.445 46.2013C32.5912 48.4527 35.1143 49.8172 37.7553 49.3878C38.5153 49.2642 39.2157 49.0138 39.8375 48.6396C40.3054 48.7586 40.8148 48.7733 41.3088 48.6929C43.7409 48.2975 45.3024 45.5473 44.8112 42.5262C44.7988 42.4502 44.7865 42.3742 44.7741 42.2982C45.2488 41.4995 45.4615 40.5288 45.304 39.5598Z" fill="white"/>
<path d="M109.123 67.4267C107.718 65.1394 104.384 63.8287 100.768 64.3777C99.7387 64.5255 98.7723 64.8192 97.9036 65.2335C97.2616 65.1233 96.5966 65.2315 95.913 65.2256C91.3907 65.2393 89.0139 67.654 88.4501 67.7847C86.7704 66.8097 84.2302 66.5401 81.6104 67.2196C78.6706 67.9707 76.4199 69.7213 75.58 71.6326C74.3973 71.4349 71.8415 69.5101 64.1764 71.1855C60.8633 71.9193 57.6892 73.508 56.8468 74.4446C55.7463 73.4338 52.7635 73.0803 49.6793 73.5427C48.6502 73.6906 47.6838 73.9842 46.815 74.3985C46.1731 74.2884 45.5085 74.2794 44.8245 74.3906C41.4933 74.8933 39.1779 77.8051 39.6404 80.8893C39.6527 80.9653 39.6651 81.0413 39.6774 81.1173C38.9619 81.9942 38.6193 83.0056 38.764 84.0157C39.125 86.3558 42.0463 87.8895 45.5029 87.6785C46.9387 88.7127 48.6168 89.3175 51.055 88.9601C53.7972 88.5532 56.8611 87.6064 57.8408 87.1546C58.4955 88.0623 63.4375 88.3509 67.6251 87.3579C68.8637 87.059 70.0015 86.6205 71.0258 86.0834C71.8106 86.1118 74.6909 86.7941 79.3782 85.8759C83.7266 85.0324 87.6462 82.9909 88.5534 82.4533C89.2621 82.4941 89.9872 82.3957 90.7221 82.2372C94.5482 81.4201 96.5293 79.8108 96.9915 79.7746C98.4273 80.8088 101.626 80.0936 103.747 79.3393C107.106 78.1691 108.88 76.1254 109.053 74.6735C111.146 73.514 112.406 71.905 112.169 70.3249C111.978 69.0298 110.82 68.0284 109.123 67.4267Z" fill="white"/>
</g>
<defs>
<filter id="filter0_d" x="0" y="3.91357" width="190.715" height="231.568" filterUnits="userSpaceOnUse" color-interpolation-filters="sRGB">
<feFlood flood-opacity="0" result="BackgroundImageFix"/>
<feColorMatrix in="SourceAlpha" type="matrix" values="0 0 0 0 0 0 0 0 0 0 0 0 0 0 0 0 0 0 127 0"/>
<feOffset dy="10"/>
<feGaussianBlur stdDeviation="10"/>
<feColorMatrix type="matrix" values="0 0 0 0 0 0 0 0 0 0 0 0 0 0 0 0 0 0 0.5 0"/>
<feBlend mode="normal" in2="BackgroundImageFix" result="effect1_dropShadow"/>
<feBlend mode="normal" in="SourceGraphic" in2="effect1_dropShadow" result="shape"/>
</filter>
</defs>
</svg>
