<?xml version="1.0" encoding="UTF-8" standalone="no"?>
<svg
   width="30"
   height="30"
   viewBox="0 0 30 30"
   fill="none"
   version="1.1"
   id="svg1"
   xml:space="preserve"
   xmlns="http://www.w3.org/2000/svg"
   xmlns:svg="http://www.w3.org/2000/svg"><defs
     id="defs1" /><path
     id="path2"
     style="fill:#ffffff;fill-opacity:1;stroke:none"
     d="M 15 0 A 14.998533 14.998533 0 0 0 0.001953125 14.998047 A 14.998533 14.998533 0 0 0 15 29.996094 A 14.998533 14.998533 0 0 0 29.998047 14.998047 A 14.998533 14.998533 0 0 0 15 0 z M 5.4589844 6.3847656 L 11.494141 6.3847656 L 15.658203 11.890625 L 20.535156 6.3847656 L 23.458984 6.3847656 L 17.037109 13.697266 L 24.541016 23.615234 L 18.652344 23.615234 L 14.042969 17.587891 L 8.765625 23.615234 L 5.8417969 23.615234 L 12.644531 15.794922 L 5.4589844 6.3847656 z M 8.8984375 8.0371094 L 19.511719 21.898438 L 21.132812 21.898438 L 10.640625 8.0371094 L 8.8984375 8.0371094 z " /></svg>
