<svg version="1.1" id="Ebene_1" xmlns="http://www.w3.org/2000/svg" x="0" y="0" viewBox="0 0 285.3 121.6" xml:space="preserve"><style>.st0{fill:#d8d300}.st1{fill:#00584e}</style><path d="M140.6 121.6h9.4v-2.5h-5.8l5.8-8.8v-1.8h-8.8v2.5h5.2l-5.8 8.8v1.8zm18.6 0h2.6v-4.8c0-1.3-.2-3.2-.4-4.4h.1l1 3.1 1.9 5h1.6l1.9-5 1.1-3.1h.1c-.1 1.3-.4 3.2-.4 4.4v4.8h2.7v-13h-3.2l-2.1 5.8c-.3.8-.5 1.6-.7 2.4h-.1c-.3-.8-.5-1.6-.8-2.4l-2.1-5.8h-3.2v13zm22.3 0h2.9v-5.1h4.5V114h-4.5v-3h5.3v-2.5h-8.2v13.1z"/><path class="st0" d="M114.8 2.5l-4.6 77.7 18.4 2.3 21.7-33.1-35.5-46.9zM173.4 79.8l-25.9 5.1 32.9 4.2-7-9.3zM128.3 86.7l66.2-13.1L185 0l-56.7 86.7z"/><path class="st1" d="M98.9 95l-6.6-57.7L0 36.5l42.8 27.6v-7.9L98.9 95z"/><path class="st1" d="M99.2 97.6L44.8 60.1v5.3l.2 32 78.8 17.3-24.6-17.1zM221.2 61.7l39.4-1.6 24.7-27.6-78.7 7.3 3.7 76.5 26-29-11.6 6.8-3.5-32.4z"/><path class="st1" d="M259.1 61.8L223 63.3l3.1 28 13.8-8 38.2-22.2-19 .7z"/></svg>