<?xml version="1.0" encoding="utf-8"?>
<!-- Generator: Adobe Illustrator 24.0.1, SVG Export Plug-In . SVG Version: 6.00 Build 0)  -->
<svg version="1.1" xmlns="http://www.w3.org/2000/svg" xmlns:xlink="http://www.w3.org/1999/xlink" x="0px" y="0px"
	 viewBox="0 0 400 400" style="enable-background:new 0 0 400 400;" xml:space="preserve">
<style type="text/css">
	.st0{display:none;}
	.st1{display:inline;fill:#0D0D68;stroke:#000000;stroke-miterlimit:10;}
	.st2{opacity:0.6;}
	.st3{opacity:0.3;clip-path:url(#SVGID_2_);}
	.st4{fill:#FFFFFF;}
</style>
<g id="Layer_2" class="st0">
	<rect x="-134" y="-60.8" class="st1" width="719" height="608"/>
</g>
<g id="BODY_Pattern" class="st2">
	<g>
		<defs>
			<rect id="SVGID_1_" y="0" width="400" height="400"/>
		</defs>
		<clipPath id="SVGID_2_">
			<use xlink:href="#SVGID_1_"  style="overflow:visible;"/>
		</clipPath>
		<g id="Gruppe_243" class="st3">
			<path id="Pfad_409" class="st4" d="M316.3,158.3c-0.4-0.1-0.8,0.1-0.9,0.4c0,0.1,0,0.2,0,0.2c-0.1,0.5,0.1,1,0.7,1.1
				c0.4,0.1,0.9-0.2,1-0.6C317.2,158.9,316.8,158.4,316.3,158.3"/>
			<path id="Pfad_410" class="st4" d="M226.1,77.7c0.4,0.1,9.1,4.1,10,4.5c1.9,0.9,14.3,6.4,15.9,7.2c0.3,0.2,0.6,0.4,0.9,0.4
				c0.6,0.2,1.2-0.1,1.4-0.7c0.6-1.3,1.1-2.8,1.6-4.1c0.1-0.4,0.3-0.6,0.4-0.9c1-2.2,4.3-9.2,4.9-10.5c0.1-0.4,0.4-0.7,0.6-1.1
				c0.1-0.1,0.1-0.2,0.1-0.3c0.1-0.4-0.2-0.8-0.6-0.8c0,0,0,0,0,0c-1.2-0.4-2.4-0.8-3.6-1.3l-5.3-1.8l-0.1,0
				c-2.3-0.8-4.6-1.8-6.9-2.6c-2.2-0.6-10.6-3.7-10.8-3.8c-0.3-0.1-0.7,0-0.9,0.3c-0.7,0.9-3.3,4.5-3.8,5.2
				c-0.4,0.6-2.6,4.9-3.4,6.5c-0.4,0.8-0.8,1.6-1.2,2.5C225,77.2,225.3,77.5,226.1,77.7 M227.3,75.5c0.5-1,0.9-2,1.4-3
				c1.5-2.9,3.3-5.7,5.2-8.4c0.3-0.5,0.9-0.7,1.5-0.5c2.1,0.7,4.4,1.3,6.5,2c1.9,0.6,7.6,2.9,8.6,3.3c0.5,0.2,1,0.3,1.6,0.5
				c2.5,0.8,4.9,1.8,7.2,2.9c0.7,0.3,0.7,0.4,0.4,1.2c-0.7,1.6-1.4,3.3-2.2,4.9c-0.8,1.6-1.5,3.3-2.2,5c-0.4,0.8-0.7,1.6-1,2.4
				c-0.3,0.8-0.7,1.5-1.1,2.2c-0.2,0.3-0.5,0.3-0.8,0.2c-1.7-0.7-9.3-3.8-10-4.2c-0.9-0.4-1.7-0.7-2.5-1.1c-0.2-0.1-0.4-0.1-0.7-0.3
				c-2-1-3.9-2-5.9-3.1c-1.7-1-3.6-1.6-5.5-2.5C226.8,76.6,226.8,76.6,227.3,75.5"/>
			<path id="Pfad_411" class="st4" d="M246,179.9L246,179.9z"/>
			<path id="Pfad_412" class="st4" d="M214.5,178c-1.4,3.2-1.8,6.3,0.3,9.5c-1.4,0.3-2.9,0.4-4.4,0.3c-1.3,0-1.7,0.7-2.4,1.7
				c-1.7,2.7-0.4,7.9,1.4,10.3c1.2,1.5,2.7,0.7,4.1,0.9c0.3,0,0.6,0.1,1,0.2c-0.2,1.7-1,3.3-0.7,5c0.2,1.8,0.8,3.6,1.9,5.1
				c-1.1,0-1.8,0.1-2.5,0h0c-0.9-0.2-1.7,0.4-1.9,1.3c0,0,0,0,0,0c-1,2.9-0.8,6,0.3,8.8c0.6,1.4,1.4,3,3.4,2.9c1.5,0,3-0.1,4.4-0.3
				c1.7-0.3,2.3,0.6,2.5,2c0.2,1.4,0.1,3.3,1,4.1c1,0.9,20.7-2.6,29-3.4c2.2-0.2,2.3-1.1,2-2.7c-0.2-1.3-1.4-2.1,0.5-2.7
				c0.6-0.2,1.6-0.6,0.7-1.9c-0.5-0.4-0.8-1-0.7-1.7c-0.2-2.2,0.3-4.5,1.5-6.4c0.6-0.8,0.6-1.9,0.1-2.7c-1.3-2.1-1.4-4.7-0.3-6.9
				c0.2-0.6,0.6-1.2,0.2-1.8c-0.2-0.3-0.6-0.5-1-0.5c-0.3,0-2.1,0.1-2.5-0.4c-0.1-0.2-0.2-0.5-0.2-0.7c-0.5-3.3-0.5-6.6,0.1-9.8
				c0.1-0.6-0.1-1.2-0.6-1.6c-2.3-2.1-2.7-5.6-1.1-8.2c0.3-0.5,0.4-1.1,0.1-1.7c-0.3-0.4-0.8-0.4-1.3-0.3
				c-5.9,0.8-11.9,0.3-17.8,0.4c-5.3,0.2-10.5,0.1-15.8,0.4C215.2,177.1,214.7,177.4,214.5,178 M208.7,192.9
				c0.2-1.3,0.1-2.9,2.2-4.1c-1.9,3.1-1.8,7,0.3,10C209.2,197.5,208.2,195.2,208.7,192.9 M248.9,225c-6.2,0.8-12.4,1.6-18.6,2.4
				c-1.6,0.2-3.3,0.3-4.9,0.4c-2.2,0.1-1.7-1.9-2-3.1c-0.2-0.9,0.5-1.3,1.4-1.4c7-0.8,13.9-1.6,20.9-2.3c2-0.2,4.1,0,6.2,0l0,0
				C252.5,223.9,252,224.6,248.9,225 M252.9,218c0.1,0.6-0.5,0.7-1,0.8c-2.5,0.7-5.1,0.4-7.6,0.7c-6.5,0.8-12.9,1.6-19.4,2.2
				c-3.1,0.3-6.2,0.3-9.4,0.3c-1.1,0-2.1-0.8-2.3-1.9c9.9-1.1,29.5-2.3,29.3-3.3s-4.2-0.1-6.3,0c-5.4,0.3-10.9,0.6-16.3,1.2
				c-2.2,0.3-4.5,0.3-6.7-0.1c-0.7-0.1-0.9-0.3-0.9-0.9c0-0.7,0.4-0.8,1-0.8c6.9-0.4,13.7-0.8,20.6-1.1c5-0.4,10.1-0.3,15.2,0.1
				c0.4,0.1,0.9-0.1,1-0.6c0-0.1,0-0.1,0-0.2c0-0.1,0-0.1,0-0.2c-0.1-0.5-0.5-0.9-1.1-0.8c0,0,0,0,0,0c-7.2,0.1-14.4,0.2-21.6,0.4
				c-4.5,0.2-9,0.6-13.5,0.5c-0.3,0-0.7,0-1.2-0.1c-0.1-0.9,0.6-1.6,1.5-1.7c0.2,0,0.3,0,0.5,0c5.6,0.4,11.2-0.3,16.8-0.6
				c7.3-0.4,14.7-0.8,22.2-1.2C253.2,213.2,252.5,215.5,252.9,218 M253.8,200.9L253.8,200.9c-0.4,2.3-0.3,4.7,0.2,6.9
				c0.2,0.9-0.3,1.1-1,1.2c-5.9,0.3-11.7,0.6-17.6,0.9c-4.1,0.2-8.1,0.6-12.2,0.8c-1.8,0.2-3.7,0-5.5-0.5c-1.5-0.6-1.8-2.5-2.2-4.1
				c-0.2-1.3,0-2.6,0.4-3.8c0.2-1.1,1.2-1.9,2.3-1.8c7.7,0.1,15.4,0.1,23.1,0.2c3.4,0,6.7-0.6,10.1-0.1
				C252.2,200.7,252.9,200.8,253.8,200.9 M250.5,198.5c-3.2,0.4-6.3,0.6-9.5,0.6c-8.2-0.1-17,0-25.1,0c-1.8,0.1-3.4-1-4-2.7
				c0,0,21.6-0.8,30.4-0.5c0.8,0,1.5-0.1,1-1.1c-10.2-0.3-20.3,0.8-30.4,0.5c-0.7,0-1.7,0.2-1.7-0.9c0-0.3,0-0.9,1.2-0.9
				s19.3,0.3,26.3-0.2c2-0.2,4,0,6.1,0c0.2-1-0.3-1.3-1-1.3c-4.9,0.1-9.9,0.4-14.8,0.4c-5.8,0-11.7,0.2-17.5-0.4
				c-0.1-1.5,0-2.4,1.8-2.5c6.5-0.3,13-0.1,19.5,0c5.4,0.1,10.7-0.1,16.1-0.2c0.9,0,1.4,0.1,1.3,1.2
				C250,193.1,250.1,195.8,250.5,198.5 M219.7,178.4c8.9,0,18.9-0.2,27.8-0.2c0.5,0,0.5,1.4,0.6,1.7c0,3.1-1.3,2.7-3.9,2.7
				c-7.1,0-14.2,0.3-21.2,0.5c-1.9,0-3.7,0.1-5.6,0.1c-0.4,0-0.8,0-0.9,0.5s0.2,0.8,0.8,0.8c3.8-0.1,7.5,0,11.3-0.2
				c5.8-0.3,11.7-0.6,17.5-0.6c2.5,0,2.9,1.7,4,3.9h-8.3c-7.9,0-15.9,0-23.8,0c-1.7,0-3.4-3.4-2.9-5.7
				C215.7,178.9,216.2,178.5,219.7,178.4"/>
			<path id="Pfad_413" class="st4" d="M183.5,50.6c0.1,0.4,0.6,0.7,1,0.7c0.9-0.1,1.8-0.3,2.6-0.7c1.5-0.7,1.6-0.7,2.6,0.7
				c0.2,0.2,0.3,0.3,0.5,0.5c1,1.7,2.1,3.4,3,5.2c0.3,0.7,0.7,1.4,1.1,2.1c0.7,1.3,1.3,2.6,2,3.8c0.4,0.6,0.6,0.6,1.2,0.3
				c0.6-0.3,1.1-0.6,1.7-0.9c1.6-0.8,3.2-1.7,4.7-2.8c0.6-0.4,1.3-0.8,1.9-1.2c0.6-0.3,1.2-0.7,1.7-1l3.9-2.8c0.7-0.4,1.4-0.7,2-1.1
				c0.6-0.3,1.2-0.7,1.8-1.1c1.1-0.9,1.2-1.5,0.6-2.8c-0.4-0.9-0.9-1.8-1.3-2.6c-0.5-0.9-1.1-1.8-1.7-2.8c-0.8-1.3-1.6-2.7-2.3-4
				c-1-1.6-1.9-3.3-2.7-5c-0.5-1.1-1.1-2.2-1.7-3.3c-0.3-0.5-0.6-1-0.9-1.5c-0.6-1-1.2-2-1.8-2.9c-0.4-0.5-0.8-1.1-1.2-1.6
				c-0.1-0.1-0.2-0.3-0.4-0.3c-0.8,0-1.6-0.3-2.3,0.2c-1.1,0.6-2.2,1-3.3,1.3c-0.6,0.1-0.7,0.1-0.9-0.4c-0.5-1.1-1-2.2-1.5-3.2
				c-1.1-2.2-2.3-4.5-3.5-6.7c-0.2-0.3-0.4-0.5-0.7-0.7c-0.5-0.1-1-0.1-1.5,0c-1.3,0.5-20.9,4.2-21.9,4.8c-1.1,0.7-0.5,1.6,0.6,2.9
				C168.6,25.5,183.2,50,183.5,50.6 M197,28.4c0.3-0.2,3.6-1.3,3.9-1.1c1.2,0.6,6.9,11.8,7.4,12.6c0.9,1.6,4.6,8.2,5.6,9.9
				c0.7,1.3,0.5,1.8-0.8,2.3c-1.9,1.1-3.8,2.3-5.6,3.7c-1.5,1.2-8.2,5-9.3,5.6c-0.2,0.2-0.5,0.2-0.7,0c0,0,0,0,0,0
				c-0.3-0.2-0.5-0.5-0.7-0.8c-0.4-0.7-5.3-9.3-6-10.3c-0.4-0.5-0.4-0.5,0.2-0.7c0.9-0.3,12.1-4.3,12.5-4.4c0.5-0.2,0.9-0.7,1-1.2
				c0.1-0.6,0-1.3-0.3-1.9c-0.4-0.7-7-11.5-7.4-12.3C196.3,28.9,196.4,28.7,197,28.4 M168,22.2c1.2-0.4,17.7-4.3,19.6-4.6
				c0.3,0,0.6,0,0.9-0.1c0.2,0.1,0.3,0.2,0.4,0.4c0.5,0.6,0.9,1.2,1.3,1.8c1.3,2.5,11.3,21.4,11.8,22.1c0.1,0.1,0.2,0.4,0.3,0.5
				c0.5,1.1,0.4,1.3-0.8,1.7c-0.8,0.2-14.6,5.1-16,5.6c-0.5,0.2-1.1,0.1-1.3-0.4c-0.5-0.7-16-26-16.4-26.5c-0.1-0.1-0.1-0.1-0.1-0.2
				C167.8,22.4,167.9,22.2,168,22.2"/>
			<path id="Pfad_414" class="st4" d="M267.9,44.6c2.7-1,4.1-3.9,3.3-6.7c-0.8-2.8-3.8-4.4-6.6-3.6c-0.1,0-0.1,0-0.2,0
				c-1.6,0.6-2.8,2.1-3.1,3.8c-0.5,1.1-0.6,2.3-0.2,3.4C262.2,44.2,265.2,45.6,267.9,44.6"/>
			<path id="Pfad_415" class="st4" d="M269,80.8c-0.1,0.5,0.2,1.1,0.8,1.2c0.1,0,0.1,0,0.2,0c3.2,0.9,6.4,1.9,9.6,3.1
				c1.3,0.7,2.6,1.4,4,2c1.2,0.5,2.4,1.1,3.6,1.6c0.6,0.3,1.7,0.9,2.9,1.4c0.6,0.3,1.3,0.1,1.7-0.5c0,0,0-0.1,0-0.1
				c0,0,2.1-4.8,2.6-6.4c0.3-0.9,0.6-1.7,0.9-2.5l2-5.3c0.2-0.4,0-0.9-0.3-1.2c-0.3-0.2-8.3-3.9-10.5-5c-2.7-1.3-9.2-4.4-9.8-4.7
				c-0.5-0.2-0.9-0.1-1.1,0.3c-0.4,0.7-0.8,1.4-1.1,2.2c-1.1,2.4-2.1,4.8-3.1,7.2C270.2,76.4,269.5,78.6,269,80.8 M275.4,67.3
				c0.6-1.3,0.6-1.3,1.8-0.8c2.8,1.1,5.5,2.3,8.1,3.8c1.1,0.7,7.4,3.5,9.1,4.6c0.9,0.6,1.1,0.9,0.7,2.5c-0.3,0.6-1,2.9-1.1,2.9
				c-0.5,1.3-1,2.7-1.5,4.1c-0.2,0.6-1.3,2.8-1.6,3.4c-0.3,0.7-0.5,0.8-1.1,0.7c-0.8-0.1-1.5-0.3-2.3-0.7c-2.2-1-4.3-2-6.5-3
				c-0.7-0.3-8.7-3.1-9.6-3.5c-0.9-0.4-1.4-0.7-0.9-2c0.2-0.5,0.4-1.1,0.6-1.6C271.4,76.9,275,68.3,275.4,67.3"/>
			<path id="Pfad_416" class="st4" d="M250.2,56.1c0.9,1.1,2.4,1.4,3.6,0.7c1.4-0.6,2.2-2,2-3.5c-0.1-1.4-1.1-2.5-2.4-2.9
				c-1.4-0.3-2.8,0.3-3.5,1.6c-0.4,0.8-0.4,1.8,0,2.7C249.9,55.1,249.9,55.6,250.2,56.1"/>
			<path id="Pfad_417" class="st4" d="M192.1,86.6c0.9-0.1,0.9-1.8,0.9-3.5c-0.1-1.7-0.2-3.5-1.1-3.6s-1.3,1.8-1.2,3.7
				C190.7,85,191.2,86.7,192.1,86.6"/>
			<path id="Pfad_418" class="st4" d="M151,177.3c10.8-2,21.1,0.9,31.8,1.8c7.7,0.6,15.3-2.2,16.6-10.7c1.2-8.2-4.1-14.9-10.5-19.2
				c-7.9-5.3-17.5-8.7-26.8-10.7c-8.5-1.8-19.6-2.6-25.3-10.2c-2.1-2.7-3.2-6.1-0.6-8.9c2-2,4.3-3.7,6.9-4.9
				c3.5-1.8,7.3-2.9,11.2-3.3c0,0.1,0,0.1,0,0.2c0.4,1.8,0.8,3.5,1.2,5.3c0,0.2,0.1,0.4,0.3,0.5c0.1,0.7,0.6,1.1,1.3,1.1
				c0.3,0,0.5-0.2,0.7-0.4c1.9-2.2,4-4.2,6-6.3c0.5-0.5,0.5-1.2,0-1.7c-1.3-1.1-3-1.5-4.5-2.2c-1.8-0.8-3.4-1.9-5.2-2.8
				c-0.4-0.2-0.8-0.1-1,0.3c-0.1,0.2-0.1,0.4,0,0.6c0,0.1,0.1,0.3,0.2,0.4l0.1,0.1c0,0,0,0,0,0c0.3,0.9,0.5,1.9,0.6,2.8
				c-7,0.7-13.5,3.6-18.7,8.3c-6,5.6-0.7,13.3,4.9,16.8c6.9,4.3,15.5,5,23.3,6.8c9.7,2.3,20.6,6.1,28,12.9c3.5,3.2,6,7.4,6,12.2
				c0,5.2-2.9,9.5-8.1,10.6s-10.6-0.3-15.7-1c-5-0.8-10-1.2-15-1.2c-7.8,0.1-18.4,1.6-23,8.8c-4.6,7.3,1.3,14.9,7.3,19
				c7.8,5.4,20.9,9.4,17.6,21.6c-3.1,11.9-16.4,15.1-26.9,17.2c-0.8,0.1-0.4,1.3,0.3,1.2c8.5-1.4,18.1-3.2,24.1-10
				c5-5.7,6.7-14,1.9-20.4c-5.1-6.7-14-8.5-19.8-14.4c-3.8-3.8-5.9-9.5-2-14C141.3,179.7,146.4,178.1,151,177.3 M161.1,110.9
				L161.1,110.9L161.1,110.9C161,110.8,161.1,110.9,161.1,110.9"/>
			<path id="Pfad_419" class="st4" d="M212.1,89.5c0.9-1.5,1.7-3.1,2.4-4.7c0.6-1.3-0.2-1.5-0.6-1.7c-0.8-0.2-1.2,0.3-1.6,1
				c-0.6,1.3-1.2,2.7-1.9,3.9c-0.3,0.4-0.2,1,0.2,1.4c0,0,0,0,0,0C211.2,89.9,211.8,90,212.1,89.5"/>
			<path id="Pfad_420" class="st4" d="M169.2,83.5c-1.1-1.7-3.3-1.3-3.1-0.3c0.1,1,4.8,8.3,6.5,7.6S170.3,85.2,169.2,83.5"/>
			<path id="Pfad_421" class="st4" d="M211.3,107.9c-1.6-3.8-2.1-7.9-2.6-11.9c-0.4-3.3-1.6-2.7-3.6-1.6c-4.1,2.3-7.1,2.9-12-0.6
				c-0.6-0.5-1.4-0.4-1.9,0.2c0,0,0,0.1-0.1,0.1c-3.6,3.7-7.7,5.6-12.9,3.4c-1.2-0.5-2.5-0.7-3.7-1.1c-1.3-0.5-2-0.1-1.9,1.3
				c0.2,5.9,1.4,11.7,2.5,17.5c0.2,1.1,0.6,1.8,2.3,1.3c5.1-1.6,10.4-2.5,15.7-2.8c6-0.4,11.9-1.6,17.6-3.5
				C212,109.7,211.6,108.7,211.3,107.9 M207.8,108.9c-4.6,0.9-9.1,1.7-11.6,2.2c-7,0.6-11.8,0.9-16.5,2.3c-1.7,0.5-2.8,0.2-3-1.7
				c-0.5-3.6-1.1-7.1-1.6-10.7c-0.2-1.2,0.2-1.7,1.5-1.4c0.9,0.2,1.7,0.4,2.6,0.6c3.5,0.9,7,1.9,9.8-1.7c2.1-2.6,4.9-1.9,7-0.6
				c3.1,1.8,5.6,0.3,8.2-0.8c1.6-0.7,2.2-0.3,2.7,1.2c1,2.9,0.7,6,2,8.8c0.3,0.6,0,1.3-0.7,1.6C208,108.9,207.9,108.9,207.8,108.9"
				/>
			<path id="Pfad_422" class="st4" d="M230.5,181.6c4.8-0.1,9.6-0.2,14.4-0.3c0.8,0,1.2-0.4,1.1-1.3c-1.8-0.5-20.7,0.5-28.3,0.6
				c-1.2,0-1.5,0.4-1.3,1.1C221.3,181.6,225.9,181.7,230.5,181.6"/>
			<path id="Pfad_423" class="st4" d="M330.9,367.4c-1.6,0.5-3,1.6-3.9,3c-1,1.2-1.1,2.8-0.3,4.1c1,1.7,3,2.6,4.9,2.2
				c2-0.3,4.3-2.4,4.1-4.5h0c0.1-1.4-0.5-2.8-1.4-3.8C333.5,367.3,332.1,366.9,330.9,367.4 M332,374.4c-1.3,0.5-2.7,0.1-3.5-0.9
				c-0.3-0.3-0.4-0.8-0.3-1.2c0.2-1.3,1.1-2.4,2.4-2.8c1.2-0.2,2.5,0.4,3.1,1.5c0.1,0.2,0.2,0.5,0.3,0.8
				C333.9,372.9,333.2,374,332,374.4"/>
			<path id="Pfad_424" class="st4" d="M308,377.6c0-0.2-0.1-0.4-0.2-0.5c-0.3-0.5-0.8-0.5-1,0c-0.2,0.4-0.3,0.9-0.3,1.3
				c0,1.2,0.1,2.3,0.1,3.4c0,0.6-0.1,1.3-0.1,1.9c0,0.4,0.2,0.7,0.5,0.8c0.4,0,0.7-0.1,0.9-0.4c0.2-0.2,0.3-0.6,0.4-0.9
				c0.1-0.6,0-1.3,0-1.8C308.3,380.1,308.1,378.9,308,377.6"/>
			<path id="Pfad_425" class="st4" d="M363.4,381c0.1-1.5-0.1-3-0.1-4.6c0-1.3,0.1-2.6,0.1-3.9c0.1-1.8,0.2-3.6,0.3-5.4
				c0.1-1.4,0.1-2.9,0.2-4.3c0-0.6,0.1-1.1,0.2-1.7c0.4-1.5-0.2-2.1-1.7-2c-0.7,0.1-1.5,0.1-2.2,0c-3-0.2-6-0.4-9-0.4
				s-5.9,0.2-8.8,0.2c-4.4,0-34.2,0.3-34.2,0.3s-0.1-3.5-0.1-4.7c0-1.1,0.1-2.2,0.1-3.3c0-1,0-2,0.1-3c0.1-1.9,0.2-3.7,0.3-5.5
				c0.1-0.7-0.3-0.9-1-1c-2.4-0.1-4.7-0.3-7-0.4c-3.4-0.1-6.8-0.2-10.2-0.2c-0.8,0-1.7,0.1-2.5,0c-2-0.1-4-0.3-6-0.3
				c-2,0-4.1,0.1-6.2,0.1c-3.2-0.1-6.4-0.2-9.7-0.2c-3.1,0-6.1,0.1-9.1,0.1h-8.1c-3.4,0-6.8-0.1-10.2,0c-2.2,0-14.3,0.1-14.2,0.9
				c0.1,1,0,1.9,0,2.9v2.6c0,0.8,0.1,1.6,0,2.5c-0.1,1-0.2,2-0.3,3c0,1.4,0.1,2.8,0,4.2l-0.2,4.8c-0.1,0.9-0.2,1.8-0.2,2.7
				c-0.1,3.1,0.1,6.1-0.1,9.1c-0.2,4.7-0.4,9.4-0.6,14.1c-0.1,0.7,0,1.4,0,2.1c-0.1,2-0.2,4.1-0.2,6.1c0,1.4,0.1,2.8,0.1,4.1h1.5
				c0-2,0.1-4.1,0.1-6.1c0.1-1.9,0-3.8,0.1-5.7c0.1-2.5,0.3-5.1,0.4-7.6c0.2-4,0.3-7.9,0.4-11.9c0.2-3.2,0.3-6.4,0.4-9.7
				c0.1-2.3,0-4.6,0.1-6.9c0.1-2.6,0.1-5.3,0.2-8c0-0.5,0-1,0.8-1c3.3-0.1,6.6-0.3,10-0.3c4,0,7.9,0.2,11.9,0.2
				c2.9,0.1,5.7-0.1,8.6-0.1c4.9-0.1,10-0.1,14.9-0.1c2.2,0,4.4-0.1,6.6,0c2.1,0,4.2,0.2,6.4,0.3c1.3,0.1,2.6-0.1,3.9-0.1h3.4
				c1.7,0.1,3.5,0.1,5.2,0.2c2.4,0.1,4.7,0.2,7.1,0.4c0.1,0,0.3,0.1,0.4,0.1c1.4,0.3,1.5,0.4,1.5,1.8c-0.1,2.8-0.3,5.4-0.4,8.2
				c-0.1,1.6-0.1,3.2-0.1,4.8c0,0.3,0,0.6-0.1,0.9c-0.3,1.2,0.2,2.1,1.4,2.1c2.6-0.1,5.1-0.2,7.7-0.3c1.5,0,3,0.1,4.5,0.1
				c2.1-0.1,4.2-0.3,6.4-0.3c1.5-0.1,3,0,4.5,0c1.1,0,2.3-0.1,3.4-0.1c2.6,0.1,5.3,0.2,8,0.2c2.8,0,5.4-0.2,8.2-0.2
				c2.4-0.1,4.9,0.1,7.3,0.2c1.1,0.1,2.2,0.2,3.3,0.2c0.8,0,0.9,0.4,0.9,1c-0.1,2-0.8,21.3-0.9,22.6c-0.1,2-0.2,4.1-0.3,6.2
				c0,0.3-0.1,0.6-0.1,0.9l-0.5,8.3h2.1c0.2-2.4,0.3-4.8,0.5-7.2C362.7,388.9,363.1,385,363.4,381"/>
			<path id="Pfad_426" class="st4" d="M307.8,390.7c0-0.1,0-0.2-0.1-0.3c-0.2-0.2-0.5-0.7-0.7-0.7c-0.4,0.1-0.8,0.3-1.1,0.7
				c-0.2,0.2-0.1,0.5-0.1,0.8c0.1,0.7,0.2,1.5,0.3,2.3c-0.1,0,0.2,1.8,0.3,2.8c0.1,0.5,0.4,0.8,0.8,0.8c0.3-0.1,0.6-0.5,0.8-0.8
				c0.1-0.2,0.1-0.4,0.1-0.6C308.1,394,308,392.3,307.8,390.7"/>
			<path id="Pfad_427" class="st4" d="M278.7,45.3c0.4-0.1,0.8-0.4,1-0.7c0,0,0-0.1,0.1-0.1c0.1-0.3,0.1-0.3,0.1-0.2
				c0,0.1,0,0.1,0-0.1c0.1-0.4,0.1-0.8-0.1-1.1c-0.2-0.4-0.7-0.6-1.2-0.5c-0.3,0.1-0.6,0.4-0.7,0.7c-0.4,0.4-0.5,1.1-0.2,1.6
				C277.9,45.2,278.3,45.4,278.7,45.3"/>
			<path id="Pfad_428" class="st4" d="M306.1,370.7c0.1,0.6,0.6,0.9,1.1,0.9c0,0,0,0,0,0c0.6-0.1,0.9-0.8,0.8-1.5
				c-0.3-1.6-0.3-3.3,0.2-4.9c0.1-0.4,0-0.8-0.3-1.2c-0.1-0.2-0.7-0.3-0.9-0.2c-0.3,0.3-0.6,0.7-0.7,1.1c-0.2,1.7-0.3,3.2-0.4,4.9
				h-0.1C306,370.1,306,370.4,306.1,370.7C306.1,370.6,306.1,370.7,306.1,370.7"/>
			<path id="Pfad_429" class="st4" d="M30.2,137.6c-0.2-0.2-0.3-0.4-0.5-0.6c-0.2-0.2-0.4-0.4-0.6-0.5c-0.2-0.2-0.5-0.3-0.8-0.4
				c-0.3-0.1-0.6-0.1-0.9-0.1c-0.3,0-0.5,0.1-0.8,0.2c-0.2,0.1-0.4,0.2-0.6,0.3c-0.4,0.3-0.9,0.6-1.2,0.9c-0.2,0.2-0.4,0.4-0.6,0.6
				c-0.2,0.2-0.4,0.5-0.5,0.7c-0.2,0.3-0.3,0.6-0.4,1c-0.1,0.4-0.1,0.8,0,1.1c0.1,0.3,0.2,0.6,0.4,0.9c0.1,0.2,0.3,0.4,0.4,0.6
				c0.3,0.4,0.6,0.7,1,1c0.3,0.2,0.7,0.3,1.1,0.2c0.3-0.1,0.4-0.2,0.4-0.3c0-0.2-0.5-0.3-0.9-0.7c-0.2-0.3-0.4-0.6-0.5-0.9
				c-0.2-0.4-0.3-0.7-0.3-1.1c0-0.1,0-0.3,0.1-0.4c0.1-0.1,0.2-0.3,0.3-0.4c0.1-0.2,0.3-0.3,0.4-0.4c0.1-0.1,0.3-0.3,0.5-0.4
				c0.3-0.2,0.6-0.4,0.9-0.6c0.1-0.1,0.3-0.1,0.4-0.2c0.1,0,0.1,0,0.2,0v0c0,0,0,0,0,0c0.1,0,0.1,0.1,0.2,0.1
				c0.1,0.1,0.2,0.2,0.4,0.3c0.1,0.1,0.3,0.3,0.4,0.4c0.5,0.5,0.8,1.3,0.7,2c0,0.4-0.2,0.7-0.4,1c-0.2,0.3-0.5,0.5-0.7,0.7
				c-0.5,0.4-0.9,0.7-0.8,0.8c0.1,0.2,0.5,0.2,1.2,0c0.5-0.1,0.9-0.3,1.2-0.6c0.5-0.4,0.8-0.9,1-1.5c0.2-0.6,0.2-1.3,0.1-1.9
				C30.8,138.7,30.6,138.1,30.2,137.6"/>
			<path id="Pfad_430" class="st4" d="M296.3,59.9c3.4-4,0.1-8.3-4-10c-3.4-1.4-7.4-0.5-8.6,2.7c-1.7,2.4-1.6,5.6,0.3,7.8
				C287.3,64.1,293.3,63.4,296.3,59.9"/>
			<path id="Pfad_431" class="st4" d="M269.7,52c-0.1-0.4-0.4-0.7-0.9-0.9c-0.2-0.2-0.5-0.3-0.8-0.3c-0.3,0-0.7,0.1-1,0.3
				c-0.2-0.1-0.4,0-0.6,0.1c-0.8,0.6-1,1.8-0.5,2.6c0.6,0.9,1.7,1.1,2.6,0.5c0.1-0.1,0.2-0.1,0.3-0.2
				C269.6,53.7,269.9,52.8,269.7,52"/>
			<path id="Pfad_432" class="st4" d="M293.1,35.8c1.4-1.4,1.4-3.7,0-5c-0.1-0.1-0.3-0.3-0.5-0.4c-1.3-0.9-3.2-0.6-4.1,0.7
				c-0.3,0.4-0.5,1-0.5,1.5c-0.4,0.8-0.3,1.7,0.1,2.5c1,1.5,3,2,4.5,1.1C292.8,36.1,292.9,35.9,293.1,35.8"/>
			<path id="Pfad_433" class="st4" d="M297,108.8c-0.7,0.6-4,3.3-4.3,3.5c-0.8,0.6-0.8,1-0.2,1.7c1,1.2,7.8,8,8.7,8.8
				c0.5,0.3,7.5,7.3,8.9,8.3c0.8,0.6,1.5,1.2,2.2,1.8c0.4,0.3,0.7,0.2,1-0.2c0.3-0.3,4.1-3.7,5.5-5.3c1.1-1.1,2.2-2.2,3.4-3.2
				c0.5-0.5,0.8-1.1,1-1.8c0.1-0.2,0-0.4-0.1-0.5c-0.5-0.7-0.9-1.5-1.4-2.3c-0.2-0.4-6.2-7.7-7-8.5c-0.3-0.4-4.5-4.8-6.3-6.6
				c-0.6-0.7-1.3-1.4-1.9-2.1c-0.1-0.2-0.4-0.3-0.5-0.4c-0.2,0.1-0.4,0.2-0.5,0.3c-0.4,0.2-0.8,0.5-1.2,0.8c-1.4,1-6.1,4.6-7.4,5.6
				C297.1,108.8,297,108.8,297,108.8 M305.3,104.1c0.6-0.4,0.7-0.5,1.3,0.1c1.1,1.1,2.2,2.2,3.2,3.3c0.8,0.9,12.2,14.6,12.3,14.8
				c-0.2,0.3-0.5,0.6-0.6,1c-0.2,0.2-0.3,0.4-0.5,0.6c-2.3,2.1-4.3,4.5-6.7,6.4c-0.5,0.3-0.9,0.7-1.3,1.1l0,0
				c-0.2,0.2-0.5,0.2-0.6,0c0,0,0,0,0,0c-0.7-0.7-1.5-1.4-2.2-2.1c-1.3-1.2-11.9-11.5-13.9-13.7c-0.1,0-0.8-0.9-1.1-1.2
				c-0.1,0-1.1-1.3-1.1-1.6c0-0.5,2.7-1.8,3.1-2.1C297.6,110,304.6,104.5,305.3,104.1"/>
			<path id="Pfad_434" class="st4" d="M311.1,79.5c0.1,3.3,0.1,7.4,0.3,9.1c0.1,1.7,0.1,2.1,0.9,2.2c1.7,0.1,9.9-0.6,12.8-0.3
				c0.9,0.1,5.9-2.5,7.2-3.3s1.2-0.6,1.1-2.6s-0.6-12.9-0.6-12.9l4.7,0.2c-0.1,1.3,0,2.5,0.1,3.8c0.4,2.9,0.7,5.8,0.8,8.8
				c-0.1,0.7,0.1,1.4,0.6,1.9c2.4,1.6,4.9,5.1,6.8,5c1.9,0,14.5-3.1,19.3-3.9c1.7-0.3,1.8-0.3,1.7-1.7c-0.4-4.2-0.4-8.5,0-12.7
				c0.2-1.1-0.2-2.3-1.2-2.9c-1.3-1-2.4-1.6-3.2-2.3s-3.3-0.2-3.3-0.2s-0.2-0.9-0.3-1.4c-0.4-1.9-0.7-3.9-1-5.8
				c-0.3-1.7-0.3-1.8-2-1.6c-1.6,0.2-6.5,0-6.5,0c-0.1-0.6-0.2-1.2-0.2-1.9c-0.1-1.6-0.3-4.8-0.3-4.8s-0.1-2.1-1.6-2
				s-10.5,0.5-14.2,0.4c-0.9,0-1.8,0.5-2.3,1.2c-1,1.3-2.1,2.4-3.4,3.4c-1.7,1.2-1.7,1.1-1.4,3.1c0.7,3.7,1.1,7.5,1.1,11.2l0,0
				c-2.8,0.7-5.5,0.1-6.9,0.1c-1.5,0.1-2.4-0.2-2.9,0.4c-1.9,1.6-3.8,2.7-5,3.5s-1.1,0.8-1.1,1.6C311.1,76.7,311.1,78.1,311.1,79.5
				 M326.8,88.2L326.8,88.2c-0.4-1.4,0.3-7.7,0.2-9.6c0-1,0-3,0-3s4.4-2.5,4.4-2.2c-0.1,2.6,0.6,8.1,0.8,10.7
				C332.4,85.8,328,87.9,326.8,88.2 M344.8,88.8c-0.6,0.3-1-0.2-1.3-0.6c-1.8-1.6-3.5-3.4-3.5-3.4s-0.4-6.9-0.8-9.1
				c-0.2-0.5-0.1-1,0.2-1.4c1.5,0.7,3,1.6,4.4,2.6c0.7,0.5,1.1,1.3,1,2.2c0.2,2.7,0.4,5.5,0.6,8.2C345.6,87.9,345.5,88.5,344.8,88.8
				 M343,73.9c0,0,2.6,0,4.3-0.1s7.3,0,7.3,0c-2.5,0.6-5.1,1.1-7.7,1.4C345.5,75.2,344.1,74.8,343,73.9 M359.4,68.8
				c0.4-0.2,0.8-0.1,1.1,0.1c1.1,0.8,2.2,1.6,3.4,2.6c-1.3,0.4-2.7,0.7-4.1,0.9c0,0-0.1-0.7-0.2-1.1
				C359.5,70.5,359.5,69.7,359.4,68.8L359.4,68.8z M361.9,74c2.9-0.4,2.9-0.5,2.9,2.4c0,0.6-0.1,6.4-0.1,8c0,1-0.3,1.6-1.4,1.7
				c-3.4,0.8-13.7,2.7-14.6,2.9c-1,0.2-1.3-0.6-1.4-1.7c-0.3-2.3-0.5-4.5-0.5-6.8c0-0.5,0-0.9,0-1.4c-0.2-2.2-0.2-2.3,1.8-2.4
				C353.1,76.3,357.4,74.7,361.9,74 M356.7,62.3L356.7,62.3c0.2,0.3,1,6.6,1.3,8.3c0,0.1,0,0.1,0,0.2c0.1,0.7-0.4,1.4-1.1,1.5
				c0,0,0,0,0,0c-0.5,0.1-0.9,0-1-0.6c-0.2-2.1-0.9-6.8-0.7-7.3S356.5,62,356.7,62.3 M355.5,60.4c0.2,0.6-0.8,1.8-1.2,2
				c-1.2,0.5-2.5,0.5-3.8,0.2c-0.4-0.1-0.5-0.6-0.5-0.9c0-0.6-0.2-1.5-0.2-1.5S355.3,59.8,355.5,60.4 M347.6,52.4
				c0,0,0.9,9.2,1.2,13.3c-0.3,0.9-0.9,1.6-1.7,2c-0.7-3.7-0.8-8.4-1.2-12C345.9,54.8,347.6,52.4,347.6,52.4 M348.7,68.7
				c1.4-1.2,1.7-4.3,1.7-4.3s1.6-0.1,2.1-0.1c0.8-0.1,1.5,0.5,1.5,1.3c0,0.1,0,0.2,0,0.3c0,1.7,0.1,3.5,0.2,5.2
				c0,0.7-0.3,1.2-1.1,1.1c0,0-6.9,0.2-9.3,0.3c-1.4,0.1-2.8-0.1-4.1-0.5c0,0,0.2-0.8,1.5-0.8c1.6-0.1,3.2-0.4,4.7-0.7
				C347,70.3,347.1,70,348.7,68.7 M333.1,52c0,0,9.3-0.4,12.6-0.5c0.2,0-1.7,2.9-2.9,3.1c-0.9,0.2-1.8,0.4-2.7,0.5
				c-3.4,0.1-6.8,0.8-10.6,0.5C330.6,54.3,331.8,53.1,333.1,52 M328.9,57.4c2.2-0.1,4.4-0.3,6.6-0.4c2.3,0,4.6-0.2,6.8-0.5
				c1.7-0.3,1.9,0,2.2,1.7c0.6,3.1,0.3,6.4,1.1,9.5c0.2,0.9-0.3,1.5-1.4,1.6c-3.2,0.5-12.9,0.4-14.5,0.3c-0.5,0-0.9-0.4-0.9-0.9
				c-0.1-0.5-0.3-1-0.3-1.6c-0.1-2.7-0.4-5.5-0.9-8.2C327.4,57.9,327.7,57.5,328.9,57.4 M319.1,71.2c3.3-0.3,11.7,0.3,11.7,0.3
				s-2.3,1.7-3.1,1.8c-1,0.2-1.9,0.4-2.9,0.5c-3-0.1-7.4,0.4-10.5,0.3C315.4,73,317.4,71.4,319.1,71.2 M312.8,77.7
				c0-0.8,0.3-1.3,1.1-1.3c3.6-0.3,7.1-0.9,10.7-0.6c0.9,0.1,1.1,0.4,1.1,1.1c-0.1,1.4-0.2,2.7-0.3,4.1c-0.1,2.2-0.2,4.4-0.2,6.6
				c0,0.8-0.2,1.4-1.1,1.3c-2.9-0.3-5.7,0.5-8.6,0.4c-2-0.1-2.2-0.1-2.4-2.2c-0.2-1.7-0.2-3.3-0.3-5h0
				C312.8,80.6,312.8,79.1,312.8,77.7"/>
			<path id="Pfad_435" class="st4" d="M345.3,289.7c-0.4-0.6-1.2-0.8-1.8-0.4c-0.2,0.1-0.3,0.3-0.4,0.5c-1.7,3.4-3,7-4,10.6
				c-9-1.2-17.9-3.5-26.4-6.8c-6.4-2.5-16-5.6-18.1-12.9c-2-6.8,3-13.9,7-18.9c8.6-10.5,20.4-17.9,33.8-20c0.7,0.1,1.4,0.2,2.2,0.3
				c0.7,0.1,0.9-0.9,0.2-1.1c-0.2,0-0.4-0.1-0.5-0.1c0-0.2-0.2-0.4-0.5-0.3c-0.3,0-0.6,0.1-1,0.1c-17.6-2.7-35.3,4.1-46.5,17.9
				c-5.6,7.1-9.7,16.3-7.4,25.4c2.4,9.7,10.6,16.4,19,20.9c10.2,5.2,20.8,9.5,31.7,12.8c-2.2,5-3.9,10.2-5,15.6
				c-0.2,0.8,0.7,1.8,1.6,1.5c11.5-5,23.3-9.4,35.3-13.2c0.7-0.2,1.1-1,0.9-1.7c0-0.1-0.1-0.2-0.1-0.3
				C359.1,309.2,352.5,299.2,345.3,289.7 M283.8,280.7c-1-8.9,4.2-17.5,10.1-23.7c9.5-9.9,22.7-15.5,36.5-15.4
				c-6,1.4-11.8,3.9-16.9,7.3c-6.2,4.1-11.7,9.4-16,15.4c-3.8,5.2-7.2,12.3-4.2,18.7c3.3,7.1,12.5,10.2,19.2,12.8
				c8.5,3.3,17.3,5.5,26.2,6.8c0.2,0.7,1,1,1.7,0.8c0.4-0.1,0.7-0.5,0.8-0.9c0.8-3.3,1.9-6.5,3.3-9.6c6.3,8.6,12.2,17.5,17.6,26.6
				c-10.7,3.5-21.2,7.5-31.6,11.9c1.1-4.9,2.4-9.8,4-14.5c0,0,0-0.1,0-0.1c0.3-0.8-0.1-1.7-1-2c0,0,0,0-0.1,0
				c-11.1-3.4-22.3-7.3-32.5-12.9C292.9,297.5,284.9,290.5,283.8,280.7"/>
			<path id="Pfad_436" class="st4" d="M87.6,123.3c0.4,0,0.8-0.4,0.7-0.8c0,0,0,0,0,0c0-0.4-0.2-0.6-0.6-0.6c-0.5,0-0.8,0.2-0.8,0.6
				c-0.1,0.4,0.2,0.8,0.6,0.9C87.5,123.3,87.5,123.3,87.6,123.3"/>
			<path id="Pfad_437" class="st4" d="M99.5,121.9c0.4,0,0.8-0.2,0.8-0.8c0-0.4-0.3-0.7-0.6-0.7c0,0,0,0,0,0
				c-0.4-0.1-0.7,0.2-0.8,0.5c0,0,0,0.1,0,0.1C98.7,121.5,99,121.8,99.5,121.9C99.4,121.9,99.4,121.9,99.5,121.9"/>
			<path id="Pfad_438" class="st4" d="M101.5,322.1c-3.4-0.4-6.8-0.6-10.2-0.5c-1.1,0-2.3,0-3.4,0.1c-2.1,0.7-3.9,1.3-6,2.2
				c-1.6,0.6-3.3,1.1-2.9,3.7c0.6,4.2,0.9,8.4,1.1,12.6c0.1,1.6,0.8,1.9,2.1,1.8c4.3-0.3,8.6-0.8,12.8-0.7c3.3,0.1,5.4-1.8,7.7-3.5
				c0.2-0.2,0.3-0.4,0.2-0.7l0,0c0-3.9-0.1-13.2-0.1-13.8C102.9,322.7,102.4,322.2,101.5,322.1 M96.4,338.2c0,0.8-0.6,1.4-2.1,1.4
				c-3.8,0.1-7.7,0.4-11.5,0.6c-0.8,0-1.2-0.2-1.3-1c-0.3-3.9-0.8-7.7-1-11.6c-0.1-1.5,1.4-1.1,2.1-1.2c4.2-0.6,8.4-0.7,12.6-0.3
				c0.7,0.1,0.8,0.3,0.8,0.9C96,329.3,96.4,337.4,96.4,338.2 M85.8,325c-1.5,0.1-5,0.2-5,0.2s5.6-2.1,6.9-2.3
				C92,322.1,101,323,101,323l-4.5,1.8C96.5,324.8,88.9,324.8,85.8,325 M101.5,336.4c0,0.8-0.8,1.1-1.4,1.5
				c-0.6,0.4-1.1,0.8-1.8,1.3c-0.3,0.2-0.8-0.2-0.8-0.6c0-2,0-3.8,0-5.5c0-2,0-4-0.1-6c-0.2-0.9,0.4-1.7,1.3-1.8
				c1.1-0.3,2.2-0.7,2.8-1l0,0C101.5,328.2,101.5,332.3,101.5,336.4"/>
			<path id="Pfad_439" class="st4" d="M76.4,125.6c-0.9-0.3-4.6-1-5.2-0.8c-0.6,0.2-0.6,4.6-0.2,5.2c0.3,0.6,4.5,1,5.2,0.7
				C76.9,130.6,77.1,125.9,76.4,125.6 M75.4,129.7c-0.4,0.1-3.3-0.1-3.5-0.6c-0.2-1-0.2-2.1,0.1-3.1c0.1-0.2,1,0.1,1.4,0.1
				c1.3,0.1,2.3,0.2,2.2,1.1C75.7,128.5,75.8,129.6,75.4,129.7"/>
			<path id="Pfad_440" class="st4" d="M125.3,127c-2-2.3-5.7-7.7-5.7-7.7s0.2-1.1,0.3-1.8c0.1-0.8-0.4-1.6-1.1-2
				c-0.8-0.5-2.5-1.4-2.5-1.4s-0.6-9.6-0.7-13.9c0-1.4-0.5-1.7-1.7-1.1c-3.7,1.3-7.4,2.4-11.2,3.2c-4.8,1-9.6,2.3-14.3,3.7
				c-5.3,1.5-10.8,2.3-15.9,4.5c-1.3,0.5-1.4,0.5-1.3,1.9c0.1,1.5,0.4,3,0.5,4.5c0.1,0.8,0.4,4.8,0.4,4.8s-1.2-0.2-1.6-0.3
				c-2.1-0.5-2.1,0.6-2.1,1.9c0,1.3,0,2.9,0,4.4c0,1.2,0,2.5,0.1,3.6c0.1,1.1,0.4,1.5,1.6,1.7c0.3,0.1,0.6,0.1,1,0.1
				c1,0.2,2.1,0.6,2.1,0.6s0,3.9-0.1,4.6c-0.1,0.7,0,1.3-0.3,1.4c-2.5,1.4-5.9,3-8.5,4.2c-0.9,0.5-2,0.5-2.8,0c-1.6-1-3-2.2-4.4-3.4
				c-0.3-0.3-0.7-0.3-1,0c0,0,0,0-0.1,0.1c-0.3,0.4-0.2,0.7,0.1,1.1c0.4,0.5,5.3,4.1,5.8,4.4s0.8,0.6,1.2,0.3c2.4-1.4,5.6-2.7,7-3.5
				c0.9-0.5,1.9-1,3-1.4c0,0.4,0,0.8,0,1.1c0.1,1.5,0,6.1,0.2,8.5c0.2,2.2,0.7,2.4,1.3,2.7c0.9,0.5,1.9,1,2.8,1.4
				c0.6,0.3,1.1,0.5,1.7,0.7c1,0.3,1.6,0.1,3-0.3c0.7-0.2,3.3-1.3,4-1.1c0.7,0.1,1.5,1.1,4,1.7c4,0.9,8,2.2,11.9,3.8
				c0.4,0.3,1,0.1,1.2-0.3c0.1-0.1,0.1-0.2,0.1-0.3c0.3-1.3,0.9-2.6,1.8-3.6c0.2-0.3,0.3-0.6,0-0.8c-0.3-0.3-0.7-0.3-1.1-0.1
				c-0.4,0.4-0.7,0.9-1,1.4c-1.1,1.8-1.4,1.9-3.4,1.2c-0.4-0.1-0.9-0.3-1.3-0.5c-1.4-0.7-9.8-3.1-9.7-3.4c0-0.2,0.7-0.4,1.1-0.5
				c4-1.6,12.7-4.9,12.7-4.9c0.4,0.1,0.9,0.3,1.2,0.6c2.7,2.1,5.6,4,8.6,5.7c1,0.6,1.6,0.4,1.7-0.8c0-0.8,0.3-1.7,1-2.2
				c0.5-0.4,0.1-0.9-0.3-1.1c-0.3-0.3-0.7-0.3-0.9,0c-0.1,0.1-0.1,0.2-0.2,0.3c-0.2,0.3-0.4,0.7-0.5,1c-0.3,0.8-0.7,1-1.6,0.6
				c-2.3-1.3-4.4-2.8-6.3-4.5c2.7-1,5.5-1.8,8.4-2.4c2.1-0.4,2.5-1,2.2-3c-0.4-2-0.8-3.9-1.2-5.9c-0.4-2-0.4-2,1.3-2.9
				c0.3-0.2,0.6-0.3,0.9-0.4c2.6-1.4,5.4-2.2,8.1-3.5C126.1,128.6,126.3,128.2,125.3,127 M115.4,125.1c0.4-2.2,0.6-4.4,0.9-6.5
				c0-0.2,0.1-0.4,0.1-0.6c0.1-0.3,0.2-0.7,0.6-0.7c0.4,0,0.8,0.3,0.8,0.7c0,0.7,0.1,1.4,0,2.1c-0.1,1.8-0.4,3.6-0.9,5.4
				c-0.1,0.6-0.5,0.7-1,0.6C115.5,125.9,115.3,125.7,115.4,125.1 M74,111.8c2.4-1.1,5-2,7.6-2.5c2.2-0.5,29.6-7.3,31.1-7.9
				c0.4-0.2,0.8-0.2,1.2-0.1c0.2,1.2,1,9.7,0.8,12.4c-0.9-0.1-1.9-0.2-2.8-0.3c0,0-0.3-2.6-0.5-3.7c0-0.8-0.3-1.5-0.8-2
				c-1.2-1.3-3.1-2.4-3.5-2.3c-5,1.8-10.1,2.8-15.1,4.4c-2.8,0.9-14.2,4.4-17.2,5c-0.4,0.1-1.5,0.4-1.5,0.4
				c-0.2-0.4-0.3-0.7-0.4-1.1C72.6,112.8,72.8,112.3,74,111.8 M114.8,118c0,1.7-0.1,3.3-0.4,5c-0.1,0.4-0.2,2-0.7,2
				c-0.5,0-0.9-1.5-0.9-2c-0.2-2-0.5-4.9-0.6-7.1c0.8,0,1.6,0.2,2.3,0.6C115,116.6,114.8,117.6,114.8,118 M75.7,115.7
				c0.3-0.3,7.7-1.8,14.6-3.8c8.2-2.4,17.2-5.3,17.2-5.3s1.5,1,1.7,1.5c-7.7,2.3-30.4,8.7-31.2,8.6
				C77.1,116.5,76.3,116.2,75.7,115.7 M76.1,122.6l-2-0.5c0,0-0.1-3.2-0.2-4.4c0-0.3,0-0.7,0.3-0.9c0.4-0.1,0.8-0.1,1.1,0.2
				c0.4,0.3,0.9,0.3,1.2,0.7S76.1,122.6,76.1,122.6 M76.7,153c-0.9-0.4-2-0.6-2.1-1.6c-0.1-0.6-0.1-2.5-0.1-3.1
				c0-2.1-0.1-7.8,0.1-8.1c0.6-0.5,1.3-0.8,2.1-1c0.4,0,0.2,2.3,0.2,3.3c0.1,1.8,0.2,3.5,0.3,5.2C77.3,148.6,77.6,153.1,76.7,153
				 M74.5,134l1.9,0.5c0,0,0,1.9-0.1,2.9c0,0.9-0.6,0.9-1.7,1.3C74.7,136.9,74.5,134,74.5,134 M76.2,132.9c-1.6-0.4-4.5-0.9-6-1.4
				c-0.4-0.1-0.5-0.4-0.5-1.2c0-1.7,0-6.3,0-6.8c0-0.6,0.2-0.6,1-0.4c0.4,0.1,1.3,0.4,2.4,0.6c1.3,0.3,2.8,0.6,2.8,0.6
				c0.9,0.3,1.9,0.6,2.9,0.8c-0.3,2.3-0.6,4.6-1,6.8C77.5,133.1,77.4,133.2,76.2,132.9 M112.9,143.3c-1.3,0.5-2.6,0.9-3.9,1.2
				c-6.7,1.6-13,4.4-19.5,6.8c-2.6,1-5.3,1.8-8,2.6c-0.4,0.2-0.9,0.3-1.3,0.2c-0.8-0.2-1.3-0.4-1.5-1.5c-0.5-3.1-0.7-12.6-0.8-14.2
				c0-0.7-0.2-3.6-0.2-3.6s1.1,0.2,1.4-0.5c0.3-0.7,1.4-8.1,1.7-9.3s-0.5-1.6-1.6-1.8c-2.7-0.3-1.9-0.2-2-3c0-0.3-0.2-2.2,0.8-2.5
				c2.8-0.9,15.8-4.1,19.1-5.2c4.2-1.3,12.7-3.4,12.7-3.4s1.1,7.5,1.2,9c0.1,1.8,1.8,18,3.1,22.9
				C114.4,142.4,114.2,142.9,112.9,143.3 M123,128.4c-0.8,0.4-6.4,2.5-8.2,3.5c-0.3,0.2-0.7,0.3-1.1,0.2c-0.1-1.4-0.3-2.9-0.4-4.3
				c-0.1-0.7,0.4-0.9,1-0.8c0.8,0.1,1.5,0.3,2.2,0.6c1.6,0.6,1.7,0.6,1.8-1.1c0.2-1.6,0.5-3.1,0.9-4.6c1.1,0.2,3.5,4.1,4.1,5.1
				S123.7,128,123,128.4"/>
			<path id="Pfad_441" class="st4" d="M112.9,273.9c-4.5-1.8-9.8-0.6-11.4,3.6c-2.3,3.1-2.1,7.4,0.4,10.3c4.2,4.9,12.1,4,16.1-0.7
				C122.7,281.8,118.3,276.1,112.9,273.9"/>
			<path id="Pfad_442" class="st4" d="M102.7,127.5c-0.3,0-0.4,0.3-0.4,0.6c0,0.2,0,0.4,0,0.6c0,1.5-0.1,1.6-1.5,1.7
				c-2.1,0.3-4.1,0.6-6.1,1.2c-1.5,0.3-3.1,0.5-4.6,0.6c-1.8,0.1-1.8,0.1-2.6-1.7c-0.1-0.2-0.2-0.5-0.4-0.7
				c-0.3-0.3-0.9-0.3-0.9,0.2c-0.1,1.2,0.3,2.4,0.9,3.5c0.2,0.3,0.6,0.4,0.9,0.3c5.1-0.2,9.9-1.9,14.9-2.4c0.4,0,0.7-0.4,0.7-0.8
				c0,0,0,0,0-0.1c-0.1-0.9-0.2-1.8-0.3-2.7C103.2,127.7,103,127.5,102.7,127.5"/>
			<path id="Pfad_443" class="st4" d="M302.9,358.3c-1.3-0.1-2.6,0-3.9,0c-0.5,0-0.9,0-1.4-0.1c-1,0.1-1.4,0.3-1.4,1
				c0,0.6,0.6,0.9,1.5,0.9h0.3c1.6,0.1,3.2-0.3,4.8,0.2c0.3,0.2,1-0.2,1.3-0.5c0.2-0.2,0.1-0.8-0.2-1.2
				C303.7,358.5,303.3,358.3,302.9,358.3"/>
			<path id="Pfad_444" class="st4" d="M260.7,308.3c-0.7-0.2-1.4-0.4-2.1-0.6c-1.1-0.3-2.1-0.6-3.2-0.9c-1.4-0.4-2.8-1-4.1-1.7
				c-0.9-0.5-1.9-0.8-2.9-1.1c-0.7-0.3-1.4-0.5-2.1-0.8c-0.2-0.1-0.4-0.3-0.6-0.6c-0.7-1.4-2.1-5.8-2.4-6.5
				c-0.6-1.6-1.2-3.1-1.8-4.6c-0.9-2.2-2-4.3-2.9-6.5c-1-2.3-1.9-4.7-2.8-7.1c-0.3-1-0.6-2.1-0.8-3.1c-0.3-0.6-0.4-1.2-0.5-1.9
				c-0.1-1.8,0-3.6,0-5.5c0.1-3.2,0.1-6.4,0.1-9.6c0-2.4,0-4.7,0.3-7.1c0.4-3,0.6-6,0.8-9c0.1-1.3-0.2-1.6-1.4-1.8
				c-1.3-0.3-2.7,0.1-4,0.1c-1.7-0.1-3.5,0-5.3,0.1l-5.8,0.2c-1.1,0.1-2.1,0.2-3.2,0.2c-2.3,0.1-4.6,0.1-6.8,0.1
				c-1.4,0-2.8,0.1-4.2,0.1c-1.2,0-2.4-0.1-3.6,0c-1.8,0.1-3.6,0.2-5.5,0.3c-2.8,0.1-5.7,0.1-8.6,0.2c-2.2,0.1-4.3,0.2-6.5,0.3
				c-2.3,0.1-4.7,0.2-7.1,0.3c-3.2,0.2-6.3,0.3-9.5,0.4c-0.2,0-4.4,2.7-5.2,3.2c-0.5,0.3-0.7,0.9-0.7,1.4c0.1,0.7-0.1,1.4-0.1,2.1
				c-0.1,4.1-0.2,8.3-0.2,12.4c-0.1,3.1-0.4,12.9-0.9,14.4c-0.5,1.4-1.1,2.8-1.9,4.2c-0.8,1.3-1.6,2.7-2.3,4.2
				c-0.8,1.6-1.6,3.3-2.4,4.8c-1.5,2.7-3.1,5.3-4.7,8c-1.3,2.1-2.7,4.2-4,6.2c-0.5,0.8-1,1.6-1.4,2.4c-0.8,1.6-1.6,3.2-2.4,4.8
				c-0.1,0.3-0.3,0.3-0.6,0.2c-0.8-0.5-1.7-1-2.6-1.4c-1.4-0.6-2.8-1.2-4.2-1.8c-0.7-0.3-0.8-0.2-0.8,0.6c-0.1,1.2-0.2,2.5-0.4,3.8
				c-0.2,1.5-0.4,3-0.6,4.5c-0.1,0.4-0.2,0.6-0.6,0.6c-0.7,0.1-1.4,0.2-2.1,0.3c-0.5,0-0.8,0.4-0.8,0.9c0,0,0,0.1,0,0.1
				c0,2.2,0,4.3,0.1,6.5c0.2,2.7,0.6,5.4,0.7,8.1c0,0.8,0.2,1.5,0.7,2.1c1,1.5,2.1,3.1,3.1,4.6c0.8,1.4,1.9,2.7,3.2,3.7
				c0.3,0.2,0.6,0.4,0.9,0.4c1.3,0,2.5-0.1,3.7-0.3c3.4-0.6,6.9-1,10.4-1.2c1.2-0.1,1.5-0.8,1.3-1.8c-0.3-1.7-0.4-3.4-0.3-5.1
				c0.1-0.9,0-1.8-0.1-2.7c-0.1-1.4-0.2-2.9-0.2-4.3c0.1-0.8-0.2-1.6-0.8-2.1c-1.2-1.2-2.6-2.3-3.8-3.5c-0.3-0.2-0.5-0.5-0.6-0.8
				c-0.3-2.3-0.4-4.6-0.7-6.8c-0.1-0.6-0.4-1.3-0.8-1.7c-0.8-0.6-1.7-1.2-2.6-1.6c-0.4-0.2-0.6-0.4-0.3-0.9c1.1-2.1,2.1-4.2,3.2-6.3
				c0.2-0.4,0.5-0.7,0.7-1.1c0.8-1.3,1.8-2.5,2.6-3.8c1.1-1.8,2.1-3.6,3.1-5.4c1.1-1.9,2.3-3.8,3.4-5.7c1.8-3.3,3.5-6.8,5.3-10.2
				c0.1-0.2,0.3-0.5,0.4-0.7c0.1,0.3,0.2,0.6,0.2,0.8v0.2c-0.1,3.2-0.1,6.3-0.2,9.5c-0.1,3.6-0.3,7.2-0.4,10.7
				c-0.1,1.7-0.1,3.5-0.2,5.2c-0.1,1.4-0.2,2.8-0.2,4.3c0,1.3,0.1,2.6,0.1,3.8c0,1.5-0.1,3-0.1,4.5c-0.1,1,0.6,1.8,1.6,1.9
				c0.1,0,0.2,0,0.3,0c0.6,0,1.2-0.1,1.7-0.1c2.5,0.1,5,0.3,7.4,0.3c3.2,0,6.5-0.2,9.7-0.4c0.9,0,1.1,0.1,1.2,0.9
				c0,0.4,0.1,0.8,0.1,1.2c-0.1,0.9-0.2,1.8-0.2,2.7c-0.1,1.8-0.1,3.6-0.1,5.4c-0.1,2.1-0.2,4.1-0.2,6.2c0,3.8,0.1,7.6,0.1,11.5
				c0,0.6-0.2,1.2-0.6,1.7c-0.7,0.8-1.4,1.6-2.1,2.3c-0.7,0.8-1.4,1.7-2.2,2.6c-0.3,0.2-0.4,0.6-0.2,0.9c0,0,0,0,0.1,0.1
				c0.2,0.3,0.6,0.4,0.9,0.2c0.1,0,0.1-0.1,0.2-0.1c0.2-0.2,0.4-0.4,0.6-0.6c1.2-1.8,2.6-3.4,4.2-5c0.7-0.5,1-1.4,0.7-2.2
				c-0.1-0.3-0.1-0.7-0.1-1.1c-0.1-1.8-0.1-3.6-0.1-5.4c0-1-0.1-2.1-0.1-3.1c0-2.5,0.1-5,0.1-7.5c0.1-2.6,0.1-5.3,0.2-7.9
				c0-0.6,0.2-1.3,0.2-1.9c0-1,0-1.1,1-1.1c1.7-0.1,3.4-0.1,5.1-0.2c1.4-0.1,2.9-0.2,4.4-0.2c2.7,0,5.5,0.1,8.2,0.1
				c1.6-0.1,3.3-0.2,5-0.3c0.4,0,0.8,0,0.8,0.6c0,0.9,0,1.9-0.1,2.9c-0.1,2-0.3,4.1-0.3,6.1c-0.1,1.9-0.1,3.8-0.1,5.7
				c0,1.8,0,3.6,0.1,5.4c0.1,1.9,0.1,4,0.2,6c0,0.5,1.5,2.4,1.9,2.9c1.2,1.5,2.4,3,3.6,4.5c0.3,0.3,0.4,0.7,0.7,0.9
				c0.2,0.1,0.5,0.2,0.8,0.1c0.2-0.2,0.3-0.6,0.3-0.8c0-0.2-0.2-0.3-0.3-0.5c-1.6-2.1-3.2-4.1-4.8-6.1c-0.5-0.5-0.7-1.2-0.7-1.9
				c0-0.8-0.1-1.7-0.2-2.5c-0.1-1.4-0.3-2.8-0.3-4.2c-0.1-1.9-0.1-3.9-0.1-5.8l0.2-8.8c0-1.3,0.1-2.6,0.2-3.9c0-0.5,0.2-0.8,0.7-0.8
				c1.3-0.1,2.6,0,4-0.1c2.2-0.1,4.5-0.1,6.7-0.2c2.3-0.1,4.7-0.2,7-0.4c1.7-0.2,3.4,0,4.9-1c1-0.7,1.9-1.4,2.9-2.1
				c0.2-0.2,0.3-0.4,0.3-0.7c0.1-1.6,0.2-3.1,0.3-4.7c0.1-1.8,0.1-3.6,0.2-5.4c0.1-1.6,0.3-3.3,0.3-5c0.1-2.5,0.2-5.1,0.3-7.6
				c0.2-3.7,0.5-7.3,0.7-11v-0.5c0-0.1,0.1-0.1,0.1-0.2l0.2,0.2c0.3,0.6,0.6,1.3,0.9,1.9c0.9,2.3,1.8,4.7,2.8,7
				c0.9,2.1,1.9,4.2,2.8,6.3c0.7,1.6,1.1,3.2,1.7,4.8c0.4,1,0.7,2.1,1.1,3.1c0.1,0.3,0.3,0.7-0.4,0.5c-0.6-0.2-1.2-0.2-1.7-0.4
				c-0.9-0.2-1.1-0.2-1.4,0.7c-0.7,1.7-1,3.6-0.9,5.5c-0.1,0.5,0.2,1.1,0.7,1.3c0.7,0.3,1.5,0.7,2.3,0.9c1.7,0.6,3.3,1.1,4.9,1.7
				c1,0.3,2,0.6,3,0.9c1.4,0.6,1.3,0.7,1.3,2.2c-0.1,2.7-0.3,5.4-0.4,8.1c0,0.4,0.2,0.6,0.6,0.7c1.4,0.3,1.4,0.3,1.6,1.7
				c0,0.1,0.1,0.3,0.1,0.4c0,0.5,0.3,0.9,0.8,0.9c0,0,0,0,0,0c0.2,0.1,0.4,0.2,0.5,0.4c0.1,0.4,0.2,0.9,0.2,1.3v5.4
				c0,0.4,0.1,0.6,0.5,0.6c0.5,0.1,1,0.1,1.6,0.1c0.9,0.1,1.2-0.2,1.2-1.2c-0.1-1.8-0.1-3.6-0.1-5.4c0-0.3,0.1-0.5,0.3-0.7
				c0.5-0.4,0.8-1.1,0.8-1.7c0.1-0.6,0.1-1.2,0.7-1.4c0.2-0.1,0.2-0.3,0.3-0.5c0.2-1.1,0.4-2.1,0.4-3.2c-0.1-3.6,0.6-7.1,0.9-10.7
				C261.7,309.1,261.3,308.5,260.7,308.3 M138.6,316.1c0.1,0.7,0.2,1.4,0.2,2.2v0.9c-0.3-0.2-0.7-0.4-0.9-0.6
				c-1.2-0.9-2.4-2-3.7-2.9c-0.3-0.2-0.7-0.2-1.1-0.3c-0.2-0.1-0.6-0.3-0.7-0.5c-0.1-0.7-0.1-1.5-0.1-2.2c0-0.4,0.3-0.5,0.6-0.3
				c1,0.6,2.1,1.2,3.1,1.7c0.3,0.2,0.5,0.4,0.7,0.4C137.7,314.3,138.5,315.1,138.6,316.1C138.6,316.1,138.6,316.1,138.6,316.1
				 M139.5,326.6c0,0.3-0.1,0.6-0.4,0.6c-0.9,0.2-1.8,0.3-2.8,0.5c-0.4,0.1-0.6-0.1-0.7-0.6c-0.2-1.3-0.6-2.7-0.8-4
				c-0.3-1.7-0.4-3.3-0.7-5c0-0.1,0.1-0.3,0.1-0.4l0.3,0.2c1.2,1,2.4,2,3.6,3.1c0.4,0.4,0.8,0.8,1.1,1.2c0.1,0.3,0.2,0.6,0.2,0.9
				C139.4,324.3,139.5,325.4,139.5,326.6 M130.1,312.4c0.1-0.8,0.2-1.7,0.3-2.6c0.1-0.9,0.2-1.1,1.1-0.6c0.4,0.2,0.9,0.4,1.3,0.4
				c1.3,0.3,2.6,1,3.6,1.8c0.1,0.2,0.2,0.4,0.2,0.6c-0.2,0-0.5,0.1-0.7,0.1c-1.2-0.5-2.5-1.1-3.7-1.6c-0.8-0.3-0.8-0.3-0.9,0.4
				c-0.1,0.3-0.2,0.7-0.2,1.1c-0.1,0.4-0.1,0.7-0.1,1.1c0,0.6,0.1,1.1,0.3,1.7c0.1,0.5,0.1,1.1-0.4,1.3c-0.5,0.3-0.8,0.2-0.8-0.4
				C130,314.7,130.1,313.5,130.1,312.4 M126.8,318.3c1.3-0.2,2.6-0.5,3.9-0.8h0.1c1.8-0.4,2-0.3,2.3,1.4c0.4,2.7,0.8,5.4,1.3,8.1
				c0.1,0.4,0.1,0.7-0.5,0.7c-0.4,0-0.9,0-1.3,0.1c-0.6,0.1-1.2-0.2-1.4-0.8c-1.1-1.6-2.2-3.2-3.2-4.8c-0.6-1.1-1.1-2.2-1.6-3.3
				C126.2,318.6,126.4,318.4,126.8,318.3 M131.7,339.9c-0.1,0-0.2-0.1-0.3-0.2c-0.6-0.7-1.2-1.4-1.7-2.1c-0.8-1.1-1.4-2.3-2.1-3.4
				c-0.3-0.7-0.6-1.4-0.7-2.1c-0.4-2.8-0.7-5.7-0.9-8.6c0-0.5,0-1,0.1-1.6c0.3,0.4,0.6,0.8,0.9,1.2c0.8,1.3,1.6,2.7,2.3,4.1
				c0.8,1.6,1.3,3.4,1.3,5.2c0.2,1.6,0.6,3.2,0.8,4.8c0.1,0.8,0.2,1.6,0.3,2.6C131.8,339.8,131.8,339.8,131.7,339.9 M143.7,324.2
				c0.3,0.3,0.7,0.4,1.1,0.7c0.3,0.3,0.7,0.6,1,0.9c0.4,0.4,0.3,0.6-0.2,0.7c-0.2,0-0.4,0.1-0.6,0.1c-1.4,0.2-1.4,0.2-1.4-1.2
				C143.6,325,143.7,324.6,143.7,324.2 M140.7,314c0.4,0.6,0.8,1.2,0.9,1.9c0.1,0.4,0.1,0.8,0.2,1.2c0.2,1.2,0.3,2.3,0.5,3.4
				c0.1,0.5,0.1,1,0.1,1.5h-0.1c0.1,0.5,0.1,1.1,0.1,1.6v3.4c0,1,0.3,1.2,1.2,1.1c0.9-0.1,1.9-0.1,2.9-0.1c0.4,0,0.8,0.3,0.8,0.7
				c0.1,0.4,0.1,0.8,0.2,1.2c0.2,1.5,0.3,3,0.3,4.5c0,1.1-0.1,2.2-0.2,3.2c0,0.8,0.1,1.6,0.1,2.3c0,0.5-0.4,0.9-0.9,1
				c-1.6,0.2-3.2,0.3-4.7,0.6l-5,0.7c-0.9,0.1-1.8,0.1-2.7,0.2c-0.4,0.1-0.7-0.1-0.8-0.5c0,0,0-0.1,0-0.1c-0.2-1.1-0.4-2.1-0.6-3.2
				c-0.3-1.8-0.7-3.7-0.9-5.5c-0.1-1-0.2-2-0.3-3c0-0.3,0.1-0.6,0.4-0.6c0,0,0,0,0.1,0c1-0.1,2.1-0.2,3.1-0.3
				c1.2-0.2,2.3-0.3,3.4-0.5c0.3-0.1,0.7-0.1,1.1-0.1c0.6,0,0.8-0.3,0.8-0.8c0.1-1.5,0-2.9-0.2-4.4c-0.4-1.8-0.6-3.6-0.5-5.4
				c0.1-1,0-2-0.1-2.9c-0.1-0.4-0.6-0.8-1-1.2c-0.3-0.2-0.6-0.4-0.9-0.6c-0.1-0.1-0.1-0.3-0.1-0.4c0.1,0,0.2-0.1,0.3,0
				C139.1,313,139.9,313.4,140.7,314 M164.9,242.9c1.1-0.1,9.3-0.3,11.9-0.4c1.2-0.1,2.5,0.1,3.7,0c1.7-0.1,3.5-0.2,5.2-0.2h4.1
				c0.6,0,1.2-0.1,1.8-0.1c2.2-0.1,4.3-0.1,6.4-0.3c3-0.3,6-0.3,9-0.2c2.7,0.1,5.3-0.1,8-0.1c2.5-0.1,5.1-0.2,7.6-0.2
				c3.2,0.1,6.3,0.2,9.5,0.3h1.2c0.1,0,0.2,0.1,0.3,0.2c-0.1,0.1-0.2,0.2-0.3,0.3c-0.8,0.4-1.7,0.7-2.6,0.8c-2.3,0-4.6,0.3-7,0.5
				c-0.8,0.1-1.6,0.1-2.3,0.1c-2.4,0.1-4.8,0.1-7.2,0.1c-2.1,0-4.2-0.1-6.2-0.1c-2.1,0.1-4.3,0.2-6.4,0.3c-1.2,0.1-2.5,0.1-3.7,0.1
				l-9.9,0.2c-1.9,0.1-3.8,0.1-5.7,0.1c-1.7,0.1-3.5,0.1-5.2,0.1c-1.6,0-9.8,0.3-12.2,0.6c-0.6,0.1-3.2,0.2-3.1,0.2
				C162.1,244.8,163.8,243,164.9,242.9 M227.8,280.3c-0.1,2.4-0.3,4.8-0.4,7.3c-0.1,2.1-0.1,4.2-0.2,6.3c-0.1,1.6-0.3,3.2-0.3,4.8
				c-0.1,1.2,0,2.4,0.1,3.6c0.1,2,0.1,4,0.2,6c0.1,1.8,0.1,3.7,0.2,5.6c0.1,0.7-0.2,1.1-0.9,1.1c-1.8,0.2-3.7,0.4-5.6,0.5
				c-2.4,0.2-5,0.2-7.4,0.3c-1.9,0.1-3.8,0.1-5.7,0.2c-0.7,0.1-1.4-0.1-2.1-0.1c-0.7,0.1-1.4,0.3-2.1,0.3c-2.4,0.3-4.9,0.5-7.3,0.4
				c-2.2-0.1-4.4,0-6.6,0.1s-4.4,0-6.6,0.1c-2.3,0.1-4.7,0.3-7,0.4c-1.8,0.1-3.6,0-5.3,0c-0.7,0-1.3,0.2-2,0.2c-1.9,0-4-0.1-5.9-0.1
				c-1.1-0.1-2.2-0.1-3.3-0.3c-0.3-0.1-0.6-0.3-0.8-0.7c-0.2-0.4-0.2-0.8-0.2-1.3v-6.2c-0.1,0,0.2-7.8,0.3-11.7l0.3-8.3
				c0.1-1.8,0.1-3.7,0.1-5.5c0-3,0.1-6.1,0.1-9.1v-0.4c0.2-2.5,0.2-5,0.2-7.5c0.1-3.6-0.1-7.1,0-10.6c0.1-3,0.3-6,0.3-9
				c0-0.7,0.4-0.8,0.9-0.8c1.1-0.1,2.2-0.2,3.3-0.2c2.6-0.1,5.1-0.3,7.7-0.3c1.7-0.1,3.4,0,5.1,0c1.6,0,3.3-0.1,4.9-0.1
				c2.8-0.1,5.6-0.1,8.4-0.2c3.4-0.1,7-0.1,10.5-0.2c2.6-0.1,5.2-0.2,7.8-0.3c1.3,0,2.7,0.1,4,0.1c2.7,0,5.5,0,8.2-0.1
				c1.8,0,3.7-0.1,5.6-0.2c1.1,0,2.1,0.1,3.2,0.1c0.6,0,0.9,0.2,0.8,0.9c-0.1,1.9-0.2,3.9-0.3,5.9c-0.2,2.2-0.3,4.3-0.5,6.5
				c-0.2,2.2-0.5,4.3-0.7,6.5c-0.1,1.1-0.1,2.3-0.1,3.4c-0.1,0.9-0.1,1.8-0.1,2.7C228,273.7,227.9,277,227.8,280.3 M233.6,251.7
				c-0.1,1-0.1,1.9-0.1,2.9c-0.1,2.2-0.1,4.4-0.1,6.6c0,2,0.1,4,0.1,6c0,0.8-0.1,1.7-0.1,2.5c0,0.1-0.1,0.2-0.1,0.3
				c-0.1,0-0.2-0.1-0.3-0.2c-0.1-0.2-0.2-0.6-0.4-0.7c-0.2-0.2-1.7-0.5-1.2,0.6c0.6,1.3,1.1,2.7,1.6,4c0.2,0.4,0.3,0.8,0.3,1.3
				c-0.1,1.7-0.3,3.4-0.4,5.1c-0.3,3.8-0.6,7.5-0.8,11.3c-0.2,2.5-0.1,5.1-0.2,7.6c-0.1,2.5-0.2,5.1-0.4,7.6
				c-0.1,0.8-0.3,1.6-0.3,2.3c-0.1,0.7,0,1.4-0.1,2.1c0,0.7-0.1,1.3-0.3,1.9c-0.1,0.3-0.4,0.6-0.7,0.8c-0.4,0.2-0.8,0.4-1.2,0.6
				c-0.1-0.4-0.1-0.9-0.2-1.3c-0.1-1.9-0.2-3.8-0.3-5.7c-0.1-2.7-0.2-5.5-0.2-8.2c0.1-4.1,0.3-8.2,0.5-12.2c0.1-2.4,0.4-4.8,0.5-7.3
				c0.2-2.7,0.2-5.4,0.3-8.1c0.1-0.8,0.1-1.6,0-2.3c0.2-2.3,0.4-4.7,0.6-7c0.2-2.3,0.3-4.6,0.5-6.9c0.2-3.3,0.5-6.5,0.7-9.7
				c0-0.9,1.9-2,2.5-2.3C234.2,242.6,233.8,249.4,233.6,251.7 M247.1,310.6c-1-0.4-2-0.7-2.9-1.1c-1-0.3-2-0.8-2.9-1.3
				c-0.6-0.4-0.2-3.8,0.1-5c0.1-0.1,0.4-0.2,0.6-0.2c0.9,0.3,1.9,0.7,2.8,1.1c0.2,0.1,0.4,0.3,0.6,0.6c0.6,1.2,1.1,2.4,1.6,3.7
				c0.3,0.6,0.5,1.2,0.7,1.8C247.6,310.6,247.5,310.8,247.1,310.6 M256.9,332.6c0,0.2-0.8,0.2-0.8,0c-0.1-0.6-0.1-1.7-0.1-1.7
				c0.1-1.2,0.1-2.3,0.2-3.5c0-0.2,0.2-0.4,0.3-0.6c0.2,0.2,0.4,0.4,0.4,0.6C257,329.1,257,330.9,256.9,332.6 M257.9,324.8
				c-0.1,0.3-0.3,0.5-0.6,0.7c-0.2,0.1-0.4,0-0.7,0.1c-0.5-0.1-1-0.1-1.4-0.2c-0.5,0-0.6-0.3-0.7-0.7c-0.1-0.6,0.1-0.8,0.7-0.8
				c0.7,0.1,1.5,0.2,2.2,0.2C257.8,324.2,258,324.5,257.9,324.8 M259.7,315.2c-0.1,0.3-0.1,0.7-0.1,1.1c-0.1,1.8-0.1,3.6-0.2,5.4
				c0,0.2-0.1,0.4-0.1,0.7c-0.1,0.6-0.4,0.8-0.9,0.8c-0.9-0.1-1.9-0.1-2.8-0.1c-0.6-0.1-1.2-0.1-1.7-0.1c-1-0.1-1.4-0.4-1.4-1.4
				c0-0.7,0.2-5.9,0.4-7.6c0.1-0.8-0.2-1.4-0.9-1.5c-1.8-0.3-2.7-1.4-3.2-3c-0.4-1.2-1-2.3-1.5-3.4c-0.1-0.2-0.1-0.5-0.1-0.7
				c0.2,0,0.5,0,0.7,0.1c1.6,0.8,3.2,1.6,4.9,2.2c2.1,0.8,4.2,1.5,6.4,2.2c0.6,0.2,1,0.4,0.9,1.2
				C259.9,312.3,259.8,313.7,259.7,315.2"/>
			<path id="Pfad_445" class="st4" d="M180.3,264.7c0.1-0.5-0.3-1-0.9-1.1c0,0,0,0,0,0c-0.6,0-1.1,0.5-1.1,1.2c0,0.5,0.4,0.9,0.9,1
				C179.8,265.8,180.3,265.4,180.3,264.7C180.3,264.7,180.3,264.7,180.3,264.7"/>
			<path id="Pfad_446" class="st4" d="M206.8,265.5c0.5-0.1,0.8-0.5,0.8-1c0-0.6-0.4-1.1-0.9-1.2c-0.5,0-1,0.5-0.9,1.1
				C205.8,265,206.2,265.4,206.8,265.5"/>
			<path id="Pfad_447" class="st4" d="M210.4,278.8c-0.6,0.2-0.5,0.6-0.4,1.1c0,0.4,0.1,0.7,0.1,1.1c0,0.4-0.1,0.7-0.7,0.7
				c-2,0.1-3.9,0.2-6,0.3c-2.1,0.1-4.3,0.1-6.4,0.2c-1.6,0.1-3.2,0.1-4.7,0.1c-3.2-0.2-6.4-0.4-9.6-0.6c-0.9,0-1.7-0.6-1.7-1.5
				c0,0,0,0,0-0.1c-0.1-0.2,0-0.4-0.1-0.7c-0.1-0.4-0.3-0.7-0.8-0.6c-0.4,0.1-0.5,0.4-0.4,0.8c0.1,0.7,0.2,1.5,0.2,2.2
				c0,0.9,0.2,1.2,1.1,1.1c1.4-0.1,2.8-0.2,4.2-0.1c2.7,0.1,5.3,0.2,7.9,0.3c1.7,0,3.4,0.1,5.1,0c2.2-0.1,4.5-0.2,6.7-0.2
				c1.7-0.1,3.5-0.2,5.3-0.1c1.4,0,1.5-0.1,1.5-1.4c-0.1-0.6-0.2-1.2-0.4-1.8C211.1,279.2,211,278.7,210.4,278.8"/>
			<path id="Pfad_448" class="st4" d="M110.4,198.7c-0.9-0.1-2.2,1.6-3.5,2.6c-0.3-2.1-0.5-4-0.8-5.9c-0.1-0.6-0.3-1.2-1-1.1
				s-0.5,0.7-0.4,1.3c0.3,1.7,0.5,3.5,0.8,5.5c-1-0.4-1.7-0.7-2.4-1c-0.4-0.2-0.9-0.1-1.2,0.3c-0.3,0.4,0,0.8,0.3,1.1
				c1.2,0.7,2.6,1.4,3.9,1.8c1.4,0.7,4.8-3.2,4.8-3.2S111.3,198.8,110.4,198.7"/>
			<path id="Pfad_449" class="st4" d="M116.9,204.8c2.8-4,1.9-9.4-2-12.3c-2.6-1.8-5.8-2.6-9-2.3c-0.1-1.1-1-8.1-1.4-8.7
				s-1.1-0.7-2.8-1s-2.6-0.8-3.6-0.4c-1.8,0.7-3.1,1.1-5,1.8c-0.5-2.1-0.8-4.3-0.8-6.5c0-1.3-0.4-1.7-1.8-1.6
				c-2.8,0.3-5.7,1.1-8.3-0.8c-0.4-0.3-0.7-0.1-1,0.1c-2.5,1.6-4.9,3.1-7.4,4.7c-3.4,2.2-7.9,5.4-10.1,6.4s-2.9,1.6-4.4,2.1
				c-4,1.5-4.5,2-4,4.9c1.9,11.5,3.7,22.1,6.3,33.5c0.2,0.8,0.3,1.9,1.6,2.2c2.9,0.6,6-0.1,8.4-1.9c0.7,0.7,3.1,1.5,6.4,1.3
				c2.2-0.2,4.4-0.7,6.6-1.3c0,0,0.1,0.8,1.4,1.1c1.3,0.2,2.7,0.1,4-0.2c4.7-1.9,9.5-3.5,14.3-5.2c3.2-1.1,4.3-0.9,4.2-2.9
				c0-0.7-0.5-2.2-0.7-3.3c-0.2-1.2-0.7-4.2-0.7-4.2C111.1,210,114.6,208,116.9,204.8 M98.3,180.8c1.6-0.5,5.4,1.4,5.4,1.4
				s-4.7,2.2-6.9,2.9c-3.5,1.2-6.7,3.2-9.9,4.9c-1.8,0.9-4.8-0.8-4.5-1C87.3,185.7,92.7,182.9,98.3,180.8 M90.9,175.8
				c0.4,2.2,0.7,4.1,1,5.9c0.1,0.5,0,0.8-1.4,1.5s-5.7,3.5-8.2,4.8c-1.1,0.5-1.4,0.1-1.6-0.8c-0.1-0.6-0.2-1.3-0.3-1.9
				c-0.3-2.2-0.7-3,1.7-4.1C84.9,180.1,88,177.5,90.9,175.8 M86.8,175.5c0.8,0.1,1.7,0.1,2.5,0c-2.5,1.5-9.8,6.1-9.8,6.1
				s-1.4,0.6-1.5,0.4c1.7-1.4,3.5-2.6,5.5-3.7C84.7,177.5,85.8,176.5,86.8,175.5 M85.8,175.6c-3.2,2.2-9.4,6.5-9.4,6.5
				c-1,0.2-2.1,0.4-3.2,0.4c3.1-2.6,7.8-5.2,10.9-7C84.7,175.1,85.5,175.8,85.8,175.6 M76.3,177.4c1.4-0.9,3.7-2.2,5.1-3.1
				c0.8-0.5,2.1,0.7,2.1,0.7l-12.7,7.6c0,0-1.9,0.1-2-0.1C70.9,180.9,74,178.9,76.3,177.4 M65.9,185.2c0.1,1.6,0.3,2-0.4,2.1
				s-8.3,1-8.3,1S63.7,185.9,65.9,185.2 M68.4,225.4c-3.4,1-5.2,0.9-6-3.1c-2.1-10.6-4.4-21.1-5.9-31.8c-0.1-0.6-0.1-1.1,0.6-1.2
				c3.1-0.4,6.1-0.7,9.2-1c1,7,1.9,13.8,2.9,20.7c0.6,4.3,1.3,8.7,1.8,13C71.1,223.6,70,225,68.4,225.4 M83.6,223.9
				c-3.2,0.9-6.5,1.2-9.8,0.9c-0.8-0.1-1.4-0.8-1.4-1.6c-1.2-8.9-2.2-17.9-3.6-26.8c-0.7-4.3-1.1-8.6-1.5-12.6
				c3.5,0.1,7-0.1,10.4-0.7c1.8,0,1.7,1.2,1.8,2.1c0.5,10.1,1.5,20.1,2.9,30.1c0.3,2.5,1.1,4.9,1.7,7.3
				C84.2,223.3,84.3,223.8,83.6,223.9 M89.1,225c-1.2,0-3,0-3.4-1.4c-1-3.4-1.7-6.8-2.2-10.2c-0.5-4.2-1-8.3-1.5-12.5
				c-0.4-3.6-0.6-7.1-0.9-10.6c4.4,0.3,4.4,3.5,4.6,6.6c0.6,6.8,1.6,13.6,3,20.3c0.4,2,1.1,4,1.4,6C90.3,223.9,90.7,224.7,89.1,225
				 M107.2,217.6c0.2,0.9-0.5,1.1-1,1.3c-4.6,1.6-8.5,3.2-13.2,4.5c-1.6,0.4-1.5-0.7-2.1-2.5s-3.2-18.5-4.8-27.7
				c-0.3-1.6,1-2.1,2-2.7c4.8-3.1,10.3-4.8,15.7-6.9c0.5,2.2,0.9,4.4,1.1,6.6c0,0-1.2,0.5-1.8,0.6c-2.3,0.7-4.6,1.5-6.2,3.4
				c-2.8,3.3-2.1,8.3,1.3,11.9c2.9,3.2,7.8,4,7.8,4S106.9,215.7,107.2,217.6 M108.2,208.5c-6.9,0-11.1-3.4-11.7-9
				c-0.3-2.9,0.9-4.9,4.8-6.5c4.2-1.8,8.6-2.4,12.7,0.6c3.4,2.7,4,7.6,1.4,11.1c-0.1,0.1-0.1,0.1-0.2,0.2
				C113.1,207.4,110.3,208.1,108.2,208.5"/>
			<path id="Pfad_450" class="st4" d="M107.2,251.1c-0.5,1.1-0.5,2.3,0.1,3.3c1.3,2,3.9,2.7,6,1.4c0.2-0.1,0.4-0.3,0.6-0.5
				c1.8-1.8,1.8-4.8,0-6.7c-0.2-0.2-0.4-0.4-0.6-0.5C110.8,246.5,107.2,248.1,107.2,251.1"/>
			<path id="Pfad_451" class="st4" d="M76.1,253.5c-2.2,0.8-3.7,2.7-4.1,5c-0.7,1.4-0.8,3-0.3,4.5c1.2,3.6,5.4,5.2,8.9,4
				c3.5-1.3,5.4-5.2,4.3-8.8c-1.1-3.7-5-5.8-8.7-4.7C76.3,253.5,76.2,253.5,76.1,253.5"/>
			<path id="Pfad_452" class="st4" d="M96.5,266.4c0.2-0.5,0.1-1-0.1-1.4c-0.3-0.5-0.9-0.8-1.5-0.6c-0.4,0.1-0.8,0.5-1,0.9
				c-0.5,0.6-0.6,1.4-0.2,2.1c0.3,0.4,0.8,0.7,1.3,0.5c0.5-0.1,1-0.5,1.3-1c0-0.1,0.1-0.1,0.1-0.2C96.5,266.4,96.5,266.3,96.5,266.4
				C96.4,266.6,96.4,266.6,96.5,266.4"/>
			<path id="Pfad_453" class="st4" d="M120.3,86.3L120.3,86.3c2.5,8.8,9,15,18.5,11.6c7.4-2.7,14.4-10.2,15.7-18.2
				c3.8-2.7,6.7-7.6,8.6-11.5c1.5-3.1,5.5-11.2,0.8-13.4c-0.5-0.2-2.1,0.5-1.4,0.8c4,1.8,0.6,8.9-0.6,11.6
				c-1.7,3.7-4.1,7.9-7.2,10.7c0-0.4,0-0.9,0-1.3c0-4.4-2.2-8.4-5.7-10.9c-1.9-1.2-4.5-2.1-5.9,0.1c-2.1,3.3-0.4,9.8,1.7,12.7
				c1.6,2.6,5,3.6,7.8,2.3c-1.3,4.9-4.1,9.3-8,12.6c-4.4,3.7-10.6,6.3-16,3c-3.7-2.3-5.4-6.5-6.6-10.5
				C121.8,85.2,120.1,85.7,120.3,86.3 M144.1,69.5c0-1.8-0.3-2.3,1.3-3.1c1.6-0.8,2.4,0.1,3.6,1.2c1.4,1.3,2.4,2.9,3,4.7
				c0.8,2.2,1.1,4.6,0.7,7C146.8,82.8,144.1,74.2,144.1,69.5"/>
			<path id="Pfad_454" class="st4" d="M53.2,65.5c3.9,0.6,7.7,1.4,11.5,2.4c1.3,0.3,2.7,0.5,4.1,0.6c1,0.2,2,0.4,3.1,0.3
				c0.1,0,0.2-0.1,0.2-0.1c0,0,0,0,0,0c-0.4,0.6,0.1,1.8,0.3,2.4c0.3,1.6,0.6,3.2,0.8,4.8c0.3,1.7,0.3,3.6,0.4,5.5
				c0,0.6,0,1.3,0,1.9c0,0-0.1,0.1,0,0.1l0,0.3c0,1.7,0.2,3.3,0.6,5c0.1,0.3,0.6-0.1,0.7-0.2c0.2-0.3,0.4-0.5,0.5-0.8
				c2.5-2.7,5.7-4.8,7.9-7.7c1.6,1.6,3,3.5,4.5,5c0.9,0.9,3.4,4.3,5.1,3.7c1.4-0.5,2.3-3.3,3-4.5c2.1-3.6,4.9-6.6,7.5-9.9
				c4.3-5.8,8.2-12,11.6-18.4c1.8-3.2,3.6-6.4,5.4-9.6c0.9-1.5,1.7-3.1,2.5-4.7c0.4-0.7,0.7-1.8,1.1-2.8c0.6-0.7,1.1-1.5,1.6-2.3
				c0.2-0.3-0.1-0.4-0.3-0.3c-0.1,0-0.1,0.1-0.2,0.1c0-0.1,0-0.2-0.2-0.2l0,0c-2.9,0.7-5.5,2.3-8.3,3.5c-3.2,1.5-6.7,2.6-10,3.9
				C99.8,46.1,93,48.6,86.1,51c-6.7,2.3-13.5,4.6-20.1,7.3c-2.7,0.9-5.4,2.1-8,3.5c-1.6,0.9-3.7,2-4.9,3.4
				C53.1,65.2,52.9,65.5,53.2,65.5 M123.5,38.6L123.5,38.6c-0.6,0.7-1.5,1.4-1.8,1.8c-1.7,1.7-3.6,3.1-5.3,4.8
				c-3.9,3.9-8.3,7.2-12.4,10.9c-3.7,3.4-7.5,6.7-11.2,10.1c-2.1,2-4.4,3.7-6.5,5.7c-1.8,1.6-3.9,3-5.7,4.8c0,0,0,0-0.1,0
				c-0.2-0.1-0.6,0.2-0.7,0.5c0,0.1,0,0.2,0,0.2s0,0.1,0.1,0.1c-1,1.2-1.8,2.6-2.4,4c-0.7,1.4-1.5,2.8-2.2,4.2
				c-0.1-0.5-0.5-3.2-0.9-6.2c0-0.7,0-1.3-0.1-2c-0.2-1.7-0.5-3.4-0.8-5.1c-0.2-1.1-0.3-2.5-0.6-3.6c0,0,0-0.1,0-0.1
				c0.2-0.4,2.3-1.2,2.7-1.4c1.8-1.3,3.6-2.6,5.2-4.1c8.7-7.1,18.5-12.6,28.3-17.9c4.5-2.4,9.1-4.5,13.5-7c0,0,0.9-0.5,1.4-0.8
				C123.8,37.7,123.7,38.2,123.5,38.6 M76.4,85.9c0-0.1-0.3-0.1-0.5,0c0.2-0.7,0.4-1.4,0.6-1.7c0.6-1.2,1.3-2.3,1.9-3.5
				c0.5-1.1,1.2-2.2,2.1-3.1c0.9,0.6,1.7,1.2,2.5,2c-0.1,0-0.2,0.1-0.2,0.2C81.1,82.1,78.6,83.9,76.4,85.9 M121.3,43.2
				c-1.4,2.8-3.1,5.4-4.6,8.2c-3.4,6.6-7.2,13-11.3,19.1C101.6,76,97,80.8,93.8,86.6c-0.2,0.5-0.5,1.3-1.2,1.4
				c-0.6,0-1.8-1.4-2.3-1.9c-1.2-1.1-2.3-2.3-3.4-3.5c-1.7-1.9-3.5-4.2-5.7-5.6c1.2-1.2,2.6-2.3,4.1-3.6c4.4-3.9,9.1-7.6,13.5-11.7
				c4.9-4.6,10.1-8.9,15.2-13.4c2.3-2,4.4-4.2,6.6-6.3c0.9-0.8,1.7-1.6,2.5-2.5C122.5,40.8,121.9,42,121.3,43.2 M54.8,64.4
				c0.2-0.3,0.8-0.5,1.1-0.7c6.7-4.4,14.9-6.6,22.4-9.4c7.5-2.8,15.2-5.4,22.7-8.2c4-1.5,7.9-3,11.9-4.6c3.6-1.4,7.1-3.6,10.8-4.7
				c-2.7,1.4-5.2,3.1-8,4.4c-3.1,1.5-6.2,3.1-9.2,4.8c-6.5,3.6-12.9,7.3-19.1,11.5c-3.1,2.1-6,4.5-8.9,6.9C76.8,65.8,75,67,73,68.1
				c-0.1,0.1-0.2,0.1-0.3,0.2c0,0,0-0.1,0-0.1c0-0.1-0.1-0.1-0.1-0.1h-0.2c-0.2,0-0.3,0.1-0.4,0.2c-1.7,0-3.3-0.2-4.9-0.6
				c-2-0.4-4-0.9-6-1.5c-1.5-0.4-3-0.7-4.6-0.9C55.6,65.1,54.2,65.4,54.8,64.4"/>
			<path id="Pfad_455" class="st4" d="M81.9,279.5c1-0.5,1.5-1.7,1.2-2.8c-0.2-0.5-0.6-1-1.1-1.2c-0.3-0.2-0.7-0.4-1.1-0.4
				c-0.5,0-0.9,0.1-1.3,0.4c-0.3-0.1-0.6,0-0.8,0.1c-1.1,0.8-1.4,2.3-0.6,3.5c0.8,1.1,2.3,1.4,3.4,0.7
				C81.7,279.7,81.8,279.6,81.9,279.5"/>
			<path id="Pfad_456" class="st4" d="M73.7,331.7c0-0.6-0.5-1.1-1.1-1.1c-0.6-0.1-1.2-0.3-1.7-0.6c0,0-0.2-11.3-0.2-16.2
				c0-0.9-0.2-1.5-1.2-1.5c-2.3-0.1-10.2-0.8-11.8-0.9c-1-0.1-1.9,0.1-2.9,0.4c-3.4,1.2-6.7,2.7-10.1,3.7c-2.2,0.6-2.1,0.9-2.2,1.8
				s0.5,16,0.6,17.7c0.1,1.7,0.8,1.4,2.3,1.5c1.5,0.1,6.3,0.3,6.3,0.3s-0.2,8,0.2,11.8c0.1,0.6,0.3,1,1,1c3.3-0.2,9.8-0.1,11.2-0.3
				c1.1,0,2.2-0.3,3.1-0.9c1.3-0.7,3.5-1.7,5.5-2.7c1-0.5,1.9-0.7,1.8-2.2C74.1,339.6,73.9,335.7,73.7,331.7
				C73.7,331.8,73.7,331.7,73.7,331.7 M69.4,329.5c0,0,0,0.1,0,0.1c0,0.3-0.3,0.4-0.6,0.4c-0.2,0-0.3,0-0.5,0
				c-1.6-0.2-3.1-0.5-4.6-0.8c0,0-0.2-2-0.3-4.3c-0.1-2.2-0.1-4.4-0.2-6.5c-0.1-0.6,0.2-1.2,0.7-1.5c1.8-0.7,3.6-1.4,5.6-2.1
				C69.5,319.8,69.5,324.7,69.4,329.5 M56.3,312.7l13,0.6c0,0-6.7,3.4-7.8,3.4s-16-0.3-16-0.3L56.3,312.7z M52.4,333.7
				c-0.3,0.3-0.5,0.8-0.5,1.2l-7.5-0.3c0,0-1-11.6-0.7-15.7c0.1-1.2,0.3-1.5,1.7-1.6c5.1-0.3,10.2,0.4,15.3,0.6
				c0.9,0,1.2,0.3,1.2,1.2c0,2.9,0,5.8,0.2,8.7c0,0.6,0,1.5,0,1.5S54,332.1,52.4,333.7 M62.6,347.9
				C62.4,347.9,62.4,347.9,62.6,347.9 M62.6,347.9c-0.6,0-6.8-0.1-8,0c-1.3,0.1-1.6-0.6-1.6-1.6c0-3.2,0.1-6.3,0.2-9.5
				c0-0.4,0-1.1,0.6-0.9c2.9-0.1,5.9,0,8.8,0.5c0.6,0.1,0.8,0.3,0.8,0.9c0.2,3,0.4,6.6,0.5,9.6C64,347.6,63.1,347.8,62.6,347.9
				 M54,334.2c2.3-1.6,7.6-3.7,8.9-3.7s8.3,0.9,8.3,0.9l-6.8,3.6C64.4,334.9,55.8,334.4,54,334.2 M65.6,347.6
				c-0.5-2.1-0.8-9.1-0.8-9.7c-0.1-1.4,0.3-1.5,1.4-2.4c2-1.2,4.1-2.4,6.3-3.3c0.6,2.1,0.7,11.3,0.7,11.3S66.3,347.4,65.6,347.6"/>
			<path id="Pfad_457" class="st4" d="M57.3,282.1c1,1.6,3.2,1.6,4.8,0.9c1.8-0.8,2.9-2.7,2.7-4.6c-0.2-1.8-1.5-3.3-3.2-3.8
				c-1.8-0.4-3.7,0.4-4.6,2.1c-0.5,1.1-0.5,2.4,0,3.5C56.9,280.8,57,281.5,57.3,282.1"/>
			<path id="Pfad_458" class="st4" d="M43.6,176.5c0.1,0.1,0.2,0.2,0.2,0.2c0.1,0.1,0.1,0.2,0.1,0.3c0,0.2,0,0.4-0.1,0.5l-0.1,0.6
				c-0.1,0.3-0.1,0.6-0.2,0.9c-0.2,0.5-0.5,0.7-0.5,0.9c0,0.1,0.2,0.1,0.4,0.1c0.3-0.1,0.6-0.2,0.8-0.4c0.3-0.3,0.5-0.6,0.7-1
				c0.1-0.2,0.2-0.4,0.3-0.6c0.1-0.2,0.2-0.5,0.2-0.7c0.1-0.3,0.1-0.7,0-1.1c-0.1-0.3-0.2-0.7-0.5-0.9c-0.4-0.5-0.9-0.9-1.4-1.1
				c-0.9-0.4-1.9-0.4-2.8-0.1c-0.4,0.1-0.8,0.4-1.1,0.7c-0.4,0.3-0.7,0.8-0.9,1.2c-0.3,0.5-0.4,1.1-0.4,1.7c0,0.6,0.1,1.2,0.4,1.7
				c0.3,0.5,0.6,0.9,1.1,1.2c0.4,0.2,0.9,0.4,1.3,0.3c0.3,0,0.6-0.1,0.9-0.3c0.2-0.1,0.2-0.3,0.2-0.3c-0.1-0.2-0.5-0.1-1-0.4
				c-0.3-0.1-0.5-0.3-0.7-0.5c-0.2-0.2-0.3-0.5-0.4-0.8c-0.2-0.6,0-1.3,0.3-1.8c0.2-0.4,0.6-0.6,1-0.8l0,0c0.4-0.2,0.9-0.2,1.3-0.1
				C43.2,176.2,43.4,176.4,43.6,176.5"/>
			<path id="Pfad_459" class="st4" d="M38.9,161.4c-0.1-0.1-0.2,0-0.4,0c-0.2,0-0.4-0.1-0.6-0.2c-0.2-0.2-0.4-0.4-0.5-0.6
				c-0.2-0.3-0.4-0.6-0.5-0.9c-0.1-0.2-0.1-0.3-0.2-0.5s0-0.2,0-0.2c0-0.1,0.1-0.2,0.2-0.3c0.1-0.1,0.2-0.3,0.2-0.4
				c0.3-0.4,0.6-0.6,1.1-0.8c0.2-0.1,0.3-0.1,0.5-0.1c0.2,0,0.5,0,0.7,0.1c0.2,0.1,0.4,0.2,0.6,0.4c0.2,0.2,0.3,0.5,0.3,0.8
				c0,0.3,0.1,0.7,0,1c0,0.3-0.1,0.6-0.2,0.8c-0.1,0.2-0.2,0.4-0.3,0.5c-0.1,0.1-0.2,0.2-0.2,0.3c0,0.1,0.1,0.2,0.4,0.2
				c0.3,0,0.6-0.2,0.9-0.4c0.3-0.3,0.5-0.6,0.7-1c0.2-0.4,0.3-0.9,0.4-1.4c0.1-1.3-0.6-2.4-1.7-3c-0.5-0.2-1-0.4-1.5-0.4
				c-0.4,0-0.9,0.1-1.3,0.2c-0.9,0.3-1.6,1-2,1.8c-0.1,0.2-0.2,0.5-0.3,0.7c-0.1,0.3-0.2,0.6-0.2,0.9c0,0.2,0,0.4,0.1,0.6
				c0,0.2,0.1,0.3,0.2,0.5c0.1,0.2,0.3,0.4,0.4,0.6c0.3,0.4,0.6,0.7,1,1c0.4,0.3,0.8,0.5,1.3,0.6c0.4,0,0.7-0.1,1-0.3
				C39,161.6,39,161.4,38.9,161.4"/>
			<path id="Pfad_460" class="st4" d="M43.9,137.6c0.2,0,0.3-0.4,0.5-0.8c0.2-0.5,0.5-0.9,0.9-1.3c0.2-0.2,0.4-0.3,0.7-0.4
				c0.2-0.1,0.3,0,0.5,0c0.2,0.1,0.4,0.1,0.6,0.3c0.1,0.1,0.3,0.2,0.4,0.3l0,0c0.1,0.1,0.2,0.2,0.3,0.3c0.1,0.1,0.1,0.1,0.1,0.2
				c0,0.2-0.1,0.4-0.2,0.6c-0.2,0.3-0.4,0.5-0.6,0.7c-0.3,0.4-0.8,0.7-1.3,0.8c-0.4,0.1-0.8,0.1-0.9,0.3c0,0.1,0,0.2,0.1,0.3
				c0.2,0.2,0.4,0.3,0.7,0.3c0.4,0.1,0.7,0.1,1.1,0c0.4-0.1,0.8-0.3,1.2-0.5c0.2-0.1,0.4-0.2,0.5-0.4c0.2-0.1,0.3-0.3,0.5-0.4
				c0.4-0.4,0.6-0.8,0.8-1.4c0.1-0.3,0.1-0.6,0-0.9c0-0.3-0.1-0.5-0.2-0.7c-0.2-0.3-0.4-0.6-0.7-0.9c-0.3-0.2-0.5-0.4-0.9-0.6
				c-0.4-0.2-0.8-0.3-1.2-0.4c-0.3,0-0.6,0-0.8,0c-0.3,0.1-0.5,0.2-0.8,0.3c-0.4,0.3-0.8,0.6-1.1,1c-0.5,0.6-0.7,1.4-0.6,2.2
				C43.5,137.4,43.7,137.7,43.9,137.6"/>
			<path id="Pfad_461" class="st4" d="M17.9,277h-0.6c-0.7,0.1-0.8,0.2-0.9,0.9v0.9c0,0.4,0.2,0.7,0.6,0.7c0.6,0.1,1.3,0.3,1.8-0.2
				c0.1-0.1,0.1-0.2,0.1-0.3c0-0.2,0.1-0.4,0.1-0.6C19,277.2,18.9,277.1,17.9,277"/>
			<path id="Pfad_462" class="st4" d="M307.3,6.4c0.5-0.1,1-0.3,0.9-1L308,1.7c0,0,0-0.1,0-0.1c0-0.5-0.5-0.8-0.9-0.8
				c-0.7,0.1-0.8,0.5-0.8,1V3c0,0,0,1.8,0.1,2.6C306.4,6.1,306.7,6.5,307.3,6.4"/>
			<path id="Pfad_463" class="st4" d="M299.7,383.4c-0.6-0.3-1-0.9-1.1-1.6c-0.1-0.4,0-0.9,0.1-1.3c0.3-0.8-0.3-1.2-0.7-1.6
				c-0.4-0.4-5.3-0.6-6.4-0.9c-1.2-0.3-1.9,0.2-1.8,1.4l0,0c0.1,0.8,0.4,3.8,0.4,4.6c0.1,1.7,0.1,1.6,1.8,2.1c0.6,0.2,1.6,0.1,1.6,1
				c0,1.4,0.9,2.6,2.2,3c1,0.4,3.6,1,5.1,0.2c1.3-0.7,1.6-2.6,1.5-3.7C302,385.2,301,384,299.7,383.4 M299.6,388.2
				c-1.2,0.5-2.6,0.4-3.7-0.3c-0.2-0.2-0.2-0.5-0.2-0.8c0-0.3,0.1-0.5,0.2-0.8c0.3-1.3,0-1.6-1.3-1.6c-0.7,0-1.3-0.1-2-0.2
				c-0.1-0.1-0.4-0.2-0.4-0.3c-0.1-0.9-0.2-1.9-0.2-2.9c0-1,0.2-1.2,1.2-0.9c0.9,0.2,1.9,0.4,2.8,0.6c0.8,0.2,0.6,0.9,0.7,1.4l0,0
				c0.1,0.5,0.1,1.1,0.1,1.6c0.1,0.9,0.3,1.2,1.2,1.2c0.9,0.1,1.7,0.2,2.1,1.2c0,0,0.1,0.1,0.1,0.1
				C300.5,387.2,300.2,387.9,299.6,388.2"/>
			<path id="Pfad_464" class="st4" d="M319.9,3.6c0.1,3.2,2.8,5.7,6,5.6c0,0,0,0,0,0c2.8,0.1,5.4-1.4,6.7-3.9
				c0.7-1.2,1.6-1.3,2.7-1.4c1.5-0.2,3.1-0.2,4.3-1.2c0.9-0.7,1.7-1.5,2.4-2.3c0.1-0.1,0.2-0.3,0.3-0.4h-2.5
				c-1.4,1.1-3.1,1.8-4.9,2.1c-2.2,0.2-4.4-0.3-6.3-1.5c-0.3-0.2-0.5-0.4-0.8-0.6h-2.8c0.6,0.8,1.4,1.6,2.2,2.2
				c1.2,0.7,2.5,1.3,3.9,1.8c-0.2,0.7-0.6,1.3-1,1.9c-1,1-2.4,1-3.7,1.2h-0.7c-1.1,0.1-2.1-0.3-2.9-1c-0.7-0.7-0.9-3.9-0.4-4.7
				c0.6-0.7,1.5-1.2,2.4-1.4h-3.9c-0.2,0.4-0.4,0.7-0.5,1.1C320.1,1.9,319.9,2.8,319.9,3.6"/>
			<path id="Pfad_465" class="st4" d="M314.7,169.5c-0.6-0.1-0.8,0.4-0.9,0.9c-0.3,0.9-0.2,1.3-0.6,1.4c-4.4-0.3-8.8-0.9-13.1-1.9
				c-2.2-0.7-1.6-0.6-1.7-2.9c0-0.2,0-0.5-0.1-0.7c0-0.3-0.3-0.6-0.6-0.6c-0.3,0-0.6,0.2-0.7,0.5c-0.2,0.6-0.3,1.3-0.4,1.9
				c-0.6,2.2-0.2,2.9,2,3.2c3.1,0.4,14.5,2.4,15.6,2.3c1.1-0.1,1.3-2.1,1.4-2.8S315.3,169.6,314.7,169.5"/>
			<path id="Pfad_466" class="st4" d="M292.4,14.6c1.2,0.2,2.4,0.3,3.6,0.6c0.9,0.2,1.4-0.1,1.4-1c0-0.8-0.4-1.3-1.3-1.4
				c-1.1-0.1-2.3-0.2-3.4-0.3c-0.8-0.1-1.4,0.2-1.5,0.9C291.1,14.1,291.5,14.5,292.4,14.6"/>
			<path id="Pfad_467" class="st4" d="M378,72.8c2.7,7.1,7.7,14.7,14.5,18.5c2.4,1.3,4.9,2.3,7.5,3v-1.7c-5.2-1.7-9.7-4.9-13.2-9
				c-9.8-11.8-13.1-30-4.6-43.3c4.1-6.4,10.2-12.4,17.7-14.5l0.1,0v-1c-4.9,1.4-9.3,3.9-13.1,7.4C375.6,42.9,372.4,58.2,378,72.8"/>
			<path id="Pfad_468" class="st4" d="M361.8,140.2c-1.7,0.2-2.4,1.1-2,2.8c0.4,1.8,2.2,11.9,2.5,13.6c0.3,2.3,0.3,2.4-1.8,3.3
				c-3.2,1.4-6.6,2.3-10,2.8c-5.3,0.8-10.4,2.6-15.7,3.3c-1.8,0.2-3.6,1-5.5,0.6c0.1-0.5,0.2-0.9,0.3-1.3c1.4-4.8,3.8-12.7,4.3-14.5
				c0.3-1,0.6-2,0.7-3c-0.1-1-0.4-1.9-0.7-2.8c-0.4-1.3-2.1-3.9-3.1-4c-3-0.2-10.1-0.7-12.4-0.7c-4.2,0-8.5-0.2-12.7-0.6
				c-5.4-0.6-17-1.7-18.3-1.9c-1.4-0.2-2.9-0.1-3.4,0.9c-0.5,1-0.8,2.1-1.4,3.1c-2.4,4.5-7.2,14.2-7.2,14.2c-2.8-2-5.5-4.2-8-6.6
				c-2.3-2.5-5-4.7-6.7-7.7c-0.2-0.5-0.8-0.8-1.4-0.6c0,0,0,0-0.1,0c-0.6,0.2-0.8,0.8-0.7,1.3c0,0.1,0.1,0.2,0.1,0.3
				c0.4,0.9,0.9,1.7,1.6,2.4c3.8,3.8,12.9,11.9,13.3,12.3c0.9,0.7,0.5,1.2,0,2.3c-0.8,1.9-1.8,3.6-2.5,5.6c-1,2.8-2.2,5.6-3.4,8.3
				c-0.9,2.1-1,2.1,0.7,3.7c0.8,0.8,1.8,1.4,2.6,2.2c2,1.9,4.5,2.4,7.2,2.6c2.5,0.2,5,0.5,7.5,0.9c1.1,0.2,2.1,0.5,3.5,0.8
				c-2.5,1.9-4.4,4-6.8,5.3c-4.3,2.5-8.4,5.2-12.4,8.2c-0.6,0.3-0.9,1-0.6,1.6c0.1,0.2,0.2,0.3,0.3,0.4c0.8,0.8,1.5,1.7,2.3,2.5
				c0.4,0.4,0.8,1,1.4,0.4s0.3-1.2-0.2-1.7c-0.6-0.5-1.1-1.1-1.5-1.9c3-2.7,6.3-5.1,9.8-7c1.4-0.8,2.8-1.6,4.1-2.6
				c1.6-1.3,3.3-2.6,4.9-4.1c0.6-0.6,1.3-0.9,2.1-1.1l8.8,1.3c0.8,0.5,1.5,1.1,2,1.8c1.9,2.8,3.5,5.8,5.8,8.4
				c2.1,2.4,1.9,3.3-0.4,5.5c-1.1,1.2-2.1,2.5-2.9,3.9c-0.3,0.5-0.6,1.1,0,1.5c1.3,1.1,2.5,2.3,3.5,3.7c0.2,0.4,0.7,0.5,1.1,0.4
				c0.4-0.3,0.5-0.9,0.3-1.3c0,0,0,0,0,0c-0.4-0.8-0.9-1.5-1.5-2.2c-1.3-1.7-1.4-2.2,0-3.8c0.8-1,1.8-1.9,2.7-2.8
				c1.4-1.4,1.5-1.5,0.5-3.3c-0.8-1.5-5.9-8.6-7.1-10.9c0.3-0.2,0.5-0.3,0.6-0.3c4.8,0.6,9.5,1.4,14.2,2.5c1.7,0.4,2.4-2.1,3.1-4.4
				s4.2-12.9,4.4-13.9c0.2-1.1,1-1.1,2.9-1.3c0.3,0,9.7-1.6,18-3.4c4.2-0.9,8.4-2,12.5-3.4c1.7-0.9,1.8-0.8,2.1,1.1
				c0.3,2.1,1.5,7.3,1.8,10.8c0.2,2.6,0.5,3.2,2.7,3.2c0.8-0.2,17.3-2.1,25-2.9c2.4-0.3,4.7-0.6,7-0.8v-2c-2.4,0.3-4.9,0.6-7.3,0.9
				c-3.8,0.5-7.6,0.6-11.4,1.1c-3.9,0.5-7.9,1-11.8,1.5c-2.2,0.3-2.2,0.3-2.7-2c-0.7-2.8-0.8-5.6-1.2-8.4c-0.6-4.4-1.4-8.8-2.3-13.2
				c-0.4-2.2-0.9-4.5-1.3-6.7c-0.2-1.7-0.5-2.3,1.2-2.6c2.6-0.5,16.8-1.5,18.9-1.8c6-0.8,12-1.3,17.9-2.1V136
				c-10.7,1.3-21.4,2.8-32.2,3.6C367.5,139.6,363.6,140,361.8,140.2 M304.2,141.1c5.1,0.5,8.6,0.8,13.7,0.9
				c3.3,0.1,9.3,0.1,12.6,0.6c1.1,0.2,2,2.2,2.3,3.4c-0.1,0.2-2.6-0.2-6.3-0.5c-7.2-0.5-18.4-1.2-21.8-1.5
				c-1.9-0.1-13.1-0.9-14.5-0.9s-2.5-1.5-3.5-3.6C292.6,139.3,298.8,140.5,304.2,141.1 M272.9,178.8c-4.1-3.1-4.3-3-2.3-7.3
				c1.6-3.4,5.2-11.8,5.2-11.8c0.5,0.2,1,0.4,1.4,0.7c0.7,0.5,1.6,1.3,2.3,0.3c0.6-0.9-0.2-1.6-1-2.2c-0.6-0.4-1.2-0.8-1.8-1.3
				c0,0,0.4-1.3,0.7-2c2-4.7,4.8-9,7.3-13.5c2.3,1.6,2.5,2.3,1.6,4.6c-1.5,4.2-3.1,8.4-4.4,12.6c-0.9,2.8-2,5.5-3.3,8.1
				c-2,3.9-3.4,8-5.1,12.1C273.4,179,273.2,179,272.9,178.8 M327.2,166.6c-1.1,4-2.3,8-3.6,11.9c-0.7,2.2-1.7,4.4-2.6,6.6
				c-0.4,1.1-1.3,1.2-2.2,1c-5.8-1.4-11.7-1.7-17.6-2.4c-1.9-0.2-3.7-0.8-5.5-1c-5.8-0.8-11.6-1.6-17.4-2.4
				c-2.9-0.4-2.8-0.4-1.9-3.2c1.8-5.5,4.5-10.6,6.7-16c0.7-1.9,1.3-3.8,2-5.8c1-3,2-6,3.3-8.9c0.5-1,1.5-1.6,2.7-1.7
				c1,0.1,22.6,1.7,31.4,1.9c2.9,0.1,5.8,0.5,8.8,0.8c1.6,0.2,1.7,0.4,1.2,1.9c-1.1,3.4-2,6.9-2.8,10.4
				C328.9,162,327.8,164.2,327.2,166.6"/>
			<path id="Pfad_469" class="st4" d="M9.9,98c1.6,1.5,1.9,3.6,2,5.7c-0.4,0.2-0.6,0.4-0.6,0.7c0,3.5-1.2,9.4,1.6,12.1
				c0,0.1-0.1,0.2,0,0.3l0,0c1,2.5,1.4,4.9,4.2,5.9c2.5,0.8,5.3,0.4,7.8-0.1c4.6-0.9,9.1-4.3,8.9-9.2c0-0.2-0.2-0.3-0.4-0.3
				c1.8-2.4,2.6-5.8-0.1-7.8c-0.5-0.4-1-0.6-1.6-0.9c0.2-0.1,0.3-0.3,0.3-0.5c-1.6-8.8,5.1-14.9,10-21.3c4.9-6.3,7.3-15.2,7.9-23.1
				c0.6-7.2-0.1-14.9-4.4-21c-4.2-5.9-11.5-10-18.1-12.6C18.7,22.5,9,22.2,0,24.8v1c9-2.4,18.4-1.8,27.1,1.6
				c6.3,2.7,13.1,6.6,17,12.4c4.5,6.7,4.8,15.7,3.5,23.4c-0.7,4.2-1.8,8.2-3.4,12.1c-1.6,4.1-4.1,7.3-6.7,10.8
				c-2.1,2.8-4.7,5.1-6.2,8.3c-1.4,2.9-1.9,6.2-1.4,9.4c-1.2-0.3-2.4-0.5-3.7-0.5c-1.5-0.1-3-0.1-4.6,0c-0.7,0.1-1.4,0.2-2.2,0.4
				c0.6-5.4,1.7-10.8,1.2-16.2c-0.4-5.8-1.9-11.4-4.4-16.7c1.4-0.8,2.6-1.9,3.5-3.2c0.8,0.3,1.7,0.5,2.5,0.4c2.5-0.1,7.1-1.7,8-4.3
				c0.1-0.2-0.2-0.4-0.4-0.4l-0.2,0c-0.7-0.1-2.4,0.9-1.3,1.1c-0.9,0.5-1.8,1.1-2.7,1.7c-1.4,0.7-3.1,0.9-4.7,0.5
				c-0.1-0.1-0.2-0.1-0.3-0.2c0.4-0.6,0.7-1.2,1-1.8c1-2.1,2.4-6.8-1.5-6.5c-2.2,0.2-3.3,2.4-3.6,4.4c-0.3,1.7,0.4,3.4,1.8,4.5
				c-0.3,0.4-0.6,0.8-0.9,1.1c-0.6,0.6-1.2,1.2-2,1.6c-1.4-2.7-4.3-7.1-7.6-6.9c-2.5,0.1-3.2,2.9-3,5c0.3,4.2,4.5,5.1,8,4.5
				c0.5-0.1,1-0.2,1.4-0.4c1.9,4,3.1,8.2,3.7,12.6c1,6.8-0.1,13.2-0.8,19.9v0c-1.1,0.3-2.3,0.2-3.4-0.3c-0.1-2.6-0.4-5.3-2.6-7
				c-2-1.5-4.7-2.1-7-2.8c-1.5-0.5-3-1-4.4-1.5v1.7c1,0.3,2.1,0.6,3.1,1C5.1,95.9,8.3,96.6,9.9,98 M18.8,63.2c0-0.4,0.2-3.4,0.8-3.5
				c2-0.4,1.1,2.6,0.9,3.3c-0.3,0.8-0.6,1.5-1,2.3C19.2,64.6,18.9,63.9,18.8,63.2 M7.3,68.1c-0.1-0.3-0.3-3.2,0.3-3.7
				c1.2-1,3,1.5,3.6,2.2c1,1.2,1.9,2.5,2.7,3.9C11.2,71.4,8.2,71.2,7.3,68.1 M20,118.3c-0.2,0-0.4-0.1-0.6-0.1c0.2,0,0.4,0,0.7,0
				C20,118.2,20,118.3,20,118.3 M16.1,118.3c-0.1,0-0.3,0.1-0.4,0.1c-0.1-0.2-0.1-0.4-0.2-0.6c0.4,0.1,0.7,0.2,1.1,0.2
				C16.4,118.1,16.2,118.2,16.1,118.3 M16.3,119.7L16.3,119.7L16.3,119.7L16.3,119.7 M31.5,114.9c0.1-0.1,0.1-0.1,0.2-0.2
				c0,0.1,0,0.2,0,0.3C31.7,115,31.6,115,31.5,114.9 M32,112.4c-0.6,1-1.4,1.8-2.4,2.3c-0.5,0.2-1.1,0.4-1.6,0.7
				c-1.7,0.2-3.3,0.6-4.9,1.2c-0.3,0.1-0.5,0.1-0.7,0.2c-2.5,0.2-6.2,0.3-7.6-1c-0.6-0.6-1-1.3-1.2-2c5.9,2.1,13.2-1.2,19-2.9
				C32.5,111.4,32.3,111.9,32,112.4 M24.1,121.4c0.1-0.1,0.1-0.1,0.2-0.2c0.5-0.1,1-0.2,1.5-0.4c0.1,0,0.2,0,0.3,0
				C25.4,121.1,24.8,121.3,24.1,121.4 M29.6,118.9c0.2-0.3,0.5-0.6,0.7-0.9c0.1,0,0.1,0,0.2-0.1C30.2,118.3,29.9,118.6,29.6,118.9
				 M32.9,109.7c-5.6,1.6-13,5.3-18.6,2.7c-0.3-0.1-0.7-0.1-1,0.1c-0.2-1.2-0.2-2.4-0.2-3.7c6.2,0.5,12.3,0.3,18.2-1.9
				c0.1,0,0.3-0.1,0.4-0.2C32.6,107.4,33,108.5,32.9,109.7 M21.4,104.4c3-0.3,6,0.1,8.8,1.2c0.2,0.1,0.4,0.2,0.6,0.3
				c-0.1,0-0.2,0-0.2,0.1c-5.6,2.1-11.5,2-17.3,1.6c0-0.8,0.1-1.6,0.1-2.3C15.9,106,18.8,104.7,21.4,104.4"/>
			<path id="Pfad_470" class="st4" d="M96,10.1c0.7,1.7,1.7,3.6,4.1,3.5c1.8,0,3.5-0.1,5.3-0.4c2.1-0.4,2.7,0.7,3,2.4
				c0.3,1.7,0.1,3.9,1.1,4.9c1.1,1,24.7-3.1,34.7-4.1c2.6-0.3,2.7-1.3,2.4-3.3c-0.3-1.6-1.7-2.5,0.6-3.2c0.7-0.2,1.9-0.8,0.9-2.3
				c-0.6-0.5-0.9-1.2-0.9-2c-0.2-1.9,0.1-3.8,0.8-5.6h-2c-0.6,2.1-0.8,4.3-0.6,6.5c0.1,0.8-0.6,0.8-1.2,1c-3,0.8-6.1,0.5-9.1,0.9
				c-7.7,0.9-15.4,1.9-23.2,2.6c-3.7,0.4-7.5,0.3-11.2,0.3c-1.4,0-2.5-1-2.7-2.3c11.8-1.3,35.2-2.7,35.1-4s-5-0.1-7.5,0
				c-6.5,0.4-13,0.8-19.5,1.4c-2.7,0.4-5.4,0.3-8.1-0.1C97.3,6.1,97,5.9,97,5.2c0-0.9,0.5-0.9,1.2-0.9c8.2-0.4,16.4-1,24.6-1.4
				c6-0.4,12.1-0.4,18.1,0.2c0.1,0,0.2,0,0.2,0c0.6,0,1-0.4,1-1c0-0.1,0-0.1,0-0.2c-0.1-0.6-0.7-1.1-1.3-1c0,0,0,0,0,0
				c-8.6,0.1-17.2,0.2-25.8,0.5C109.7,1.6,104.4,2.1,99,2C98.6,2,98.2,2,97.6,2c0.1-1.3,0.7-1.8,1.6-2h-3.6
				C94.5,3.3,94.7,6.9,96,10.1 M111.8,12.8c8.3-0.9,16.6-1.9,25-2.8c2.4-0.2,4.9,0,7.4,0c0.8,3.6,0.1,4.3-3.5,4.8
				c-7.4,0.9-14.8,1.9-22.2,2.9c-1.9,0.2-3.9,0.4-5.9,0.5c-2.7,0.1-2-2.3-2.4-3.7C109.9,13.4,110.8,13,111.8,12.8"/>
			<path id="Pfad_471" class="st4" d="M223.3,13.7c0,0,0,0.1,0,0.1c-0.1,1.5,1,2.7,2.4,2.9c0.4,0,0.7-0.1,1.1-0.1
				c1.4-0.1,2.9,0,4.3-0.1c2.3-0.2,2.9,0.2,3.1,2.5c0,0.2,0.1,0.3,0.1,0.5c0.2,2.4,0.4,4.7,0.5,7c0.1,0.7,0.9,1.6,1.4,1.4
				c1-0.6,1.9-1.2,2.8-1.8c0.4-0.3,0.7-0.8,1-1c1.1-0.8,2.3-1.5,3.4-2.3l2-1.5c1.2-0.8,2.4-1.7,3.6-2.5c1.1-0.8,2.1-1.6,3.2-2.3
				c0.5-0.3,1.2-0.6,1.7-0.8c0.4-0.2,0.8-0.3,1.2-0.4c1-0.1,2,0,3-0.1c2.2-0.1,4.5-0.4,6.7-0.5c2-0.1,4.1,0.2,6.1,0.2
				c1.5,0,3-0.2,4.4-0.1c2.8,0.2,5.6,0.4,8.4,0.6c0.6,0,0.9,0.2,0.9,0.9c0.1,1.4,0.2,2.7,0.2,4s0.1,2.7,0.2,4.1c0.1,0.7,0.2,1,1,1
				c2.6,0.1,5.2,0.4,7.8,0.5c2.7,0.1,5.4,0.1,8.1,0.3c2,0.2,4.1,0,6.2,0.1c0.8,0,1.6,0.2,2.3,0.6c1.4,0.8,2.6,1.9,4,2.8
				c1.8,1.3,3.7,2.5,5.5,3.7c0.9,0.6,1.7,1.3,2.5,1.9c0.3,0.3,0.6,0.7,1,0.8c0.5,0.2,1,0.2,1.4,0.1c0.2-0.1,0.4-0.6,0.4-0.9
				c0-1.2,0-2.5-0.1-3.7c-0.1-0.8-0.2-1.7-0.3-2.5c-0.1-0.8-0.1-1.6-0.1-2.4c0-0.2,0.2-0.4,0.4-0.4c1-0.1,2-0.2,3-0.2
				c1.4,0,29.9,0.7,30,0.7h2c1,0.1,1.3-0.2,1.5-1.2c0.1-0.4,0.1-0.9,0.1-1.3c-0.1-1.3-0.4-2.6-0.4-4c-0.1-3-0.1-6,0-9
				c0.1-1.4,0.1-2.7,0.2-4.1c0.1-1.8,0.3-3.5,0.4-5.3c0-0.7,0.1-1.3,0.1-2h-2.1l-0.3,4.1c-0.2,3.1-0.4,6.2-0.5,9.3
				c-0.1,2.9,0.1,5.9,0.2,8.8c0.1,0.3,0.1,0.6,0.1,0.9c0,1.6-0.3,1.9-1.8,1.9c-3.1-0.1-6.2-0.2-9.4-0.2c-2-0.1-4.1-0.1-6.2-0.1
				c-4.5-0.1-8.9-0.1-13.3-0.1c-1.4,0-2.7-0.1-4.1-0.1c-0.5,0-0.9,0.2-1.3,0.4c-1.3,1-0.7,4.5-0.7,5.4c0,0.7,0.1,1.3,0.2,2
				c0,0.2-0.1,0.4-0.1,0.7c-0.2-0.1-0.4-0.2-0.6-0.3c-1.9-1.2-3.9-2.4-5.8-3.6c-1.4-0.9-2.8-2-4.1-3.1c-1.7-1.4-5.4-1.4-6.4-1.4
				c-2.4-0.1-4.8-0.2-7.3-0.3c-1.3-0.1-2.5,0-3.8-0.1c-2-0.1-4-0.2-6.1-0.4c-0.4,0-0.7-0.1-1-0.3c-0.7-0.1-1.2-0.8-1.2-1.5
				c0.1-1.6-0.2-3.3-0.2-4.9c0-1.2,0.3-1.4,1.5-1.6c0.7-0.1,0.7-0.8,0.7-1.3s-0.6-0.9-1.2-0.9c-1.6,0.1-3.4,0.1-5.1,0.1
				c-2.2-0.1-4.4-0.3-6.6-0.3c-1.7,0-3.4,0.1-5.1,0.1c-1.5-0.1-3.1-0.2-4.7-0.2c-1.8,0-3.6,0.1-5.3,0.2c-1.7,0.1-3.5,0.1-5.2,0.3
				c-1.1,0.1-4.7,2-4.9,2.1c-2,1.5-4,2.9-6,4.3c-1.3,0.9-2.6,1.7-3.9,2.5c-1.3,0.8-2.5,1.7-3.7,2.5c-0.1,0.1-0.4-0.1-0.4-0.2
				c-0.3-2.5-0.5-5.1-0.8-7.6c0-0.3,0-2.5-1-2.4c-1.5,0.1-3,0.2-4.5,0.2c-1.6,0-3.2-0.2-4.8-0.3c-0.2-0.1-0.3-0.3-0.4-0.6
				c0-0.8,0-1.5,0.1-2.3c-0.1-3.2-0.3-6.4-0.6-9.5c0-0.7,0-1.5,0-2.2h-1.5c0.1,2.5,0.2,5,0.2,7.5C223.4,9.6,223.4,11.7,223.3,13.7"
				/>
			<path id="Pfad_472" class="st4" d="M108,0h-7.2C103.2,0.1,105.6,0.1,108,0"/>
			<path id="Pfad_473" class="st4" d="M284.9,8c0.1,0.7,0.3,1.4,0.5,2.1c0.2,0.4,0.5,0.9,1,0.6c0.3-0.2,0.5-0.4,0.6-0.7
				c-0.4-2.1-0.7-3.9-1-5.8c-0.1-0.5-0.3-0.9-0.9-0.9c-0.1,0-0.1,0-0.2,0c-0.4,0.2-0.7,0.6-0.5,1c0,0,0,0,0,0
				C284.6,5.7,284.7,6.9,284.9,8"/>
			<path id="Pfad_474" class="st4" d="M376.4,321c-1.6,0.6-3.3,1-4.9,1.5c-2.2,0.6-2.4,0.7-1.9,3c1.2,5.3,1.5,10.8,2.6,16.2
				c0.1,0.7,0.2,1.3,0.3,2c-0.5,0.8-1,1.7-1.5,2.6c-0.7,1.3-0.9,2.7-0.6,4.2c0.3,1.1,0.8,2.1,2,2c0.7-0.1,1.9-0.1,1.9-0.1
				s0.4,1.7,0.6,2.4c0.2,0.8,0.3,2.7,0.4,3.5c0.4,3.8,1.6,5.6,4.2,8.3c1.8,1.8,3.3,2.2,5.4,1.1c0.2-0.1,0.3-0.1,0.5-0.2
				c3.6-1.1,7.2-2,10.8-2.7c1.6-0.3,1.7-0.2,2,1.5c0.1,0.5,0.1,1,0.1,1.6c0.4,5.5,1.1,11,1,16.2c0,1.9,0,3.5,0,5.1
				c0,0.7,0,1.5,0.7,1.8v-24.8c0-0.1,0-0.2,0-0.3c0-0.3,0-0.5,0-0.8v-3c-0.2,0-0.3,0.1-0.5,0.1c-4.8,1.2-9.6,2.3-14.4,3.5
				c-1.2,0.3-1.6-0.1-1.8-1.1c-0.8-3.6-2.9-16-2.9-16c0.7-0.5,1.5-0.9,2.2-1.3c1.3-0.7,2.5-1.5,3.8-2.3c0.6,0.8,1,4.4,2.7,4
				l10.8-2.7V344c-2.4,0.6-4.7,1.3-7.1,1.7c-1.2,0.2-1.6-0.1-1.7-1.2c-0.2-1.8-0.6-3.6-1-5.3c-0.4-1.7,0-2.2,1.7-2.9
				c0.7-0.3,1.5-0.5,2.2-0.7c2-0.5,4-1,6-1.6v-1.9c-1.3,0.4-2.6,0.8-3.9,1c-2,0.3-4.1,0.8-6,1.4c-0.3,0.1-0.7,0.2-1,0.2
				c-0.6,0.1-1.2-0.3-1.4-0.9c0,0,0,0,0,0c-0.1-0.7,0.5-0.7,1-0.9c3.7-1,7.5-2.1,11.2-3.1v-1.8c-5,1.4-11.2,3.1-12.7,3.6
				c-1.9,0.6-3,0.9-2.6,2.3s0.8,4.2,1.5,6.6c0.3,0.9,0,2-0.9,2.5c-1.6,1.1-3.3,2.1-5.2,3.3c-0.6-2.4-1.2-4.5-1.6-6.7
				c-0.6-3.6-1.5-7.1-2.6-10.6c-0.6-2-0.5-2.3,1.4-2.8c5.3-1.6,10.7-3.1,16-4.6c2.2-0.7,4.5-1.3,6.8-1.9v-2l-25,7.3
				c-0.9-0.5-1.8-0.8-2.7-1.2c3.9-1.3,7.8-2.4,11.8-3.2c0.8-0.2,9-2.6,15.9-4.6v-1.7c-2.6,0.8-5.2,1.6-7.6,2.1
				C387,317.6,381.7,319.2,376.4,321 M386.1,335.2l1.8,1.5l1.8,9.9c0,0-0.6,0.9-1.1,0.3C388.1,346.2,386.1,335.2,386.1,335.2
				 M374,350.1c-0.3,0.1-0.7,0.1-1,0.1c-0.4-0.2-0.6-0.7-0.4-1.1c0.1-0.4,0.4-2.2,0.8-2.5C373.6,346.9,374.5,349.8,374,350.1
				 M379,349.9c0,0,1.5,10.4,2.5,14.8c0.1,0.3-0.1,0.7-0.4,0.9c-4.3-3.4-3.9-8.5-4.6-13.1c-0.1-0.8,0.5-1.2,1.1-1.6
				C378,350.4,379,349.9,379,349.9 M373.8,328.2c0.9,3.2,1.9,6.5,2.7,9.8c0.5,2.5,0.9,5.1,1.5,7.6c0.4,2,0.4,2.1-2.1,3.2
				c-0.5-1.5-1.1-2.8,0.1-4.2c0.7-0.8,0.3-1.4-0.7-1.6c-0.8-0.1-1.1-0.7-1.2-1.4c-0.5-4.8-2.8-15.6-2.7-15.8
				C372.5,325.8,373.5,327.4,373.8,328.2"/>
			<path id="Pfad_475" class="st4" d="M374.3,248.1c-0.9,0.1-1.4,0.2-1.3,1.3c0,0.2-0.1,0.4-0.1,0.6c-0.2,1.2-0.1,1.3,1.1,1.3h0.1
				c1.9-0.1,1.9-0.1,1.9-1.9C375.9,248,375.7,247.8,374.3,248.1"/>
			<path id="Pfad_476" class="st4" d="M381.5,247.6c-1.7,0-1.7,0-1.7,1.7c0,1.6,0,1.6,1.5,1.7c1.6,0,1.6,0,1.6-1.6V249
				C382.9,247.6,382.9,247.6,381.5,247.6"/>
			<path id="Pfad_477" class="st4" d="M390.6,248.4"/>
			<path id="Pfad_478" class="st4" d="M12.5,164.2c0.1-1.6-1.2-7.9-1.7-11.7c-0.4-2.9-0.6-5.8-1-8.7c-0.4-2.8-0.7-3-3.4-2.7
				c-2.1,0.2-4.3,0.5-6.4,0.9v2.1c3.6-0.5,6.3-0.8,6.7-0.8c1.7-0.3,1.8,3.2,1.7,1.9s1.1,9.2,1.4,11c0.3,1.8,0.7,3.5,1,5.6
				c0.3,2,0.2,2.8-1,3c-1.2,0.1-6.1,1.3-9.3,1.6c-0.1,0-0.3,0-0.5,0.1v1.6c5.1-0.8,9.6-1.5,10.3-1.7C11.7,166,12.8,165.6,12.5,164.2
				"/>
			<path id="Pfad_479" class="st4" d="M399.1,336.6c-1.2-1.4-2.1-1.5-3.6-0.5c-1.2,0.8-1.3,2.1-1.7,3.3c-0.2,2,3.1,4.5,4.9,3.9
				c0.2-0.1,0.3-0.1,0.5-0.2c0.3-0.2,0.6-0.4,0.8-0.7v-4.7c0,0,0-0.1-0.1-0.1C399.7,337.3,399.4,337,399.1,336.6 M398,341.5
				c-1.1,0-2-0.8-2.1-1.9c0-1,0.9-1.2,1.6-1.4c1-0.2,1.9,0.5,2.1,1.5c0,0,0,0,0,0C399.5,340.6,398.8,341.3,398,341.5"/>
			<path id="Pfad_480" class="st4" d="M302.8,158.1c0.5,0.1,0.9-0.3,0.9-0.7c0-0.1,0-0.1,0-0.2c0-0.5-0.5-1-1-1
				c-0.6,0-0.9,0.3-0.9,0.7C301.8,157.6,302.1,158,302.8,158.1"/>
			<path id="Pfad_481" class="st4" d="M389.7,246.9c-2-0.2-2.5,0.3-1.9,2.3c0,0.2,0.1,0.3,0.1,0.5c0.1,0.2,0.3,0.3,0.5,0.4
				c0.6-0.1,1.2-0.2,1.7-0.3c0.2-0.1,0.3-0.3,0.3-0.5c0.1-0.3,0.1-0.5,0.1-0.8c0-0.2,0-0.5-0.1-0.7
				C390.5,247.1,390.3,247,389.7,246.9"/>
			<path id="Pfad_482" class="st4" d="M368.4,155.8c-3.1,0.1-3.4,0.5-2.8,3.6c0,0.2,0,0.5,0.1,0.7c0.4,1.7,1.4,2.3,3,1.7
				c3.4-1.2,2.8-0.3,2.4-3.7C370.9,156.2,370.3,155.8,368.4,155.8 M369.6,159.4c-0.5,0.4-1.2,0.7-1.9,0.6c-0.4-0.2-0.5-1.8-0.6-2.3
				s1.2-0.4,1.8-0.4C369.7,157.1,369.9,159.1,369.6,159.4"/>
			<path id="Pfad_483" class="st4" d="M372.7,145.3c-1.3,0.1-2.6,0.4-2.3,2.3c0.8,5.1,1.6,10.3,2.4,15.4c0.2,1.4,1.1,5.9,1.5,7.4
				c0.2,0.8,1,1.8,1.6,1.6c0.9-0.3,8.3-1.1,10.6-1.6c2.9-0.6,8.5-1.6,13.5-2.4v-1.6c-4.3,0.6-23.6,3.8-24,3.3
				c-0.4-0.5-1.9-7.8-2-9.7c-0.3-3.3-1.1-6.6-1.6-9.9c-0.3-2.2-0.1-2.4,2-2.8c3.4-0.6,17.2-2.4,25.6-3.4v-2.1
				c-2.5,0.4-5.1,0.8-7.6,1.1C388.2,143.5,374,145.2,372.7,145.3"/>
			<path id="Pfad_484" class="st4" d="M396.8,222.6c0.4,0.1,0.8,0.1,1.3,0.1c0.2,0,0.4-0.2,0.5-0.3c0.2-0.6,0.1-1.3-0.3-1.8
				c-0.4-0.4-1-0.5-1.5-0.3c-0.1,0.1-0.2,0.2-0.3,0.3c-0.1,0.2-0.1,0.4-0.1,0.7C396.2,221.7,396.4,222.3,396.8,222.6"/>
			<path id="Pfad_485" class="st4" d="M398.8,216.9c0-0.1,0.5-18.1,0.5-18.6c-0.1-0.3-1.5-0.5-1.5-0.1c-0.1,0.5-0.2,1-0.2,1.5
				c0.1,1.9-0.6,16.9-0.6,17.1C397,217.5,398.7,217.6,398.8,216.9"/>
			<path id="Pfad_486" class="st4" d="M387.7,187.5c-0.3,0-0.6,0-0.9,0.1c-0.7,0.2-1.2,0.7-1.3,1.4c-0.3,2.3,0.1,24.4,0.1,26.8
				c0,0.5-0.1,0.9-0.1,1.3c-0.1,0.9-0.1,1-1.1,1.1c-0.5,0.1-19.9,0.6-20.2,1c-0.3,0.9-0.4,1.8-0.5,2.7c-0.2,1.4-1.3,37.2-1.2,39
				c0.1,0.6,0.1,0.7,0.7,0.7c1-0.1,7.1-0.8,9.1-0.5c2.3,0.3,2.3,0.3,2.6,2.6c0,0.2,0.2,2.3,0.3,3.1c0.1,0.3,0.1,0.7,0.6,0.8
				c2.2-0.9,4.3-2,6.3-3.3c3.3-2,4.3-3.9,5.1-4c1.8-0.1,4.9-0.6,5.5-0.7c1.5-0.3,1.4,0.2,1.4,1.3c0.1,4.5,0.3,13.4,0.3,13.4v8.3
				c0,1.8,0.1,3.6,0.1,5.4c0,1,0.2,1.1,1.1,1.3c1.4,0.1,2.8,0.1,4.2,0v-2.2c-1.7,0.1-3.5,0.1-3.6-0.1v-0.3c-0.1-3.3-0.1-6.5-0.2-9.8
				c0-1.6-0.5-22.3-0.5-24.3c-0.1-0.9,0.1-1,1.1-0.9c1.1,0.1,2.2,0.2,3.2,0.3v-2c-0.1,0-0.3,0-0.4,0c-1.6-0.2-3.1-0.2-4.7,0.1
				c-1.1,0.1-1.1,0.4-1.1,1.5c0.1,2,0.1,4,0.2,6c0,0,0,0.1,0,0.1c0,0.3-0.3,0.6-0.7,0.5c0,0,0,0,0,0c-0.5,0.1-7,0.5-7.6,1.1
				c-0.9,1.1-6.6,4.8-8.4,5.6c-0.5,0.3-0.7,0.2-0.7-0.3c-0.2-1.2-0.2-2.4-0.3-3.6c0-1.2-0.3-1.7-1.5-1.6c-3,0.3-6.1,0.1-9.1,0.5
				c-2,0.3-1.9-0.2-1.8-1.7c0.1-1.9,0.8-24.2,1-27.7c0.1-1.7,0.5-7.6,0.7-9c0.1-0.5,0.3-0.6,0.7-0.7c0.7-0.1,1.4-0.2,2.1-0.3
				c3.3-0.3,16.5-0.9,16.4-0.3c0,1.5,0.1,3,0,4.6c0,1.9-0.1,7.2,0,7.9c0.2,1.1,0.4,1.2,1.5,1.1c0.5-0.1,4.4,0.1,5.8,0.2
				c0.6,0.1,4.7-0.1,6.2-0.1h1.4v-1.5c-5.7-0.2-11.5-0.3-12.1-0.4c-1-0.1-1-0.1-1.1-1.1c-0.1-1.3-0.1-36.6-0.1-38.7
				c0-0.8,0.1-1.5,0.3-2.3c0.1-0.7,0.3-0.9,0.9-0.9c0.3,0,5.4-0.1,12.1-0.1v-1.7c-3,0-5.4,0-6.2,0
				C391.7,187.5,389.7,187.5,387.7,187.5"/>
			<path id="Pfad_487" class="st4" d="M304.1,14.8c1,0,2.1,0,3.2-0.1c0.6,0,1.1-0.4,1.2-1c0-0.2,0-0.4-0.1-0.6
				c-0.4-1.1-0.6-2.3-0.6-3.5c0-0.8-0.4-1.2-1-1.1c-0.6,0.2-1,0.8-0.9,1.4c0.1,0.4,0.1,1.3,0.1,1.3c0,0.2,0.1,0.5,0.1,0.7
				c-0.1,0.8-0.2,0.9-1,0.8c-0.4-0.1-0.8-0.2-1.2-0.2c-0.5-0.1-0.9,0-1.1,0.7C302.6,14.2,303.1,14.8,304.1,14.8"/>
			<path id="Pfad_488" class="st4" d="M341,386.3c-1.3-1.1-2.9-1.8-4.6-2.2c-2-0.1-3.9,0.1-5.8,0.7c-1.4,0.3-2.6,1-3.6,2
				c-1.3,1.4-2.6,2.9-2.9,5c-0.1,0.6-0.2,1.2-0.2,1.8c0,1.2,0,2.4,0.1,3.5c0,0-1.6,0.1-3.2,2.9h3.9c0.1,0,0.1,0,0.2-0.1
				c0,0,0,0,0.1,0.1h2.9c-0.6-0.5-1-1.1-1.4-1.8c-1.5-2.6-1.2-5.3,0-7.9c0.7-1.3,1.7-2.3,3-3c1.4-0.8,2.9-1.3,4.5-1.3
				c1.4,0,5,0.3,6.7,2c2,2,2,5.4,2,6.2l0,0c0,1.9-0.8,3.7-2,5.1c-0.3,0.2-0.6,0.5-0.9,0.7h2.5c1.5-1.7,2.3-3.9,2.3-6.1
				C344.5,390.9,343.6,388.2,341,386.3"/>
			<path id="Pfad_489" class="st4" d="M149.2,394.7c-1.5-2.5-1.7-5.6-0.4-8.3c0.3-0.7,0.8-1.4,0.2-2.1c-0.3-0.4-0.7-0.6-1.2-0.6
				c-0.3,0-2.6,0.1-2.9-0.5c-0.1-0.3-0.2-0.5-0.3-0.8c-0.8-3.9-0.4-7.8,0.1-11.7c0.2-0.7-0.1-1.5-0.7-2c-2.7-2.5-3.2-6.6-1.3-9.8
				c0.4-0.6,0.4-1.4,0.1-2c-0.3-0.5-1-0.4-1.5-0.4c-7.1,1-14.2,0.3-21.3,0.5c-6.3,0.2-12.6,0.1-18.9,0.5c-0.7,0-1.4,0.4-1.6,1.1
				c-1.7,3.8-2.2,7.5,0.4,11.3c-1.7,0.4-3.5,0.5-5.2,0.3c-1.5,0-2.1,0.8-2.9,2.1c-2,3.2-0.5,9.5,1.7,12.3c1.4,1.8,3.3,0.8,4.9,1.1
				c0.4,0.1,0.7,0.1,1.2,0.2c-0.2,2.1-1.2,3.9-0.9,6c0.2,2.2,1,4.3,2.2,6.1c-1.3,0-2.1,0.1-2.9,0h0c-1.1-0.2-2.1,0.5-2.3,1.6
				c0,0.1-0.1,0.3-0.1,0.4h3.6c0.3,0,0.5-0.1,0.8,0c0.3,0,0.5,0,0.8,0h7.2c4-0.2,8.1-0.5,12.1-0.8c8.8-0.5,17.6-1,26.6-1.5
				c-0.2,0.8-0.4,1.5-0.6,2.2h2c0.3-0.7,0.6-1.4,1.1-2.1C149.8,397,149.9,395.7,149.2,394.7 M100.2,363.4c0.7-3.6,1.4-4.2,5.5-4.2
				c10.7-0.1,22.6-0.2,33.3-0.2c0.6,0,0.6,1.7,0.7,2.1c0,3.7-1.5,3.3-4.6,3.3c-8.5,0-16.9,0.4-25.4,0.6c-2.2,0.1-4.4,0.1-6.7,0.1
				c-0.5,0-1,0-1,0.6c-0.1,0.7,0.3,0.9,0.9,0.9c4.5-0.1,9,0,13.5-0.3c7-0.4,13.9-0.7,20.9-0.7c3,0,3.5,2,4.8,4.6h-9.9
				c-9.5,0-19,0-28.4,0C101.7,370.2,99.6,366.2,100.2,363.4 M92.6,376.5c0.3-1.6,0.1-3.4,2.6-4.9c-2.3,3.7-2.1,8.4,0.4,11.9
				C93.2,382,92,379.2,92.6,376.5 M96.3,380.6c0,0,25.9-0.9,36.4-0.6c1,0,1.8-0.1,1.2-1.3c-12.2-0.4-24.2,0.9-36.3,0.6
				c-0.8,0-2.1,0.2-2-1.1c0-0.4,0-1.1,1.5-1.1s23.1,0.4,31.4-0.3c2.4-0.2,4.8,0,7.2,0c0.2-1.2-0.3-1.6-1.2-1.5
				c-5.9,0.2-11.8,0.5-17.7,0.5c-7,0-13.9,0.2-20.9-0.5c-0.1-1.8,0-2.8,2.2-2.9c7.8-0.4,15.6-0.1,23.3,0c6.4,0.1,12.8-0.1,19.3-0.3
				c1.1,0,1.7,0.1,1.6,1.4c-0.2,3.2-0.1,6.5,0.3,9.7c-3.8,0.4-7.6,0.7-11.4,0.7c-9.7-0.1-20.3,0.1-30.1,0
				C98.9,383.9,97,382.6,96.3,380.6 M145.5,395.8c-7,0.4-14,0.7-21.1,1.1c-4.9,0.3-9.7,0.7-14.6,0.9c-2.2,0.2-4.4,0-6.5-0.6
				c-1.9-0.7-2.2-3-2.6-4.8c-0.2-1.5,0-3.1,0.5-4.6c0.2-1.4,1.4-2.3,2.8-2.2c9.2,0.1,18.4,0.1,27.6,0.3c4,0.1,8-0.8,12.1-0.2
				c0.9,0.1,1.7,0.2,2.7,0.3l0,0c-0.4,2.8-0.4,5.6,0.2,8.3C146.9,395.4,146.3,395.7,145.5,395.8"/>
			<path id="Pfad_490" class="st4" d="M251.4,393.7c0-0.5,0.2-1.2-0.1-1.4c-0.4-0.4-5.9-0.3-7.4-0.4c-0.4-0.1-0.9,0.1-1,0.5
				c-0.5,0.8-0.2,1.5-0.1,2.3c0.1,0.9,0.4,1.8,0.4,2.6c0.1,1.2,0.5,1.8,1.7,1.8h1.9c0,0.1,0,0.1,0.1,0.2c1-0.2,2.1-0.2,3.2-0.4
				c0.3-0.1,0.6-0.2,0.8-0.4c0.6-0.7,0.8-1.6,0.6-2.4C251.3,395.3,251.3,394.5,251.4,393.7 M248.5,397.3c-0.4,0-0.8,0.1-1.2,0.1
				h-0.1c-0.2,0-0.4,0-0.6,0c-1.4-0.1-2.4-1.4-2.2-2.7c0,0,0,0,0,0c0-0.5,0.1-0.8,0.7-0.8c1.2,0,2.5-0.1,3.7-0.2
				c0.5-0.1,0.7,0.1,0.7,0.7c0,0.7,0,1.3,0.1,2S249.2,397.3,248.5,397.3"/>
			<path id="Pfad_491" class="st4" d="M267.7,371.1"/>
			<path id="Pfad_492" class="st4" d="M137.2,361L137.2,361z"/>
			<path id="Pfad_493" class="st4" d="M118.6,363c5.8-0.1,11.5-0.3,17.3-0.4c0.9,0,1.4-0.4,1.3-1.6c-2.2-0.6-24.7,0.6-33.8,0.7
				c-1.5,0-1.7,0.5-1.5,1.3C107.6,363,113.1,363.1,118.6,363"/>
			<path id="Pfad_494" class="st4" d="M3.6,394c0.4,0.4,1,0.9,1.6,0.3c0.7-0.6,0.4-1.3-0.2-1.8c-0.6-0.7-1.3-1.4-2-2.1
				c-1.3-1-2-2.7-1.9-4.3c0-3.2-0.1-6.4-0.4-9.6c-0.4-3.4-0.4-6.9-0.7-10.3V391c0,0,0,0,0,0C1.6,391.6,2.5,392.9,3.6,394"/>
			<path id="Pfad_495" class="st4" d="M291.5,360.4c0.4,0,0.7-0.4,0.7-0.8c0-0.2-0.1-0.4-0.2-0.5c-0.4-0.4-0.9-0.7-1.4-0.8
				c-1.3-0.3-2.7-0.4-4-0.6c-0.1,0-0.3,0-0.4,0c-1,0.1-1.6,1-1.5,1.9c0.2,0.9,0.1,1.8,0.2,2.6c0.1,0.5,0.2,1.1,0.5,1.5
				c0.3,0.6,0.7,0.4,1.1,0c0.4-0.4,0.2-0.9,0.1-1.5c-0.4-1.9,0.2-2.5,1.6-2.4c0.6,0.2,1.2,0.3,1.8,0.4
				C290.5,360.4,291,360.5,291.5,360.4"/>
			<path id="Pfad_496" class="st4" d="M274.4,358.1c-0.9-0.1-1.7-0.2-2.6-0.2c-2.8,0.1-5.6,0.3-8.4,0.4c0,0-0.1,0-0.1,0
				c-0.5,0-0.9,0.5-0.9,1c0,0,0,0,0,0c-0.1,1.1-0.2,2.1-0.4,3.2c-0.1,0.6-0.1,1.3-1,1.3l-10.3,0.3c-1.2,0.1-2.3,0.1-3.4,0.1
				c-0.5,0-1.1,0.2-1.1,0.9c0,1.5-0.1,3,0,4.5c0.2,2.4,0.4,4.8,0.6,7.1c0.2,2.1,0.3,4.3,0.4,6.5c0,0.3,0.1,2.9,0.7,2.8
				c1.1-0.2,2.1-0.3,3.2-0.3c4-0.1,7.9-0.2,11.9-0.2c1.8,0,3.7,0.1,5.6,0.2c1.5,0.1,1.9-0.3,1.7-1.9c0-0.3-0.1-0.6-0.1-0.9
				c-0.1-1.3-0.2-2.6-0.3-4c-0.1-1.6-0.3-3.2-0.4-4.8c0-1.6,0.1-1.8,1.6-1.9c0.4,0,0.8,0.2,1.2,0.1c1.9-0.5,2-0.7,2.1-2.7
				c0-0.2,0.1-0.4,0.1-0.6c0.1-1.5,0.1-3,0.1-4.6c0.1-1.9,0.3-3.9,0.4-5.8C275,358.4,274.9,358.1,274.4,358.1 M268.1,383.3
				L268.1,383.3c-0.1,0.5-0.5,0.9-1,0.8c0,0,0,0,0,0c-1.5,0.1-3.1,0.2-4.7,0.2c-2.1,0.1-4.3,0-6.5,0c-2,0-4-0.1-6-0.1
				c-0.7-0.1-0.8-0.3-0.9-0.9c-0.1-2.1-0.2-4.2-0.3-6.4c-0.1-1.5-0.2-2.9-0.3-4.4c-0.1-1.8-0.1-3.7-0.1-5.5c0-0.6,0.3-0.8,0.9-0.8
				c3.9-0.1,7.9-0.2,11.8-0.5c1.1-0.1,2.3,0,3.4,0.2c0.8,0.1,1.7,0.1,2.5,0.2c0.7,0,0.8,0.4,0.8,1v4h-0.1c0.2,3,0.4,6.1,0.6,9.1
				C268.3,381.3,268.3,382.3,268.1,383.3 M273.2,363.3c-0.1,2-0.1,4.1-0.1,6.1c-0.1,1.5-0.2,1.6-1.7,1.6c-1.9-0.1-1.9-0.1-1.9-2
				c0-1.2-0.1-2.5-0.1-3.7c0-0.1,0-0.1,0-0.2c0-0.5-0.5-0.9-1-0.9c0,0,0,0,0,0c-0.8-0.1-1.5-0.1-2.1-0.2c-0.6,0-1.2,0-1.8-0.1
				c-0.1,0-0.1,0-0.2,0c-0.4-0.1-0.7-0.5-0.7-0.9c0,0,0,0,0,0c0.1-0.6,0.1-1.2,0.1-1.7c0.1-0.8,0.5-1.2,1.4-1.3
				c2.3-0.1,4.7-0.2,7-0.2c0.8,0,1.2,0.4,1.2,1.2C273.3,361.9,273.2,362.6,273.2,363.3"/>
			<path id="Pfad_497" class="st4" d="M285.9,366.9c-0.8,0-0.9,0.6-0.9,1.1c-0.1,1.5-0.1,2.9-0.1,4.4c0,0.6,0.4,1.1,0.9,1.2
				c0.5,0,1-0.7,1-1.3v-4.6C286.8,367.1,286.5,366.9,285.9,366.9"/>
			<path id="Pfad_498" class="st4" d="M285.5,390.4c-0.1-0.3-0.4-0.7-0.7-0.7c-0.2-0.1-0.6,0.2-0.8,0.5c-0.1,0.4-0.2,0.8-0.3,1.2
				h0.1c0.1,1.7,0.2,3.5,0.3,5.2c0.1,0.8,0.4,0.9,1,0.9c0.7,0,1-0.3,0.9-1c-0.2-1.7-0.3-3.3-0.5-4.9
				C285.7,391.1,285.6,390.7,285.5,390.4"/>
			<path id="Pfad_499" class="st4" d="M284.2,382.4c-0.1,0.7,0.4,1.4,0.8,1.4c0.5,0,0.9-0.5,1-1.3v-2c0-0.9-0.1-1.7-0.1-2.6
				c0,0,0-0.1,0-0.1c-0.1-0.5-0.5-0.8-1-0.7c0,0,0,0,0,0c0,0-0.1,0-0.1,0c-0.4,0.1-0.6,0.5-0.5,0.9c0,0.2,0,0.5,0,0.7
				C284.3,380.1,284.2,381.2,284.2,382.4"/>
			<path id="Pfad_500" class="st4" d="M16,217.7c-0.1-1.1-0.1-2.2,0-3.4c0.1-1.7,0.5-8.2,0.6-9.6v-1.7c0-1.1,0-2.3,0.1-3.4
				c0.1-0.7-1.8-0.9-1.8-0.7v2.7c0,2-0.3,8.5-0.4,9.7c-0.1,1.7-0.5,5.9-0.5,6.2C14,218.1,16,218.1,16,217.7"/>
			<path id="Pfad_501" class="st4" d="M6.4,221.4c-0.1-0.6-0.7-0.9-1.3-0.8c-0.5,0.1-0.6,0.3-0.7,0.9v0.3c0,0.1,0,0.2-0.1,0.3
				c0.1,0.9,0.3,1.1,1.1,1.1c0.8,0,1-0.3,1-1.1C6.5,221.9,6.5,221.7,6.4,221.4L6.4,221.4"/>
			<path id="Pfad_502" class="st4" d="M399.5,347.6c-0.5,0.2-0.7,0.8-0.5,1.3c0.3,0.4,0.6,0.9,0.9,1.3c0.1,0.1,0.1,0.2,0.2,0.3v-3
				C399.8,347.5,399.6,347.5,399.5,347.6"/>
			<path id="Pfad_503" class="st4" d="M6.2,199.1c0.1,0.4-0.5,14.5-0.7,17.5c-0.1,0.9,1.6,0.7,1.7,0.5l0,0
				c0.1-0.5,1.2-16.1,1.1-17.9C8.3,198.5,6.3,197.7,6.2,199.1"/>
			<path id="Pfad_504" class="st4" d="M14.2,223.3c0.4,0.1,0.9,0,1.3-0.1c0.7-0.1,0.4-1.1,0.2-1.7c-0.3-0.6-1-0.4-1.6-0.2
				c-0.5,0.1-0.5,0.4-0.5,1.1S13.8,223.3,14.2,223.3"/>
			<path id="Pfad_505" class="st4" d="M1.9,363.4c1.1-0.2,2.2-0.5,3.3-0.9c3-0.9,6-1.7,9-2.6c1-0.5,2.1-0.2,2.8,0.6
				c2.4,2.9,5.1,5.7,7.2,8.9c2.2,3.2,4.9,5.9,7.2,8.9c0.3,0.5,0.9,0.7,1.5,0.5c0.1-0.1,0.2-0.1,0.3-0.3c1.5-1.3,3.3-2.3,5.2-2.8
				c0.8-0.3,1.2-0.8,0.8-1.6c-0.4-0.9-1-1.1-1.9-0.3c-1.1,0.7-2.2,1.3-3.5,1.7c-0.8,0.5-1.8,0.3-2.3-0.5c-1.3-1.4-2.6-2.8-3.7-4.4
				c-1.6-2.5-3.4-4.8-5.4-7c-1.2-1.2-2.2-2.5-3.2-3.7c-0.6-0.7-0.8-1.4,0.4-1.7c1.2-0.4,2.5-0.8,3.7-1.2c2.6-0.8,5.2-1.5,7.8-1.9
				c1.7-0.2,1.9-0.7,1.2-2.3c-0.4-0.9-0.7-1.9-1-2.9c-1-4.2-1.4-8.5-2.6-12.7c-0.7-2.3-0.2-2.7,2.1-2.9c1.8-0.2,2.2-0.8,1.5-2.6
				c-0.8-2.1-2.4-3.9-4.4-5c-1.1-0.6-1.8-1.7-1.9-2.9c-0.2-1.1-0.4-2.2-0.6-3.3c-0.5-2.3-1-5.1-1.5-6.8c-0.5-1.8-2.2-2.2-3.9-3.5
				c-1.7-1.3-2.4-1.4-5.2-0.6c-4.6,1.3-9.8,3.2-14.9,4.8v1.7c3.5-1,6.6-1.9,8.3-2.3c2.8-0.7,5.6-2,8.3-2.9c0.7-0.2,3.3,1.1,3.3,1.1
				L0,317.7v2c5.3-1.5,10.7-3,15.9-4.9c1.1-0.4,2.3-0.7,3.5-1c1.6-0.3,2.3,0,2.9,1.4c0.5,1.1,0.8,2.3,1,3.5
				c0.8,4.4,1.5,8.9,2.5,13.3c0.3,1.3-0.2,1.7-1.2,2.1c-3,1.4-6.1,2.5-9.2,3.6c-2,0.7-3.7-0.3-5.4-1.3c-0.8-0.5-0.5-5.3-1.6-6.5
				s-1-1-2.1-2c-0.7-1-2.1-1.3-3.2-0.8c-0.9,0.3-2,0.6-3.1,0.9v1.8c0.7-0.2,1.5-0.4,2.2-0.6c1.3-0.6,2.9,0,3.6,1.3
				c-2,0.4-3.9,0.9-5.8,1.6v1.9c1.6-0.4,3.2-0.8,4.8-1.2c1.1-0.3,1.6-0.3,2-0.1c0.4,0.9,0.8,1.8,1,2.8c0,0-1.9-0.9-2.1,0.1
				c-0.3,0.7,0.1,1.5,0.8,1.8c0,0,0.1,0,0.2,0C7.2,337.7,8,338,8,338s0.1,1.6,0.2,2.3c0.2,0.9-0.3,1.8-1.2,2c-0.1,0-0.2,0-0.3,0
				c-2.3,0.5-4.5,1.1-6.7,1.7v2.2l4.1-1c1.8-0.3,3.5-1,5.3-1.3c0.9-0.4,0.8-1.8,0.6-3.1s-0.3-1.9-0.3-1.9s1,0.4,1.3,0.5
				c1.3,0.3,2.5,0.7,3.8,1c0.6,0.3,1.4,0.1,1.9-0.3c2.6-2.1,6.1-2.5,8.9-4.1c0.6-0.3,1,0,1.2,0.6c0.3,1.2,0.6,2.3,0.9,3.5
				c0.7,3.7,1.4,7.3,2.1,11c0.4,2,0.4,2.1-1.5,2.6c-9.4,2.6-18.7,5.9-28.2,8.4v3C0.1,364.1,0.8,363.6,1.9,363.4 M27.6,331.7
				c-0.1-0.9-0.6-3.4-0.6-3.4c1,0.7,2,1.5,2.8,2.5c0.2,0.4,0.5,0.8,0.3,1.2c-0.3,0.5-0.9,0.8-1.6,0.7
				C27.9,332.7,27.7,332.2,27.6,331.7"/>
			<path id="Pfad_506" class="st4" d="M17,171.9c1.9-0.3,2.4-1.3,2.3-2.5s-0.4-4.3-0.8-7.1c-1.2-8.5-2.9-17-3.7-25.6
				c-0.2-1.8-1-2.3-2.8-2.1c-1,0.1-1.9,0.4-2.9,0.5c-3,0.3-6.1,0.6-9.1,1v2.1c0.2,0,0.3,0,0.5-0.1c3.2-0.4,6.5-0.6,9.7-0.9
				c2.4-0.3,2.7,0,3.1,2.3c1.1,7.2,2.2,14.3,3.2,21.5c0.4,2.5,0.4,5,0.6,7.5c0.1,0.5-0.2,1-0.7,1.1c-1.4,0.5-2.8,0.8-4.3,0.9
				C8.1,170.6,4,171,0,171.4v2c3.5-0.4,6.9-0.8,10.4-0.9C12.6,172.4,14.8,172.2,17,171.9"/>
			<path id="Pfad_507" class="st4" d="M1.3,351.2c3.6-0.8,7.1-1.7,10.6-2.9c1.4-0.5,5.7-0.9,5.9-2c0.1-0.6-0.6-3.1-1.1-3.2
				c-0.5-0.1-1,0.2-1.1,0.7c0,0,0,0.1,0,0.1c0.2,1.6-0.6,1.7-1.8,2c-3.5,0.8-7.1,1.6-10.6,2.4l-2.2,0.7c-0.3-0.2-0.5-0.5-0.6-0.8
				c-0.1-0.3-0.3-0.5-0.5-0.6v3C0.4,351.2,0.4,351.4,1.3,351.2"/>
			<path id="Pfad_508" class="st4" d="M13.6,273.4c0.1,0.8,0.3,0.9,1,0.9c0.9,0,5-0.1,6-0.1c0.7,0,0.9-0.2,1-0.9
				c0.1-1-0.1-0.9-1.1-0.9h-4.2c-1.2,0-1.2-0.1-1.3-1.1c-0.1-0.7-0.1-1.5-0.1-2.3c0-1.1,0.1-1.2,1.2-1.3c1.5-0.1,3-0.1,4.6-0.3
				c0.9-0.1,1.2-0.9,1.2-1.8c0,0,0.1-4,0.1-5.9c0.1-1.9,0.1-1.9-0.7-2.1c-0.2,0-2.2-0.1-3.3-0.1c-1.2-0.1-2.4-0.1-3.6-0.1
				c-0.3,0-0.6,0.2-0.7,0.5c0,0,0,0,0,0v0c0,0.3-0.1,0.8,0.3,0.9c0.4,0,0.8,0,1.3,0c1.3,0.1,2.7,0.1,4.1,0.1
				c1.3,0.1,1.1,0.3,1.2,1.6c0.1,1.1,0,2.2-0.1,3.4c-0.2,1.6,0,1.6-1.6,1.7c-1.3,0-3.1,0.1-4.5,0.1c-0.9,0.1-0.9,0.2-0.9,1.1
				c0,1.3,0.1,2.7,0.1,4C13.4,271.7,13.5,272.5,13.6,273.4"/>
			<path id="Pfad_509" class="st4" d="M0,337.7v4.7C1.3,341,1.3,339.3,0,337.7"/>
			<path id="Pfad_510" class="st4" d="M3.1,290.3c0.2,0.3,0.3,0.7,0.3,1c0.2,1,1.1,7.1,1.3,7.6c0,0.1,0.1,0.2,0.1,0.3
				c0.3,0.4,0.8,0.5,1.2,0.2c0.4-0.2,3.7-4,5.1-5.6c0.9-1,1.9-2,2.9-2.9c1.6-1.8,3.9-2.8,6.3-2.9c2.3-0.1,4.6-0.4,7-0.6
				c3.6-0.4,13-0.8,14.1-0.9c1-0.1,1.1-0.1,1.1-1.1c0.1-1.1-0.3-28.9-0.2-32.6c0.1-0.9,0.1-1.8,0.1-2.7c0-1.1-0.1-1.3-1.3-1.4
				c-0.3-0.1-5.8,0.2-8.2,0.3h-0.2c-2.2,0.1-4.5,0.1-6.8,0.3c-1.9,0.1-16.1,0.7-21.4,0.7c-0.8,0-0.8,0-0.8-0.8
				c0.1-2,0.3-11.5,0.4-14.2c0-0.7,0.1-0.9,0.9-0.8c1.4,0.1,5.4,0.4,5.8,0.7c0.8,0.6,5.6,4.6,7.3,5.8c0.3,0.2,0.8,0.2,1.1-0.1
				c0.9-0.6,1.5-5.4,1.5-6.7c0.1-0.8,0.3-1,1.1-1.2c0.3-0.1,9.3-1.2,9.5-1.4c0.7-0.6,0.6-1.5,0.7-2.3l2.7-36.5c0-1.3,0-2.5-0.1-3.8
				c-0.1-0.8-0.3-0.9-1-0.9c-1.3-0.1-12.3-0.5-13.8-0.5c-1.2,0-12.5,0-19.9,0.1v1.7c13.2,0,32.6,0,33.2,0.3c0.3,0.1-0.1,1.5-0.1,1.8
				c0.1,1.3,0.1,2.6,0,4c-0.3,2.9-2.7,32.7-2.7,33.4c0,0.6-0.4,1.1-1,1.2c-1.9,0.7-7.4,0.7-8.8,0.9s-1.6,0.7-1.6,1.5
				c0,0.3,0,5.4-0.1,5.6c-0.3,1.1-0.4,1.2-1.3,0.4c-1.1-0.9-4.8-4.4-5.6-5.1c-0.2-0.2-0.5-0.3-0.7-0.3c-0.5,0-5.8-0.2-11.2-0.3v1.5
				h1.3c1.1,0.1,1.1,0.1,1.1,1.1c-0.1,1.7-0.1,3.3-0.2,5c-0.1,2.3-0.1,8.2-0.1,8.9c0.1,0.7-0.1,0.9-0.8,0.9c-0.5,0-0.9,0-1.4,0v2
				c1,0.1,2.1,0.1,3.1,0.2c1.5,0.1,10.1-0.2,13-0.3c2.5-0.1,19.8-0.7,22.4-0.7h0.7c1,0.1,1.3,0.5,1.3,1.5
				c-0.1,4.3-0.3,13.7-0.3,14.2c-0.1,0,0.3,15.9,0.5,16.9c0,0.9-0.3,1.2-1.2,1.3h-0.7c-2.7,0.1-21,1.3-21.6,1.2
				c-0.5-0.1-1,0-1.3,0.4c-0.8,0.7-7.1,7.3-8.9,9.1c-0.5,0.5-0.7,0.4-0.9-0.3c-0.5-2.2-2-8.9-3-8.7c-1,0.2-2,0.3-3.1,0.3v2.2
				c0.7,0,1.3-0.1,1.5-0.1C2.2,289.2,2.9,289.6,3.1,290.3"/>
			<path id="Pfad_511" class="st4" d="M14.9,330.9c0.7,0.1,1.1-0.4,1.2-1.1c0-0.6-0.3-1-0.9-1c-0.5-0.1-1,0.3-1,0.8c0,0,0,0.1,0,0.1
				C14,330.2,14.4,330.8,14.9,330.9"/>
		</g>
	</g>
</g>
</svg>
