<svg width="37" height="37" viewBox="0 0 37 37" fill="none" xmlns="http://www.w3.org/2000/svg">
<path d="M12.7188 24.2813H3.46875C2.82991 24.2813 2.3125 23.7638 2.3125 23.125V13.875C2.3125 13.2362 2.82991 12.7188 3.46875 12.7188H12.7188C13.3576 12.7188 13.875 13.2362 13.875 13.875V23.125C13.875 23.7638 13.3576 24.2813 12.7188 24.2813ZM4.625 21.9688H11.5625V15.0313H4.625V21.9688Z" fill="black"/>
<path d="M33.5313 32.375H24.2813C23.6424 32.375 23.125 31.8576 23.125 31.2188V21.9688C23.125 21.3299 23.6424 20.8125 24.2813 20.8125H33.5313C34.1701 20.8125 34.6875 21.3299 34.6875 21.9688V31.2188C34.6875 31.8576 34.1701 32.375 33.5313 32.375ZM25.4375 30.0625H32.375V23.125H25.4375V30.0625Z" fill="black"/>
<path d="M33.5313 13.875H24.2813C23.6424 13.875 23.125 13.3576 23.125 12.7188V3.46875C23.125 2.82991 23.6424 2.3125 24.2813 2.3125H33.5313C34.1701 2.3125 34.6875 2.82991 34.6875 3.46875V12.7188C34.6875 13.3576 34.1701 13.875 33.5313 13.875ZM25.4375 11.5625H32.375V4.625H25.4375V11.5625Z" fill="black"/>
<path d="M18.5 37C17.8612 37 17.3438 36.4826 17.3438 35.8438V1.15625C17.3438 0.517408 17.8612 0 18.5 0C19.1388 0 19.6563 0.517408 19.6563 1.15625V35.8438C19.6563 36.4826 19.1388 37 18.5 37Z" fill="black"/>
<path d="M18.5 19.6563H12.7188C12.0799 19.6563 11.5625 19.1388 11.5625 18.5C11.5625 17.8612 12.0799 17.3438 12.7188 17.3438H18.5C19.1388 17.3438 19.6563 17.8612 19.6563 18.5C19.6563 19.1388 19.1388 19.6563 18.5 19.6563Z" fill="black"/>
<path d="M24.2813 9.25H18.5C17.8612 9.25 17.3438 8.73259 17.3438 8.09375C17.3438 7.45491 17.8612 6.9375 18.5 6.9375H24.2813C24.9201 6.9375 25.4375 7.45491 25.4375 8.09375C25.4375 8.73259 24.9201 9.25 24.2813 9.25Z" fill="black"/>
<path d="M24.2813 27.75H18.5C17.8612 27.75 17.3438 27.2326 17.3438 26.5938C17.3438 25.9549 17.8612 25.4375 18.5 25.4375H24.2813C24.9201 25.4375 25.4375 25.9549 25.4375 26.5938C25.4375 27.2326 24.9201 27.75 24.2813 27.75Z" fill="black"/>
</svg>
