<svg width="43" height="43" viewBox="0 0 43 43" fill="none" xmlns="http://www.w3.org/2000/svg">
<path fill-rule="evenodd" clip-rule="evenodd" d="M36.3082 24.5605C34.6184 24.5605 33.2478 23.1899 33.2478 21.5001C33.2478 19.8086 34.6184 18.4397 36.3082 18.4397C37.9996 18.4397 39.3686 19.8086 39.3686 21.5001C39.3686 23.1899 37.9996 24.5605 36.3082 24.5605V24.5605ZM6.62486 37.0842C4.93341 37.0842 3.56279 35.7136 3.56279 34.0238C3.56279 32.3324 4.93341 30.9634 6.62486 30.9634C8.31463 30.9634 9.68526 32.3324 9.68526 34.0238C9.68526 35.7136 8.31463 37.0842 6.62486 37.0842ZM6.62486 12.0367C4.93341 12.0367 3.56279 10.6661 3.56279 8.97467C3.56279 7.28489 4.93341 5.91427 6.62486 5.91427C8.31463 5.91427 9.68526 7.28489 9.68526 8.97467C9.68526 10.6661 8.31463 12.0367 6.62486 12.0367ZM36.3082 16.3032C34.3261 16.3032 32.6028 17.4151 31.7261 19.0478C30.3387 19.0461 28.4793 19.0511 27.5957 19.0461C25.5633 19.0343 23.8836 17.4017 23.8584 15.3692C23.8316 13.3889 23.3243 11.5782 22.0981 10.0028C20.7006 8.20892 18.9336 6.9811 16.6608 6.58636C16.0863 6.48726 15.4951 6.45534 14.9105 6.44694C13.6609 6.43015 12.4095 6.43518 11.1598 6.4419C10.2712 4.85292 8.57306 3.7796 6.62456 3.7796C3.75397 3.7796 1.42758 6.10599 1.42758 8.97486C1.42758 11.8455 3.75397 14.1718 6.62456 14.1718C8.5713 14.1718 10.2695 13.0985 11.1581 11.5129C12.4901 11.5146 13.822 11.5079 15.154 11.5247C15.4933 11.528 15.8427 11.5935 16.1669 11.6977C17.6937 12.1864 18.7402 13.6192 18.7586 15.2468C18.7855 17.3263 19.3801 19.1975 20.7407 20.7964C20.9523 21.0467 21.1824 21.2818 21.4025 21.522C21.379 21.5506 21.3655 21.5707 21.3487 21.5875C19.7362 23.1665 18.888 25.0846 18.7839 27.3371C18.762 27.7856 18.7671 28.2441 18.6747 28.6791C18.3119 30.3672 16.7817 31.58 15.0348 31.59C13.7617 31.5968 12.4901 31.5917 11.2186 31.5951C10.3452 29.949 8.61675 28.8269 6.62275 28.8269C3.75383 28.8269 1.42749 31.1533 1.42749 34.0239C1.42749 36.8928 3.75388 39.2192 6.62275 39.2192C8.5544 39.2192 10.2374 38.166 11.1343 36.6022C12.4596 36.609 13.7866 36.6123 15.1135 36.5989C15.5771 36.5939 16.0457 36.5569 16.5043 36.4847C18.5031 36.1756 20.1559 35.2165 21.525 33.7501C22.9208 32.2569 23.7052 30.4983 23.8194 28.4491C23.8446 28.009 23.8479 27.5639 23.9135 27.1289C24.162 25.4828 25.7914 24.0752 27.4526 24.0634C28.3949 24.055 30.35 24.0584 31.7878 24.0584C32.6797 25.6323 34.3695 26.6955 36.308 26.6955C39.1786 26.6955 41.505 24.3691 41.505 21.5002C41.505 18.6296 39.1786 16.3033 36.308 16.3033" fill="black"/>
</svg>
