<svg xmlns="http://www.w3.org/2000/svg" viewBox="0 0 326.49 326.49"><defs><style>.cls-1{fill:#fab835;}.cls-2{fill:#fff;}</style></defs><g id="BARRIEREFREIHEIT"><g id="_BG-5" data-name="_BG"><rect class="cls-1" width="326.49" height="326.49" rx="30"/></g><path class="cls-2" d="M252.75,272.24a8.5,8.5,0,0,1-7.27-4.09l-36.66-60.37h-71V128a8.5,8.5,0,0,1,17,0v62.76h63.54L260,259.32a8.51,8.51,0,0,1-7.26,12.92Z"/><path class="cls-2" d="M127.49,281.28a62.25,62.25,0,1,1,0-124.49v17A45.25,45.25,0,1,0,172.74,219h17A62.32,62.32,0,0,1,127.49,281.28Z"/><circle class="cls-2" cx="146.35" cy="80.47" r="26.76"/><path class="cls-2" d="M196.62,171.92H146.35a8.5,8.5,0,0,1,0-17h50.27a8.5,8.5,0,0,1,0,17Z"/></g></svg>