<svg xmlns="http://www.w3.org/2000/svg" viewBox="0 0 326.49 326.49"><defs><style>.cls-1{fill:#fab835;}.cls-2{fill:#fff;}</style></defs><g id="DGSVO"><g id="_BG-4" data-name="_BG"><rect class="cls-1" width="326.49" height="326.49" rx="30"/></g><g id="ICON-4" data-name="ICON"><polygon class="cls-2" points="164.17 24.45 170.67 37.61 185.19 39.72 174.68 49.97 177.16 64.44 164.17 57.6 151.18 64.44 153.66 49.97 143.15 39.72 157.68 37.61 164.17 24.45"/><polygon class="cls-2" points="164.17 262.05 170.67 275.21 185.19 277.33 174.68 287.57 177.16 302.04 164.17 295.21 151.18 302.04 153.66 287.57 143.15 277.33 157.68 275.21 164.17 262.05"/><polygon class="cls-2" points="45.37 143.25 51.87 156.41 66.39 158.52 55.88 168.77 58.36 183.24 45.37 176.41 32.38 183.24 34.86 168.77 24.35 158.52 38.87 156.41 45.37 143.25"/><polygon class="cls-2" points="282.97 143.25 289.47 156.41 304 158.52 293.48 168.77 295.96 183.24 282.97 176.41 269.98 183.24 272.46 168.77 261.95 158.52 276.48 156.41 282.97 143.25"/><polygon class="cls-2" points="105.28 247.06 111.77 260.23 126.3 262.34 115.79 272.58 118.27 287.05 105.28 280.22 92.28 287.05 94.77 272.58 84.26 262.34 98.78 260.23 105.28 247.06"/><polygon class="cls-2" points="61.97 200.51 68.46 213.67 82.99 215.78 72.48 226.03 74.96 240.5 61.97 233.66 48.98 240.5 51.46 226.03 40.95 215.78 55.47 213.67 61.97 200.51"/><polygon class="cls-2" points="65.14 86.09 71.64 99.25 86.17 101.36 75.65 111.61 78.14 126.08 65.14 119.25 52.15 126.08 54.63 111.61 44.12 101.36 58.65 99.25 65.14 86.09"/><polygon class="cls-2" points="112.57 43.74 119.07 56.9 133.59 59.01 123.08 69.26 125.56 83.73 112.57 76.9 99.58 83.73 102.06 69.26 91.55 59.01 106.08 56.9 112.57 43.74"/><polygon class="cls-2" points="221.49 45.8 227.99 58.97 242.52 61.08 232 71.32 234.49 85.79 221.49 78.96 208.5 85.79 210.98 71.32 200.47 61.08 215 58.97 221.49 45.8"/><polygon class="cls-2" points="265.6 91.6 272.1 104.77 286.62 106.88 276.11 117.12 278.59 131.59 265.6 124.76 252.61 131.59 255.09 117.12 244.58 106.88 259.11 104.77 265.6 91.6"/><polygon class="cls-2" points="269.04 198.44 275.53 211.6 290.06 213.72 279.55 223.96 282.03 238.43 269.04 231.6 256.04 238.43 258.52 223.96 248.01 213.72 262.54 211.6 269.04 198.44"/><polygon class="cls-2" points="225.74 245.01 232.23 258.17 246.76 260.28 236.25 270.53 238.73 284.99 225.74 278.16 212.75 284.99 215.23 270.53 204.72 260.28 219.24 258.17 225.74 245.01"/><path class="cls-2" d="M206,152.92H189a24.82,24.82,0,0,0-49.64,0h-17a41.82,41.82,0,0,1,83.64,0Z"/><path class="cls-2" d="M118.37,152.2v66.19H210V152.2Zm49.94,37.12v17.31H160V189.32a10.88,10.88,0,1,1,8.27,0Z"/></g></g></svg>