<svg xmlns="http://www.w3.org/2000/svg" viewBox="0 0 326.49 326.49"><defs><style>.cls-1,.cls-2{fill:#fff;}.cls-1{opacity:0.7;}.cls-3{fill:none;stroke:#1d1d1b;stroke-width:0.5px;}.cls-4{fill:#1d1d1b;}</style></defs><g id="PRUEFUNG"><g id="_BG-7" data-name="_BG"><path class="cls-1" d="M30.61,2.88c-1,0-25.2.39-25.2,25.19V295.88c0,1,.39,25.19,25.2,25.19H298.42c1,0,25.19-.39,25.19-25.19V28.07c0-1-.39-25.19-25.19-25.19H30.61"/><path class="cls-2" d="M6.16,310.17a33.94,33.94,0,0,1-3.63-14.31h0V28.09c-.1-13.39,6.88-21,13.78-24.47h0A34.06,34.06,0,0,1,30.62,0h0V0H298.4c13.38-.1,21,6.88,24.46,13.78h0a34.32,34.32,0,0,1,3.63,14.31h0V295.86c.1,13.39-6.89,21-13.78,24.46h0a33.75,33.75,0,0,1-14.31,3.62H30.33c-13.2,0-20.75-6.93-24.17-13.77ZM19,8.76c-5.45,3-10.56,7.93-10.65,19.33h0V295.84c.19,1,.15,22.45,22.3,22.32H298.38c1-.2,22.44-.15,22.32-22.3h0V28.11c-.2-1-.15-22.46-22.3-22.32H30.59A28.72,28.72,0,0,0,19,8.76ZM30.62,2.89v0Z"/><path class="cls-2" d="M164.51,308.84C83.53,308.84,17.65,243,17.65,162S83.53,15.12,164.51,15.12,311.37,81,311.37,162,245.5,308.84,164.51,308.84"/><path class="cls-3" d="M164.51,308.82c81,0,146.85-65.88,146.85-146.84S245.48,15.14,164.51,15.14,17.67,81,17.67,162,83.54,308.82,164.51,308.82Z"/><path class="cls-4" d="M132.11,67.93V54.45h13.25V49.08H132.11V41.56h15.35V36.19H125.7V67.93ZM155,65.72q3.22,2.77,9.24,2.78a18,18,0,0,0,6.91-1.16,9.05,9.05,0,0,0,4.29-3.54,9.35,9.35,0,0,0,1.51-5.11,9.5,9.5,0,0,0-1.26-5.06,8.89,8.89,0,0,0-3.51-3.22,31,31,0,0,0-6.92-2.29Q160.55,47,159.34,46a2.43,2.43,0,0,1-1-1.92,2.3,2.3,0,0,1,1-2A7.27,7.27,0,0,1,163.78,41,6.5,6.5,0,0,1,167.84,42a5.5,5.5,0,0,1,1.77,3.52l6.4-.28a9.23,9.23,0,0,0-3.17-7c-2-1.74-5-2.62-9-2.62a15.84,15.84,0,0,0-6.25,1.11,8.48,8.48,0,0,0-4,3.21,8.15,8.15,0,0,0-1.38,4.54,8.27,8.27,0,0,0,2.93,6.39q2.07,1.86,7.23,3.13,4,1,5.13,1.39a5.15,5.15,0,0,1,2.3,1.38,2.82,2.82,0,0,1,.67,1.91,3.89,3.89,0,0,1-1.58,3.06,7.08,7.08,0,0,1-4.66,1.32,6.94,6.94,0,0,1-4.65-1.48A7.67,7.67,0,0,1,157.35,57l-6.24.61A12.13,12.13,0,0,0,155,65.72Zm33.84,2.21V58.34L194,53l8.72,14.89H211l-12.6-19.37,11.95-12.37h-8.62l-12.95,14.1V36.19h-6.4V67.93Z"/><path class="cls-4" d="M152.24,85.66a3.24,3.24,0,0,1,1.86-.47,3.83,3.83,0,0,1,2.4.55,2.31,2.31,0,0,1,.64,1.84V88a24.07,24.07,0,0,1-4.34,1.1,14.92,14.92,0,0,0-3.55,1,4.52,4.52,0,0,0-1.92,1.72,4.84,4.84,0,0,0-.68,2.55,4.69,4.69,0,0,0,1.5,3.57,5.72,5.72,0,0,0,4.11,1.42,7,7,0,0,0,2.78-.56,7.86,7.86,0,0,0,2.45-1.67l.16.53q.25.87.42,1.32h4.42a10,10,0,0,1-.8-2.27,18.45,18.45,0,0,1-.21-3.28l.05-5.21a9.18,9.18,0,0,0-.6-4,4.5,4.5,0,0,0-2.06-1.79,10.56,10.56,0,0,0-4.45-.71,8.57,8.57,0,0,0-5,1.18,6.28,6.28,0,0,0-2.35,3.62l4,.73a3.34,3.34,0,0,1,1.08-1.65Zm4.9,6.16A8.59,8.59,0,0,1,157,94a2.8,2.8,0,0,1-1.06,1.48,3.86,3.86,0,0,1-2.31.79,2.47,2.47,0,0,1-1.78-.68,2.23,2.23,0,0,1-.7-1.62,1.89,1.89,0,0,1,.88-1.58,8.43,8.43,0,0,1,2.43-.78,26.84,26.84,0,0,0,2.72-.68v.89ZM169.89,99V96.56a6.92,6.92,0,0,0,2.42,2.14,6.22,6.22,0,0,0,2.86.72,6.45,6.45,0,0,0,5-2.34c1.37-1.56,2.05-3.77,2.05-6.66s-.67-4.92-2-6.41a6.56,6.56,0,0,0-5.1-2.23,6.3,6.3,0,0,0-4.89,2.35V75.74h-4.47V99Zm1.35-12.6a3.36,3.36,0,0,1,2.67-1.25,3.32,3.32,0,0,1,2.68,1.28,6.62,6.62,0,0,1,1,4.18,6.26,6.26,0,0,1-1,4,3.18,3.18,0,0,1-2.53,1.26A3.52,3.52,0,0,1,171,94.11a7.19,7.19,0,0,1-.83-3.88,5.68,5.68,0,0,1,1.07-3.79Z"/><path class="cls-4" d="M141.67,128.62q-10.17,12.85-10.17,42.1,0,29.81,9.25,41.43t24.37,11.62q15,0,23.45-10.6,10.17-12.85,10.17-42.24t-10.1-42.17Q180.17,118,165.12,118t-23.45,10.6Zm29.84,8.16q2.81,2.29,4.63,9.11t1.84,25q0,18.23-2,25.85c-1,4-2.5,6.7-4.38,8.23a10.15,10.15,0,0,1-12.82,0q-2.79-2.27-4.63-9.08t-1.83-25q0-18.23,2-25.93,1.56-5.92,4.38-8.22a9.94,9.94,0,0,1,6.43-2.3,9.76,9.76,0,0,1,6.39,2.3Z"/><path class="cls-4" d="M68.35,247.82h2.59v14h4.67v-14h3.48v-3.67H75.61v-1.24a2.76,2.76,0,0,1,.43-1.82,1.94,1.94,0,0,1,1.45-.48,9.11,9.11,0,0,1,2.15.27l.63-3.25a12.91,12.91,0,0,0-3.9-.6,6.71,6.71,0,0,0-3.22.69,3.82,3.82,0,0,0-1.74,1.78,9,9,0,0,0-.47,3.32v1.33H68.35v3.67Zm17.83,8.52a27.83,27.83,0,0,1,.39-5.92,3.71,3.71,0,0,1,1.07-1.95,2.56,2.56,0,0,1,1.66-.53,4.1,4.1,0,0,1,2.19.76l1.44-4.07a5.93,5.93,0,0,0-3.07-.87,3.62,3.62,0,0,0-2,.56,7.38,7.38,0,0,0-2,2.34v-2.51H81.51v17.63h4.67v-5.44ZM104,258.09a2.85,2.85,0,0,1-1.84.61,3.53,3.53,0,0,1-2.69-1.16,4.76,4.76,0,0,1-1.13-3.23h11.69c.06-3.58-.66-6.22-2.18-8a7.8,7.8,0,0,0-6.2-2.59,7.53,7.53,0,0,0-5.8,2.48,9.71,9.71,0,0,0-2.29,6.86,10.14,10.14,0,0,0,1.74,6.08c1.48,2,3.74,3,6.81,3a8.32,8.32,0,0,0,4.84-1.34A7.64,7.64,0,0,0,109.8,257l-4.65-.78a3.58,3.58,0,0,1-1.13,1.92Zm-5.57-6.63a4.29,4.29,0,0,1,1-3,3.26,3.26,0,0,1,2.53-1.11,3.21,3.21,0,0,1,2.42,1.06,4.49,4.49,0,0,1,1,3.08Zm20.06-9.7v-4.31h-4.66v4.31Zm0,20V244.15h-4.66v17.63Zm4.34,1.73a4.82,4.82,0,0,0,1.87,3.89c1.25,1,3.37,1.54,6.36,1.54a13.19,13.19,0,0,0,3.93-.5,6.49,6.49,0,0,0,2.47-1.38,5.66,5.66,0,0,0,1.45-2.42,16,16,0,0,0,.51-4.67V244.15h-4.36v2.47a6.47,6.47,0,0,0-5.4-2.86,6.87,6.87,0,0,0-5.3,2.33q-2.13,2.35-2.13,6.78a10.2,10.2,0,0,0,1.62,5.9,6.5,6.5,0,0,0,5.63,3,6.32,6.32,0,0,0,5.28-2.85v2.57a6.85,6.85,0,0,1-.22,2.14,2.28,2.28,0,0,1-.92,1.18,5.57,5.57,0,0,1-2.75.54,3.54,3.54,0,0,1-2.09-.49,1.83,1.83,0,0,1-.61-1.28l-5.33-.65c0,.23,0,.41,0,.57Zm5.26-14.89a3.45,3.45,0,0,1,2.77-1.3,3.59,3.59,0,0,1,2.85,1.33,6.12,6.12,0,0,1,1.13,4.07,5.82,5.82,0,0,1-1.18,4A3.68,3.68,0,0,1,130.8,258a3.37,3.37,0,0,1-2.69-1.3A6.4,6.4,0,0,1,127,252.6a6.16,6.16,0,0,1,1.08-4Zm25,9.47a2.85,2.85,0,0,1-1.84.61,3.53,3.53,0,0,1-2.69-1.16,4.71,4.71,0,0,1-1.13-3.23h11.68c.07-3.58-.65-6.22-2.17-8a7.84,7.84,0,0,0-6.21-2.59,7.53,7.53,0,0,0-5.79,2.48,9.71,9.71,0,0,0-2.29,6.86,10.14,10.14,0,0,0,1.74,6.08c1.47,2,3.74,3,6.8,3a8.37,8.37,0,0,0,4.85-1.34,7.64,7.64,0,0,0,2.83-3.89l-4.65-.78a3.64,3.64,0,0,1-1.13,1.92Zm-5.58-6.63a4.34,4.34,0,0,1,1-3,3.37,3.37,0,0,1,5-.05,4.49,4.49,0,0,1,1,3.08Zm15,12a4.82,4.82,0,0,0,1.87,3.89c1.25,1,3.37,1.54,6.36,1.54a13.14,13.14,0,0,0,3.93-.5,6.54,6.54,0,0,0,2.48-1.38,5.86,5.86,0,0,0,1.45-2.42,16,16,0,0,0,.51-4.67V244.15h-4.36v2.47a6.48,6.48,0,0,0-5.4-2.86,6.88,6.88,0,0,0-5.31,2.33q-2.13,2.35-2.13,6.78a10.13,10.13,0,0,0,1.63,5.9,6.49,6.49,0,0,0,5.63,3,6.33,6.33,0,0,0,5.28-2.85v2.57a7.18,7.18,0,0,1-.22,2.14,2.29,2.29,0,0,1-.93,1.18,5.5,5.5,0,0,1-2.74.54,3.52,3.52,0,0,1-2.09-.49,1.79,1.79,0,0,1-.62-1.28l-5.33-.65c0,.23,0,.41,0,.57Zm5.27-14.89a3.43,3.43,0,0,1,2.76-1.3,3.61,3.61,0,0,1,2.86,1.33,6.18,6.18,0,0,1,1.13,4.07,5.82,5.82,0,0,1-1.18,4,3.71,3.71,0,0,1-2.89,1.33,3.35,3.35,0,0,1-2.68-1.3,6.33,6.33,0,0,1-1.09-4.11,6.1,6.1,0,0,1,1.09-4Zm25,9.47a2.88,2.88,0,0,1-1.85.61,3.54,3.54,0,0,1-2.69-1.16,4.76,4.76,0,0,1-1.13-3.23h11.69c.07-3.58-.66-6.22-2.17-8a7.84,7.84,0,0,0-6.21-2.59,7.5,7.5,0,0,0-5.79,2.48,9.71,9.71,0,0,0-2.3,6.86,10.21,10.21,0,0,0,1.74,6.08c1.48,2,3.75,3,6.81,3a8.32,8.32,0,0,0,4.84-1.34,7.64,7.64,0,0,0,2.83-3.89l-4.65-.78a3.63,3.63,0,0,1-1.12,1.92Zm-5.58-6.63a4.24,4.24,0,0,1,1-3,3.35,3.35,0,0,1,4.94-.05,4.49,4.49,0,0,1,1.05,3.08Zm19.53,10.32v-2.59a7.12,7.12,0,0,0,2.53,2.23,6.56,6.56,0,0,0,3,.76,6.69,6.69,0,0,0,5.22-2.44q2.16-2.44,2.16-7c0-2.91-.71-5.14-2.11-6.69a6.86,6.86,0,0,0-5.33-2.33,6.61,6.61,0,0,0-5.11,2.45v-8.76h-4.67v24.33Zm1.42-13.16a3.62,3.62,0,0,1,5.59,0,6.88,6.88,0,0,1,1.1,4.36,6.55,6.55,0,0,1-1.09,4.16,3.33,3.33,0,0,1-2.64,1.31,3.69,3.69,0,0,1-3.22-1.86,7.51,7.51,0,0,1-.86-4,6,6,0,0,1,1.12-4Zm24.3,9.47a2.86,2.86,0,0,1-1.85.61,3.5,3.5,0,0,1-2.68-1.16,4.71,4.71,0,0,1-1.13-3.23h11.68c.07-3.58-.66-6.22-2.18-8a7.8,7.8,0,0,0-6.2-2.59,7.55,7.55,0,0,0-5.8,2.48,9.75,9.75,0,0,0-2.28,6.86,10.08,10.08,0,0,0,1.74,6.08c1.47,2,3.74,3,6.8,3a8.3,8.3,0,0,0,4.84-1.34,7.64,7.64,0,0,0,2.83-3.89l-4.64-.78a3.64,3.64,0,0,1-1.13,1.92Zm-5.58-6.63a4.29,4.29,0,0,1,1-3,3.35,3.35,0,0,1,4.94-.05,4.45,4.45,0,0,1,1,3.08Zm31.43-.63a14.73,14.73,0,0,0-.25-3.14,5.11,5.11,0,0,0-.91-2,4.67,4.67,0,0,0-1.94-1.42,7,7,0,0,0-2.82-.55,7.06,7.06,0,0,0-5.81,3v-2.59h-4.33v17.63h4.66v-8a15,15,0,0,1,.36-4,3.36,3.36,0,0,1,1.32-1.76,3.69,3.69,0,0,1,2.17-.67,2.77,2.77,0,0,1,1.62.47,2.59,2.59,0,0,1,1,1.3,14.46,14.46,0,0,1,.29,3.69v9h4.66V250.83Z"/></g></g></svg>