<svg xmlns="http://www.w3.org/2000/svg" viewBox="0 0 326.49 326.49"><defs><style>.cls-1,.cls-2{fill:#00a0de;}.cls-1{opacity:0.7;}.cls-3{fill:none;stroke:#1d1d1b;stroke-width:0.5px;}.cls-4{fill:#1d1d1b;}</style></defs><g id="PRUEFUNG"><g id="_BG-7" data-name="_BG"><path class="cls-1" d="M298.59,323.57H27.87c-24.6,0-25-24-25-25V27.85c0-24.6,24-25,25-25H298.59c24.61,0,25,24,25,25V298.57c0,24.6-24,25-25,25"/><path class="cls-2" d="M3.56,312.78A33.88,33.88,0,0,1,0,298.56H0V27.85C-.13,14.56,6.81,7,13.66,3.55h0A33.91,33.91,0,0,1,27.86,0H298.59c13.29-.1,20.86,6.84,24.29,13.69h0a34,34,0,0,1,3.61,14.21h0V298.56c.1,13.29-6.85,20.88-13.69,24.3h0a33.63,33.63,0,0,1-14.21,3.6h-271c-13.09,0-20.6-6.89-24-13.68Zm12.78-304C10.94,11.65,5.89,16.56,5.8,27.85h0v270.7c.2,1,.15,22.21,22.06,22.08h270.7c1-.2,22.22-.15,22.1-22.07h0V27.88c-.2-1-.15-22.23-22.07-22.09H27.83A28.28,28.28,0,0,0,16.34,8.73ZM27.88,2.87v0Z"/><path class="cls-2" d="M163.23,311.21c81.61,0,148-66.39,148-148s-66.4-148-148-148-148,66.39-148,148,66.39,148,148,148Z"/><path class="cls-3" d="M163.23,311.21c81.61,0,148-66.39,148-148s-66.4-148-148-148-148,66.39-148,148,66.39,148,148,148Z"/><path class="cls-4" d="M133.78,69V55.22h13.5V49.75h-13.5V42.09h15.64V36.62H127.24V69Zm23.3-2.26q3.28,2.83,9.42,2.84a18.3,18.3,0,0,0,7.05-1.19,9.21,9.21,0,0,0,4.37-3.6,10.23,10.23,0,0,0,.26-10.36,9.06,9.06,0,0,0-3.59-3.29,31.13,31.13,0,0,0-7.05-2.33q-4.77-1.12-6-2.17a2.46,2.46,0,0,1-1-2,2.34,2.34,0,0,1,1-2,7.42,7.42,0,0,1,4.45-1.17,6.64,6.64,0,0,1,4.14,1.09,5.52,5.52,0,0,1,1.8,3.59l6.54-.29a9.41,9.41,0,0,0-3.24-7.12c-2.05-1.78-5.11-2.68-9.17-2.68a16.2,16.2,0,0,0-6.37,1.13,8.77,8.77,0,0,0-4,3.28,8.32,8.32,0,0,0-1.4,4.62,8.44,8.44,0,0,0,3,6.51c1.41,1.27,3.87,2.33,7.37,3.2,2.72.68,4.47,1.15,5.23,1.42a5.32,5.32,0,0,1,2.36,1.4,2.94,2.94,0,0,1,.67,2,4,4,0,0,1-1.6,3.12A7.28,7.28,0,0,1,166.57,64a7,7,0,0,1-4.73-1.5,7.75,7.75,0,0,1-2.33-4.7l-6.36.61q.65,5.43,3.93,8.27ZM191.58,69V59.2l5.3-5.41L205.77,69h8.45L201.38,49.22l12.18-12.6h-8.78L191.58,51V36.62h-6.53V69Z"/><path class="cls-4" d="M154.53,87a3,3,0,0,1,1.75-.44,3.54,3.54,0,0,1,2.26.52,2.15,2.15,0,0,1,.6,1.72v.42a23.06,23.06,0,0,1-4.08,1,14.43,14.43,0,0,0-3.35,1,4.22,4.22,0,0,0-1.8,1.62,4.75,4.75,0,0,0,.77,5.76,5.4,5.4,0,0,0,3.87,1.33,6.51,6.51,0,0,0,2.61-.52,7.76,7.76,0,0,0,2.31-1.57c0,.08.07.24.15.49.16.55.29,1,.4,1.24h4.15a9.58,9.58,0,0,1-.75-2.13,17.48,17.48,0,0,1-.2-3.09l0-4.9a8.54,8.54,0,0,0-.56-3.76A4.23,4.23,0,0,0,160.77,84a10.11,10.11,0,0,0-4.19-.67,8.05,8.05,0,0,0-4.66,1.11,5.93,5.93,0,0,0-2.22,3.41l3.81.69a3.09,3.09,0,0,1,1-1.55Zm4.61,5.79a8.2,8.2,0,0,1-.17,2,2.62,2.62,0,0,1-1,1.39,3.64,3.64,0,0,1-2.17.75,2.33,2.33,0,0,1-1.67-.64,2.07,2.07,0,0,1-.66-1.53,1.77,1.77,0,0,1,.82-1.48,7.72,7.72,0,0,1,2.29-.73c1.17-.25,2-.46,2.56-.64v.83Zm12,6.79V97.26a6.39,6.39,0,0,0,2.28,2,5.9,5.9,0,0,0,2.69.68,6,6,0,0,0,4.7-2.2,9.21,9.21,0,0,0,1.93-6.26,8.72,8.72,0,0,0-1.9-6,6.21,6.21,0,0,0-4.8-2.1,5.93,5.93,0,0,0-4.6,2.22v-7.9h-4.2V99.59Zm1.27-11.85a3.16,3.16,0,0,1,2.51-1.17,3.13,3.13,0,0,1,2.53,1.2,6.21,6.21,0,0,1,1,3.93,5.86,5.86,0,0,1-1,3.74,3,3,0,0,1-2.37,1.19,3.34,3.34,0,0,1-2.9-1.67,6.76,6.76,0,0,1-.78-3.65,5.41,5.41,0,0,1,1-3.57Z"/><path class="cls-4" d="M138.63,118.73H122.4q-3.42,9.54-12.6,16.69t-17,9.72v18.15a69,69,0,0,0,25.84-15.16v75.39h20V118.73ZM222,125.38q-7.8-6.64-19.69-6.65-16.94,0-27.55,12.67t-10.61,41.36q0,28,10.19,40.26a32.23,32.23,0,0,0,26,12.28q14.74,0,24.14-9.68t9.39-25.7q0-15.09-8.93-24.63a28.39,28.39,0,0,0-21.47-9.54q-11.1,0-18.58,8.83,1.14-18,5.52-23.71t10.71-5.7a10.78,10.78,0,0,1,7.76,2.85q3,2.85,3.71,8.83l19.36-2.14q-2.13-12.66-9.93-19.33ZM190.58,175a12.82,12.82,0,0,1,19.72.21q4,4.74,4,14.91,0,9.9-3.71,14.24a11.65,11.65,0,0,1-9.25,4.35q-5.78,0-10.25-5.31t-4.49-15c0-5.89,1.32-10.34,4-13.35Z"/><path class="cls-4" d="M71,249.55H73.6v14.07h4.7V249.55h3.51v-3.7H78.3V244.6a2.76,2.76,0,0,1,.44-1.83,1.94,1.94,0,0,1,1.47-.48,9.17,9.17,0,0,1,2.15.27l.64-3.28a12.85,12.85,0,0,0-3.93-.61,6.79,6.79,0,0,0-3.24.7,3.75,3.75,0,0,0-1.75,1.8,8.83,8.83,0,0,0-.48,3.34v1.34H71v3.7Zm18,8.58a28.11,28.11,0,0,1,.39-5.95,3.65,3.65,0,0,1,1.08-2,2.55,2.55,0,0,1,1.67-.55,4.07,4.07,0,0,1,2.21.77l1.46-4.1a6,6,0,0,0-3.1-.89,3.67,3.67,0,0,0-2,.57,7.64,7.64,0,0,0-2,2.36v-2.53H84.25v17.77H89v-5.49Zm18,1.77a2.83,2.83,0,0,1-1.86.61,3.51,3.51,0,0,1-2.7-1.16,4.74,4.74,0,0,1-1.14-3.25H113c.06-3.61-.67-6.28-2.2-8a7.89,7.89,0,0,0-6.26-2.62,7.6,7.6,0,0,0-5.83,2.5,9.81,9.81,0,0,0-2.31,6.92A10.16,10.16,0,0,0,98.17,261c1.49,2,3.77,3,6.86,3a8.36,8.36,0,0,0,4.88-1.36,7.61,7.61,0,0,0,2.85-3.92l-4.68-.78a3.68,3.68,0,0,1-1.14,1.93Zm-5.62-6.69a4.34,4.34,0,0,1,1-3,3.24,3.24,0,0,1,2.54-1.12,3.2,3.2,0,0,1,2.44,1.07,4.45,4.45,0,0,1,1,3.09Zm20.23-9.77v-4.35h-4.7v4.35Zm0,20.18V245.85h-4.7v17.77Zm4.36,1.75a4.85,4.85,0,0,0,1.89,3.92c1.27,1,3.4,1.54,6.41,1.54a13.31,13.31,0,0,0,4-.5,6.58,6.58,0,0,0,2.5-1.39,5.89,5.89,0,0,0,1.46-2.44,16.13,16.13,0,0,0,.51-4.7v-16h-4.4v2.5a6.5,6.5,0,0,0-5.43-2.9,7,7,0,0,0-5.35,2.36q-2.14,2.35-2.15,6.83a10.35,10.35,0,0,0,1.64,6,6.56,6.56,0,0,0,5.67,3,6.34,6.34,0,0,0,5.32-2.88v2.6a7.35,7.35,0,0,1-.21,2.15,2.3,2.3,0,0,1-.94,1.19,5.45,5.45,0,0,1-2.76.56,3.5,3.5,0,0,1-2.11-.51,1.83,1.83,0,0,1-.62-1.29l-5.37-.64c0,.22,0,.41,0,.57Zm5.32-15a3.48,3.48,0,0,1,2.78-1.31,3.63,3.63,0,0,1,2.88,1.34,6.21,6.21,0,0,1,1.14,4.1,5.84,5.84,0,0,1-1.19,4,3.7,3.7,0,0,1-2.91,1.36,3.38,3.38,0,0,1-2.7-1.32,6.37,6.37,0,0,1-1.1-4.14,6.11,6.11,0,0,1,1.1-4Zm25.22,9.54a2.85,2.85,0,0,1-1.86.61,3.53,3.53,0,0,1-2.71-1.16,4.79,4.79,0,0,1-1.14-3.25h11.78c.07-3.61-.66-6.28-2.19-8a7.92,7.92,0,0,0-6.26-2.62,7.64,7.64,0,0,0-5.84,2.5,9.81,9.81,0,0,0-2.31,6.92,10.17,10.17,0,0,0,1.76,6.12q2.22,3,6.86,3a8.38,8.38,0,0,0,4.88-1.36,7.67,7.67,0,0,0,2.85-3.92l-4.69-.78a3.61,3.61,0,0,1-1.13,1.93Zm-5.62-6.69a4.33,4.33,0,0,1,1-3,3.26,3.26,0,0,1,2.54-1.12,3.2,3.2,0,0,1,2.45,1.07,4.45,4.45,0,0,1,1,3.09Zm15.07,12.16a4.85,4.85,0,0,0,1.89,3.92c1.27,1,3.4,1.54,6.41,1.54a13.31,13.31,0,0,0,4-.5,6.58,6.58,0,0,0,2.5-1.39,5.67,5.67,0,0,0,1.45-2.44,15.72,15.72,0,0,0,.52-4.7v-16h-4.4v2.5a6.5,6.5,0,0,0-5.44-2.9,6.93,6.93,0,0,0-5.34,2.36c-1.44,1.57-2.15,3.85-2.15,6.83a10.35,10.35,0,0,0,1.64,6,6.56,6.56,0,0,0,5.68,3,6.36,6.36,0,0,0,5.31-2.88v2.6a6.93,6.93,0,0,1-.22,2.15,2.19,2.19,0,0,1-.93,1.19,5.45,5.45,0,0,1-2.76.56,3.48,3.48,0,0,1-2.11-.51,1.8,1.8,0,0,1-.62-1.29l-5.37-.64c0,.22,0,.41,0,.57Zm5.31-15a3.5,3.5,0,0,1,2.79-1.31,3.63,3.63,0,0,1,2.88,1.34,6.27,6.27,0,0,1,1.14,4.1,5.84,5.84,0,0,1-1.19,4,3.73,3.73,0,0,1-2.91,1.36,3.4,3.4,0,0,1-2.71-1.32,6.43,6.43,0,0,1-1.09-4.14,6.17,6.17,0,0,1,1.09-4Zm25.23,9.54a2.87,2.87,0,0,1-1.86.61,3.53,3.53,0,0,1-2.71-1.16,4.79,4.79,0,0,1-1.14-3.25h11.78c.06-3.61-.66-6.28-2.19-8a7.91,7.91,0,0,0-6.26-2.62,7.64,7.64,0,0,0-5.84,2.5,9.81,9.81,0,0,0-2.31,6.92,10.17,10.17,0,0,0,1.76,6.12q2.22,3,6.86,3a8.38,8.38,0,0,0,4.88-1.36,7.61,7.61,0,0,0,2.85-3.92l-4.68-.78a3.68,3.68,0,0,1-1.14,1.93Zm-5.63-6.69a4.38,4.38,0,0,1,1-3,3.26,3.26,0,0,1,2.54-1.12,3.2,3.2,0,0,1,2.45,1.07,4.5,4.5,0,0,1,1.05,3.09Zm19.69,10.41V261a7.38,7.38,0,0,0,2.56,2.25,6.58,6.58,0,0,0,3,.76,6.8,6.8,0,0,0,5.27-2.47c1.43-1.63,2.16-4,2.16-7s-.71-5.18-2.13-6.75a6.93,6.93,0,0,0-5.37-2.35,6.66,6.66,0,0,0-5.15,2.48v-8.84h-4.7v24.53Zm1.43-13.26a3.57,3.57,0,0,1,2.81-1.31,3.52,3.52,0,0,1,2.83,1.34,7,7,0,0,1,1.1,4.4,6.5,6.5,0,0,1-1.1,4.19,3.29,3.29,0,0,1-2.64,1.33,3.72,3.72,0,0,1-3.25-1.87,7.56,7.56,0,0,1-.87-4.09,6,6,0,0,1,1.12-4Zm24.49,9.54a2.82,2.82,0,0,1-1.85.61,3.53,3.53,0,0,1-2.71-1.16,4.74,4.74,0,0,1-1.14-3.25h11.77c.07-3.61-.66-6.28-2.18-8a7.92,7.92,0,0,0-6.26-2.62,7.62,7.62,0,0,0-5.84,2.5,9.81,9.81,0,0,0-2.31,6.92,10.17,10.17,0,0,0,1.76,6.12q2.22,3,6.86,3a8.41,8.41,0,0,0,4.88-1.36,7.65,7.65,0,0,0,2.84-3.92l-4.68-.78a3.62,3.62,0,0,1-1.14,1.93Zm-5.62-6.69a4.38,4.38,0,0,1,1-3,3.28,3.28,0,0,1,2.55-1.12,3.18,3.18,0,0,1,2.44,1.07,4.51,4.51,0,0,1,1.06,3.09Zm31.69-.63a14.18,14.18,0,0,0-.26-3.16,5,5,0,0,0-.92-2,4.56,4.56,0,0,0-1.95-1.43,7,7,0,0,0-2.84-.57,7.13,7.13,0,0,0-5.86,3v-2.61h-4.37v17.77H251v-8a14.85,14.85,0,0,1,.37-4.09,3.34,3.34,0,0,1,1.33-1.77,3.77,3.77,0,0,1,2.18-.67,2.78,2.78,0,0,1,1.64.47,2.61,2.61,0,0,1,1,1.31,14.76,14.76,0,0,1,.29,3.72v9.07h4.71v-11Z"/></g></g></svg>