<svg xmlns="http://www.w3.org/2000/svg" viewBox="0 0 326.49 326.49"><defs><style>.cls-1,.cls-2{fill:#13a538;}.cls-1{opacity:0.7;}.cls-3{fill:none;stroke:#1d1d1b;stroke-width:0.5px;}.cls-4{fill:#1d1d1b;}</style></defs><g id="PRUEFUNG"><g id="_BG-7" data-name="_BG"><path class="cls-1" d="M296.91,322.9H28.17c-24.89,0-25.28-24.3-25.28-25.28V28.88C2.89,4,27.19,3.6,28.17,3.6H296.91c24.89,0,25.28,24.3,25.28,25.28V297.62c0,24.89-24.3,25.28-25.28,25.28"/><path class="cls-2" d="M3.64,312A34.13,34.13,0,0,1,0,297.6H0V28.9C-.1,15.47,6.9,7.81,13.83,4.35h0A34,34,0,0,1,28.19.72h0v0h268.7C310.32.61,318,7.62,321.44,14.54h0a34.19,34.19,0,0,1,3.63,14.36h0V297.6c.11,13.43-6.91,21.08-13.82,24.54h0a33.71,33.71,0,0,1-14.36,3.63h-269c-13.25,0-20.82-6.95-24.25-13.81ZM16.49,9.5c-5.46,3-10.59,8-10.68,19.4h0V297.57C6,298.57,6,320.1,28.19,320H296.87c1-.2,22.52-.15,22.4-22.37h0V28.92c-.2-1-.15-22.53-22.38-22.4H28.15a28.86,28.86,0,0,0-11.66,3Zm11.7-5.88v0Z"/><path class="cls-2" d="M162.54,310.6c81.25,0,147.35-66.1,147.35-147.35S243.79,15.9,162.54,15.9,15.19,82,15.19,163.25,81.29,310.6,162.54,310.6Z"/><path class="cls-3" d="M162.54,310.6c81.25,0,147.35-66.1,147.35-147.35S243.79,15.9,162.54,15.9,15.19,82,15.19,163.25,81.29,310.6,162.54,310.6Z"/><path class="cls-4" d="M130,68.88V55.35h13.3V50H130V42.42h15.4V37H123.59V68.88ZM153,66.66q3.24,2.79,9.28,2.79a18,18,0,0,0,6.94-1.17,9.09,9.09,0,0,0,4.3-3.55A9.38,9.38,0,0,0,175,59.61a9.54,9.54,0,0,0-1.26-5.08,9,9,0,0,0-3.53-3.23,31,31,0,0,0-6.94-2.3q-4.69-1.09-5.91-2.12a2.44,2.44,0,0,1-.95-1.94,2.31,2.31,0,0,1,1-2,7.3,7.3,0,0,1,4.38-1.16,6.49,6.49,0,0,1,4.08,1.08,5.46,5.46,0,0,1,1.77,3.53l6.43-.28a9.27,9.27,0,0,0-3.18-7q-3-2.62-9-2.63a15.94,15.94,0,0,0-6.27,1.11,8.59,8.59,0,0,0-4,3.23,8.18,8.18,0,0,0-1.38,4.55,8.32,8.32,0,0,0,2.93,6.41q2.08,1.86,7.26,3.14c2.68.67,4.39,1.13,5.15,1.4a5.25,5.25,0,0,1,2.31,1.38,2.85,2.85,0,0,1,.67,1.92A3.9,3.9,0,0,1,167,62.7,7.15,7.15,0,0,1,162.3,64a7,7,0,0,1-4.66-1.48,7.68,7.68,0,0,1-2.29-4.63l-6.25.61q.63,5.34,3.86,8.14Zm34,2.22V59.26l5.22-5.32,8.75,14.94h8.32L196.57,49.44l12-12.41h-8.64l-13,14.15V37h-6.43V68.88Z"/><path class="cls-4" d="M150.23,86.67a3.24,3.24,0,0,1,1.86-.47,3.86,3.86,0,0,1,2.41.55,2.31,2.31,0,0,1,.64,1.84V89a24.24,24.24,0,0,1-4.35,1.1,15.07,15.07,0,0,0-3.57,1,4.52,4.52,0,0,0-1.92,1.72,4.78,4.78,0,0,0-.68,2.56,4.73,4.73,0,0,0,1.5,3.59,5.81,5.81,0,0,0,4.12,1.42,7.14,7.14,0,0,0,2.8-.56,7.89,7.89,0,0,0,2.45-1.68c0,.09.09.26.16.53.17.58.31,1,.43,1.32h4.43a9.39,9.39,0,0,1-.8-2.27,18.36,18.36,0,0,1-.22-3.29l0-5.23a9.25,9.25,0,0,0-.6-4,4.47,4.47,0,0,0-2.06-1.8,10.8,10.8,0,0,0-4.47-.71,8.57,8.57,0,0,0-5,1.19,6.24,6.24,0,0,0-2.36,3.63l4.07.73a3.26,3.26,0,0,1,1.08-1.65Zm4.91,6.18A8.69,8.69,0,0,1,155,95a2.8,2.8,0,0,1-1.06,1.48,3.93,3.93,0,0,1-2.32.8,2.42,2.42,0,0,1-1.78-.69,2.17,2.17,0,0,1-.7-1.62,1.87,1.87,0,0,1,.87-1.58,8,8,0,0,1,2.44-.78q1.88-.41,2.73-.69v.89Zm12.79,7.24V97.61a6.88,6.88,0,0,0,2.44,2.14,6.23,6.23,0,0,0,2.86.73,6.48,6.48,0,0,0,5-2.35q2.06-2.34,2.06-6.68c0-2.8-.67-4.94-2-6.43a6.56,6.56,0,0,0-5.11-2.25,6.37,6.37,0,0,0-4.92,2.36V76.71h-4.48v23.38Zm1.36-12.64A3.39,3.39,0,0,1,172,86.2a3.31,3.31,0,0,1,2.69,1.29,6.6,6.6,0,0,1,1.06,4.18,6.3,6.3,0,0,1-1,4,3.21,3.21,0,0,1-2.53,1.26,3.55,3.55,0,0,1-3.1-1.78,7.23,7.23,0,0,1-.83-3.89,5.74,5.74,0,0,1,1.07-3.81Z"/><path class="cls-4" d="M133.45,119.14H117.28q-3.39,9.51-12.54,16.62T87.8,145.44v18.07a68.69,68.69,0,0,0,25.73-15.09v75.06h19.92V119.14ZM186.58,205a34,34,0,0,1,4.07-5.53q2.52-2.83,11.94-11.48t13-13.25a54.86,54.86,0,0,0,8-13.3,35.81,35.81,0,0,0,2.52-13.36,27.18,27.18,0,0,0-8.79-20.62q-8.79-8.3-24.17-8.3-14,0-23.39,7.16t-11.13,23.61l19.85,2q.56-8.71,4.25-12.47t9.92-3.76q6.3,0,9.89,3.58t3.58,10.24A21.9,21.9,0,0,1,202,161.67q-3.06,4.47-16.52,17-16.72,15.51-22.4,24.91a48,48,0,0,0-6.8,19.88h69.82V205Z"/><path class="cls-4" d="M66.05,249.39h2.59v14h4.69v-14h3.49v-3.68H73.33v-1.25a2.81,2.81,0,0,1,.43-1.83,2,2,0,0,1,1.46-.47,9.11,9.11,0,0,1,2.15.27l.63-3.26a12.68,12.68,0,0,0-3.91-.61,6.71,6.71,0,0,0-3.22.69A3.73,3.73,0,0,0,69.12,241a8.83,8.83,0,0,0-.48,3.34v1.33H66.05v3.68Zm17.89,8.55a27.31,27.31,0,0,1,.39-5.94,3.71,3.71,0,0,1,1.07-1.95,2.56,2.56,0,0,1,1.67-.54,4.13,4.13,0,0,1,2.2.76l1.44-4.08a5.89,5.89,0,0,0-3.08-.88,3.66,3.66,0,0,0-2,.57,7.22,7.22,0,0,0-2,2.35v-2.52H79.25V263.4h4.69v-5.46Zm17.9,1.76a2.87,2.87,0,0,1-1.85.6,3.56,3.56,0,0,1-2.7-1.16,4.72,4.72,0,0,1-1.13-3.24h11.73c.06-3.58-.66-6.24-2.19-8a7.85,7.85,0,0,0-6.22-2.6,7.59,7.59,0,0,0-5.82,2.49,9.77,9.77,0,0,0-2.3,6.89,10.14,10.14,0,0,0,1.75,6.09c1.48,2,3.75,3,6.83,3a8.39,8.39,0,0,0,4.86-1.34,7.71,7.71,0,0,0,2.84-3.91l-4.67-.78a3.65,3.65,0,0,1-1.13,1.93ZM96.24,253a4.34,4.34,0,0,1,1-3,3.38,3.38,0,0,1,5-.05,4.52,4.52,0,0,1,1,3.09Zm20.14-9.73V239H111.7v4.33Zm0,20.09V245.71H111.7V263.4Zm4.35,1.73a4.85,4.85,0,0,0,1.88,3.91c1.26,1,3.38,1.54,6.38,1.54a13.21,13.21,0,0,0,3.94-.5,6.46,6.46,0,0,0,2.49-1.39,5.67,5.67,0,0,0,1.45-2.43,15.88,15.88,0,0,0,.52-4.67V245.71H133v2.48a6.5,6.5,0,0,0-5.42-2.88,6.9,6.9,0,0,0-5.32,2.35q-2.14,2.34-2.14,6.8a10.22,10.22,0,0,0,1.63,5.92,6.53,6.53,0,0,0,5.65,3,6.34,6.34,0,0,0,5.29-2.86v2.58a7.27,7.27,0,0,1-.21,2.14,2.28,2.28,0,0,1-.93,1.19,5.57,5.57,0,0,1-2.75.54,3.53,3.53,0,0,1-2.1-.49,1.86,1.86,0,0,1-.62-1.29l-5.34-.65c0,.23,0,.41,0,.57ZM126,250.2a3.42,3.42,0,0,1,2.77-1.31,3.65,3.65,0,0,1,2.87,1.33,6.24,6.24,0,0,1,1.13,4.09,5.9,5.9,0,0,1-1.18,4,3.74,3.74,0,0,1-2.9,1.34,3.36,3.36,0,0,1-2.69-1.31,6.37,6.37,0,0,1-1.09-4.12,6.11,6.11,0,0,1,1.09-4Zm25.11,9.5a2.87,2.87,0,0,1-1.85.6,3.55,3.55,0,0,1-2.7-1.16,4.72,4.72,0,0,1-1.13-3.24h11.72q.11-5.37-2.18-8a7.87,7.87,0,0,0-6.23-2.6A7.56,7.56,0,0,0,143,247.8a9.77,9.77,0,0,0-2.3,6.89,10.07,10.07,0,0,0,1.75,6.09c1.48,2,3.75,3,6.83,3a8.41,8.41,0,0,0,4.86-1.34,7.69,7.69,0,0,0,2.83-3.91l-4.66-.78a3.65,3.65,0,0,1-1.13,1.93Zm-5.6-6.66a4.38,4.38,0,0,1,1-3,3.39,3.39,0,0,1,5-.05,4.57,4.57,0,0,1,1.05,3.09Zm15,12.09a4.85,4.85,0,0,0,1.88,3.91c1.26,1,3.38,1.54,6.38,1.54a13.17,13.17,0,0,0,3.94-.5,6.58,6.58,0,0,0,2.5-1.39,5.86,5.86,0,0,0,1.44-2.43,15.54,15.54,0,0,0,.52-4.67V245.71h-4.38v2.48a6.5,6.5,0,0,0-5.42-2.88,6.9,6.9,0,0,0-5.32,2.35q-2.15,2.34-2.14,6.8a10.22,10.22,0,0,0,1.63,5.92,6.53,6.53,0,0,0,5.65,3,6.36,6.36,0,0,0,5.3-2.86v2.58a7.18,7.18,0,0,1-.22,2.14,2.28,2.28,0,0,1-.93,1.19,5.54,5.54,0,0,1-2.75.54,3.55,3.55,0,0,1-2.1-.49,1.86,1.86,0,0,1-.62-1.29l-5.35-.65c0,.23,0,.41,0,.57Zm5.29-14.93a3.42,3.42,0,0,1,2.77-1.31,3.6,3.6,0,0,1,2.86,1.33,6.18,6.18,0,0,1,1.14,4.09,5.85,5.85,0,0,1-1.18,4,3.74,3.74,0,0,1-2.9,1.34,3.36,3.36,0,0,1-2.69-1.31,6.36,6.36,0,0,1-1.1-4.12,6.11,6.11,0,0,1,1.1-4Zm25.11,9.5a2.87,2.87,0,0,1-1.85.6,3.55,3.55,0,0,1-2.7-1.16,4.72,4.72,0,0,1-1.13-3.24H197q.09-5.37-2.18-8a7.9,7.9,0,0,0-6.23-2.6,7.57,7.57,0,0,0-5.82,2.49,9.77,9.77,0,0,0-2.3,6.89,10.14,10.14,0,0,0,1.75,6.09q2.22,3,6.83,3a8.41,8.41,0,0,0,4.86-1.34,7.64,7.64,0,0,0,2.83-3.91l-4.66-.78a3.72,3.72,0,0,1-1.13,1.93Zm-5.6-6.66a4.34,4.34,0,0,1,1-3,3.38,3.38,0,0,1,5-.05,4.52,4.52,0,0,1,1.05,3.09ZM205,263.4v-2.6a7.1,7.1,0,0,0,2.54,2.24,6.54,6.54,0,0,0,3,.76,6.72,6.72,0,0,0,5.23-2.45c1.44-1.64,2.17-4,2.17-7s-.71-5.16-2.12-6.72a6.89,6.89,0,0,0-5.35-2.34,6.65,6.65,0,0,0-5.13,2.46V239H200.6V263.4Zm1.42-13.2a3.63,3.63,0,0,1,5.61,0,6.91,6.91,0,0,1,1.1,4.37,6.6,6.6,0,0,1-1.09,4.18,3.33,3.33,0,0,1-2.65,1.32,3.71,3.71,0,0,1-3.23-1.87,7.57,7.57,0,0,1-.86-4.06,6,6,0,0,1,1.12-4Zm24.38,9.5a2.85,2.85,0,0,1-1.85.6,3.55,3.55,0,0,1-2.7-1.16,4.72,4.72,0,0,1-1.13-3.24h11.72c.08-3.58-.66-6.24-2.18-8a7.86,7.86,0,0,0-6.23-2.6,7.56,7.56,0,0,0-5.81,2.49,9.77,9.77,0,0,0-2.3,6.89,10.07,10.07,0,0,0,1.75,6.09c1.48,2,3.75,3,6.83,3a8.35,8.35,0,0,0,4.85-1.34,7.73,7.73,0,0,0,2.85-3.91l-4.67-.78a3.65,3.65,0,0,1-1.13,1.93ZM225.16,253a4.33,4.33,0,0,1,1-3,3.39,3.39,0,0,1,5-.05,4.52,4.52,0,0,1,1.05,3.09Zm31.54-.63a14.71,14.71,0,0,0-.26-3.15,5.09,5.09,0,0,0-.91-2,4.94,4.94,0,0,0-1.94-1.43,7.26,7.26,0,0,0-2.84-.55,7.09,7.09,0,0,0-5.83,3v-2.6h-4.34V263.4h4.68v-8a15.74,15.74,0,0,1,.35-4.06,3.33,3.33,0,0,1,1.33-1.76,3.7,3.7,0,0,1,2.18-.67,2.77,2.77,0,0,1,1.62.47,2.53,2.53,0,0,1,1,1.3,14,14,0,0,1,.3,3.71v9h4.68v-11Z"/></g></g></svg>