<svg xmlns="http://www.w3.org/2000/svg" viewBox="0 0 326.49 326.49"><defs><style>.cls-1,.cls-2{fill:#e30613;}.cls-1{opacity:0.7;}.cls-3{fill:none;stroke:#1d1d1b;stroke-width:0.5px;}.cls-4{fill:#1d1d1b;}</style></defs><g id="PRUEFUNG"><g id="_BG-7" data-name="_BG"><path class="cls-1" d="M298.21,323.6H28.3c-25,0-25.4-24.41-25.4-25.39V28.29C2.9,3.29,27.31,2.9,28.3,2.9H298.21c25,0,25.39,24.41,25.39,25.39V298.21c0,25-24.4,25.39-25.39,25.39"/><path class="cls-2" d="M3.65,312.61A34.27,34.27,0,0,1,0,298.19H0V28.31C-.1,14.82,6.93,7.13,13.89,3.65h0A34.27,34.27,0,0,1,28.31,0h0V0H298.19c13.49-.1,21.17,6.93,24.66,13.89h0a34.44,34.44,0,0,1,3.65,14.42h0V298.19c.11,13.49-6.94,21.17-13.89,24.65h0a34.1,34.1,0,0,1-14.42,3.65H28c-13.3,0-20.91-7-24.36-13.88ZM16.56,8.83c-5.48,3-10.64,8-10.73,19.48h0V298.16c.2,1,.15,22.63,22.48,22.5H298.18c1-.2,22.61-.15,22.49-22.47h0V28.33c-.2-1-.15-22.63-22.48-22.5H28.27a28.9,28.9,0,0,0-11.71,3ZM28.31,2.92v0Z"/><path class="cls-2" d="M163.25,311.25c81.61,0,148-66.4,148-148s-66.39-148-148-148-148,66.39-148,148,66.39,148,148,148Z"/><path class="cls-3" d="M163.25,311.25c81.61,0,148-66.4,148-148s-66.39-148-148-148-148,66.39-148,148,66.39,148,148,148Z"/><path class="cls-4" d="M129.06,87.37V73.62h13.51V68.14H129.06V60.49h15.65V55H122.53V87.37Zm23.31-2.26q3.28,2.83,9.42,2.83a18.26,18.26,0,0,0,7-1.18,9.19,9.19,0,0,0,4.37-3.61,9.5,9.5,0,0,0,1.55-5.21,9.62,9.62,0,0,0-1.29-5.15,9.11,9.11,0,0,0-3.58-3.29,31.76,31.76,0,0,0-7.06-2.33c-3.17-.74-5.17-1.47-6-2.16a2.5,2.5,0,0,1-1-2,2.36,2.36,0,0,1,1-2,7.46,7.46,0,0,1,4.46-1.17A6.6,6.6,0,0,1,165.49,61a5.54,5.54,0,0,1,1.79,3.59l6.54-.29a9.43,9.43,0,0,0-3.23-7.13q-3.09-2.67-9.18-2.67a16.18,16.18,0,0,0-6.36,1.13,8.76,8.76,0,0,0-4,3.27,8.3,8.3,0,0,0-1.4,4.63,8.41,8.41,0,0,0,3,6.51q2.11,1.89,7.37,3.2,4.08,1,5.23,1.41a5.47,5.47,0,0,1,2.35,1.4,3,3,0,0,1,.67,2,4,4,0,0,1-1.6,3.12,7.27,7.27,0,0,1-4.75,1.34,7.06,7.06,0,0,1-4.74-1.51,7.77,7.77,0,0,1-2.33-4.7l-6.35.62q.63,5.43,3.93,8.27Zm34.49,2.26V77.59l5.3-5.4,8.89,15.18h8.46L196.67,67.61,208.85,55h-8.79l-13.2,14.37V55h-6.53V87.37Z"/><path class="cls-4" d="M150.81,106.69a3.25,3.25,0,0,1,1.87-.47,3.88,3.88,0,0,1,2.42.55,2.33,2.33,0,0,1,.64,1.85v.45a25,25,0,0,1-4.37,1.11,14.71,14.71,0,0,0-3.58,1,4.44,4.44,0,0,0-1.93,1.73,4.8,4.8,0,0,0-.69,2.57,4.7,4.7,0,0,0,1.52,3.6,5.76,5.76,0,0,0,4.14,1.42,7.13,7.13,0,0,0,2.8-.55,8.19,8.19,0,0,0,2.47-1.69l.16.53c.17.59.31,1,.43,1.33h4.45a10.14,10.14,0,0,1-.81-2.28,18.76,18.76,0,0,1-.21-3.31l0-5.25a9.24,9.24,0,0,0-.61-4,4.45,4.45,0,0,0-2.07-1.81,10.71,10.71,0,0,0-4.49-.71,8.65,8.65,0,0,0-5,1.18,6.33,6.33,0,0,0-2.37,3.65l4.08.74a3.32,3.32,0,0,1,1.09-1.66Zm4.93,6.21a9.31,9.31,0,0,1-.17,2.19,2.8,2.8,0,0,1-1.07,1.49,3.89,3.89,0,0,1-2.33.8,2.44,2.44,0,0,1-1.79-.68,2.23,2.23,0,0,1-.71-1.64,1.88,1.88,0,0,1,.88-1.58,8.24,8.24,0,0,1,2.45-.79,26.25,26.25,0,0,0,2.74-.69v.9Zm12.85,7.27v-2.5a7,7,0,0,0,2.45,2.16,6.26,6.26,0,0,0,2.87.72,6.49,6.49,0,0,0,5-2.35q2.07-2.36,2.07-6.71c0-2.81-.67-5-2-6.46a6.62,6.62,0,0,0-5.14-2.25,6.39,6.39,0,0,0-4.94,2.37V96.69h-4.5v23.48ZM170,107.48a3.41,3.41,0,0,1,2.69-1.26,3.33,3.33,0,0,1,2.71,1.29,6.6,6.6,0,0,1,1.06,4.2,6.28,6.28,0,0,1-1,4,3.18,3.18,0,0,1-2.54,1.27,3.58,3.58,0,0,1-3.11-1.8,7.25,7.25,0,0,1-.83-3.9,5.8,5.8,0,0,1,1.07-3.82Z"/><path class="cls-4" d="M128.67,140.22H109.19q-4.09,11.44-15.12,20T73.65,171.91V193.7a82.8,82.8,0,0,0,31-18.2V266h24V140.22ZM164,211.51a35.91,35.91,0,0,0-5,18.66q0,18.47,13.41,29.05,11.37,9,28.45,9,18.38,0,29.43-10.85t11.07-28.19a32.29,32.29,0,0,0-5.43-18.54q-5.43-8-15.85-12.21A28.76,28.76,0,0,0,232.77,188a27.32,27.32,0,0,0,4.53-15.51q0-14-9.87-23.15t-27.72-9.14q-18,0-27.81,9.14t-9.78,23.15a28.24,28.24,0,0,0,4.23,15.08q4.23,6.87,13.54,10.81Q169,203,164,211.51ZM189,163.37q4.1-4.1,11-4.1a14.48,14.48,0,0,1,10.72,4.06q4,4,4.06,10.8,0,7.19-4.1,11.24t-10.94,4q-6.75,0-10.81-4t-4.05-11.19q0-6.75,4.1-10.85Zm-2,51.34q4.32-6.06,13.11-6.06A16.39,16.39,0,0,1,212.61,214q4.95,5.32,5,14.13,0,10.08-4.87,15.42a15.94,15.94,0,0,1-12.3,5.34,16.5,16.5,0,0,1-12.69-5.55q-5.09-5.55-5.08-15.46a22.23,22.23,0,0,1,4.31-13.16Z"/></g></g></svg>