<svg xmlns="http://www.w3.org/2000/svg" viewBox="0 0 326.49 326.49"><defs><style>.cls-1,.cls-3{fill:#ffe500;}.cls-1{opacity:0.7;}.cls-2,.cls-4{fill:none;}.cls-2{stroke:#ffe500;stroke-width:0.8px;}.cls-4{stroke:#1d1d1b;stroke-width:0.5px;}.cls-5{fill:#1d1d1b;}</style></defs><g id="PRUEFUNG"><g id="_BG-7" data-name="_BG"><path class="cls-1" d="M299.43,325.06H27.06c-25.23,0-25.62-24.63-25.62-25.63V27.07C1.44,1.85,26.06,1.45,27.06,1.45H299.43c25.23,0,25.62,24.63,25.62,25.62V299.43c0,25.23-24.62,25.63-25.62,25.63"/><path class="cls-2" d="M27.08,1.47c-1,0-25.63.4-25.63,25.62V299.42c0,1,.41,25.62,25.63,25.62H299.41c1,0,25.63-.41,25.63-25.62V27.09c0-1-.4-25.62-25.63-25.62Z"/><path class="cls-3" d="M163.24,312.59c82.35,0,149.35-67,149.35-149.34s-67-149.34-149.35-149.34S13.91,80.91,13.91,163.25s67,149.34,149.33,149.34Z"/><path class="cls-4" d="M163.24,312.59c82.35,0,149.35-67,149.35-149.34s-67-149.34-149.35-149.34S13.91,80.91,13.91,163.25s67,149.34,149.33,149.34Z"/><path class="cls-5" d="M130.29,67.61V53.89h13.47V48.43H130.29V40.79H145.9V35.33H123.77V67.61Zm23.25-2.26q3.27,2.84,9.4,2.83A18.41,18.41,0,0,0,170,67a9.35,9.35,0,0,0,4.36-3.6,10.16,10.16,0,0,0,.25-10.34A9.06,9.06,0,0,0,171,49.79a31.4,31.4,0,0,0-7-2.33c-3.18-.74-5.17-1.46-6-2.16a2.45,2.45,0,0,1-1-1.95,2.35,2.35,0,0,1,1-2,7.44,7.44,0,0,1,4.45-1.17,6.57,6.57,0,0,1,4.13,1.1,5.49,5.49,0,0,1,1.8,3.57l6.51-.28a9.4,9.4,0,0,0-3.22-7.12q-3.08-2.65-9.15-2.66a16.19,16.19,0,0,0-6.36,1.12,8.83,8.83,0,0,0-4,3.27,8.5,8.5,0,0,0,1.58,11.11c1.41,1.27,3.86,2.33,7.35,3.2q4.08,1,5.22,1.4a5.47,5.47,0,0,1,2.35,1.4,2.94,2.94,0,0,1,.67,1.95,3.93,3.93,0,0,1-1.6,3.11A7.18,7.18,0,0,1,163,62.68a7,7,0,0,1-4.72-1.5A7.76,7.76,0,0,1,156,56.49l-6.34.62q.65,5.41,3.92,8.24ZM188,67.61V57.86l5.29-5.4,8.87,15.15h8.43L197.73,47.9l12.16-12.57h-8.76L188,49.66V35.33h-6.52V67.61Z"/><path class="cls-5" d="M150.77,85.64a3.22,3.22,0,0,1,1.89-.48,3.89,3.89,0,0,1,2.44.56,2.35,2.35,0,0,1,.65,1.87V88a25.42,25.42,0,0,1-4.42,1.12,15,15,0,0,0-3.61,1.06A4.52,4.52,0,0,0,145.77,92a4.93,4.93,0,0,0-.69,2.6,4.8,4.8,0,0,0,1.52,3.63,5.85,5.85,0,0,0,4.18,1.44,7.08,7.08,0,0,0,2.83-.57,8,8,0,0,0,2.49-1.69c0,.08.09.26.16.53.18.59.32,1,.44,1.34h4.49a9.36,9.36,0,0,1-.81-2.3,18,18,0,0,1-.22-3.34l.05-5.3a9.22,9.22,0,0,0-.61-4.06,4.49,4.49,0,0,0-2.09-1.83,10.89,10.89,0,0,0-4.53-.72,8.72,8.72,0,0,0-5,1.2,6.37,6.37,0,0,0-2.39,3.68l4.12.74a3.3,3.3,0,0,1,1.1-1.67Zm5,6.26a9.45,9.45,0,0,1-.18,2.22,2.94,2.94,0,0,1-1.08,1.5,4,4,0,0,1-2.35.81,2.46,2.46,0,0,1-1.81-.7,2.23,2.23,0,0,1-.71-1.64,1.9,1.9,0,0,1,.89-1.6,8.24,8.24,0,0,1,2.47-.8c1.26-.27,2.18-.5,2.77-.69v.9Zm13,7.34V96.72a6.78,6.78,0,0,0,2.47,2.17,6.13,6.13,0,0,0,2.9.74,6.52,6.52,0,0,0,5.08-2.38q2.1-2.37,2.1-6.77A9.41,9.41,0,0,0,179.2,84,6.7,6.7,0,0,0,174,81.69a6.43,6.43,0,0,0-5,2.39V75.55h-4.55V99.24Zm1.37-12.81a3.46,3.46,0,0,1,2.72-1.27,3.37,3.37,0,0,1,2.73,1.31,6.69,6.69,0,0,1,1.07,4.24,6.31,6.31,0,0,1-1.06,4.05A3.2,3.2,0,0,1,173,96a3.59,3.59,0,0,1-3.14-1.81,7.28,7.28,0,0,1-.84-3.94,5.85,5.85,0,0,1,1.08-3.86Z"/><path class="cls-5" d="M186.94,125.27q-7.87-6.72-19.87-6.72-17.1,0-27.8,12.79t-10.71,41.73q0,28.23,10.28,40.62a32.52,32.52,0,0,0,26.22,12.4q14.88,0,24.36-9.77t9.48-25.94q0-15.23-9-24.85t-21.66-9.62q-11.21,0-18.75,8.91,1.14-18.18,5.56-23.93t10.82-5.74a10.9,10.9,0,0,1,7.83,2.87q3,2.88,3.74,8.91L197,144.77q-2.16-12.78-10-19.5Zm-31.73,50.06a13,13,0,0,1,19.91.22q4,4.78,4,15,0,10-3.73,14.37a11.79,11.79,0,0,1-9.35,4.38q-5.82,0-10.34-5.35t-4.53-15.2q0-8.9,4-13.47Z"/><path class="cls-5" d="M65.45,250.55h2.63v14.2h4.74v-14.2h3.55v-3.72H72.82v-1.28a2.77,2.77,0,0,1,.45-1.84,2,2,0,0,1,1.48-.48,9.42,9.42,0,0,1,2.18.27l.64-3.31a13.41,13.41,0,0,0-4-.6,6.89,6.89,0,0,0-3.27.69,3.79,3.79,0,0,0-1.77,1.82,9,9,0,0,0-.48,3.38v1.35H65.45v3.72Zm18.13,8.67a28.61,28.61,0,0,1,.39-6,3.82,3.82,0,0,1,1.09-2,2.67,2.67,0,0,1,1.69-.54,4.21,4.21,0,0,1,2.23.77l1.47-4.14a6.07,6.07,0,0,0-3.13-.89,3.77,3.77,0,0,0-2,.57,7.72,7.72,0,0,0-2,2.39v-2.55H78.83v17.92h4.75v-5.53ZM101.72,261a2.91,2.91,0,0,1-1.87.6,3.59,3.59,0,0,1-2.73-1.17A4.74,4.74,0,0,1,96,257.16h11.88q.11-5.46-2.21-8.1a8,8,0,0,0-6.31-2.64,7.67,7.67,0,0,0-5.9,2.53,9.88,9.88,0,0,0-2.32,7,10.32,10.32,0,0,0,1.77,6.19c1.5,2,3.8,3.05,6.92,3.05a8.42,8.42,0,0,0,4.92-1.36,7.77,7.77,0,0,0,2.88-4l-4.73-.79a3.7,3.7,0,0,1-1.15,2Zm-5.67-6.76a4.36,4.36,0,0,1,1-3.07,3.3,3.3,0,0,1,2.57-1.13,3.25,3.25,0,0,1,2.46,1.07,4.57,4.57,0,0,1,1.06,3.13Zm20.41-9.86V240h-4.74v4.39Zm0,20.36V246.83h-4.74v17.92Zm4.41,1.76a4.89,4.89,0,0,0,1.91,4q1.91,1.56,6.46,1.56a13.28,13.28,0,0,0,4-.51,6.43,6.43,0,0,0,2.52-1.4,5.88,5.88,0,0,0,1.47-2.46,16.4,16.4,0,0,0,.52-4.75V246.83h-4.44v2.51a6.56,6.56,0,0,0-5.49-2.92,7,7,0,0,0-5.39,2.38q-2.18,2.38-2.17,6.88a10.44,10.44,0,0,0,1.65,6,6.61,6.61,0,0,0,5.73,3.05,6.41,6.41,0,0,0,5.37-2.9v2.61a7.48,7.48,0,0,1-.22,2.19,2.35,2.35,0,0,1-.95,1.19,5.55,5.55,0,0,1-2.79.56,3.62,3.62,0,0,1-2.12-.5,1.87,1.87,0,0,1-.63-1.3l-5.41-.66c0,.22,0,.41,0,.57Zm5.36-15.14a3.49,3.49,0,0,1,2.81-1.32,3.63,3.63,0,0,1,2.9,1.35,6.25,6.25,0,0,1,1.15,4.13,5.92,5.92,0,0,1-1.2,4,3.76,3.76,0,0,1-2.94,1.36,3.4,3.4,0,0,1-2.72-1.32,6.45,6.45,0,0,1-1.11-4.18,6.23,6.23,0,0,1,1.11-4ZM151.68,261a2.93,2.93,0,0,1-1.87.6,3.59,3.59,0,0,1-2.74-1.17,4.79,4.79,0,0,1-1.15-3.28H157.8q.1-5.46-2.2-8.1a8,8,0,0,0-6.32-2.64,7.65,7.65,0,0,0-5.89,2.53,9.84,9.84,0,0,0-2.33,7,10.32,10.32,0,0,0,1.77,6.19q2.25,3,6.92,3.05a8.47,8.47,0,0,0,4.93-1.36,7.7,7.7,0,0,0,2.87-4l-4.72-.79a3.83,3.83,0,0,1-1.15,2ZM146,254.25a4.36,4.36,0,0,1,1-3.07,3.32,3.32,0,0,1,2.57-1.13,3.24,3.24,0,0,1,2.46,1.07,4.57,4.57,0,0,1,1.07,3.13Zm15.22,12.26a4.91,4.91,0,0,0,1.9,4c1.28,1,3.43,1.56,6.47,1.56a13.17,13.17,0,0,0,4-.51,6.33,6.33,0,0,0,2.53-1.4,5.88,5.88,0,0,0,1.47-2.46,16.06,16.06,0,0,0,.52-4.75V246.83h-4.44v2.51a6.56,6.56,0,0,0-5.49-2.92,7,7,0,0,0-5.39,2.38q-2.17,2.38-2.17,6.88a10.44,10.44,0,0,0,1.65,6,6.61,6.61,0,0,0,5.73,3.05,6.41,6.41,0,0,0,5.37-2.9v2.61a7.48,7.48,0,0,1-.22,2.19,2.35,2.35,0,0,1-.95,1.19,5.53,5.53,0,0,1-2.79.56,3.62,3.62,0,0,1-2.12-.5,1.87,1.87,0,0,1-.63-1.3l-5.42-.66c0,.22,0,.41,0,.57Zm5.36-15.14a3.49,3.49,0,0,1,2.81-1.32,3.63,3.63,0,0,1,2.9,1.35,6.25,6.25,0,0,1,1.15,4.13,5.92,5.92,0,0,1-1.2,4,3.75,3.75,0,0,1-2.94,1.36,3.4,3.4,0,0,1-2.72-1.32,6.45,6.45,0,0,1-1.11-4.18,6.23,6.23,0,0,1,1.11-4ZM192,261a2.93,2.93,0,0,1-1.87.6,3.59,3.59,0,0,1-2.74-1.17,4.84,4.84,0,0,1-1.15-3.28h11.89q.09-5.46-2.21-8.1a8,8,0,0,0-6.32-2.64,7.64,7.64,0,0,0-5.89,2.53,9.88,9.88,0,0,0-2.33,7,10.32,10.32,0,0,0,1.77,6.19q2.25,3,6.93,3.05A8.46,8.46,0,0,0,195,263.8a7.75,7.75,0,0,0,2.87-4l-4.73-.79a3.76,3.76,0,0,1-1.14,2Zm-5.67-6.76a4.35,4.35,0,0,1,1-3.07,3.32,3.32,0,0,1,2.57-1.13,3.22,3.22,0,0,1,2.46,1.07,4.57,4.57,0,0,1,1.07,3.13Zm19.87,10.5v-2.63a7.19,7.19,0,0,0,2.57,2.27,6.62,6.62,0,0,0,3,.77,6.82,6.82,0,0,0,5.31-2.49q2.19-2.48,2.19-7.06t-2.15-6.82a7,7,0,0,0-5.41-2.37,6.72,6.72,0,0,0-5.21,2.5V240h-4.74v24.75Zm1.43-13.38a3.59,3.59,0,0,1,2.84-1.32,3.5,3.5,0,0,1,2.85,1.36,7,7,0,0,1,1.12,4.43,6.63,6.63,0,0,1-1.11,4.23,3.37,3.37,0,0,1-2.68,1.34,3.77,3.77,0,0,1-3.28-1.89,7.68,7.68,0,0,1-.87-4.12,6.13,6.13,0,0,1,1.13-4ZM232.38,261a2.94,2.94,0,0,1-1.88.6,3.59,3.59,0,0,1-2.73-1.17,4.79,4.79,0,0,1-1.15-3.28H238.5q.1-5.46-2.21-8.1a8,8,0,0,0-6.31-2.64,7.65,7.65,0,0,0-5.89,2.53,9.84,9.84,0,0,0-2.33,7,10.32,10.32,0,0,0,1.77,6.19c1.5,2,3.8,3.05,6.92,3.05a8.42,8.42,0,0,0,4.92-1.36,7.71,7.71,0,0,0,2.88-4l-4.73-.79a3.69,3.69,0,0,1-1.14,2Zm-5.67-6.76a4.31,4.31,0,0,1,1-3.07,3.29,3.29,0,0,1,2.56-1.13,3.26,3.26,0,0,1,2.47,1.07,4.62,4.62,0,0,1,1.07,3.13Zm32-.64a15.32,15.32,0,0,0-.25-3.19,5.36,5.36,0,0,0-.93-2,4.92,4.92,0,0,0-2-1.45,7.37,7.37,0,0,0-8.78,2.48v-2.63h-4.4v17.92h4.74v-8.12a15.51,15.51,0,0,1,.36-4.11,3.34,3.34,0,0,1,1.34-1.79,3.78,3.78,0,0,1,2.22-.68,2.83,2.83,0,0,1,1.64.47,2.59,2.59,0,0,1,1,1.33,14.34,14.34,0,0,1,.3,3.76v9.14h4.74V253.61Z"/></g></g></svg>