<?xml version="1.0" encoding="utf-8"?>
<!-- Generator: Adobe Illustrator 24.0.1, SVG Export Plug-In . SVG Version: 6.00 Build 0)  -->
<svg version="1.1" id="Layer_1" xmlns="http://www.w3.org/2000/svg" xmlns:xlink="http://www.w3.org/1999/xlink" x="0px" y="0px"
	 viewBox="0 0 326.5 326.5" style="enable-background:new 0 0 326.5 326.5;" xml:space="preserve">
<style type="text/css">
	.st0{fill:#11612D;}
	.st1{fill:#FFFFFF;}
</style>
<g id="OER">
	<g id="_BG">
		<path class="st0" d="M30,0h266.5c16.6,0,30,13.4,30,30v266.5c0,16.6-13.4,30-30,30H30c-16.6,0-30-13.4-30-30V30
			C0,13.4,13.4,0,30,0z"/>
	</g>
</g>
<g>
	<path class="st1" d="M48.5,132.7v27.6h48.3v19.4H48.5v38H24.4V113.4h78.8v19.4H48.5z"/>
	<path class="st1" d="M129.6,216.1c-7.7-2.2-13.9-5.1-18.5-8.7l8.2-18.2c4.5,3.3,9.8,5.9,15.9,7.9c6.2,2,12.3,3,18.5,3
		c6.9,0,11.9-1,15.2-3.1c3.3-2,4.9-4.7,4.9-8.1c0-2.5-1-4.5-2.9-6.2c-1.9-1.6-4.4-3-7.4-3.9c-3-1-7.1-2.1-12.3-3.3
		c-7.9-1.9-14.4-3.8-19.5-5.7c-5.1-1.9-9.4-4.9-13-9.1c-3.6-4.2-5.4-9.7-5.4-16.7c0-6.1,1.6-11.5,4.9-16.5s8.2-8.8,14.8-11.7
		c6.6-2.9,14.7-4.3,24.2-4.3c6.7,0,13.2,0.8,19.5,2.4c6.4,1.6,11.9,3.9,16.7,6.9l-7.4,18.3c-9.6-5.5-19.3-8.2-28.9-8.2
		c-6.8,0-11.7,1.1-15,3.3c-3.2,2.2-4.8,5.1-4.8,8.6c0,3.6,1.9,6.2,5.6,8c3.7,1.7,9.4,3.5,17.1,5.1c7.9,1.9,14.4,3.8,19.5,5.7
		c5.1,1.9,9.4,4.9,13,8.9c3.6,4.1,5.4,9.6,5.4,16.5c0,6-1.7,11.4-5,16.3c-3.3,4.9-8.3,8.8-15,11.7c-6.7,2.9-14.7,4.3-24.3,4.3
		C145.2,219.4,137.3,218.3,129.6,216.1z"/>
	<path class="st1" d="M252.2,176.7l-14,14.6v26.4h-24V113.4h24v48.7l46.2-48.7h26.8L268,159.8l45.7,57.8h-28.1L252.2,176.7z"/>
</g>
</svg>
