<svg xmlns="http://www.w3.org/2000/svg" viewBox="0 0 326.49 326.49"><defs><style>.cls-1{fill:#e73446;}.cls-2{fill:#fff;}</style></defs><g id="OER"><g id="_BG"><rect class="cls-1" width="326.49" height="326.49" rx="30"/></g><g id="ICON"><path class="cls-2" d="M19.17,163.51c0-29.74,23.17-51.77,54.77-51.77s54.77,21.88,54.77,51.77-23.31,51.77-54.77,51.77S19.17,193.26,19.17,163.51Zm86.09,0c0-19-13.44-32-31.32-32s-31.31,13-31.31,32,13.44,32,31.31,32S105.26,182.53,105.26,163.51Z"/><path class="cls-2" d="M213.65,195v18.59h-77.5V113.46H211.8v18.59H159.17v21.74h46.48v18H159.17V195Z"/><path class="cls-2" d="M285.87,213.56l-19.31-27.88H245.25v27.88H222.09V113.46h43.33c26.74,0,43.47,13.87,43.47,36.32,0,15-7.58,26-20.59,31.61l22.45,32.17Zm-21.74-81.22H245.25v34.89h18.88c14.16,0,21.31-6.58,21.31-17.45S278.29,132.34,264.13,132.34Z"/></g></g></svg>