<?xml version="1.0" standalone="no"?>
<!DOCTYPE svg PUBLIC "-//W3C//DTD SVG 20010904//EN"
 "http://www.w3.org/TR/2001/REC-SVG-20010904/DTD/svg10.dtd">
<svg version="1.0" xmlns="http://www.w3.org/2000/svg"
 width="360.000000pt" height="360.000000pt" viewBox="0 0 360.000000 360.000000"
 preserveAspectRatio="xMidYMid meet">
<metadata>
Created by potrace 1.11, written by Peter Selinger 2001-2013
</metadata>
<g transform="translate(0.000000,360.000000) scale(0.100000,-0.100000)"
fill="#000000" stroke="none">
<path d="M1640 3497 c-3 -3 -30 -7 -60 -11 -669 -74 -1265 -602 -1428 -1266
-50 -199 -66 -440 -42 -625 61 -469 305 -886 683 -1166 196 -146 482 -268 711
-305 21 -3 48 -8 60 -11 50 -13 394 -10 481 3 240 37 445 113 660 243 35 21
70 44 77 50 7 6 47 37 88 70 225 177 420 447 523 722 35 95 75 244 83 309 2
19 9 60 14 90 9 56 7 395 -4 440 -3 13 -8 42 -12 64 -19 132 -96 353 -172 495
-193 363 -520 650 -907 796 -76 28 -228 70 -291 79 -22 4 -51 9 -64 12 -30 7
-394 17 -400 11z"/>
</g>
</svg>
