<svg width="39" height="24" viewBox="0 0 39 24" fill="none" xmlns="http://www.w3.org/2000/svg">
<path d="M35.1784 8.59987H38.9701V6.75646H34.4091C31.9538 6.75646 30.9437 8.16285 30.9437 10.3638V10.5784C30.5319 7.98805 29.0245 6.75646 26.2662 6.75646H21.643C19.7782 2.94252 15.9321 0.320435 11.4721 0.320435C5.20946 0.320435 0.120117 5.52488 0.120117 11.9371C0.120117 18.3493 5.20946 23.5458 11.4721 23.5458C15.901 23.5458 19.7316 20.9634 21.6042 17.1892H26.3206C27.4472 17.1892 28.4651 17.1177 29.4985 16.2754C30.2444 15.6716 30.7106 14.8134 30.9282 13.6931V17.1733H33.0882V13.0813H38.1931V11.2617H33.0805L33.1115 10.5227C33.1193 9.32293 33.4767 8.59987 35.1784 8.59987ZM26.2195 15.3458H23.8342V8.59987H26.2195C28.0921 8.59987 28.7681 9.41828 28.7681 11.9768C28.7681 14.5274 28.0999 15.3458 26.2195 15.3458Z" fill="#FA7D19"/>
<path d="M16.4996 11.0709H17.9138C19.0327 11.0709 19.6931 10.8404 19.6931 9.87107C19.6931 8.86991 19.0327 8.59181 17.8827 8.59181H13.1042V6.75635H18.6675C21.488 6.75635 21.892 8.77456 21.892 9.90285C21.892 11.1027 21.4103 13.0017 18.6675 13.0017H17.2999C15.5906 13.0017 15.2254 13.6294 15.2254 14.8292V15.3854H21.6123V17.1652H13.042V14.5829C13.042 12.374 14.0521 11.0709 16.4996 11.0709Z" fill="white"/>
</svg>
