<svg width="27" height="33" viewBox="0 0 27 33" fill="none" xmlns="http://www.w3.org/2000/svg">
<path fill-rule="evenodd" clip-rule="evenodd" d="M19.9836 14.3248L13.3957 7.61539H2.49795C1.12408 7.61539 0.0124901 8.75769 0.0124901 10.1538L0 30.4615C0 31.8577 1.11159 33 2.48546 33H17.4857C18.8596 33 19.9836 31.8577 19.9836 30.4615V14.3248ZM1.87347 30.462C1.87371 30.8189 2.15862 31.0962 2.48546 31.0962H17.4857C17.8249 31.0962 18.1102 30.8062 18.1102 30.4615V16.2287H11.5222V9.51923H2.49795C2.17097 9.51923 1.88596 9.79672 1.88596 10.1538L1.87347 30.462ZM13.3957 14.3248H17.3462L13.3957 10.1538V14.3248Z" fill="black"/>
<path fill-rule="evenodd" clip-rule="evenodd" d="M20.1647 0L26.7526 6.70945V22.8462C26.7526 24.2423 25.6285 25.3846 24.2546 25.3846H19.4616V23.4808H24.2546C24.5938 23.4808 24.8791 23.1908 24.8791 22.8462V8.6133H18.2912V1.90385H9.26691C8.93992 1.90385 8.65491 2.18133 8.65491 2.53846L8.65179 7.61538H6.77832L6.78144 2.53846C6.78144 1.14231 7.89303 0 9.26691 0H20.1647ZM24.1151 6.70945H20.1647V2.53846L24.1151 6.70945Z" fill="black"/>
<line x1="4" y1="19.25" x2="16" y2="19.25" stroke="black" stroke-width="1.5"/>
<line x1="4" y1="22.25" x2="16" y2="22.25" stroke="black" stroke-width="1.5"/>
<line x1="4" y1="25.25" x2="16" y2="25.25" stroke="black" stroke-width="1.5"/>
<line x1="4" y1="28.25" x2="16" y2="28.25" stroke="black" stroke-width="1.5"/>
</svg>
