<svg width="34" height="26" viewBox="0 0 34 26" fill="none" xmlns="http://www.w3.org/2000/svg">
<path d="M3.08885 0.400024C1.71214 0.400024 0.568848 1.54331 0.568848 2.92002V23.08C0.568848 24.4567 1.71214 25.6 3.08885 25.6H31.1688C32.5456 25.6 33.6888 24.4567 33.6888 23.08V2.92002C33.6888 1.54331 32.5456 0.400024 31.1688 0.400024H3.08885ZM3.08885 2.56002H31.1688C31.3868 2.56002 31.5288 2.70206 31.5288 2.92002V17.23L26.0838 12.8762C25.7281 12.5879 25.181 12.564 24.8013 12.8199L19.6937 16.3299L12.7637 10.7161C12.5429 10.5361 12.249 10.4489 11.9649 10.4798C11.7877 10.5009 11.6161 10.567 11.4699 10.6711L2.72874 16.7011V2.91993C2.72874 2.70197 2.87077 2.55993 3.08874 2.55993L3.08885 2.56002ZM19.6488 5.44002C17.8728 5.44002 16.4088 6.90393 16.4088 8.68002C16.4088 10.4561 17.8728 11.92 19.6488 11.92C21.4249 11.92 22.8888 10.4561 22.8888 8.68002C22.8888 6.90393 21.4249 5.44002 19.6488 5.44002ZM19.6488 7.60002C20.2578 7.60002 20.7288 8.07112 20.7288 8.68002C20.7288 9.28893 20.2578 9.76002 19.6488 9.76002C19.0399 9.76002 18.5688 9.28893 18.5688 8.68002C18.5688 8.07112 19.0399 7.60002 19.6488 7.60002ZM12.0438 12.91L18.9738 18.5123C19.3296 18.8006 19.8767 18.8245 20.2563 18.5686L25.3525 15.0586L31.5287 19.9974V23.0799C31.5287 23.2979 31.3866 23.4399 31.1687 23.4399H3.08867C2.8707 23.4399 2.72867 23.2979 2.72867 23.0799V19.3338L12.0438 12.91Z" fill="black"/>
</svg>
