<svg width="24" height="30" viewBox="0 0 24 30" fill="none" xmlns="http://www.w3.org/2000/svg">
<path fill-rule="evenodd" clip-rule="evenodd" d="M23.617 7.92935L15.8313 0H2.95213C1.32846 0 0.014761 1.35 0.014761 3L0 27C0 28.65 1.3137 30 2.93737 30H20.6649C22.2886 30 23.617 28.65 23.617 27V7.92935ZM2.2141 27.0005C2.21438 27.4223 2.55109 27.75 2.93737 27.75H20.6649C21.0658 27.75 21.4029 27.4074 21.4029 27V10.1794H13.6172V2.25H2.95213C2.56569 2.25 2.22886 2.57793 2.22886 3L2.2141 27.0005ZM15.8313 7.92935H20.5L15.8313 3V7.92935Z" fill="black"/>
<path d="M4 19.8H5.66667V18.2H4V19.8ZM4 23H5.66667V21.4H4V23ZM4 16.6H5.66667V15H4V16.6ZM7.33333 19.8H19V18.2H7.33333V19.8ZM7.33333 23H19V21.4H7.33333V23ZM7.33333 15V16.6H19V15H7.33333Z" fill="black"/>
</svg>
