<svg width="36" height="27" viewBox="0 0 36 27" fill="none" xmlns="http://www.w3.org/2000/svg">
<path d="M6.45 0.169922C2.89915 0.169922 0 3.06907 0 6.61992V20.3799C0 23.9308 2.89915 26.8299 6.45 26.8299H28.81C32.3609 26.8299 35.26 23.9308 35.26 20.3799V6.61992C35.26 3.06907 32.3609 0.169922 28.81 0.169922H6.45ZM6.45 2.74992H28.81C30.9768 2.74992 32.68 4.45311 32.68 6.61992V20.3799C32.68 22.5467 30.9768 24.2499 28.81 24.2499H6.45C4.28319 24.2499 2.58 22.5467 2.58 20.3799V6.61992C2.58 4.45311 4.28319 2.74992 6.45 2.74992ZM13.8004 6.61992C13.451 6.60816 13.1134 6.73918 12.8615 6.98273C12.6112 7.22629 12.4701 7.56057 12.4701 7.9099V19.0899C12.4667 19.7517 12.9656 20.311 13.6257 20.3799C13.8861 20.4068 14.1481 20.3564 14.3782 20.2321L24.6982 14.6421C25.1165 14.417 25.3751 13.9803 25.3751 13.5066C25.3751 13.0313 25.1165 12.5962 24.6982 12.3712L14.3782 6.78117C14.2002 6.68207 14.0037 6.62664 13.8004 6.61992H13.8004ZM15.0501 10.0868L21.3659 13.4999L15.0501 16.9265V10.0868Z" fill="black"/>
</svg>
