<svg width="29" height="28" viewBox="0 0 29 28" fill="none" xmlns="http://www.w3.org/2000/svg">
<path d="M27.4071 8.81132C26.4479 7.8521 24.886 7.8521 23.9267 8.81132C23.6314 9.10664 21.7469 10.9934 21.4592 11.281L21.4581 4.78081C21.4581 4.12345 21.2022 3.50549 20.7373 3.04066L18.4175 0.720807C17.9526 0.255951 17.3347 3.05176e-05 16.6773 3.05176e-05H2.59083C1.23347 3.05176e-05 0.129883 1.10362 0.129883 2.46098V25.5391C0.129883 26.8965 1.23347 28.0001 2.59083 28.0001H18.9971C20.3545 28.0001 21.4581 26.8965 21.4581 25.5391V18.246L27.407 12.2915C28.3684 11.3301 28.3684 9.77368 27.407 8.8111L27.4071 8.81132ZM16.5364 1.6408C16.6917 1.6408 16.9903 1.61346 17.2572 1.88143L19.577 4.20129C19.8373 4.4616 19.8177 4.74706 19.8177 4.92206H16.5363L16.5364 1.6408ZM19.8177 25.5394C19.8177 25.9922 19.4502 26.3597 18.9974 26.3597H2.59108C2.13827 26.3597 1.77077 25.9922 1.77077 25.5394V2.4612C1.77077 2.00839 2.13827 1.64089 2.59108 1.64089H14.8957V5.74233C14.8957 6.19514 15.2632 6.56264 15.716 6.56264H19.8174V12.924L17.397 15.3466L16.2376 16.506C16.1479 16.5957 16.0801 16.7061 16.0396 16.8264L14.8792 20.3068C14.7807 20.6022 14.8573 20.927 15.0772 21.1468C15.297 21.3667 15.6218 21.4432 15.9172 21.3448L19.3975 20.1843C19.5179 20.1439 19.6283 20.0761 19.718 19.9864L19.8175 19.8868L19.8177 25.5394ZM17.978 17.0859L19.1385 18.2463L18.6955 18.6893L16.9554 19.269L17.5351 17.5288L17.978 17.0859ZM20.2979 17.0859L19.1374 15.9254C19.7554 15.3075 22.4985 12.5609 23.0804 11.9791L24.2408 13.1396L20.2979 17.0859ZM26.2468 11.1325L25.4013 11.9791L24.2408 10.8186L25.0863 9.97206C25.4068 9.6527 25.9263 9.6527 26.2468 9.97206C26.5661 10.2925 26.5683 10.811 26.2468 11.1325Z" fill="black"/>
<path d="M15.7159 8.20319H4.23145C3.77863 8.20319 3.41113 8.57069 3.41113 9.0235C3.41113 9.47632 3.77863 9.84382 4.23145 9.84382H15.7159C16.1687 9.84382 16.5362 9.47632 16.5362 9.0235C16.5362 8.57069 16.1687 8.20319 15.7159 8.20319Z" fill="black"/>
<path d="M12.4346 11.4845H4.23145C3.77863 11.4845 3.41113 11.852 3.41113 12.3048C3.41113 12.7576 3.77863 13.1251 4.23145 13.1251H12.4346C12.8874 13.1251 13.2549 12.7576 13.2549 12.3048C13.2549 11.852 12.8874 11.4845 12.4346 11.4845Z" fill="black"/>
<path d="M12.4346 14.7655H4.23145C3.77863 14.7655 3.41113 15.133 3.41113 15.5859C3.41113 16.0387 3.77863 16.4062 4.23145 16.4062H12.4346C12.8874 16.4062 13.2549 16.0387 13.2549 15.5859C13.2549 15.133 12.8874 14.7655 12.4346 14.7655Z" fill="black"/>
<path d="M12.4346 18.0468H4.23145C3.77863 18.0468 3.41113 18.4143 3.41113 18.8672C3.41113 19.32 3.77863 19.6875 4.23145 19.6875H12.4346C12.8874 19.6875 13.2549 19.32 13.2549 18.8672C13.2549 18.4143 12.8874 18.0468 12.4346 18.0468Z" fill="black"/>
<path d="M15.7163 23.0782H10.7944C10.3416 23.0782 9.97412 23.4457 9.97412 23.8985C9.97412 24.3513 10.3416 24.7188 10.7944 24.7188H15.7163C16.1691 24.7188 16.5366 24.3513 16.5366 23.8985C16.5366 23.4457 16.1691 23.0782 15.7163 23.0782V23.0782Z" fill="black"/>
</svg>
