<svg width="44" height="44" viewBox="0 0 44 44" fill="none" xmlns="http://www.w3.org/2000/svg">
<path d="M6.79684 36.6667C6.07901 36.6667 5.45091 36.3917 4.91254 35.8417C4.37417 35.2917 4.10498 34.65 4.10498 33.9167V10.0834C4.10498 9.35004 4.37417 8.70837 4.91254 8.15837C5.45091 7.60837 6.07901 7.33337 6.79684 7.33337H30.1263C30.8441 7.33337 31.4722 7.60837 32.0106 8.15837C32.549 8.70837 32.8182 9.35004 32.8182 10.0834V19.9375L39.9965 12.6042V31.3959L32.8182 24.0625V33.9167C32.8182 34.65 32.549 35.2917 32.0106 35.8417C31.4722 36.3917 30.8441 36.6667 30.1263 36.6667H6.79684ZM6.79684 33.9167H30.1263V10.0834H6.79684V33.9167Z" fill="#4F4F5B"/>
</svg>
