<svg version="1.0" xmlns="http://www.w3.org/2000/svg" width="480" height="480" viewBox="0 0 360 360"><path d="M164 10.3c-.3.3-3 .7-6 1.1C91.1 18.8 31.5 71.6 15.2 138c-5 19.9-6.6 44-4.2 62.5 6.1 46.9 30.5 88.6 68.3 116.6 19.6 14.6 48.2 26.8 71.1 30.5 2.1.3 4.8.8 6 1.1 5 1.3 39.4 1 48.1-.3 24-3.7 44.5-11.3 66-24.3 3.5-2.1 7-4.4 7.7-5 .7-.6 4.7-3.7 8.8-7 22.5-17.7 42-44.7 52.3-72.2 3.5-9.5 7.5-24.4 8.3-30.9.2-1.9.9-6 1.4-9 .9-5.6.7-39.5-.4-44-.3-1.3-.8-4.2-1.2-6.4-1.9-13.2-9.6-35.3-17.2-49.5-19.3-36.3-52-65-90.7-79.6-7.6-2.8-22.8-7-29.1-7.9-2.2-.4-5.1-.9-6.4-1.2-3-.7-39.4-1.7-40-1.1z"/></svg>