<svg version="1.0" xmlns="http://www.w3.org/2000/svg" width="346.667" height="346.667" viewBox="0 0 260 260"><path d="M149.1 67.7l-3.4.4.6 22.2c.4 12.2.9 36.8 1.2 54.7.3 17.9.8 35.8 1.1 39.7l.6 7.3H174v-13l3.6 4c2 2.2 6.1 5.2 9.2 6.7 5 2.4 6.8 2.8 14.7 2.8 10.8-.1 17-2 24.7-7.5 13.4-9.5 20.1-28.6 16.8-47.8-2.5-14.8-11.5-27.2-23.8-33-5.1-2.4-6.8-2.7-16.7-2.7-12.7 0-17.4 1.6-24.8 8.5-2.4 2.2-4.7 4-5.1 4-.3 0-.6-9.2-.6-20.4s-.3-21.8-.6-23.5l-.6-3.1-9.2.2c-5 0-10.6.3-12.5.5zm56.7 56.2c8.2 4.2 12.1 11.7 12.2 23.2 0 6.5-.4 8.5-2.8 13-4 7.6-9.4 11.2-17.6 11.7-7.9.5-12.7-1-17.7-5.5-5.5-5-7.3-10.4-6.7-20.7.4-7.2.9-9.2 3.4-13.2 5.7-9.3 19.7-13.3 29.2-8.5zM21 73.7c0 3.2-.9 30.3-2 60.2-1.1 30-1.9 54.6-1.7 54.7.1.1 12.6.7 27.8 1.3 29.3 1.1 35.6.7 45.3-3 15.4-5.7 24.1-22.9 19.1-37.8-2.3-6.9-9.9-15.2-16.7-18.1l-5.2-2.2 3.8-1.9c10.6-5.1 15.9-13.2 15.8-24.3-.1-8.8-3-15.3-9.8-21.5-9.2-8.4-18-10.7-44.9-11.6-9.3-.3-20.3-.8-24.2-1.1l-7.3-.6v5.9zm47.7 17.9c8.3 1 13.5 8.4 11.4 16.1-2.6 9.5-7.8 12.2-23.5 12.3H45.7l.6-9.8c.4-5.3.7-12 .7-14.8v-5l8.8.3c4.8.2 10.6.6 12.9.9zm6.4 50.6c6.6 3.3 8.9 6.8 8.9 13.7 0 4.2-.5 5.6-3 8.4-4.1 4.7-8.7 5.6-24 4.8-12.1-.6-12.5-.7-12.4-2.9 0-1.2.1-7.9.2-14.8l.2-12.6 12.3.4c10.8.3 13 .7 17.8 3z"/></svg>