<?xml version="1.0" standalone="no"?>
<!DOCTYPE svg PUBLIC "-//W3C//DTD SVG 20010904//EN"
 "http://www.w3.org/TR/2001/REC-SVG-20010904/DTD/svg10.dtd">
<svg version="1.0" xmlns="http://www.w3.org/2000/svg"
 width="260.000000pt" height="260.000000pt" viewBox="0 0 260.000000 260.000000"
 preserveAspectRatio="xMidYMid meet">
<metadata>
Created by potrace 1.11, written by Peter Selinger 2001-2013
</metadata>
<g transform="translate(0.000000,260.000000) scale(0.100000,-0.100000)"
fill="#000000" stroke="none">
<path d="M1491 1923 l-34 -4 6 -222 c4 -122 9 -368 12 -547 3 -179 8 -358 11
-397 l6 -73 124 0 124 0 0 65 0 65 36 -40 c20 -22 61 -52 92 -67 50 -24 68
-28 147 -28 108 1 170 20 247 75 134 95 201 286 168 478 -25 148 -115 272
-238 330 -51 24 -68 27 -167 27 -127 0 -174 -16 -248 -85 -24 -22 -47 -40 -51
-40 -3 0 -6 92 -6 204 0 112 -3 218 -6 235 l-6 31 -92 -2 c-50 0 -106 -3 -125
-5z m567 -562 c82 -42 121 -117 122 -232 0 -65 -4 -85 -28 -130 -40 -76 -94
-112 -176 -117 -79 -5 -127 10 -177 55 -55 50 -73 104 -67 207 4 72 9 92 34
132 57 93 197 133 292 85z"/>
<path d="M210 1863 c0 -32 -9 -303 -20 -602 -11 -300 -19 -546 -17 -547 1 -1
126 -7 278 -13 293 -11 356 -7 453 30 154 57 241 229 191 378 -23 69 -99 152
-167 181 l-52 22 38 19 c106 51 159 132 158 243 -1 88 -30 153 -98 215 -92 84
-180 107 -449 116 -93 3 -203 8 -242 11 l-73 6 0 -59z m477 -179 c83 -10 135
-84 114 -161 -26 -95 -78 -122 -235 -123 l-109 0 6 98 c4 53 7 120 7 148 l0
50 88 -3 c48 -2 106 -6 129 -9z m64 -506 c66 -33 89 -68 89 -137 0 -42 -5 -56
-30 -84 -41 -47 -87 -56 -240 -48 -121 6 -125 7 -124 29 0 12 1 79 2 148 l2
126 123 -4 c108 -3 130 -7 178 -30z"/>
</g>
</svg>
