<svg width="75" height="75" viewBox="0 0 75 75" fill="none" xmlns="http://www.w3.org/2000/svg">
<g clip-path="url(#clip0)">
<path d="M55.7358 37.9192C63.6812 30.5429 67.6539 23.3432 65.2702 19.1471C63.946 16.8503 60.9002 15.7902 56.751 15.7902C53.2638 15.7902 48.9821 16.5411 44.259 18.0429C41.8754 7.44216 37.5937 0.419189 32.7823 0.419189C27.9267 0.419189 23.6892 7.48633 21.3055 18.0429C16.5824 16.5853 12.3007 15.7902 8.81357 15.7902C4.66428 15.7902 1.61851 16.8945 0.294274 19.1471C-2.1335 23.3432 1.83921 30.5429 9.82878 37.9192C1.88335 45.2955 -2.08936 52.4952 0.294274 56.6913C1.61851 58.9881 4.66428 60.0482 8.81357 60.0482C12.3007 60.0482 16.5824 59.2973 21.3055 57.7955C23.6892 68.3962 27.9709 75.4192 32.7823 75.4192C37.6378 75.4192 41.8754 68.3521 44.259 57.7955C48.9821 59.2531 53.2638 60.0482 56.751 60.0482C60.9002 60.0482 63.946 58.9439 65.2702 56.6913C67.6539 52.4952 63.6812 45.2955 55.7358 37.9192ZM56.7069 21.9298C58.2518 21.9298 59.223 22.1506 59.7085 22.3273C59.4878 23.4316 58.3401 26.2142 54.4998 30.4104C53.4404 31.5588 52.2486 32.7072 50.9685 33.8998C49.4236 32.663 47.7462 31.4704 45.9805 30.2778C45.804 28.1577 45.5833 26.1259 45.3184 24.1383C50.1298 22.5923 54.0143 21.9298 56.7069 21.9298ZM36.446 44.3238C35.2101 45.0305 33.9741 45.7372 32.7381 46.3556C31.5463 45.7372 30.3104 45.0305 29.0303 44.3238C27.7943 43.6171 26.6025 42.8662 25.4107 42.1153C25.3665 40.746 25.3224 39.3326 25.3224 37.9192C25.3224 36.5058 25.3665 35.0923 25.4107 33.7231C26.6025 32.9722 27.7943 32.2655 29.0303 31.5146C30.2662 30.8079 31.5022 30.1012 32.7381 29.4828C33.9299 30.1012 35.1659 30.8079 36.446 31.5146C37.682 32.2213 38.8738 32.9722 40.0656 33.7231C40.1097 35.0923 40.1539 36.5058 40.1539 37.9192C40.1539 39.3326 40.1097 40.746 40.0656 42.1153C38.8738 42.8662 37.682 43.6171 36.446 44.3238ZM28.3681 15.3043C30.0455 9.87149 31.8994 7.48633 32.7381 6.73544C33.621 7.48633 35.4308 9.87149 37.1081 15.3043C37.5937 16.8061 37.9909 18.3962 38.3441 20.1188C36.4901 20.8697 34.6362 21.7089 32.694 22.5923C30.7959 21.6648 28.8978 20.8256 27.0439 20.1188C27.4853 18.3962 27.8826 16.8061 28.3681 15.3043ZM10.9764 30.4104C7.13615 26.2142 5.94437 23.4316 5.76781 22.3273C6.25336 22.1506 7.22444 21.9298 8.76938 21.9298C11.462 21.9298 15.3906 22.5482 20.1137 24.0941C19.8489 26.0817 19.6282 28.1135 19.4516 30.2337C17.686 31.4263 16.0527 32.663 14.4636 33.8556C13.2277 32.7514 12.0358 31.5588 10.9764 30.4104ZM8.76938 53.9086C7.22444 53.9086 6.25336 53.6877 5.76781 53.5111C5.98851 52.4068 7.13615 49.6241 10.9764 45.428C12.0358 44.2796 13.2277 43.1312 14.5078 41.9386C16.0527 43.1754 17.7301 44.368 19.4957 45.5605C19.6723 47.6807 19.893 49.7125 20.1579 51.7001C15.3465 53.246 11.462 53.9086 8.76938 53.9086ZM37.1523 60.5782C35.4749 66.0111 33.6209 68.3962 32.7823 69.1471C31.8994 68.3962 30.0896 66.0111 28.4123 60.5782C27.9267 59.0764 27.5295 57.4863 27.1763 55.7637C29.0303 55.0128 30.8842 54.1736 32.8264 53.2902C34.7245 54.2178 36.6226 55.057 38.4765 55.7637C38.0351 57.4422 37.5937 59.0764 37.1523 60.5782ZM56.7069 53.9086C54.0143 53.9086 50.0857 53.2902 45.3625 51.7443C45.6274 49.7566 45.8481 47.7248 46.0247 45.6047C47.7903 44.4121 49.4235 43.1754 51.0126 41.9828C52.2927 43.1312 53.4845 44.3238 54.5439 45.4722C58.3842 49.6683 59.576 52.451 59.7526 53.5552C59.267 53.6877 58.296 53.9086 56.7069 53.9086Z" fill="#003B7C"/>
<path d="M32.7382 42.292C35.1516 42.292 37.1082 40.3342 37.1082 37.9192C37.1082 35.5042 35.1516 33.5464 32.7382 33.5464C30.3247 33.5464 28.3682 35.5042 28.3682 37.9192C28.3682 40.3342 30.3247 42.292 32.7382 42.292Z" fill="#003B7C"/>
</g>
<defs>
<clipPath id="clip0">
<rect width="75" height="75" fill="white"/>
</clipPath>
</defs>
</svg>
