<svg width="75" height="75" viewBox="0 0 75 75" fill="none" xmlns="http://www.w3.org/2000/svg">
<path d="M66.6813 0H8.31874C3.72154 0 0 3.76532 0 8.31874V66.6813C0 71.2785 3.76532 75 8.31874 75H66.6813C71.2785 75 75 71.2347 75 66.6813V8.31874C75 3.76532 71.2347 0 66.6813 0ZM41.7688 16.944L46.1909 12.5219L52.0578 18.3888L57.9247 12.5219L62.3468 16.944L56.4798 22.8109L62.3468 28.6778L57.9247 33.0998L52.0578 27.2767L46.1909 33.1436L41.7688 28.7215L47.6357 22.8546L41.7688 16.944ZM13.5289 19.6585H34.3695V25.9194H13.5289V19.6585ZM35.4203 54.2032H27.1016V62.5219H20.7968V54.2032H12.4781V47.9422H20.7968V39.6235H27.0578V47.9422H35.3765V54.2032H35.4203ZM62.5219 59.4133H41.6812V53.1524H62.5219V59.4133ZM62.5219 48.993H41.6812V42.7321H62.5219V48.993Z" fill="#003B7C"/>
</svg>
