<svg width="75" height="75" viewBox="0 0 75 75" fill="none" xmlns="http://www.w3.org/2000/svg">
<path d="M63.7485 17.1122C64.734 9.0204 64.062 2.91836 64.062 2.65306L63.7485 0L61.0606 0.176871C60.7918 0.176871 54.6096 0.574829 46.6803 2.96258C35.9734 6.19047 27.1929 11.5408 21.3243 18.4388C15.4557 25.3367 11.6031 34.7993 10.2591 45.7652C9.54235 51.4693 9.67674 56.1122 9.81114 58.4999L1.03064 69.4659C-0.313309 71.0577 -0.358108 73.2686 0.985846 74.3741C2.3298 75.4795 4.52492 75.0815 5.86888 73.4897L14.6494 62.5237C17.0685 62.2584 21.7275 61.5509 27.2825 59.9149C37.9894 56.687 46.7699 51.3367 52.6384 44.4387C58.507 37.5408 62.3597 28.0782 63.7485 17.1122ZM26.1626 22.4626C33.4647 13.8843 44.8883 10.0816 52.4593 8.40135L41.17 21.6666L41.842 16.8027C41.9764 15.8299 41.3044 15.0782 40.3637 15.1224C39.4229 15.1666 38.5269 15.9626 38.3925 16.9354L37.0934 26.4421L27.1481 38.1156L28.4473 28.4762C28.5817 27.5034 27.9097 26.7517 26.9689 26.7959C26.0282 26.8401 25.1322 27.636 24.9978 28.6088L23.0715 42.8911L16.6653 50.4081C17.0237 42.7584 18.8604 31.0408 26.1626 22.4626ZM21.5035 54.4319L35.1671 38.3809L48.6066 34.1802C49.5474 33.8707 50.2193 32.8979 50.0849 31.9693C49.9505 31.0408 49.0994 30.5544 48.1586 30.8197L39.1989 33.6054L57.2527 12.3809C56.8943 20.0306 55.0576 31.7483 47.7554 40.3707C40.4981 48.9931 29.0745 52.7959 21.5035 54.4319Z" fill="#FFB930"/>
</svg>
