<svg width="75" height="75" viewBox="0 0 75 75" fill="none" xmlns="http://www.w3.org/2000/svg">
<path d="M75 37.5444C75 27.1598 70.8308 17.7959 64.0006 11.0059C57.2147 4.21598 47.8563 0.0443787 37.5222 0C16.8096 0 0.0443524 16.7751 0 37.4556C0 47.8402 4.16915 57.2041 10.9994 63.9941C17.7853 70.784 27.1437 74.9556 37.4778 75C58.1904 75 75 58.2248 75 37.5444ZM61.2951 57.7367L49.2312 45.6213C54.7309 40.8728 61.5168 38.0325 68.7463 37.4112V37.4556C68.7463 45 66.1296 52.1006 61.2951 57.7367ZM41.7357 38.0769L61.916 17.9734C65.0207 21.8787 67.1496 26.4053 68.1254 31.2426C59.4766 31.997 51.3602 35.4586 44.8403 41.2278L41.7357 38.0769ZM37.3448 33.6834L33.8409 30.1775C39.6067 23.6538 43.0662 15.5769 43.8202 6.8787C48.8764 7.89941 53.5335 10.1627 57.5252 13.4911L37.3448 33.6834ZM32.9096 38.0769L13.4832 57.426C10.1568 53.4319 7.93913 48.7722 6.91902 43.713C15.2129 43.003 22.9746 39.8077 29.3614 34.4822L32.9096 38.0769ZM37.3004 42.5148L40.4495 45.7101C35.1272 52.1006 31.9338 59.8669 31.1798 68.1213C26.301 67.145 21.7771 65.0148 17.9184 61.8639L37.3004 42.5148ZM37.5666 6.2574H37.6109C36.9899 13.4911 34.1514 20.2367 29.4057 25.7396L17.3862 13.6686C22.8416 9.00887 29.8493 6.2574 37.5666 6.2574ZM13.0397 18.1509L24.9262 30.0888C19.6039 34.3935 13.1284 36.9675 6.29813 37.5444V37.5C6.29813 30.1775 8.8262 23.4763 13.0397 18.1509ZM37.4778 68.7426H37.4335C38.0101 61.9083 40.5826 55.4734 44.8847 50.1479L56.7711 62.0858C51.3158 66.3905 44.5742 68.7426 37.4778 68.7426Z" fill="#B4DA1C"/>
</svg>
