<svg width="63" height="66" viewBox="0 0 63 66" fill="none" xmlns="http://www.w3.org/2000/svg">
<path d="M62.75 13.3514L48.375 0.967285L44.3438 5.87604L58.7188 18.2602L62.75 13.3514ZM18.625 5.87604L14.625 0.967285L0.25 13.3194L4.28125 18.2281L18.625 5.87604ZM33.0625 20.6665H28.375V39.9165L43.2188 49.0602L45.5625 45.114L33.0625 37.5102V20.6665ZM31.5 7.83312C15.9688 7.83312 3.375 20.7627 3.375 36.7081C3.375 52.6535 15.9375 65.5831 31.5 65.5831C47.0313 65.5831 59.625 52.6535 59.625 36.7081C59.625 20.7627 47.0313 7.83312 31.5 7.83312ZM31.5 59.1664C19.4063 59.1664 9.625 49.1244 9.625 36.7081C9.625 24.2919 19.4063 14.2498 31.5 14.2498C43.5938 14.2498 53.375 24.2919 53.375 36.7081C53.375 49.1244 43.5938 59.1664 31.5 59.1664Z" fill="#003B7C"/>
</svg>
