<svg width="75" height="75" viewBox="0 0 75 75" fill="none" xmlns="http://www.w3.org/2000/svg">
<path d="M33.0347 0V25.4709H41.5684V46.1742C44.9115 48.6021 49.0464 50.0147 53.4893 50.0147H54.545C65.85 50.0147 74.9996 40.8328 74.9996 29.4879V0H33.0347ZM46.1872 10.6386C48.3426 10.6386 50.1462 12.4044 50.1462 14.6115C50.1462 16.7746 48.3866 18.5845 46.1872 18.5845C44.0318 18.5845 42.2283 16.8187 42.2283 14.6115C42.2283 12.4044 43.9878 10.6386 46.1872 10.6386ZM46.1872 24.8528C47.9907 24.8528 49.4423 26.3096 49.4423 28.1195C49.4423 30.6798 51.5098 32.7987 54.1051 32.7987C56.6564 32.7987 58.7679 30.7239 58.7679 28.1195C58.7679 26.3096 60.2195 24.8528 62.023 24.8528C63.8265 24.8528 65.2781 26.3096 65.2781 28.1195C65.2781 34.2996 60.3075 39.2878 54.1491 39.2878C47.9907 39.2878 43.02 34.2996 43.02 28.1195C42.9321 26.3096 44.3837 24.8528 46.1872 24.8528ZM61.935 18.5403C59.7796 18.5403 57.9761 16.7746 57.9761 14.5674C57.9761 12.4043 59.7356 10.5945 61.935 10.5945C64.1345 10.5945 65.894 12.3602 65.894 14.5674C65.894 16.7746 64.1345 18.5403 61.935 18.5403Z" fill="#E73445"/>
<path d="M0 24.941V55.5326C0 66.3036 8.70969 74.9999 19.3989 74.9999H22.61C33.3432 74.9999 42.0089 66.2594 42.0089 55.5326V24.941H0ZM35.9825 55.5326C35.9825 62.9487 30.0001 68.9522 22.61 68.9522H19.3989C12.0088 68.9522 6.0264 62.9487 6.0264 55.5326V30.9887H35.9825V55.5326Z" fill="#E73445"/>
<path d="M11.2607 60.5206C11.2607 62.198 12.6244 63.5224 14.252 63.5224C15.9235 63.5224 17.2432 62.1539 17.2432 60.5206C17.2432 58.4458 18.9147 56.7684 20.9822 56.7684C23.0496 56.7684 24.7212 58.4458 24.7212 60.5206C24.7212 62.198 26.0848 63.5224 27.7124 63.5224C29.34 63.5224 30.7036 62.1539 30.7036 60.5206C30.7036 55.1351 26.3488 50.7207 20.9382 50.7207C15.6156 50.7207 11.2607 55.0909 11.2607 60.5206Z" fill="#E73445"/>
<path d="M14.2526 45.335C16.2761 45.335 17.9036 43.7017 17.9036 41.6711C17.9036 39.6405 16.2761 38.0072 14.2526 38.0072C12.2291 38.0072 10.6016 39.6405 10.6016 41.6711C10.6016 43.7017 12.2731 45.335 14.2526 45.335Z" fill="#E73445"/>
<path d="M27.756 45.335C29.7795 45.335 31.407 43.7017 31.407 41.6711C31.407 39.6405 29.7795 38.0072 27.756 38.0072C25.7325 38.0072 24.105 39.6405 24.105 41.6711C24.105 43.7017 25.7325 45.335 27.756 45.335Z" fill="#E73445"/>
</svg>
