<svg width="75" height="75" viewBox="0 0 75 75" fill="none" xmlns="http://www.w3.org/2000/svg">
<g clip-path="url(#clip0)">
<path d="M50.4385 22.2798H45.3682V31.6327H50.4385C54.2302 31.6327 56.1701 29.868 56.1701 26.9563C56.126 24.0004 54.2302 22.2798 50.4385 22.2798Z" fill="#EF809A"/>
<path d="M69.9698 0.838501H4.98212C2.20449 0.838501 0 3.0885 0 5.8238V75.8385L14.9462 60.8385H69.9698C72.7474 60.8385 74.9519 58.5885 74.9519 55.8532V5.8238C74.9519 3.04438 72.7474 0.838501 69.9698 0.838501ZM33.9047 22.2797H25.3072V44.0738H19.0907V22.2797H10.4933V17.2062H33.9047V22.2797ZM56.2579 44.0738L51.0995 36.5738H50.7909H45.3679V44.0738H39.1514V17.2062H50.7909C57.9775 17.2062 62.4746 20.912 62.4746 26.9561C62.4746 30.9709 60.4465 33.9267 56.9634 35.4267L63.0036 44.0738H56.2579Z" fill="#EF809A"/>
</g>
<defs>
<clipPath id="clip0">
<rect width="75" height="75" fill="white"/>
</clipPath>
</defs>
</svg>
