<svg width="75" height="75" viewBox="0 0 75 75" fill="none" xmlns="http://www.w3.org/2000/svg">
<g clip-path="url(#clip0)">
<path d="M67.1804 13.7303C63.9875 7.38476 55.7392 12.0884 58.3556 -0.114502C52.4576 -0.0257533 47.7569 5.83165 47.89 12.9315C48.023 20.0314 52.8567 25.7557 58.7547 25.667C64.6527 25.5782 69.7081 18.7002 67.1804 13.7303ZM63.8988 19.2771C62.7015 21.2295 60.6172 22.5608 58.7104 22.5608C54.5419 22.6051 51.0829 18.3008 50.9942 12.8872C50.9498 9.2041 52.4576 5.96478 54.7636 4.27855C54.8966 9.51472 57.8678 11.2897 61.0163 12.6209C62.7458 13.3309 63.7215 13.819 64.431 15.1503C65.2292 16.7477 64.3423 18.5671 63.8988 19.2771Z" fill="#E73445"/>
<path d="M59.1979 17.5018C59.1979 17.5018 58.0893 17.3243 57.3797 16.6587C56.6259 15.9043 56.1824 14.7506 56.1824 14.7062C55.9163 13.9075 55.0294 13.4637 54.2312 13.73C53.433 13.9962 52.9895 14.8837 53.2556 15.6825C53.2999 15.86 53.9208 17.5906 55.2068 18.8774C56.6702 20.2974 58.5771 20.5636 58.7988 20.608C58.8875 20.608 58.9318 20.608 59.0205 20.608C59.7744 20.608 60.4396 20.0311 60.5283 19.2768C60.6613 18.3893 60.0405 17.6349 59.1979 17.5018Z" fill="#E73445"/>
<path d="M58.7992 28.8615C56.6263 28.9058 54.5421 28.1071 52.8569 26.7759L53.4334 64.4497C53.4778 68.3102 56.0498 74.7001 59.0653 74.6558C62.0808 74.6114 64.4755 68.1327 64.4311 64.2722L63.8989 27.0421C62.3912 28.1515 60.6617 28.8171 58.7992 28.8615Z" fill="#E73445"/>
<path d="M39.5083 20.9642L33.5659 11.1575H32.0138L31.393 8.58379H35.0294C36.4928 8.58379 37.6458 7.38568 37.6458 5.9657V2.28263C37.6458 0.818283 36.4484 -0.335449 35.0294 -0.335449H18.0006C16.5372 -0.335449 15.3842 0.862657 15.3842 2.28263V5.92133C15.3842 7.38568 16.5815 8.53941 18.0006 8.53941H21.637L21.0161 11.1131H19.464L13.4774 20.9642L8.68799 74.9678H44.3863L39.5083 20.9642ZM21.1935 14.2637H31.7921L35.872 20.9642H17.1137L21.1935 14.2637ZM15.4729 68.7553L19.198 27.1766H33.8764L37.6014 68.7553H15.4729Z" fill="#E73445"/>
</g>
<defs>
<clipPath id="clip0">
<rect width="75" height="75" fill="white"/>
</clipPath>
</defs>
</svg>
