<svg width="75" height="75" viewBox="0 0 75 75" fill="none" xmlns="http://www.w3.org/2000/svg">
<path d="M12.4558 18.6205H68.7279V21.9196H74.9558V18.4469C74.9558 15.1479 72.2173 12.5 68.9046 12.5H12.4558C9.01058 12.5 6.2279 15.2781 6.2279 18.6205V55.474H0V61.5945H43.7279V55.474H12.5V18.6205H12.4558ZM71.8639 27.5626H53.136C51.4134 27.5626 50 28.9517 50 30.6446V58.556C50 60.2489 51.4134 61.6379 53.136 61.6379H71.8639C73.5865 61.6379 75 60.2489 75 58.556V30.6446C74.9558 28.9517 73.5424 27.5626 71.8639 27.5626ZM68.7279 55.474H56.2279V33.7265H68.7279V55.474Z" fill="#FFB930"/>
</svg>
