<svg width="75" height="75" viewBox="0 0 75 75" fill="none" xmlns="http://www.w3.org/2000/svg">
<rect width="75" height="75" fill="white"/>
<path d="M15.625 73.5035C15.625 73.9877 15.6712 74.5158 15.7174 75H22.2291C22.1367 74.5158 22.0905 73.9877 22.0905 73.5035C22.0905 72.4472 22.2752 71.4349 22.6909 70.4225H51.3239C51.7395 71.4349 51.9704 72.4912 51.9704 73.5035C51.9704 73.9877 51.9243 74.5158 51.8319 75H58.3898C58.436 74.5158 58.4821 74.0317 58.4821 73.5035C58.4821 66.7253 53.633 60.5634 44.8122 56.0739L43.75 55.5458L44.8122 55.0176C53.633 50.5282 58.4821 44.3662 58.4821 37.588C58.4821 30.8099 53.633 24.6479 44.8122 20.1584L43.75 19.6303L44.8122 19.1021C53.633 14.6127 58.4821 8.4507 58.4821 1.67254C58.4821 1.10035 58.436 0.528169 58.3898 0H51.8319C51.9704 0.572183 52.0166 1.14437 52.0166 1.67254C52.0166 2.55282 51.8319 3.4331 51.5548 4.31338H22.5523C22.2752 3.4331 22.0905 2.55282 22.0905 1.67254C22.0905 1.10035 22.1367 0.528169 22.2752 0H15.7174C15.6712 0.572183 15.625 1.10035 15.625 1.67254C15.625 8.31866 20.2432 14.4366 28.6022 18.838L30.0339 19.5863L29.9415 19.6303L30.0339 19.6743L28.6022 20.4225C20.2432 24.8239 15.625 30.9419 15.625 37.588C15.625 44.2342 20.2432 50.3521 28.6022 54.7535L30.0339 55.5018L29.9415 55.5458L30.0339 55.5898L28.6022 56.338C20.2432 60.7834 15.625 66.8574 15.625 73.5035ZM24.1687 7.35035H49.7999C48.045 9.63908 45.3202 11.7958 41.718 13.6004L36.8688 16.0651L31.7426 13.3803C28.3713 11.6197 25.7851 9.55105 24.1687 7.35035ZM31.7426 25.7923L36.8688 23.1074L41.718 25.5722C45.0431 27.2447 47.5831 29.2254 49.3381 31.294H24.5844C26.2469 29.3134 28.6484 27.4648 31.7426 25.7923ZM22.0905 37.588C22.0905 36.5317 22.3214 35.4313 22.7371 34.375H51.2777C51.7395 35.4313 51.9704 36.4877 51.9704 37.588C51.9704 38.6444 51.7395 39.7447 51.2777 40.8011H22.7371C22.3214 39.7447 22.0905 38.6444 22.0905 37.588ZM24.5844 43.838H49.3381C47.5831 45.9067 44.9969 47.8873 41.718 49.5599L36.8688 52.0246L31.7426 49.3398C28.6484 47.7113 26.2469 45.8627 24.5844 43.838ZM31.7426 61.7518L36.8688 59.0669L41.718 61.5317C45.0893 63.2482 47.6755 65.2289 49.4304 67.3415H24.492C26.1546 65.3169 28.556 63.4243 31.7426 61.7518Z" fill="#003B7C"/>
</svg>
