<svg width="75" height="75" viewBox="0 0 75 75" fill="none" xmlns="http://www.w3.org/2000/svg">
<g clip-path="url(#clip0)">
<path d="M34.6605 38.8894C34.6605 37.4344 34.0861 36.0675 33.0696 35.0094L17.8661 19.7979C16.6728 18.6075 14.6841 18.6075 13.4908 19.7979C12.2975 20.9884 12.2975 22.9725 13.4908 24.1629L22.7719 33.4662L23.2581 33.9953C23.921 34.6566 24.0536 35.7589 23.4791 36.5085C22.8161 37.3903 21.5786 37.4785 20.7389 36.773L6.15422 23.8984V3.21966C6.15422 1.5442 4.82843 0.0450972 3.14899 0.00100609C1.38115 -0.043085 -0.0332031 1.36783 -0.0332031 3.08738V31.6143C-0.0332031 33.5103 0.762344 35.3621 2.08822 36.6407L18.1756 52.249C18.7501 52.8222 19.1036 53.6158 19.1036 54.4094V75H34.6605V38.8894Z" fill="#7F6FEE"/>
<path d="M40.2739 38.8894C40.2739 37.4344 40.8484 36.0675 41.8649 35.0094L57.0683 19.7979C58.2616 18.6075 60.2504 18.6075 61.4437 19.7979C62.6369 20.9884 62.6369 22.9725 61.4437 24.1629L52.1625 33.4662L51.6763 33.9953C51.0134 34.6566 50.8808 35.7589 51.4554 36.5085C52.1183 37.3903 53.3559 37.4785 54.1956 36.773L68.7802 23.8984V3.21966C68.7802 1.5442 70.106 0.0450972 71.7854 0.00100609C73.5533 -0.043085 74.9676 1.36783 74.9676 3.08738V31.6143C74.9676 33.5103 74.1721 35.3621 72.8462 36.6407L56.7589 52.249C56.1843 52.8222 55.8308 53.6158 55.8308 54.4094V75H40.2739V38.8894Z" fill="#7F6FEE"/>
</g>
<defs>
<clipPath id="clip0">
<rect width="75" height="75" fill="white"/>
</clipPath>
</defs>
</svg>
