<svg width="74" height="74" viewBox="0 0 74 74" fill="none" xmlns="http://www.w3.org/2000/svg">
<path d="M13.9395 23.2919H10.1919V34.8066H13.9395C17.5107 34.8066 19.8915 32.6889 19.8915 29.0272C19.8915 25.4536 17.5107 23.2919 13.9395 23.2919Z" fill="#EC4A70"/>
<path d="M70.4619 -1.1051H5.4743C2.69667 -1.1051 0.492188 1.1449 0.492188 3.88019V73.8949L15.4385 58.8949H70.4619C73.2395 58.8949 75.444 56.6449 75.444 53.9096V3.88019C75.444 1.1449 73.1954 -1.1051 70.4619 -1.1051ZM14.204 39.5714H4.28388V18.5714H14.204C21.1701 18.5714 25.9317 22.6302 25.9317 29.0714C25.8876 35.5125 21.126 39.5714 14.204 39.5714ZM43.7879 39.5714L42.1566 35.5125H33.2946L31.6633 39.5714H25.6231L34.8818 18.5714H40.7457L50.0486 39.5714H43.7879ZM71.3437 39.5714H52.5617V35.8214L63.1431 23.2478H52.8262V18.5714H70.9028V22.2773L60.3214 34.8508H71.3437V39.5714Z" fill="#EC4A70"/>
<path d="M35.0137 31.1008H40.3926L37.7031 24.3949L35.0137 31.1008Z" fill="#EC4A70"/>
</svg>
