<svg width="75" height="75" viewBox="0 0 75 75" fill="none" xmlns="http://www.w3.org/2000/svg">
<path d="M22.7659 21.4855H17.0747V38.1619H22.7659C28.1041 38.1619 31.5894 34.9855 31.5894 29.8237C31.5894 24.6619 28.1041 21.4855 22.7659 21.4855Z" fill="#EC4A70"/>
<path d="M69.9706 0H4.98529C2.20588 0 0 2.25 0 4.98529V75L14.9559 60H70.0147C72.7941 60 75 57.75 75 55.0147V4.98529C75 2.25 72.75 0 69.9706 0ZM23.0735 43.2353H10.8529V16.3676H23.0735C31.8529 16.3676 37.8971 21.6618 37.8971 29.8235C37.8971 37.9412 31.8529 43.2353 23.0735 43.2353ZM63.3529 43.2353H42.5735V16.3676H62.8676V21.3529H48.75V27.2206H61.2353V32.0735H48.75V38.25H63.3529V43.2353Z" fill="#EC4A70"/>
</svg>
