<svg width="75" height="75" viewBox="0 0 75 75" fill="none" xmlns="http://www.w3.org/2000/svg">
<path d="M67.6004 0H4.81341C2.12984 0 0 2.25 0 4.98529V75L14.4402 60H67.6004C70.284 60 72.4138 57.75 72.4138 55.0147V4.98529C72.4138 2.20588 70.2414 0 67.6004 0ZM33.14 43.2353H13.0345V16.3676H32.6288V21.3529H18.998V27.1765H31.0528V32.0294H18.998V38.25H33.0973V43.2353H33.14ZM49.1988 43.7206C45.0669 43.7206 40.9351 42.4412 38.6349 40.6324L40.6795 35.9559C42.8519 37.5882 46.1319 38.7794 49.2414 38.7794C52.8195 38.7794 54.2252 37.5441 54.2252 35.9118C54.2252 30.8824 39.1461 34.3235 39.1461 24.3529C39.1461 19.7647 42.7242 15.9706 50.0933 15.9706C53.3733 15.9706 56.6957 16.7647 59.0811 18.3529L57.2496 23.0735C54.8216 21.6618 52.3509 20.9559 50.0507 20.9559C46.4726 20.9559 45.1096 22.3235 45.1096 24.0441C45.1096 28.9853 60.1887 25.5882 60.1887 35.4265C60.2313 39.8824 56.6531 43.7206 49.1988 43.7206Z" fill="#EF809A"/>
</svg>
