<svg width="70" height="55" viewBox="0 0 70 55" fill="none" xmlns="http://www.w3.org/2000/svg">
<path d="M52.4165 0.4375C46.2415 0.4375 39.5915 1.72083 34.9998 5.25C30.4082 1.72083 23.7582 0.4375 17.5832 0.4375C11.4082 0.4375 4.75817 1.72083 0.166504 5.25V52.2521C0.166504 54.3375 2.47817 53.6958 2.5415 53.6958C6.8165 51.6104 12.9915 50.1667 17.5832 50.1667C23.7582 50.1667 30.4082 51.45 34.9998 54.9792C39.2748 52.2521 47.0332 50.1667 52.4165 50.1667C57.6415 50.1667 63.0248 51.1292 67.4582 53.5354C68.7565 54.2092 69.8332 52.9258 69.8332 52.0917V5.25C65.1148 1.65667 58.3382 0.4375 52.4165 0.4375ZM63.4998 45.3542C60.0165 44.2313 56.2165 43.75 52.4165 43.75C47.0332 43.75 39.2748 45.8354 34.9998 48.5625V11.6667C39.2748 8.93958 47.0332 6.85417 52.4165 6.85417C56.2165 6.85417 60.0165 7.33542 63.4998 8.45833V45.3542Z" fill="#003B7C"/>
</svg>
