<svg width="75" height="75" viewBox="0 0 75 75" fill="none" xmlns="http://www.w3.org/2000/svg">
<path d="M61.1938 37.9619V6.15836H64.4657V0H37.9368V6.15836H41.3855V37.9179C38.9537 42.1847 31.9678 57.1408 27.6347 66.5982C25.9103 70.3372 28.6516 74.6481 32.8078 74.6481H69.2851C73.3971 74.6481 76.1827 70.4252 74.5025 66.6862C70.3021 57.2287 63.5814 42.1848 61.1938 37.9619ZM45.9397 42.9325L47.5314 39.5894V6.3783H54.9595V11.6129H50.0959V14.6921H54.9595V21.2903H50.0959V24.3695H54.9595V30.9677H50.0959V34.0469H54.9595V39.6334L56.6397 42.9765H45.9397V42.9325Z" fill="#003B7C"/>
<path d="M26.529 6.15836V0H23.1686H3.36033H0V6.15836H3.36033V67.1261L3.40455 67.346C3.75827 69.9853 6.27851 75 13.3087 75C20.3389 75 22.8591 69.9853 23.2128 67.346L23.257 67.1261V6.15836H26.529ZM17.0227 11.6129H12.2033V14.6921H17.0227V21.2903H12.2033V24.3695H17.0227V30.9677H12.2033V34.0469H17.0227V42.9325H9.59464V6.15836H17.0227V11.6129Z" fill="#003B7C"/>
</svg>
