<svg width="75" height="75" viewBox="0 0 75 75" fill="none" xmlns="http://www.w3.org/2000/svg">
<g clip-path="url(#clip0)">
<path d="M59.1379 14.4291C55.9579 8.10908 47.7427 12.7938 50.3486 0.640015C44.4743 0.728406 39.7926 6.56223 39.9251 13.6335C40.0576 20.7048 44.8719 26.4061 50.7461 26.3177C56.6204 26.2293 61.6554 19.379 59.1379 14.4291ZM55.8695 19.9535C54.677 21.8981 52.6011 23.224 50.702 23.224C46.5502 23.2682 43.1052 18.9812 43.0168 13.5893C42.9727 9.9211 44.4743 6.69482 46.771 5.01538C46.9035 10.2305 49.8628 11.9983 52.9986 13.3242C54.7212 14.0313 55.6929 14.5174 56.3996 15.8433C57.1946 17.4344 56.3112 19.2464 55.8695 19.9535Z" fill="#E73445"/>
<path d="M51.1888 18.1859C51.1888 18.1859 50.0846 18.0091 49.378 17.3462C48.6271 16.5949 48.1854 15.4458 48.1854 15.4016C47.9204 14.606 47.0371 14.1641 46.2421 14.4293C45.4471 14.6944 45.0054 15.5784 45.2704 16.3739C45.3146 16.5507 45.9329 18.2743 47.2138 19.556C48.6713 20.9702 50.5705 21.2354 50.7913 21.2796C50.8796 21.2796 50.9238 21.2796 51.0121 21.2796C51.763 21.2796 52.4255 20.705 52.5138 19.9537C52.6463 19.0698 52.028 18.3185 51.1888 18.1859Z" fill="#E73445"/>
<path d="M50.7914 29.4998C48.6272 29.544 46.5514 28.7485 44.873 27.4226L45.4472 64.9447C45.4914 68.7897 48.0531 75.1539 51.0564 75.1097C54.0598 75.0655 56.4448 68.6129 56.4006 64.7679L55.8706 27.6878C54.3689 28.7927 52.6464 29.4556 50.7914 29.4998Z" fill="#E73445"/>
<path d="M31.578 21.6331L25.6596 11.8659H24.1138L23.4955 9.30251H27.1172C28.5747 9.30251 29.723 8.10923 29.723 6.69497V3.02673C29.723 1.56828 28.5305 0.419189 27.1172 0.419189H10.1569C8.69943 0.419189 7.55107 1.61247 7.55107 3.02673V6.65077C7.55107 8.10923 8.7436 9.25832 10.1569 9.25832H13.7787L13.1603 11.8217H11.6145L5.65191 21.6331L0.881836 75.4192H36.4364L31.578 21.6331ZM13.337 14.9596H23.8929L27.9563 21.6331H9.2736L13.337 14.9596ZM7.63944 69.2318L11.3495 27.8205H25.9688L29.6789 69.2318H7.63944Z" fill="#E73445"/>
</g>
<defs>
<clipPath id="clip0">
<rect width="75" height="75" fill="white"/>
</clipPath>
</defs>
</svg>
